<svg width="273" height="234" viewBox="0 0 273 234" fill="none" xmlns="http://www.w3.org/2000/svg">
<path d="M272.968 152.322C272.846 151.469 272.724 150.616 272.602 149.763C261.82 149.884 251.038 150.25 240.256 150.25C238.262 150.25 237.53 152.24 238.059 153.662C249.695 153.378 261.332 152.809 272.968 152.322Z" fill="#BBD0FF"/>
<path d="M255.147 163.451C255.188 162.598 255.188 161.745 255.147 160.892H235.984C234.112 160.892 233.38 162.558 233.705 163.979C240.826 165.32 247.987 163.939 255.147 163.451Z" fill="#BBD0FF"/>
<path d="M230.857 171.006C230.41 172.469 231.142 174.256 233.095 174.093C238.222 173.687 243.511 174.256 248.678 174.378C248.8 173.322 248.882 172.266 248.841 171.169C242.819 171.291 236.838 170.966 230.857 171.006Z" fill="#BBD0FF"/>
<path d="M110.831 46.4683C114.086 41.7971 117.87 37.6133 122.061 33.7545C114.493 29.5708 106.315 26.0369 97.5265 25.8744C91.4235 25.7526 85.4425 26.5649 79.5429 27.8241C79.4615 27.8648 79.3802 27.9054 79.3395 27.946C72.382 29.5708 65.7094 32.739 59.7691 37.5727C57.1651 39.6849 54.4391 41.7565 52.2827 44.3561C52.0793 44.5186 51.9165 44.6811 51.7538 44.8435C51.0621 45.7372 50.4518 46.6714 49.8415 47.6056C47.2375 51.6675 44.9591 55.9732 43.0061 60.4006C41.0531 64.9094 41.0531 69.6618 40.2394 74.333C40.7683 74.333 41.3379 74.333 41.8669 74.3736C43.413 70.5554 44.4708 66.6154 46.3831 62.9596C47.4003 61.0505 48.6616 59.2633 50.0449 57.6385C51.3876 56.2575 52.8523 54.9171 54.3984 53.7391C57.1651 51.5863 60.1353 49.6366 63.2682 48.0524C71.8938 43.3812 81.9841 41.594 92.4813 43.4219C93.3765 43.5843 94.3123 43.7874 95.2074 43.9905C99.8457 44.9654 104.321 46.5902 108.105 49.2304C108.919 48.2555 109.855 47.3619 110.831 46.4683Z" fill="#BBD0FF"/>
<path d="M231.997 171.981C235.74 165.238 239.483 158.536 243.267 151.834C242.901 147.325 243.023 142.776 242.25 138.308C242.209 138.308 242.168 138.308 242.168 138.308C242.616 135.708 238.344 134.733 237.327 137.496C235.699 141.842 233.014 145.701 230.735 149.722C228.457 153.743 226.829 158.13 224.632 162.192C222.435 166.294 219.669 170.113 216.983 173.89C214.542 177.343 213.525 181.567 211.328 185.142C211.287 185.223 211.246 185.304 211.206 185.385C206.364 185.751 201.319 185.548 196.599 185.589C189.194 185.629 181.789 185.548 174.384 185.426C171.332 185.385 168.281 185.629 165.352 185.182C149.768 185.101 134.267 185.467 118.684 186.035C114.167 185.751 109.692 185.548 105.176 185.426C100.008 185.304 94.8818 185.629 89.7552 186.076C87.8836 185.995 86.012 185.873 84.1404 185.751C79.909 185.467 75.6776 185.223 71.4461 185.223C67.9471 185.223 64.4887 184.857 60.9896 184.817C60.9896 184.614 61.0303 184.37 61.1523 184.126C62.4136 181.364 64.7328 178.683 66.7265 176.368C69.8187 172.753 72.9515 169.422 75.7183 165.563C81.984 156.79 89.4297 148.585 94.8411 139.283C95.0445 138.958 95.1259 138.633 95.1666 138.308C93.295 138.308 91.4234 138.267 89.5518 138.308C86.3375 143.548 82.4723 148.341 78.5663 153.175C74.9452 157.683 71.8937 162.517 68.3539 167.107C67.4181 168.285 65.75 169.991 63.8784 171.941C63.8377 172.062 63.797 172.225 63.6749 172.347C61.3151 175.881 58.7111 179.211 56.0665 182.542V182.583C56.0665 182.583 56.0665 182.583 56.0258 182.583C55.5376 183.233 55.0086 183.842 54.5204 184.492C54.5204 184.614 54.5204 184.695 54.5204 184.817C54.8459 187.985 55.4969 190.95 55.5782 194.159C55.6189 195.053 55.7817 195.825 56.1885 196.515C60.4607 196.515 64.6514 197.165 68.9642 197.327C73.0736 197.49 77.183 197.571 81.2517 197.977C94.1901 197.774 107.129 197.246 120.067 196.962C126.089 197.124 132.11 197.287 138.132 197.327C149.321 197.409 160.55 196.596 171.699 197.084C182.888 197.571 194.199 197.937 205.347 196.556C207.34 196.556 209.375 196.556 211.368 196.637C211.613 196.718 211.857 196.759 212.182 196.718C212.874 196.718 213.525 196.678 214.216 196.596C214.99 196.556 215.722 196.515 216.454 196.434C217.105 196.393 217.756 196.353 218.448 196.312C223.493 188.554 227.562 180.024 231.997 171.981Z" fill="#88A7FF"/>
<path d="M240.948 53.211C239.971 53.1704 238.995 53.1297 237.978 53.0891C228.294 53.5359 218.57 53.6984 208.846 53.739C201.888 53.7796 194.89 53.8609 187.933 53.8609C185.492 53.8609 183.05 53.9827 180.568 54.1046C176.052 54.4295 171.536 54.7545 167.02 54.8763C161.283 55.0388 155.668 54.7139 149.931 54.3889C144.479 54.064 139.068 54.592 133.656 54.7545C132.477 56.1355 132.924 58.329 133.494 60.3193C133.656 60.8067 133.778 61.3348 133.941 61.8628C166.654 61.8222 199.325 61.5379 232.037 61.5379C231.915 75.389 233.38 89.3213 233.339 103.172C233.339 109.671 233.665 116.252 233.502 122.751C233.421 125.31 233.014 128.275 233.95 130.712C233.136 130.956 232.2 130.996 231.305 130.915C230.084 130.915 228.864 130.834 227.725 130.915C227.277 130.956 226.951 130.834 226.748 130.59C212.508 130.59 198.267 130.672 184.027 130.753C176.744 130.793 169.461 130.753 162.178 130.915C156.929 131.037 151.681 131.281 146.432 130.915C131.581 131.606 116.731 132.215 101.88 131.849C101.677 131.849 101.514 131.809 101.351 131.728C99.9677 131.809 98.5843 131.809 97.1603 131.606C96.5093 131.525 96.1024 130.793 96.0617 130.184C95.6142 123.116 95.9804 116.008 95.4514 108.94C95.0039 102.888 94.475 96.8358 94.3122 90.7836C92.1965 90.9461 90.1215 91.0273 88.0057 91.0273C89.0229 102.685 88.7381 114.546 88.4533 126.325C88.5347 127.625 88.616 128.884 88.6974 130.225C88.8602 132.824 89.2263 135.383 89.3891 137.942C91.0573 138.958 92.9289 139.526 94.9632 139.851C96.9162 139.73 98.9505 139.283 100.659 139.039C105.989 138.349 111.563 138.836 116.934 138.795C127.96 138.714 138.946 138.227 149.972 138.227C172.472 138.227 194.972 138.47 217.512 138.47C222.273 138.47 227.033 138.389 231.793 138.511C235.333 138.592 238.791 139.039 242.29 138.308C242.331 109.915 241.151 81.5631 240.948 53.211Z" fill="#335FFF"/>
<path d="M123.159 31.4392C113.028 40.4566 102.572 49.1085 92.4405 58.1259C86.012 63.8532 79.9904 70.6366 73.3991 76.4858C73.3177 76.6076 73.2363 76.7701 73.1143 76.8919C71.0392 78.8823 69.0049 80.8726 67.0112 82.9036C71.6089 82.9848 76.2065 83.1879 80.8041 83.3098C80.9261 83.1473 81.0889 82.9442 81.2516 82.7817C83.3267 78.801 86.7444 75.6328 89.7552 72.3426C89.8773 72.2208 89.9993 72.0583 90.1214 71.9364C91.0572 70.596 92.0337 69.2556 93.0915 67.9964C96.1837 64.3 99.2759 60.5631 102.409 56.9074C103.345 55.9325 104.28 54.9577 105.216 53.9828C106.966 52.0737 108.675 50.0834 110.424 48.1743C115.062 42.7719 119.741 37.329 124.298 31.8454C123.932 31.6829 123.525 31.5611 123.159 31.4392Z" fill="#335FFF"/>
<path d="M122.508 112.434C121.043 112.352 119.538 112.352 118.073 112.19C118.033 114.952 118.033 117.674 117.992 120.436C120.677 120.842 123.403 120.842 126.17 120.842C126.211 118.08 126.373 115.318 126.211 112.596C125.031 112.596 123.769 112.515 122.508 112.434Z" fill="#88A7FF"/>
<path d="M141.224 85.0564H133.494C133.575 86.9249 133.534 88.7934 133.453 90.6618C133.9 97.6889 133.738 104.838 133.697 111.906C133.941 115.074 134.185 118.242 134.47 121.41C137.033 121.614 139.637 121.451 142.201 121.41C142.73 109.265 141.509 97.2015 141.224 85.0564Z" fill="#88A7FF"/>
<path d="M154.041 97.567C154.366 101.345 153.959 105 153.756 108.859C153.512 113.083 153.512 117.348 153.512 121.573C156.034 121.654 158.597 121.776 161.12 121.898V97.4858C158.76 97.6076 156.4 97.567 154.041 97.567Z" fill="#88A7FF"/>
<path d="M218.489 83.066C214.338 83.391 210.188 83.4722 206.038 83.4722C204.452 86.2749 202.255 88.7527 199.935 91.1492C199.447 91.7179 198.918 92.3272 198.43 92.8959C195.541 97.1202 191.879 100.979 188.828 104.919C185.532 109.265 181.87 113.246 178.005 117.024C178.046 117.024 178.046 117.024 178.087 117.024C178.697 116.942 179.266 116.82 179.836 116.658C178.86 117.714 178.005 118.851 177.436 120.07C177.232 120.557 177.151 121.004 177.232 121.451C178.86 121.37 180.528 121.532 182.155 121.695C183.864 118.892 187.404 116.374 189.642 114.261C190.699 113.246 191.798 112.271 192.897 111.337C200.505 101.263 211.043 93.7895 218.651 83.7566C218.57 83.4722 218.529 83.2691 218.489 83.066Z" fill="#E3EDFF"/>
<path d="M182.196 121.898C182.155 104.554 181.423 87.2092 181.341 69.8648C179.185 69.8648 177.029 69.8648 174.872 69.9054C174.384 69.9054 173.855 69.9054 173.367 69.9054C173.285 87.1685 173.652 104.391 173.448 121.614C176.378 121.695 179.307 121.776 182.196 121.898Z" fill="#88A7FF"/>
<path d="M218.651 43.5843C218.529 40.9034 218.448 38.2632 218.57 35.6229H228.904C225.975 31.8454 223.29 27.9053 220.604 23.9653C218.041 20.1877 215.152 16.6132 212.996 12.6732C210.432 15.9227 207.788 19.1316 205.103 22.3405C202.824 25.0214 200.586 27.7834 198.308 30.4643C196.802 32.1703 194.931 33.7951 193.588 35.6229H205.55C205.469 43.2187 205.143 50.8145 205.062 58.4102C205.631 66.6965 205.916 75.0234 205.998 83.3503H218.448C218.448 78.3542 218.488 73.3174 218.57 68.3213C217.227 60.0756 217.675 51.8299 218.651 43.5843Z" fill="#FF5F5F"/>
<path d="M100.741 146.716C99.9268 148.178 98.991 149.56 98.0552 150.981C100.212 151.428 102.409 151.55 104.565 151.55C105.42 150.169 106.152 148.707 106.762 147.204C106.721 147.122 106.64 147.041 106.599 146.96C104.687 146.879 102.693 146.797 100.741 146.716Z" fill="#335FFF"/>
<path d="M99.0723 159.999C99.0316 159.877 98.9503 159.796 98.9096 159.674C96.9973 159.511 95.085 159.227 93.2134 159.105C92.3997 160.608 91.4639 161.989 90.5281 163.411C92.6438 163.654 94.7595 163.857 96.8752 163.979C97.6483 162.72 98.462 161.461 99.1537 160.161C99.1537 160.12 99.113 160.039 99.0723 159.999Z" fill="#335FFF"/>
<path d="M91.5453 172.428C90.8943 172.306 90.284 172.225 89.633 172.225C87.9649 172.184 86.3374 172.266 84.6692 172.062C83.7334 173.403 82.8383 174.743 81.9839 176.124C82.1059 176.287 82.228 176.449 82.3501 176.571C82.3908 176.652 82.4721 176.693 82.5535 176.734C84.832 176.815 87.0697 176.937 89.3075 176.937C90.0806 175.556 90.935 174.215 91.8301 172.915C91.7487 172.753 91.6674 172.591 91.586 172.469L91.5453 172.428Z" fill="#335FFF"/>
<path d="M116.446 147.61C115.632 149.072 114.696 150.453 113.76 151.875C115.917 152.322 118.114 152.443 120.27 152.443C121.125 151.062 121.857 149.6 122.467 148.097C122.427 148.016 122.345 147.935 122.305 147.853C120.352 147.732 118.399 147.691 116.446 147.61Z" fill="#335FFF"/>
<path d="M114.778 160.892C114.737 160.77 114.655 160.689 114.615 160.567C112.702 160.405 110.79 160.12 108.919 159.999C108.105 161.502 107.169 162.883 106.233 164.304C108.349 164.548 110.465 164.751 112.58 164.873C113.353 163.614 114.167 162.355 114.859 161.055C114.818 160.973 114.818 160.933 114.778 160.892Z" fill="#335FFF"/>
<path d="M107.25 173.281C106.6 173.159 105.989 173.078 105.338 173.078C103.67 173.037 102.043 173.119 100.374 172.915C99.4386 174.256 98.5435 175.596 97.6891 176.977C97.8111 177.14 97.9332 177.302 98.0553 177.424C98.096 177.505 98.1773 177.546 98.2587 177.587C100.537 177.668 102.775 177.79 105.013 177.79C105.786 176.409 106.64 175.068 107.535 173.768C107.454 173.606 107.373 173.444 107.291 173.322C107.25 173.362 107.25 173.322 107.25 173.281Z" fill="#335FFF"/>
<path d="M132.151 146.96C131.337 148.422 130.401 149.803 129.466 151.225C131.622 151.672 133.819 151.794 135.975 151.794C136.83 150.413 137.562 148.95 138.173 147.447C138.132 147.366 138.051 147.285 138.01 147.204C136.057 147.122 134.104 147.041 132.151 146.96Z" fill="#335FFF"/>
<path d="M130.483 160.242C130.442 160.121 130.361 160.039 130.32 159.917C128.408 159.755 126.495 159.471 124.624 159.349C123.81 160.852 122.874 162.233 121.938 163.654C124.054 163.898 126.17 164.101 128.286 164.223C129.059 162.964 129.872 161.705 130.564 160.405C130.523 160.364 130.523 160.324 130.483 160.242Z" fill="#335FFF"/>
<path d="M122.956 172.672C122.305 172.55 121.694 172.469 121.043 172.469C119.375 172.428 117.748 172.509 116.08 172.306C115.144 173.647 114.249 174.987 113.394 176.368C113.516 176.531 113.638 176.693 113.76 176.815C113.801 176.896 113.882 176.937 113.964 176.977C116.242 177.059 118.48 177.18 120.718 177.18C121.491 175.799 122.345 174.459 123.24 173.159C123.159 172.997 123.078 172.834 122.996 172.712C122.956 172.712 122.956 172.672 122.956 172.672Z" fill="#335FFF"/>
<path d="M147.856 147.082C147.042 148.544 146.106 149.925 145.171 151.347C147.327 151.794 149.524 151.915 151.68 151.915C152.535 150.534 153.267 149.072 153.878 147.569C153.837 147.488 153.755 147.407 153.715 147.325C151.762 147.244 149.809 147.163 147.856 147.082Z" fill="#335FFF"/>
<path d="M146.188 160.364C146.147 160.242 146.066 160.161 146.025 160.039C144.113 159.877 142.2 159.592 140.329 159.471C139.515 160.974 138.579 162.355 137.644 163.776C139.759 164.02 141.875 164.223 143.991 164.345C144.764 163.086 145.578 161.827 146.269 160.527C146.228 160.486 146.228 160.445 146.188 160.364Z" fill="#335FFF"/>
<path d="M138.62 172.794C137.969 172.672 137.359 172.591 136.708 172.591C135.04 172.55 133.412 172.631 131.744 172.428C130.808 173.769 129.913 175.109 129.059 176.49C129.181 176.652 129.303 176.815 129.425 176.937C129.465 177.018 129.547 177.059 129.628 177.099C131.907 177.181 134.144 177.302 136.382 177.302C137.155 175.921 138.01 174.581 138.905 173.281C138.823 173.119 138.742 172.956 138.661 172.834C138.661 172.834 138.661 172.834 138.62 172.794Z" fill="#335FFF"/>
<path d="M163.561 147.244C162.747 148.707 161.812 150.088 160.876 151.509C163.032 151.956 165.229 152.078 167.386 152.078C168.24 150.697 168.972 149.235 169.583 147.732C169.542 147.65 169.461 147.569 169.42 147.488C167.467 147.366 165.514 147.285 163.561 147.244Z" fill="#335FFF"/>
<path d="M161.893 160.527C161.852 160.405 161.771 160.324 161.73 160.202C159.818 160.039 157.906 159.755 156.034 159.633C155.22 161.136 154.284 162.517 153.349 163.939C155.464 164.182 157.58 164.386 159.696 164.507C160.469 163.248 161.283 161.989 161.974 160.689C161.934 160.608 161.934 160.567 161.893 160.527Z" fill="#335FFF"/>
<path d="M154.325 172.915C153.674 172.794 153.064 172.712 152.413 172.712C150.745 172.672 149.117 172.753 147.449 172.55C146.513 173.89 145.618 175.231 144.764 176.612C144.886 176.774 145.008 176.937 145.13 177.059C145.171 177.14 145.252 177.18 145.333 177.221C147.571 177.302 149.85 177.424 152.087 177.424C152.86 176.043 153.715 174.703 154.61 173.403C154.529 173.24 154.447 173.078 154.366 172.956C154.366 172.956 154.366 172.956 154.325 172.915Z" fill="#335FFF"/>
<path d="M179.266 147.366C178.453 148.828 177.517 150.209 176.581 151.631C178.737 152.078 180.934 152.2 183.091 152.2C183.945 150.819 184.678 149.356 185.288 147.854C185.247 147.772 185.166 147.691 185.125 147.61C183.172 147.488 181.219 147.407 179.266 147.366Z" fill="#335FFF"/>
<path d="M177.598 160.649C177.557 160.527 177.476 160.445 177.435 160.324C175.523 160.161 173.611 159.877 171.739 159.755C170.925 161.258 169.99 162.639 169.054 164.061C171.169 164.304 173.285 164.507 175.401 164.629C176.174 163.37 176.988 162.111 177.679 160.811C177.639 160.73 177.598 160.689 177.598 160.649Z" fill="#335FFF"/>
<path d="M170.03 173.037C169.379 172.915 168.769 172.834 168.118 172.834C166.45 172.794 164.822 172.875 163.154 172.672C162.218 174.012 161.323 175.353 160.469 176.734C160.591 176.896 160.713 177.059 160.835 177.18C160.876 177.262 160.957 177.302 161.038 177.343C163.317 177.424 165.555 177.546 167.793 177.546C168.566 176.165 169.42 174.825 170.315 173.525C170.234 173.362 170.152 173.2 170.071 173.078C170.071 173.078 170.071 173.078 170.03 173.037Z" fill="#335FFF"/>
<path d="M194.971 147.488C194.158 148.95 193.222 150.331 192.286 151.753C194.443 152.2 196.64 152.322 198.796 152.322C199.65 150.94 200.383 149.478 200.993 147.975C200.952 147.894 200.871 147.813 200.83 147.732C198.877 147.61 196.924 147.528 194.971 147.488Z" fill="#335FFF"/>
<path d="M193.303 160.77C193.262 160.649 193.181 160.567 193.14 160.445C191.228 160.283 189.316 159.999 187.444 159.877C186.631 161.38 185.695 162.761 184.759 164.182C186.875 164.426 188.99 164.629 191.106 164.751C191.879 163.492 192.693 162.233 193.385 160.933C193.344 160.852 193.303 160.811 193.303 160.77Z" fill="#335FFF"/>
<path d="M185.735 173.159C185.084 173.037 184.474 172.956 183.823 172.956C182.155 172.915 180.528 172.997 178.859 172.794C177.924 174.134 177.028 175.475 176.174 176.856C176.296 177.018 176.418 177.181 176.54 177.302C176.581 177.384 176.662 177.424 176.744 177.465C179.022 177.546 181.26 177.668 183.498 177.668C184.271 176.287 185.125 174.946 186.02 173.647C185.939 173.484 185.858 173.322 185.776 173.2C185.776 173.2 185.776 173.2 185.735 173.159Z" fill="#335FFF"/>
<path d="M210.677 146.838C209.863 148.3 208.927 149.681 207.991 151.103C210.148 151.55 212.345 151.672 214.501 151.672C215.356 150.291 216.088 148.828 216.698 147.325C216.658 147.244 216.576 147.163 216.535 147.082C214.582 147.001 212.63 146.919 210.677 146.838Z" fill="#335FFF"/>
<path d="M209.008 160.12C208.968 159.999 208.886 159.917 208.846 159.796C206.933 159.633 205.021 159.349 203.149 159.227C202.336 160.73 201.4 162.111 200.464 163.532C202.58 163.776 204.696 163.979 206.811 164.101C207.584 162.842 208.398 161.583 209.09 160.283C209.049 160.242 209.008 160.161 209.008 160.12Z" fill="#335FFF"/>
<path d="M201.441 172.55C200.79 172.428 200.179 172.347 199.528 172.347C197.86 172.306 196.233 172.387 194.564 172.184C193.629 173.525 192.734 174.865 191.879 176.246C192.001 176.409 192.123 176.571 192.245 176.693C192.286 176.774 192.367 176.815 192.449 176.856C194.727 176.937 196.965 177.059 199.203 177.059C199.976 175.678 200.83 174.337 201.725 173.037C201.644 172.875 201.563 172.712 201.481 172.591C201.481 172.591 201.481 172.55 201.441 172.55Z" fill="#335FFF"/>
<path d="M235.984 196.068C235.984 196.028 235.984 196.028 235.984 196.068C235.903 195.337 235.74 194.606 235.455 193.875C235.496 193.834 235.536 193.753 235.577 193.672C235.414 193.266 235.252 192.9 235.048 192.534C234.479 191.438 233.746 190.463 233.014 189.488C229.108 186.685 223.452 185.061 219.14 186.442C213.362 188.269 208.683 194.484 210.188 200.536C210.311 200.983 210.473 201.43 210.636 201.836C210.636 201.917 210.636 201.999 210.636 202.08C211.206 202.852 211.653 203.705 212.101 204.639C212.589 205.573 213.159 206.507 213.81 207.32C214.379 207.726 214.949 208.092 215.478 208.417C218.082 210.082 220.645 210.772 223.249 210.813C223.371 210.854 223.534 210.894 223.656 210.935C224.144 210.894 224.632 210.813 225.121 210.732C226.748 210.569 228.457 210.163 230.206 209.635C230.735 209.473 231.101 209.148 231.305 208.741C232.892 207.97 234.112 206.589 235.007 204.964C235.007 204.883 235.007 204.842 235.048 204.761C235.536 202.974 236.35 200.739 236.269 198.912C236.269 197.937 236.147 197.003 235.984 196.068ZM230.979 198.912C230.369 199.48 229.637 199.886 228.904 200.171C226.789 199.562 225.121 199.358 223.493 197.652C221.54 195.581 222.028 193.347 223.29 191.316C223.371 191.275 223.412 191.275 223.493 191.235C225.283 189.204 229.962 190.869 231.468 192.859C232.729 194.606 232.566 197.409 230.979 198.912Z" fill="#335FFF"/>
<path d="M170.03 8.85501C169.42 9.05811 168.769 9.2612 168.159 9.4643C164.538 11.2515 161.323 13.1606 158.882 16.857C158.313 17.71 157.865 18.7661 157.295 19.7409C157.255 19.944 157.173 20.1471 157.133 20.3502C157.702 20.5533 158.272 20.797 158.882 21.0407C159.533 21.3251 160.225 21.6094 160.876 21.8937C161.12 21.4063 161.405 20.9595 161.649 20.5127C161.934 19.7815 162.259 19.0504 162.829 18.3193C163.195 17.8724 163.602 17.4663 164.009 17.1007C165.026 15.8415 166.165 14.6635 167.508 13.6481C167.549 13.6074 167.589 13.5262 167.63 13.4856C167.752 13.445 167.833 13.4043 167.955 13.3231C168.769 12.7138 169.624 12.1858 170.6 11.6983C170.6 11.6983 170.6 11.6983 170.641 11.6983C170.844 10.7235 171.048 9.70801 171.292 8.73315C170.844 8.73315 170.437 8.81439 170.03 8.85501Z" fill="#BBD0FF"/>
<path d="M174.181 13.8105C174.262 7.31143 178.331 2.59962 182.237 0.853001C182.277 0.568667 182.277 0.284334 182.318 0C181.545 0.203095 180.772 0.487429 179.999 0.89362C177.842 2.15281 175.645 4.265 174.465 6.94586C174.425 7.0271 174.384 7.10834 174.384 7.14896C174.303 7.39267 174.181 7.59577 174.14 7.83948C174.099 7.92072 174.059 8.00196 174.018 8.04258C173.53 9.26115 173.123 10.6016 172.757 11.9014C172.757 12.0232 172.757 12.1451 172.716 12.3076C172.594 12.8356 172.472 13.4855 172.35 14.1354V14.1761C172.309 16.7757 173.367 18.8879 175.035 19.619C175.157 19.6596 175.279 19.7815 175.32 19.9033C175.93 19.9846 176.54 19.8627 177.191 19.7003C178.615 19.2941 179.795 17.5068 179.673 15.2728C179.592 12.9981 178.087 11.2109 176.947 10.0329C176.785 10.3985 176.662 10.7234 176.5 11.089C176.296 11.5358 176.011 12.0232 175.849 12.5513C175.889 12.5513 175.889 12.5919 175.93 12.5919C176.907 13.4043 178.615 15.8821 176.703 16.8163C175.238 17.5068 173.814 16.4507 174.221 13.8917C174.181 13.8511 174.181 13.8105 174.181 13.8105Z" fill="#BBD0FF"/>
<path d="M50.6144 161.298C50.0448 162.476 49.0276 163.37 47.5222 163.329C42.8432 163.208 39.6696 157.724 34.5838 159.471C31.0847 160.689 27.9111 163.979 23.9238 162.679C18.96 161.055 15.3389 161.258 11.7584 164.304C12.857 165.076 13.9555 165.848 15.0541 166.619C18.7159 161.583 25.063 169.91 29.7013 165.929C31.6136 164.264 33.3225 162.72 36.0078 162.72C37.3505 162.72 38.8559 163.614 39.8324 164.385C42.8839 166.66 45.4065 167.716 49.2717 166.741C50.5737 166.01 51.7129 164.873 52.9336 163.573C52.1605 162.761 51.3875 162.03 50.6144 161.298Z" fill="#BBD0FF"/>
<path d="M38.856 177.302C38.2864 178.48 37.2692 179.374 35.7638 179.333C31.0848 179.211 27.9112 173.728 22.8253 175.474C19.3263 176.693 16.1527 179.983 12.1654 178.683C7.20158 177.059 3.58045 177.262 0 180.308C1.09855 181.08 2.19709 181.852 3.29564 182.623C6.95746 177.587 13.3046 185.914 17.9429 181.933C19.8552 180.268 21.5641 178.724 24.2494 178.724C25.5921 178.724 27.0975 179.618 28.074 180.389C31.1255 182.664 33.6481 183.72 37.5133 182.745C38.8153 182.014 39.9545 180.877 41.1751 179.577C40.3614 178.765 39.5883 178.033 38.856 177.302Z" fill="#BBD0FF"/>
<path d="M46.5456 99.5573C41.6632 99.3948 36.8215 99.6385 31.9797 99.0698C32.1425 101.507 32.1425 103.985 32.2645 106.422C42.1921 105.894 52.1197 107.112 62.0473 107.194C61.8032 104.797 61.5184 102.441 61.1929 100.045C56.3105 100.248 51.4688 99.7197 46.5456 99.5573Z" fill="#335FFF"/>
<path d="M46.5456 115.968C41.6632 115.805 36.8215 116.049 31.9797 115.48C32.1425 117.917 32.1425 120.395 32.2645 122.832C42.1921 122.304 52.1197 123.523 62.0473 123.604C61.8032 121.207 61.5184 118.851 61.1929 116.455C56.3105 116.658 51.4688 116.13 46.5456 115.968Z" fill="#88A7FF"/>
<path d="M46.5456 132.175C41.6632 132.012 36.8215 132.256 31.9797 131.687C32.1425 134.124 32.1425 136.602 32.2645 139.039C42.1921 138.511 52.1197 139.73 62.0473 139.811C61.8032 137.414 61.5184 135.058 61.1929 132.662C56.3105 132.865 51.4688 132.337 46.5456 132.175Z" fill="#BBD0FF"/>
<path d="M157.865 43.3405C157.824 42.5281 157.621 41.6751 157.702 40.8628C157.702 40.8221 157.702 40.7815 157.702 40.7409C156.929 40.7409 156.156 40.7409 155.383 40.7409C155.098 41.1471 154.854 41.5533 154.61 42.0001C154.366 42.2844 154.081 42.5688 153.796 42.8531C153.593 43.0968 153.39 43.4624 153.145 43.7467C153.064 43.6249 152.942 43.503 152.861 43.3811L152.82 43.3405C152.82 43.2999 152.779 43.2999 152.779 43.2593C152.739 43.178 152.698 43.0968 152.617 43.0562C152.372 42.6906 152.088 42.3657 151.803 42.0407C151.518 41.7564 151.315 41.3096 151.07 40.9846C150.216 40.9846 149.362 41.0252 148.548 40.8628C148.426 41.5533 148.548 42.325 148.507 42.975C148.467 44.3154 148.467 45.6558 148.467 46.9556C148.467 47.4837 148.426 48.093 148.467 48.5804C149.158 48.5804 149.85 48.621 150.542 48.621C150.786 47.0369 150.826 45.4121 150.786 43.7873C151.03 44.1529 151.274 44.5185 151.518 44.8434C151.681 45.0465 151.803 45.2902 151.966 45.4933C152.413 45.8183 152.739 46.2651 153.105 46.6713C153.145 46.5901 153.227 46.5088 153.268 46.4276C153.43 46.1839 153.634 45.9401 153.756 45.6964C153.837 45.4933 153.959 45.2902 154.081 45.0871C154.57 44.5185 155.058 43.8686 155.546 43.2999C155.587 43.6249 155.627 43.9498 155.668 44.2341C155.709 45.3715 155.79 46.5088 155.709 47.6461C155.709 47.9305 155.668 48.2554 155.668 48.5398C155.627 48.621 155.587 48.7022 155.587 48.7835C156.36 48.7835 157.133 48.7835 157.865 48.7835C157.947 46.9962 158.028 45.1684 157.865 43.3405Z" fill="#335FFF"/>
<path d="M168.159 44.3154C167.915 43.7874 167.671 43.2593 167.467 42.7313C167.305 42.4469 167.142 42.2032 167.02 41.9189C167.02 41.9189 167.02 41.8783 166.979 41.8783C166.735 41.4315 166.45 40.9847 166.165 40.5378C165.433 40.5378 164.701 40.5378 163.968 40.5785C163.724 41.3502 163.358 42.0814 163.073 42.8531C162.87 43.4218 162.666 43.9498 162.382 44.4779C162.219 44.9653 162.056 45.4527 161.893 45.9402C161.486 46.915 160.917 47.9305 160.632 48.9866C161.405 49.0272 162.178 49.0272 162.951 49.0272C163.114 48.621 163.317 48.2555 163.48 47.8493C163.521 47.768 163.521 47.6868 163.561 47.6462C163.887 47.6462 164.212 47.6056 164.538 47.6056C165.433 47.6462 166.41 47.5649 167.264 47.5649C167.305 47.5649 167.305 47.5649 167.345 47.5649C167.508 47.9711 167.711 48.3773 167.834 48.8241C168.769 48.8241 169.664 48.8241 170.6 48.8241C169.787 47.1994 168.932 45.7777 168.159 44.3154ZM164.09 45.8589C164.131 45.7371 164.172 45.6152 164.212 45.4934C164.212 45.4527 164.253 45.4121 164.294 45.3715C164.375 45.1278 164.416 44.8435 164.497 44.5998C164.66 44.0311 164.863 43.4218 165.108 42.8937C165.514 43.8686 166.003 44.7622 166.45 45.6965C165.677 45.7371 164.863 45.7777 164.09 45.8589Z" fill="#335FFF"/>
<path d="M178.941 40.4972C178.412 40.4972 177.842 40.4566 177.314 40.416C176.215 41.7564 175.279 43.2187 174.181 44.5998C173.123 45.9402 171.943 47.1181 170.966 48.4992C171.902 48.4992 172.838 48.5804 173.733 48.621C173.977 48.3367 174.262 48.093 174.506 47.8087C175.361 46.6713 176.215 45.534 177.029 44.356C177.965 43.0156 178.982 41.7564 179.877 40.3754C179.551 40.4566 179.266 40.4972 178.941 40.4972Z" fill="#335FFF"/>
<path d="M171.943 40.4972C172.472 40.4972 173.041 40.4566 173.57 40.416C174.669 41.7564 175.605 43.2187 176.703 44.5998C177.761 45.9402 178.941 47.1181 179.917 48.4992C178.982 48.4992 178.046 48.5804 177.151 48.621C176.907 48.3367 176.622 48.093 176.378 47.8087C175.523 46.6713 174.669 45.534 173.855 44.356C172.919 43.0156 171.902 41.7564 171.007 40.3754C171.292 40.4566 171.617 40.4972 171.943 40.4972Z" fill="#335FFF"/>
<path d="M60.8675 208.823C55.3748 208.782 49.8821 208.457 44.3487 208.66C40.3614 208.823 36.4554 209.351 32.5495 209.757C32.5902 210.772 32.5902 211.788 32.5088 212.803C52.3233 211.991 72.2192 211.666 92.0744 211.544C92.1151 210.447 92.0744 209.351 92.0744 208.254C81.6179 208.173 71.2427 208.904 60.8675 208.823Z" fill="#BBD0FF"/>
<path d="M84.6288 221.74C84.7102 220.602 84.7509 219.505 84.6695 218.368C78.4851 218.856 72.3007 219.14 66.1163 219.059C61.478 219.018 56.7176 219.424 52.0386 219.221C51.8352 219.221 51.6724 219.221 51.469 219.221C51.3469 219.221 51.2249 219.221 51.1028 219.221C50.8994 219.262 50.8587 219.262 50.9807 219.221C50.5739 219.262 50.2077 219.221 49.8822 219.059C49.8008 219.059 49.7194 219.018 49.6381 219.018C49.6787 220.074 49.6787 221.13 49.6381 222.227C54.5205 222.714 59.3622 222.389 64.326 222.227C67.9472 222.105 71.609 222.268 75.2301 222.471C78.4037 222.064 81.4959 221.821 84.6288 221.74Z" fill="#BBD0FF"/>
<path d="M84.0184 229.417C75.7997 229.782 67.4182 229.701 59.1587 229.701C59.1587 230.716 59.1587 231.732 59.118 232.747C63.1054 232.747 67.0927 232.788 71.1207 232.707C75.4742 232.585 79.7463 233.357 84.0591 233.235C83.9777 231.935 83.937 230.676 84.0184 229.417Z" fill="#BBD0FF"/>
<path d="M141.468 54.4703C138.417 48.5399 133.697 44.0718 129.262 39.2787C124.746 44.5998 119.416 49.2304 114.371 54.1453C119.172 58.4916 122.793 63.9345 124.217 70.2305C131.622 70.3523 139.027 70.5554 146.432 70.3523C146.595 70.3523 146.717 70.3523 146.88 70.3523C145.618 64.8688 144.032 59.4258 141.468 54.4703Z" fill="#FF5F5F"/>
</svg>
