<svg width="276" height="257" viewBox="0 0 276 257" fill="none" xmlns="http://www.w3.org/2000/svg">
<path d="M126.861 137.162C122.373 134.127 121.347 127.245 121.518 122.287C115.748 122.33 109.977 122.287 104.25 121.902C102.455 121.945 100.659 121.988 98.8641 121.988C98.3085 124.553 98.052 127.117 98.0948 129.639C100.275 129.553 102.625 129.511 104.549 130.494C106.173 131.349 108.054 133.016 107.926 135.11C107.883 135.879 107.669 136.563 107.37 137.247C106.686 140.367 103.096 142.077 100.36 143.53C101.343 146.651 102.754 149.557 104.677 152.207C105.233 152.677 105.746 153.233 106.173 153.874C107.926 152.335 109.593 151.01 111.986 150.027C114.807 148.873 117.158 149.814 119.081 151.566C119.979 154.772 118.483 158.747 116.645 161.696C120.706 163.491 125.065 164.731 129.297 165.586C129.254 163.021 130.109 160.157 131.434 158.148C133.058 155.669 135.666 154.216 138.401 156.054C138.957 156.439 139.384 156.866 139.769 157.336C139.769 157.037 139.769 156.781 139.769 156.481C139.897 152.763 140.025 149.001 140.025 145.24C140.025 143.53 140.025 141.778 140.068 140.025C135.537 140.325 130.665 139.726 126.861 137.162Z" fill="#335FFF"/>
<path d="M266.63 162.765C266.63 158.49 266.715 153.96 266.843 148.531C267.057 139.897 267.228 132.033 266.715 124.339C257.098 124.382 247.438 124.168 238.035 123.954C233.376 123.869 228.717 123.74 224.015 123.655H223.844C221.621 123.527 218.971 123.399 216.364 123.356C215.766 123.356 215.125 123.356 214.526 123.356C212.816 123.356 211.064 123.441 209.312 123.484C207.474 123.569 205.636 123.612 203.798 123.655C199.865 123.698 196.788 123.527 193.967 123.099L193.582 123.313L192.471 123.27C186.23 122.971 179.563 122.843 171.612 122.928C165.158 123.014 158.619 123.185 152.293 123.399C148.788 123.484 145.24 123.612 141.735 123.698C141.692 124.296 141.65 124.895 141.65 125.45C141.65 125.878 141.607 126.305 141.479 126.69C141.393 128.87 141.521 131.092 141.607 133.443C141.692 135.537 141.821 137.675 141.778 139.812C141.735 142.932 141.65 146.009 141.564 149.13C141.436 154.344 141.265 159.773 141.265 165.073C141.265 170.416 141.564 175.673 141.863 180.161L141.992 182.255L141.692 182.469C141.692 183.025 141.692 183.58 141.65 184.136C141.564 188.923 141.479 193.497 142.205 198.156C142.676 201.19 142.804 204.182 142.932 207.089C142.975 207.944 143.017 208.756 143.06 209.525C145.283 209.653 147.42 209.824 149.343 209.995C151.523 209.91 153.746 209.782 155.926 209.696C160.798 209.44 165.842 209.183 170.8 209.141C171.741 209.141 172.638 209.141 173.579 209.141C180.246 209.183 186.872 209.824 193.454 210.466C195.121 210.423 196.831 210.38 198.498 210.337C205.294 210.252 212.133 210.508 218.758 210.722C222.818 210.85 227.05 211.021 231.196 211.107C232.606 211.149 234.017 211.107 235.385 211.107C240.856 211.021 246.284 210.893 251.755 210.765C255.388 210.679 259.021 210.594 262.655 210.551C263.125 210.38 263.595 210.295 264.108 210.295H264.535L264.834 210.337C265.262 210.423 265.689 210.466 266.117 210.466L267.869 210.423C267.869 210.337 267.869 210.209 267.869 210.124V210.081L267.741 204.909C267.57 197.087 267.399 189.051 267.1 181.101C267.057 179.434 267.014 177.639 267.057 175.459C266.288 172.125 266.416 168.92 266.544 165.842C266.544 164.816 266.587 163.79 266.63 162.765Z" fill="white"/>
<path d="M187.042 197.386C187.085 192.642 187.171 187.855 186.914 183.11C185.333 183.153 183.751 182.982 182.17 182.896C180.289 182.768 178.408 182.768 176.57 182.469C176.57 187.513 176.656 192.514 176.656 197.557C180.161 197.557 183.58 197.386 187.042 197.386Z" fill="#335FFF"/>
<path d="M222.22 176.058C222.263 183.067 222.348 190.077 222.391 197.044C225.896 197.002 229.315 196.745 232.777 196.831C232.777 190.077 232.82 183.324 232.606 176.57C229.101 176.442 225.682 176.143 222.22 176.058Z" fill="#88A7FF"/>
<path d="M156.695 167.637C157.208 172.424 156.695 177.083 156.481 181.999C156.268 187.384 156.268 192.77 156.353 198.156C159.559 198.241 162.807 198.369 166.013 198.498L165.671 167.509C162.636 167.595 159.687 167.595 156.695 167.637Z" fill="#88A7FF"/>
<path d="M199.01 148.318C199.267 164.816 199.694 181.272 199.694 197.728C203.413 197.728 207.089 197.814 210.765 197.942C210.508 181.358 209.782 164.773 209.311 148.189L199.01 148.318Z" fill="#FF5F5F"/>
<path d="M75.8257 165.799C75.5265 165.03 75.441 164.175 75.6548 163.32C76.2532 160.841 78.5185 159.687 80.8694 159.26C80.6129 158.02 80.3565 156.823 80.0573 155.712C79.8436 154.857 79.5871 154.045 79.2879 153.318C78.604 152.506 77.9201 151.651 77.1935 150.839C77.0653 151.01 76.8943 151.181 76.6806 151.352C74.0733 153.19 69.5853 154.729 66.636 152.763C64.8408 151.566 63.6868 149.771 63.9005 147.591C64.1142 145.796 65.0545 144.3 66.0804 142.889C65.2683 142.462 64.4134 142.034 63.5585 141.65C63.0884 141.607 62.6182 141.564 62.1053 141.564C59.7117 141.008 57.3608 140.752 55.01 140.838C55.7794 143.53 55.7366 146.992 53.8987 148.531C49.7954 151.993 46.2477 146.907 44.709 143.188C41.6315 144.556 38.8105 146.565 36.3741 149.087C37.7419 150.027 39.5798 151.352 39.879 153.062C40.3492 155.584 38.5968 157.55 36.0749 157.721C34.3652 157.849 32.57 157.379 30.9458 156.823C29.5353 159.773 28.6377 162.978 28.253 166.227C30.903 166.056 33.895 165.928 35.6475 168.107C37.1862 170.031 36.9725 172.253 34.9209 173.749C33.1684 175.032 30.903 175.587 28.6377 175.972C29.2788 179.05 30.4329 182.042 32.1426 184.606C32.2708 184.521 32.4418 184.478 32.6128 184.435C34.8781 182.597 37.9984 181.272 40.6484 182.683C42.5291 183.709 43.9396 185.974 43.8114 188.154C43.6831 189.864 43.042 191.317 42.4436 192.856C45.4783 194.095 48.5986 194.822 51.676 195.121C51.5478 192.428 51.9325 189.351 54.6253 188.538C55.181 188.154 55.7794 187.812 56.5915 187.641C60.3528 186.829 63.5585 190.163 65.5675 193.197C68.303 192.086 70.8248 190.547 73.0902 188.581C71.6369 187.427 70.0982 186.23 69.4571 184.435C68.6877 182.255 69.6708 180.204 71.466 178.879C72.5773 178.067 73.7741 177.639 74.9709 177.596C76.8088 176.955 78.8605 177.169 80.8694 177.425C81.5533 175.331 81.8525 173.023 81.938 170.672C79.2024 170.031 76.2959 168.706 75.8257 165.799ZM59.5407 174.177C55.2237 176.699 47.2308 175.245 46.205 169.603C45.6921 166.697 46.7179 163.277 48.8123 161.653C49.1115 161.354 49.4107 161.098 49.7954 160.841C52.018 159.388 54.4971 159.345 56.5915 160.2C61.8488 161.269 65.5675 170.629 59.5407 174.177Z" fill="#BBD0FF"/>
<path d="M271.588 209.311C271.374 199.823 271.16 190.376 270.818 180.973C270.733 179.007 270.733 177.041 270.776 175.032C269.75 170.971 270.348 166.911 270.348 162.765C270.348 158.063 270.434 153.361 270.562 148.617C270.818 139.256 270.989 129.895 270.135 120.535C269.75 120.449 269.365 120.449 268.98 120.535C254.02 120.706 239.018 120.15 224.058 119.894C221.493 119.765 218.971 119.637 216.407 119.594C209.098 119.509 201.19 120.492 193.967 119.295C193.454 119.21 193.026 119.295 192.685 119.509C174.604 118.611 156.439 119.637 138.358 120.022C138.187 121.817 137.931 123.612 137.931 125.407C137.931 125.578 137.888 125.707 137.803 125.792C137.546 130.366 138.187 135.153 138.102 139.683C137.974 148.104 137.589 156.567 137.589 164.987C137.589 170.116 137.846 175.203 138.187 180.289C138.145 180.332 138.102 180.375 138.059 180.417C138.016 186.615 137.675 192.428 138.615 198.626C139.342 203.413 139.171 208.243 139.641 213.03C142.889 213.116 146.095 213.372 149.301 213.671C157.422 213.329 165.5 212.731 173.621 212.774C180.204 212.816 186.829 213.458 193.368 214.099C205.978 213.629 218.544 214.526 231.153 214.74C232.606 214.783 234.017 214.74 235.47 214.74C244.873 214.569 254.277 214.355 263.68 214.141C263.809 213.97 264.022 213.885 264.279 213.885C264.834 213.97 265.433 214.013 266.031 214.056C267.912 214.013 269.835 213.97 271.716 213.928C271.673 212.474 271.63 210.893 271.588 209.311ZM267.057 175.459C267.014 177.639 267.057 179.434 267.1 181.101C267.399 189.009 267.57 197.087 267.741 204.909L267.869 210.081V210.124C267.869 210.209 267.869 210.337 267.869 210.423L266.117 210.466C265.689 210.423 265.262 210.38 264.834 210.337L264.535 210.295H264.108C263.595 210.295 263.125 210.38 262.655 210.551C259.021 210.637 255.388 210.722 251.755 210.765C246.284 210.893 240.856 211.021 235.385 211.107C233.974 211.107 232.564 211.107 231.196 211.107C227.05 211.021 222.861 210.893 218.758 210.722C212.133 210.508 205.251 210.252 198.498 210.337C196.831 210.337 195.121 210.38 193.454 210.466C186.914 209.824 180.246 209.183 173.579 209.141C172.638 209.141 171.741 209.141 170.8 209.141C165.799 209.183 160.798 209.44 155.926 209.696C153.746 209.824 151.523 209.91 149.343 209.995C147.42 209.824 145.326 209.653 143.06 209.525C143.017 208.713 142.975 207.901 142.932 207.089C142.804 204.182 142.675 201.19 142.205 198.156C141.479 193.497 141.564 188.923 141.65 184.136C141.65 183.58 141.65 183.025 141.692 182.469L141.992 182.255L141.863 180.161C141.564 175.716 141.265 170.416 141.265 165.073C141.265 159.773 141.393 154.387 141.564 149.13C141.65 146.009 141.735 142.932 141.778 139.812C141.821 137.675 141.692 135.537 141.607 133.443C141.479 131.092 141.393 128.87 141.479 126.69C141.607 126.305 141.65 125.878 141.65 125.45C141.65 124.852 141.692 124.296 141.735 123.698C145.24 123.612 148.788 123.527 152.293 123.398C158.619 123.227 165.201 123.014 171.612 122.928C179.562 122.843 186.188 122.928 192.471 123.27L193.582 123.313L193.967 123.099C196.788 123.527 199.823 123.698 203.798 123.655C205.636 123.655 207.474 123.569 209.311 123.484C211.064 123.441 212.816 123.356 214.526 123.356C215.125 123.356 215.766 123.356 216.364 123.356C218.971 123.398 221.621 123.527 223.844 123.655H224.015C228.674 123.74 233.333 123.826 238.035 123.954C247.438 124.168 257.141 124.382 266.715 124.339C267.228 132.033 267.057 139.94 266.843 148.531C266.715 153.917 266.63 158.448 266.63 162.765C266.63 163.79 266.587 164.816 266.544 165.885C266.416 168.92 266.288 172.125 267.057 175.459Z" fill="#88A7FF"/>
<path d="M141.564 110.704C140.752 106.387 140.795 101.942 140.624 97.5391C140.453 92.1107 140.068 86.6824 140.025 81.2113C139.983 70.8248 140.282 60.3956 139.342 50.0518C131.52 50.0946 123.74 49.9236 115.918 49.4534C114.935 49.4107 113.995 49.3679 113.012 49.3252C107.242 49.5389 101.429 49.7099 95.6157 49.7954C87.7083 49.9236 79.8436 49.7099 71.9789 49.5389C68.4312 49.6244 64.9263 49.7526 61.4214 49.9236C57.4463 50.0946 53.4713 50.1801 49.5389 50.4365C47.1881 50.6075 44.7945 50.7357 42.4436 50.4365C42.4436 51.2486 42.4009 52.1035 42.4009 52.9156C42.9993 58.4294 42.6573 63.9432 42.5719 69.4998C42.5719 71.0385 42.5719 72.5773 42.6146 74.1588C42.8283 81.5533 43.8969 89.1615 42.7001 96.4705L42.8283 106.387C42.871 107.156 42.9138 107.926 42.9993 108.695C43.4694 114.209 43.8969 119.68 43.3412 125.194C49.8809 125.493 56.335 125.236 62.8747 125.236C67.0635 125.236 71.2095 125.578 75.3983 125.835C84.3316 125.578 93.2648 125.322 102.198 125.023C107.113 126.091 112.884 124.937 117.756 124.937C124.894 124.937 132.033 125.023 139.171 124.937C140.025 124.852 140.923 124.766 141.778 124.723C141.009 120.065 141.094 115.363 141.564 110.704ZM137.632 121.261C133.4 121.304 129.126 121.261 124.98 121.261C122.586 121.261 120.15 121.261 117.756 121.261H117.329C115.705 121.261 113.995 121.39 112.371 121.518C110.747 121.646 109.08 121.774 107.498 121.774C105.703 121.774 104.207 121.689 102.967 121.39L102.497 121.304L95.8721 121.518C89.076 121.731 82.2372 121.945 75.4411 122.116L73.4322 121.988C70.0127 121.774 66.4223 121.518 62.8747 121.518C61.3359 121.518 59.7972 121.518 58.2585 121.561L54.4544 121.603C52.2317 121.646 49.7954 121.646 47.2736 121.603C47.4018 117.201 47.0598 112.841 46.6752 108.396C46.6324 107.926 46.5897 107.413 46.5897 106.942L46.5469 106.259L46.4187 96.7697C47.3163 91.1704 46.9744 85.5283 46.6324 80.1C46.5042 78.0056 46.376 76.0394 46.3332 74.0733V73.1757C46.3332 71.9361 46.3332 70.6966 46.3332 69.4571C46.3332 68.3885 46.376 67.1917 46.4187 66.0376C46.5042 62.2335 46.5897 58.3012 46.2905 54.3261C47.4445 54.2834 48.5558 54.2406 49.6672 54.1551H49.7954C52.4454 53.9842 55.181 53.8987 57.831 53.8132C59.1133 53.7704 60.3529 53.7277 61.6351 53.685C65.0973 53.5567 68.6022 53.4285 72.0644 53.3003L73.9023 53.343C80.8267 53.514 87.9647 53.6422 95.06 53.5567H95.7439C101.642 53.4712 107.541 53.3003 113.055 53.0866C113.952 53.1293 114.85 53.172 115.748 53.2148C122.031 53.5567 128.656 53.7704 135.922 53.8132C136.35 60.652 136.35 67.6619 136.307 74.458C136.307 76.7233 136.307 78.9887 136.307 81.2541C136.307 84.9299 136.478 88.5631 136.649 92.1107C136.734 93.9487 136.82 95.8294 136.905 97.6673C136.948 98.4367 136.948 99.206 136.991 99.9754C137.076 103.523 137.204 107.156 137.803 110.832C137.461 114.593 137.375 118.013 137.632 121.261Z" fill="#88A7FF"/>
<path d="M136.991 99.9754C136.948 99.206 136.948 98.4367 136.905 97.6673C136.82 95.8293 136.734 93.9487 136.649 92.1107C136.478 88.5631 136.307 84.8872 136.307 81.254C136.307 78.9887 136.307 76.7233 136.307 74.4579C136.307 67.6618 136.35 60.6948 135.922 53.8132C128.656 53.7704 122.031 53.5995 115.748 53.2148C114.85 53.172 113.952 53.1293 113.055 53.0865C107.498 53.3003 101.6 53.4712 95.7439 53.5567H95.06C87.9647 53.6422 80.8267 53.4712 73.9024 53.343L72.0644 53.3003C68.6022 53.3857 65.0973 53.514 61.6352 53.6849C60.3956 53.7277 59.1133 53.7704 57.8311 53.8132C55.181 53.8987 52.4455 53.9841 49.7954 54.1551H49.6672C48.5559 54.2406 47.4446 54.2833 46.2905 54.3261C46.5897 58.3012 46.5042 62.1908 46.4187 66.0376C46.376 67.1917 46.376 68.3885 46.3332 69.457C46.3332 70.6966 46.3332 71.9361 46.3332 73.1757V74.0733C46.376 76.0394 46.5042 78.0056 46.6324 80.1C46.9744 85.5283 47.3163 91.1704 46.4187 96.7697L46.547 106.259L46.5897 106.942C46.6324 107.413 46.6324 107.926 46.6752 108.396C47.0599 112.841 47.4018 117.201 47.2736 121.603C49.7954 121.646 52.2317 121.646 54.4544 121.603L58.2585 121.561C59.7972 121.561 61.336 121.518 62.8747 121.518C66.4651 121.518 70.0128 121.774 73.4322 121.988L75.4411 122.116C82.2372 121.945 89.076 121.731 95.8722 121.518L102.497 121.304L102.967 121.39C104.207 121.646 105.703 121.774 107.498 121.774C109.08 121.774 110.747 121.646 112.371 121.518C113.995 121.39 115.705 121.261 117.329 121.261H117.756C120.15 121.261 122.586 121.261 124.98 121.261C129.126 121.261 133.4 121.304 137.632 121.261C137.375 118.056 137.461 114.593 137.803 110.875C137.162 107.156 137.076 103.523 136.991 99.9754Z" fill="white"/>
<path d="M171.57 41.9734C171.441 62.7892 171.527 83.6049 171.399 104.421L182.213 104.463C182.042 83.5622 181.742 62.6609 181.7 41.7597C185.247 41.6742 188.795 41.6315 192.343 41.5887C189.778 38.5113 187.342 35.3483 184.82 32.2708C184.264 31.6297 183.709 30.9458 183.153 30.3046C183.11 30.2619 183.067 30.2192 183.025 30.1764C180.973 28.1675 178.964 26.0731 177.596 23.6368C177.297 23.2521 177.041 22.9101 176.741 22.5255C175.972 23.6795 175.245 24.8336 174.348 25.9021C172.681 27.9538 170.8 29.8345 168.962 31.8006C167.338 33.5531 165.885 35.4765 164.218 37.1862C162.765 38.6395 161.226 40.0073 159.986 41.6742C163.149 41.717 166.398 41.8025 169.561 42.0162C170.287 42.0162 170.928 41.9734 171.57 41.9734Z" fill="#88A7FF"/>
<path d="M271.417 100.83C267.912 95.6157 263.296 91.4696 261.159 85.3574C258.38 77.3218 258.38 67.7474 257.012 58.7287C256.884 58.002 256.799 57.3181 256.671 56.5915C255.645 50.9495 253.978 45.5639 250.601 41.0759C241.155 28.595 232.863 42.3154 230.17 52.018C228.332 58.6432 227.263 65.6957 224.87 72.1926C224.314 76.4669 223.16 80.9122 219.442 83.263C218.416 83.9042 217.176 84.2034 215.894 84.2034C214.526 84.6308 213.158 84.2889 211.876 82.8783C211.235 82.4082 210.722 81.767 210.38 81.0404C209.183 79.8009 208.499 78.3476 207.944 76.8089C207.858 76.7234 207.773 76.5952 207.73 76.4669C206.234 72.4064 205.422 67.6619 202.686 64.1997C199.01 59.5408 194.394 59.4553 190.975 62.832C189.351 64.6272 188.239 66.8071 187.213 69.0297C185.632 72.7483 184.521 76.6806 183.238 80.5275C182.939 81.6815 182.597 82.7929 182.127 83.8614C181.614 86.426 180.417 88.9906 178.28 90.1874C176.998 90.914 175.758 90.9567 174.69 90.572C172.937 90.2729 171.313 88.3494 170.33 85.4857C165.799 72.4064 157.165 89.8454 155.285 93.2221C152.25 98.7359 149.472 104.292 147.847 110.447C147.805 110.576 147.762 110.618 147.719 110.704C158.619 111.217 169.518 110.319 180.46 110.191C191.701 110.02 202.943 110.148 214.227 110.063C234.572 109.892 254.875 108.182 275.221 109.08C274.281 106.13 273.084 103.352 271.417 100.83Z" fill="#BBD0FF"/>
<path d="M265.988 109.122C263.381 106.088 260.902 102.967 258.295 99.9326C257.739 99.2915 257.183 98.6503 256.628 98.0092C256.585 97.9665 256.542 97.9237 256.5 97.881C254.405 95.9148 252.353 93.8631 250.943 91.4268C250.644 91.0421 250.345 90.7002 250.088 90.3155C249.361 91.4695 248.635 92.6236 247.78 93.7349C246.113 95.8293 244.275 97.71 242.523 99.7189C240.941 101.514 239.488 103.48 237.864 105.19C236.453 106.686 234.914 108.054 233.718 109.763C236.881 109.763 240.129 109.763 243.292 109.934C243.933 109.892 244.617 109.892 245.258 109.849C245.557 138.914 246.284 167.936 246.369 196.959C250.088 197.002 253.764 197.13 257.483 197.301C257.098 167.979 255.944 138.743 255.431 109.464C258.936 109.379 262.441 109.251 265.988 109.122Z" fill="#335FFF"/>
<path d="M27.8683 113.226C27.7828 113.183 27.6973 113.183 27.6119 113.183C27.3554 113.183 27.1417 113.183 26.8852 113.183C26.7997 113.183 26.7143 113.183 26.6288 113.183C25.6029 113.226 24.6199 113.311 23.6368 113.439C18.8496 106.088 9.27519 103.48 0.256457 103.224C0.170971 103.993 0.0854856 104.72 0 105.489C6.53965 106.9 15.8148 107.498 20.0891 112.499C20.4738 112.927 20.773 113.482 21.1149 113.995C20.0036 114.294 18.9351 114.722 17.9092 115.277C17.2253 115.619 16.5415 115.961 15.8576 116.389C11.0276 119.252 8.42033 128.784 16.3277 129.981C23.2948 131.05 26.1159 124.125 25.6457 118.098C25.5602 117.756 25.5175 117.415 25.3892 117.115C25.1328 116.474 24.8763 115.833 24.6199 115.192C25.6029 115.106 26.586 115.064 27.5264 115.021C29.407 115.577 31.3305 115.79 33.2112 116.474C34.7926 117.073 36.2459 117.799 37.6137 118.825C38.1266 118.184 38.6395 117.5 39.1097 116.816C35.3483 114.722 31.6297 113.482 27.8683 113.226ZM18.0375 127.502C17.952 127.502 17.8665 127.459 17.8237 127.459C16.0713 127.929 14.3188 127.587 13.8487 125.749C13.464 125.194 13.293 124.51 13.4212 123.698C13.5495 123.057 13.8059 122.544 14.1051 122.031C14.2761 121.09 14.96 120.193 15.5584 119.466C16.5842 118.269 17.9092 117.543 19.3197 116.816C20.3028 116.431 21.2432 116.004 22.2263 115.705C23.8077 120.236 23.5513 127.245 18.0375 127.502Z" fill="#BBD0FF"/>
<path d="M131.947 75.8685C129.81 77.6209 127.673 79.5016 125.749 81.4678C125.407 81.6815 125.065 81.938 124.724 82.1517C122.715 79.929 120.492 77.9629 118.44 75.783C117.073 74.3297 115.833 72.5773 114.123 71.466C114.081 71.466 114.038 71.5087 113.995 71.5514C113.568 71.8934 113.226 72.2781 112.884 72.6628C112.627 72.962 112.328 73.1757 112.029 73.3894C110.875 74.1588 109.806 75.3556 108.78 76.2532C104.121 80.442 98.6931 84.1178 93.735 87.9647C92.7091 88.7341 91.7688 89.6317 90.7857 90.4865C88.7341 92.0253 86.7252 93.6067 84.7162 95.1882C82.8783 93.3075 81.0831 91.5123 79.5016 89.3752C78.433 87.9219 77.279 85.913 75.6975 84.9299C74.8427 84.0323 73.9451 83.1348 73.0475 82.2799C67.4054 86.5114 61.5496 90.572 55.8649 94.8035C54.1979 96.214 52.5309 97.6246 50.9922 99.1633C50.1373 99.8044 49.2397 100.36 48.3421 100.958C47.53 101.514 46.8461 102.198 46.0768 102.796C46.1195 104.634 46.1622 106.43 46.2477 108.268C50.7357 104.72 55.2237 101.129 59.669 97.4963C63.9005 94.2479 68.132 91.0422 72.4063 87.7937C73.2612 88.3066 73.9451 89.2042 74.6289 89.8881C74.7572 90.0163 74.8854 90.0591 75.0564 90.0591C78.6895 93.8632 81.6388 98.223 85.1864 102.07C87.0671 100.403 88.7768 98.4794 90.7002 96.8552C93.2648 94.718 95.8294 92.5809 98.4367 90.4865C103.566 86.2977 108.652 81.9807 113.268 77.2362C113.439 77.0653 113.568 76.9798 113.739 76.937C114.294 77.4072 114.807 77.9629 115.363 78.4758C115.748 78.775 116.132 79.0742 116.56 79.3306C118.141 81.0403 119.723 82.7073 121.261 84.417C122.544 85.8275 123.869 87.2381 125.493 88.2639C127.459 86.3832 129.382 84.417 131.349 82.5363C133.101 80.8694 134.64 79.0742 136.221 77.279C136.136 75.3128 136.392 73.3894 136.478 71.4232C134.982 73.0047 133.443 74.4152 131.947 75.8685Z" fill="#335FFF"/>
<path d="M62.8746 117.329C62.4899 112.713 62.9174 108.011 62.9601 103.395C61.7633 104.207 60.5238 105.019 59.2842 105.66C59.327 109.593 59.327 113.568 59.327 117.5C60.5238 117.457 61.7206 117.372 62.8746 117.329Z" fill="#BBD0FF"/>
<path d="M94.2051 116.987C93.8205 112.371 94.2479 107.669 94.2906 103.053C93.0938 103.865 91.8543 104.677 90.6147 105.318C90.6575 109.251 90.6575 113.226 90.6575 117.158C91.8543 117.115 93.0511 116.987 94.2051 116.987Z" fill="#BBD0FF"/>
<path d="M110.661 116.816C110.576 110.747 110.49 104.72 110.661 98.6931C110.49 96.1285 110.276 93.5212 110.063 90.9567C109.593 91.3841 109.08 91.8115 108.567 92.1962C108.097 92.5809 107.541 92.9656 107.028 93.4357V93.4785C107.028 93.6495 107.028 93.7777 107.028 93.9487C107.028 96.1285 107.113 98.3512 107.199 100.531C107.284 102.198 106.942 103.993 107.284 105.617C107.327 109.422 107.327 113.183 107.327 116.987C108.438 116.902 109.55 116.816 110.661 116.816Z" fill="#BBD0FF"/>
<path d="M77.8347 105.532L74.2015 101.258C74.2443 103.566 74.3725 110.319 74.1588 112.585C74.2443 114.081 74.287 115.619 74.3298 117.115C75.5693 117.115 76.7661 117.158 77.9629 117.286C78.0056 116.944 78.0056 116.602 78.0056 116.26C77.8774 112.756 78.1339 109.08 77.8347 105.532Z" fill="#BBD0FF"/>
<path d="M124.937 100.018C124.766 98.1374 124.638 96.2567 124.595 94.376C123.569 93.9486 122.501 93.4785 121.475 93.051C121.475 93.9059 121.432 94.7607 121.432 95.6156C121.475 95.7438 121.518 95.8293 121.518 95.9575C121.561 102.07 122.073 108.139 122.202 114.209C122.202 114.465 122.116 114.679 122.031 114.85C122.073 115.235 122.116 115.619 122.159 116.004C123.142 116.004 124.082 116.004 125.065 116.004C125.065 115.235 125.065 114.465 125.194 113.696C124.681 109.165 124.809 104.592 124.937 100.018Z" fill="#BBD0FF"/>
<path d="M119.466 13.5922C120.193 9.83084 120.748 6.02673 121.39 2.26537C121.475 1.7952 121.518 1.32503 121.561 0.854856C121.603 0.384685 121.219 0.512914 120.748 0.470171C119.637 0.341942 118.483 0.170971 117.372 0C116.944 4.18879 115.79 8.24936 115.491 12.4809C115.491 12.6519 115.277 13.8914 115.406 14.0624C115.619 14.3188 117.329 14.4043 117.543 14.4471C118.056 14.5326 118.611 14.618 119.167 14.7035C119.381 14.7035 119.423 13.7632 119.466 13.5922Z" fill="#BBD0FF"/>
<path d="M106.942 17.781C108.054 18.2084 107.968 18.2084 108.396 17.0543C108.78 16.0712 109.336 15.1736 109.806 14.2333C106.216 12.8655 102.583 11.5405 99.0351 10.0873C98.5222 9.87354 98.052 9.70257 97.5391 9.5316C97.3681 9.48885 97.1116 10.2155 97.0689 10.3865C96.5132 11.5832 95.9148 12.7373 95.3164 13.8914C99.377 14.7035 103.053 16.3704 106.942 17.781Z" fill="#BBD0FF"/>
<path d="M111.302 25.4747C111.046 25.1755 110.789 24.8763 110.533 24.5771C108.097 26.8852 105.746 29.1933 103.395 31.5869C102.882 32.0998 102.326 32.57 101.771 33.0402C101.3 33.4248 101.3 33.3394 101.685 33.8095C102.497 34.7926 103.309 35.7757 104.164 36.7588C106.301 34.4079 108.609 32.228 110.789 29.9199C111.516 29.1506 112.243 28.3812 113.012 27.6118C113.311 27.3126 111.559 25.7739 111.302 25.4747Z" fill="#BBD0FF"/>
<path d="M127.801 32.3135C125.963 29.9199 123.911 27.7828 121.902 25.5602C121.432 26.1158 118.996 28.1675 119.338 28.5522C120.834 30.3474 122.159 32.2708 123.612 34.066C124.894 35.6902 126.305 37.1862 127.545 38.8532C127.63 38.9814 130.921 36.887 131.434 36.5878C130.152 35.2201 128.912 33.8095 127.801 32.3135C127.245 31.6297 128.613 33.3821 127.801 32.3135Z" fill="#BBD0FF"/>
<path d="M138.017 16.4987C137.803 15.5156 137.589 14.5325 137.375 13.5494C132.716 15.0454 128.143 16.4987 123.27 17.1398C123.569 18.2939 123.869 19.4479 124.168 20.602C124.339 21.2859 124.382 21.1149 125.065 20.9867C126.006 20.8157 126.946 20.6447 127.886 20.4738C129.639 20.1318 131.349 19.8754 132.973 19.1915C134.683 18.4649 136.478 18.0374 138.273 17.61C138.187 17.2253 138.102 16.8834 138.017 16.4987Z" fill="#BBD0FF"/>
<path d="M218.458 234.658C218.287 233.974 217.817 233.333 217.262 232.863C216.45 231.88 215.21 231.11 213.586 230.854C208.756 230.042 205.294 235 207.345 238.932C207.474 239.36 207.645 239.787 207.858 240.129C209.098 242.052 212.688 243.378 214.825 242.352C217.433 241.112 218.672 238.676 218.587 236.325C218.629 235.769 218.629 235.214 218.458 234.658ZM215.039 232.777C215.125 232.777 215.21 232.777 215.295 232.777C216.321 233.247 217.091 234.06 217.561 235.085C217.475 235.171 217.39 235.256 217.39 235.427C217.39 236.197 216.706 236.838 216.108 237.265C215.21 237.906 214.355 237.308 213.671 236.667C212.987 236.026 212.175 235.085 212.346 234.06C212.517 232.692 214.056 232.564 215.039 232.777Z" fill="#BBD0FF"/>
<path d="M189.864 234.957C189.693 234.273 189.222 233.632 188.667 233.162C187.855 232.179 186.615 231.41 184.991 231.153C180.161 230.341 176.699 235.299 178.75 239.231C178.879 239.659 179.05 240.086 179.263 240.428C180.503 242.352 184.093 243.677 186.23 242.651C188.838 241.411 190.077 238.975 189.992 236.624C189.992 236.111 189.992 235.556 189.864 234.957ZM186.444 233.119C186.53 233.119 186.615 233.119 186.701 233.119C187.726 233.589 188.496 234.402 188.966 235.427C188.88 235.513 188.795 235.598 188.795 235.769C188.795 236.539 188.111 237.18 187.513 237.607C186.615 238.248 185.76 237.65 185.076 237.009C184.392 236.368 183.58 235.427 183.751 234.402C183.88 233.034 185.418 232.906 186.444 233.119Z" fill="#BBD0FF"/>
<path d="M248.635 234.316C248.464 233.632 247.994 232.991 247.438 232.521C246.626 231.538 245.386 230.768 243.762 230.512C238.932 229.7 235.47 234.658 237.522 238.59C237.65 239.018 237.821 239.445 238.035 239.787C239.274 241.71 242.865 243.036 245.002 242.01C247.609 240.77 248.849 238.334 248.763 235.983C248.806 235.427 248.763 234.872 248.635 234.316ZM245.215 232.435C245.301 232.435 245.386 232.435 245.472 232.435C246.498 232.905 247.267 233.718 247.737 234.743C247.652 234.829 247.566 234.914 247.566 235.085C247.566 235.855 246.882 236.496 246.284 236.923C245.386 237.564 244.532 236.966 243.848 236.325C243.164 235.684 242.352 234.743 242.523 233.718C242.651 232.35 244.19 232.222 245.215 232.435Z" fill="#BBD0FF"/>
<path d="M148.061 200.977C147.634 200.848 147.163 200.72 146.779 200.549C142.633 202.387 137.974 203.84 134.725 201.148C134.17 200.335 133.828 199.395 133.571 198.455C133.486 197.13 133.657 195.719 133.913 194.693C134.298 193.283 134.939 191.872 135.708 190.505C135.623 190.034 135.537 189.522 135.452 189.009C131.904 187 128.015 185.546 124.04 184.649C123.74 184.863 123.398 185.034 123.099 185.247C121.689 189.308 119.594 193.197 115.363 192.813C114.764 192.77 114.209 192.642 113.739 192.428C111.516 190.804 110.49 187.855 109.849 185.034C109.55 184.777 109.208 184.478 108.909 184.179C107.498 184.435 106.13 184.734 104.805 185.076C102.369 185.803 99.7189 186.701 97.7528 188.154C97.7528 188.496 97.71 188.88 97.6673 189.222C99.4197 192.214 101.215 195.292 100.36 198.754C99.548 202.088 95.8293 202.686 92.9656 202.302C91.4696 201.661 89.9736 200.72 88.6058 199.694C88.1784 199.694 87.751 199.652 87.3663 199.609C85.1864 203.84 83.263 207.815 82.1944 212.047C82.2799 212.261 82.4081 212.474 82.4936 212.731C83.0493 212.945 83.5622 213.158 84.0751 213.458C87.3235 214.526 90.0591 216.364 89.9736 219.912C89.9308 222.562 87.751 224.271 84.9727 225.34C84.417 225.767 83.8186 226.109 83.1775 226.451C83.0493 226.665 82.8783 226.879 82.7501 227.092C84.0751 232.093 85.7848 236.581 88.3494 240.599C88.6913 240.642 89.0332 240.727 89.3752 240.813C90.3155 240.428 91.2131 240.129 92.1962 239.915C95.4874 238.548 98.7359 238.462 100.788 241.753C102.625 244.745 101.642 248.165 99.8899 251.413C99.8899 251.584 99.9327 251.755 99.9327 251.926C103.78 254.576 108.054 256.884 112.67 256.97C112.841 256.841 112.969 256.713 113.14 256.628C113.183 256.5 113.226 256.371 113.268 256.243C113.226 254.747 113.61 253.123 114.294 251.712C114.508 251.285 114.722 250.857 115.021 250.473C115.961 249.148 117.201 248.165 118.825 247.78C121.432 247.182 123.441 248.592 124.809 250.601C125.45 251.37 125.92 252.311 126.177 253.379C126.348 253.849 126.476 254.362 126.604 254.833C126.903 254.961 127.245 255.089 127.545 255.26C131.477 254.191 135.409 252.695 138.914 250.516C138.957 250.345 139 250.174 139.042 250.003C136.478 247.524 134.683 242.822 136.948 239.787C138.658 237.479 141.692 237.436 144.342 238.291C145.667 238.676 146.864 239.189 148.018 239.83C148.189 239.787 148.36 239.702 148.531 239.659C149.942 236.624 151.053 233.376 151.822 229.956C151.737 229.871 151.694 229.785 151.609 229.7C149.6 229.187 147.676 228.418 146.052 227.306C143.701 225.725 141.35 222.861 142.846 219.869C143.231 219.142 143.701 218.501 144.3 217.946C145.967 215.894 148.959 214.868 151.651 214.654C151.822 214.612 151.951 214.526 152.122 214.483C152.25 214.312 152.335 214.099 152.421 213.928C151.694 209.226 150.326 204.866 148.061 200.977ZM123.142 227.563C120.663 231.58 114.679 231.623 111.089 229.187C110.105 228.546 109.251 227.691 108.524 226.708C107.926 226.109 107.413 225.425 107.028 224.613C102.668 215.509 113.311 208.157 121.261 213.158C126.091 216.236 125.835 223.203 123.142 227.563Z" fill="#335FFF"/>
<path d="M98.052 225.255C96.0858 217.048 101.771 206.661 110.618 204.268C110.533 203.84 110.405 203.37 110.319 202.943C103.181 205.593 96.2568 212.004 95.8721 219.912C95.9148 222.134 96.3423 224.058 97.0262 225.81C97.3254 225.682 97.6673 225.468 98.052 225.255Z" fill="white"/>
<path d="M102.369 232.136C101.514 231.452 100.788 230.683 100.189 229.871C99.9327 230.042 99.719 230.213 99.4625 230.384C100.617 232.051 101.984 233.675 103.438 235.385C103.78 234.957 104.121 234.572 104.463 234.188C103.737 233.589 102.967 232.948 102.369 232.136Z" fill="white"/>
<path d="M129.126 210.081C129.639 209.611 130.195 209.14 130.707 208.628C129.04 206.832 126.903 205.336 124.339 204.311C123.997 204.823 123.655 205.294 123.27 205.764C125.536 206.79 127.502 208.286 129.126 210.081Z" fill="white"/>
<path d="M131.819 213.97C132.332 215.039 132.759 216.193 133.058 217.347C134.383 220.767 134.554 224.827 132.973 227.99C132.246 229.443 131.22 230.854 130.066 232.136C129.682 232.649 129.254 233.119 128.784 233.547C128.528 233.76 128.271 233.931 128.057 234.145C127.587 234.53 127.16 234.914 126.647 235.256C125.835 235.855 124.937 236.282 124.04 236.667C123.227 237.137 122.33 237.479 121.432 237.735C120.62 238.077 119.808 238.462 119.039 238.932C119.081 239.317 119.081 239.702 119.124 240.086C127.715 238.163 135.794 231.88 135.708 222.134C135.666 218.715 134.982 215.552 133.657 212.816C133.016 213.244 132.417 213.629 131.819 213.97Z" fill="white"/>
<path opacity="0.19" d="M174.69 90.5292C175.758 90.9139 176.998 90.8711 178.28 90.1445C180.289 89.0332 181.486 86.6396 182.042 84.246C181.956 76.5523 181.871 68.8586 181.828 61.2076C181.101 63.3448 180.417 65.5247 179.733 67.7045C179.434 68.8586 179.092 69.9699 178.622 71.0385C178.109 73.6031 176.912 76.1676 174.775 77.3644C173.621 78.0056 172.51 78.091 171.484 77.8346C171.484 81.2113 171.484 84.588 171.484 87.9219C172.382 89.3751 173.493 90.3155 174.69 90.5292Z" fill="#335FFF"/>
</svg>
