<svg width="178" height="224" viewBox="0 0 178 224" fill="none" xmlns="http://www.w3.org/2000/svg">
<path d="M57.9544 173.432C56.4463 165.138 56.0154 156.52 55.8 148.118C48.9058 149.087 42.227 151.457 35.1173 151.026C33.1783 150.919 33.0706 153.504 34.471 154.15C36.1946 161.368 36.0868 168.154 41.4729 173.756C47.6131 180.219 56.7695 182.912 64.7409 186.79C61.9401 182.697 58.9239 178.495 57.9544 173.432Z" fill="#EDEDED"/>
<path d="M44.7046 61.4016C44.7046 61.4016 44.7046 61.2939 44.7046 61.4016C44.7046 54.8306 44.5969 48.3673 44.5969 41.7962L44.4892 41.6885C30.1621 42.658 15.7274 41.0422 1.29264 41.3653C1.0772 48.0441 0.969477 54.6151 0.861755 61.2939C15.4042 62.048 30.0544 61.7248 44.7046 61.4016Z" fill="#FF9999"/>
<path d="M167.4 61.4017C167.077 54.3997 166.861 47.5055 166.754 40.5036C158.351 40.6113 149.734 41.1499 141.331 40.5036C135.622 40.8268 129.913 41.0422 124.096 41.0422C124.096 47.8287 124.096 54.5075 123.988 61.2939C138.53 62.048 152.965 61.7248 167.4 61.4017Z" fill="#88A7FF"/>
<path d="M165.461 127.543C166.323 124.096 166.969 120.649 167.508 117.202C167.508 117.094 167.508 116.986 167.508 116.986C167.185 115.37 167.185 113.539 167.4 111.816C167.292 99.5352 167.831 87.3626 168.046 75.19C167.831 70.558 167.615 66.0337 167.4 61.4016C152.965 61.7248 138.531 62.1557 124.096 61.2939C123.988 75.5132 123.988 89.7325 123.988 103.952C123.988 104.275 123.88 104.49 123.88 104.706C123.88 105.46 123.88 106.214 123.88 107.076C123.988 107.183 123.988 107.399 123.988 107.614C124.096 108.799 123.88 109.877 123.665 110.846C123.557 111.277 123.342 111.6 123.234 111.923C121.187 117.202 114.616 119.787 108.584 120.541C98.9965 121.618 89.3015 121.295 79.7143 121.187C78.0985 121.295 76.4826 121.403 74.8668 121.51C70.4502 121.941 66.0336 122.265 61.7247 121.618C58.2776 121.834 54.8305 121.834 51.5988 120.864C51.168 121.187 50.5216 121.187 49.983 120.756C47.29 118.602 45.8896 115.478 45.5664 112.139V112.031C44.5969 109.23 44.3815 106.322 44.3815 103.305C44.3815 102.875 44.4892 102.551 44.7046 102.336C44.0583 92.5333 45.0278 82.4074 45.0278 72.497C45.0278 68.8344 45.0278 65.1719 44.9201 61.5093C30.0544 61.7248 15.4042 62.0479 0.861776 61.2939C0.754054 68.4035 0.754054 75.6209 0.754054 82.7306C0.754054 90.8097 0.323166 98.7811 0 106.753C0.215444 114.185 0.861776 122.049 2.69305 129.482C3.01622 130.775 3.4471 132.067 3.87799 133.36C3.87799 133.468 3.87799 133.468 3.87799 133.575C8.29459 141.008 12.1726 148.872 20.3595 152.858C30.5931 157.921 43.3042 158.782 54.6151 159.644C60.1089 160.075 65.6027 160.29 71.0965 160.398C73.0355 160.398 75.0822 160.29 77.0212 160.29C86.5008 159.967 95.8726 158.89 105.352 158.675C115.263 158.459 125.819 159.752 135.514 157.382C140.146 156.197 144.347 154.258 148.441 151.996C152.75 148.872 156.305 145.425 159.105 141.331C162.014 137.453 164.168 132.821 165.461 127.543Z" fill="#BBD0FF"/>
<path d="M49.5521 56.9851C47.9363 58.4932 46.2127 59.7858 44.7046 61.4017C44.7046 65.0642 44.8123 68.7268 44.8123 72.3893C44.8123 82.2997 43.8428 92.3179 44.4892 102.228C44.2737 102.444 44.166 102.767 44.166 103.198C44.166 106.106 44.3815 109.122 45.351 111.923V112.031C45.7818 115.37 47.0745 118.494 49.7676 120.649C50.3062 121.08 50.9525 121.08 51.3834 120.756C54.7228 121.834 58.1699 121.726 61.5093 121.511C65.8181 122.157 70.2347 121.834 74.6513 121.403C76.2672 121.295 77.883 121.187 79.4988 121.08C89.0861 121.187 98.7811 121.618 108.368 120.433C114.401 119.787 120.972 117.202 123.019 111.816C123.234 111.492 123.342 111.061 123.449 110.738C123.557 110.307 123.665 109.984 123.773 109.553C121.834 110.307 119.679 110.738 117.632 110.954C108.045 112.031 98.3502 111.708 88.7629 111.6C87.1471 111.708 85.5313 111.816 83.9154 111.923C79.4988 112.354 75.0822 112.677 70.7733 112.031C67.3262 112.246 63.8791 112.246 60.6475 111.277C60.2166 111.6 59.5703 111.6 59.0317 111.169C56.3386 109.015 54.9382 105.891 54.6151 102.551V102.444C53.6456 99.643 53.4301 96.7345 53.4301 93.7183C53.4301 93.2874 53.5378 92.9642 53.7533 92.7488C53.1069 82.9461 54.0764 72.8202 54.0764 62.9098C54.0764 59.6781 54.0764 56.4464 53.9687 53.2148C53.1069 53.9688 52.2452 54.7229 51.2757 55.4769C50.7371 55.9078 50.1984 56.4464 49.5521 56.9851Z" fill="#88A7FF"/>
<path d="M49.5522 56.985C50.0908 56.4464 50.7371 55.9078 51.2757 55.4769C52.1375 54.7229 52.9993 53.9688 53.9688 53.2148C53.9688 46.1051 53.8611 39.1032 53.8611 32.209L44.597 41.7962C44.597 48.3673 44.7047 54.8306 44.7047 61.4016C46.2128 59.6781 47.9364 58.3854 49.5522 56.985Z" fill="#FF5F5F"/>
<path d="M167.508 61.4016C169.016 59.7858 170.739 58.4932 172.463 56.985C173.002 56.4464 173.648 55.9078 174.187 55.4769C175.048 54.7229 175.91 53.9688 176.772 53.2148C176.449 45.782 176.233 38.3491 176.126 30.9163L166.861 40.5036C166.969 47.5055 167.185 54.5074 167.508 61.4016C167.4 61.4016 167.508 61.4016 167.508 61.4016Z" fill="#335FFF"/>
<path d="M177.31 65.6028C177.095 61.5094 176.88 57.3082 176.772 53.2148C175.91 53.9688 175.048 54.7229 174.186 55.4769C173.54 56.0156 173.002 56.5542 172.463 56.9851C170.847 58.4932 169.016 59.7858 167.508 61.4017H167.4C167.615 66.0337 167.831 70.558 168.046 75.1901C167.831 87.3627 167.292 99.643 167.4 111.816C167.185 113.539 167.185 115.37 167.508 116.986C167.508 117.094 167.508 117.202 167.508 117.202C166.969 120.649 166.323 124.096 165.461 127.543C164.168 132.821 162.014 137.453 159.213 141.439C166.969 135.407 172.247 127.974 174.725 117.956C175.587 114.509 176.233 111.062 176.772 107.614C176.772 107.507 176.772 107.399 176.772 107.399C176.449 105.783 176.556 103.952 176.664 102.228C176.556 89.948 177.095 77.7754 177.31 65.6028Z" fill="#88A7FF"/>
<path d="M99.6428 197.993C99.5351 197.993 99.4274 197.993 99.3196 197.993C87.4702 197.454 75.4053 197.239 63.5559 198.209C58.0621 199.07 52.676 200.148 47.1822 201.548C42.6579 202.733 33.6092 204.241 30.8084 208.873C30.1621 210.489 30.3775 212.212 31.6702 214.259C34.9019 216.09 37.8104 218.568 41.4729 219.645C46.105 221.046 50.9525 222.123 55.7999 222.554C65.4949 223.415 75.0822 222.338 84.7772 222.015C94.7953 221.692 105.568 222.446 115.37 219.968C119.895 218.783 126.681 217.491 131.421 214.798C132.929 213.29 133.898 211.458 134.329 209.304C129.051 199.609 108.368 198.747 99.6428 197.993Z" fill="#335FFF"/>
<path d="M116.232 97.8115C116.017 97.8115 115.801 97.7038 115.586 97.5961C113.324 97.5961 111.277 98.3502 109.122 99.6428C108.261 100.935 107.722 102.444 107.507 104.167C106.645 101.582 105.029 99.3197 102.767 98.027C102.767 98.027 102.767 97.9193 102.659 97.9193C102.336 97.8115 102.013 97.7038 101.797 97.5961C100.936 97.2729 99.966 96.9498 98.9965 96.9498C97.1653 97.2729 95.4417 97.8115 93.6104 98.781C92.4255 100.074 91.5637 101.69 90.9174 103.521C90.3788 101.582 89.3015 99.8583 87.578 98.5656C86.7162 97.7038 85.639 97.0575 84.0232 97.0575C81.9764 96.7343 80.0374 97.3807 78.5293 98.8888C78.4216 98.9965 78.3139 98.9965 78.3139 99.1042C76.8058 100.289 76.1595 101.69 75.5131 103.305C75.4054 102.982 75.19 102.659 75.0822 102.444C74.9745 102.228 74.8668 102.013 74.6514 101.797C74.6514 101.797 74.6514 101.69 74.7591 101.69C73.3587 99.6428 71.7429 97.9193 68.9421 97.2729C65.3873 96.5189 61.5093 99.3197 59.2471 101.582C55.2614 105.352 52.4606 110.846 49.4444 115.263C46.3205 119.895 47.0745 124.311 47.3977 129.374C47.1822 138.423 48.3672 147.364 49.3367 156.305C49.7676 160.29 49.983 164.599 50.8448 168.693C51.0602 169.985 51.3834 171.278 51.7066 172.463C51.5988 172.678 51.5988 172.894 51.7066 173.217C52.7838 175.91 54.2919 178.28 55.6923 180.865C56.8772 183.127 58.0622 185.605 59.678 187.544C61.0784 190.452 60.9707 194.007 60.7552 197.454C60.432 201.871 60.6475 206.395 60.6475 210.92C60.6475 214.798 60.2166 219.322 61.4015 223.2C76.3749 223.2 91.456 223.092 106.322 221.8C107.722 213.828 101.905 193.792 112.031 183.881C116.771 179.249 119.895 167.077 119.787 160.937C119.571 151.565 119.571 142.301 119.571 132.929C119.571 128.189 119.787 123.449 121.403 118.925C121.941 117.309 122.588 115.801 123.126 114.293C123.988 107.83 123.988 98.2424 116.232 97.8115Z" fill="#EDEDED"/>
<path d="M109.446 47.1822C106.429 47.1822 103.413 47.29 100.397 47.29C98.3502 47.0745 96.3035 46.9668 94.2568 46.9668C95.5494 45.351 96.1958 42.9811 97.3807 41.2575C98.4579 39.6417 99.6429 38.1336 100.612 36.5178C102.228 33.717 103.736 30.9162 105.137 28.1154C102.659 28.1154 100.289 28.0077 97.8116 28.0077C94.9031 28.0077 91.9946 28.3309 89.0861 28.3309C89.7325 26.7151 90.4865 25.2069 91.3483 23.6988C91.3483 23.5911 91.456 23.5911 91.456 23.4834C92.641 21.4367 93.8259 19.39 95.1186 17.3432C97.3807 12.6035 101.366 4.84749 103.736 0.107722L103.629 0C98.9965 5.49382 91.8869 13.4653 87.4703 19.1745C82.4074 25.4224 77.0213 31.2394 72.1738 37.595C73.6819 37.595 75.2977 37.4873 76.8058 37.3795C80.4684 37.4873 84.2386 37.7027 87.9012 37.3795C84.7772 43.0888 81.761 48.9058 79.6066 55.0459C83.2691 55.2614 87.0394 55.4768 90.702 55.3691C90.702 55.3691 90.702 55.3691 90.8097 55.3691C88.4398 60.8629 79.7143 79.822 78.7448 82.0842C88.763 72.6046 100.074 57.0927 109.769 47.1822C109.661 47.1822 109.553 47.1822 109.446 47.1822Z" fill="#FF5F5F"/>
<path opacity="0.44" d="M122.911 103.952C122.911 104.814 122.803 105.783 122.588 106.753C122.265 108.799 121.834 110.738 121.187 112.785C120.433 114.939 119.033 116.663 118.387 118.817C118.279 119.033 118.171 119.141 118.063 119.356C118.817 124.096 116.878 129.913 114.832 134.114C112.785 138.207 110.631 141.654 110.631 146.394C110.631 149.303 110.846 152.104 110.954 154.904C115.37 167.185 106.106 178.926 99.5352 188.406C97.5962 191.422 94.3645 194.007 94.2568 197.67C94.1491 201.332 94.58 204.887 95.0108 208.55C95.5495 213.182 95.7649 217.814 95.7649 222.446C99.212 222.231 102.659 222.015 106.214 221.692C107.614 213.721 101.582 194.546 111.923 183.774C116.555 179.034 119.787 166.969 119.679 160.829C119.464 151.457 119.464 142.193 119.464 132.821C119.464 128.082 119.679 123.342 121.295 118.817C121.834 117.202 122.48 115.693 123.019 114.185C123.449 111.061 123.665 107.183 122.911 103.952Z" fill="#88A7FF"/>
<path opacity="0.44" d="M101.151 113.862C100.936 114.616 100.612 115.801 100.612 116.878C105.46 115.693 106.753 109.876 107.507 104.167C106.86 102.12 105.675 100.289 104.059 98.9965C104.814 104.059 102.336 109.122 101.151 113.862Z" fill="#88A7FF"/>
<path opacity="0.44" d="M83.3768 115.155C88.332 114.293 90.0556 108.584 91.1328 102.875C91.0251 103.09 91.0251 103.305 90.9174 103.413C90.3788 101.69 89.517 100.074 88.1166 98.8889C88.0089 103.413 85.5313 107.83 84.1309 112.139C83.9154 112.893 83.4846 114.078 83.3768 115.155Z" fill="#88A7FF"/>
<path opacity="0.44" d="M65.7104 113.97C70.6656 113.97 73.3587 108.584 75.4054 103.198C75.2976 102.982 75.1899 102.659 75.0822 102.444C74.9745 102.228 74.8668 102.013 74.6513 101.797C74.6513 101.797 74.6513 101.69 74.759 101.69C74.2204 100.936 73.6818 100.181 73.0355 99.5352C71.9583 103.736 69.0498 107.507 67.0031 111.277C66.6799 111.815 66.0336 112.893 65.7104 113.97Z" fill="#88A7FF"/>
<path opacity="0.14" d="M122.911 103.629C121.941 111.923 116.34 116.878 108.907 122.157C99.8583 128.62 103.198 153.073 96.088 161.583C86.0699 173.648 82.0841 175.587 85.7467 189.375C88.2243 198.639 87.6857 215.336 85.9621 222.769C92.7486 222.554 99.4274 222.231 106.214 221.584C107.614 213.613 101.797 193.577 111.923 183.666C116.663 179.034 119.787 166.861 119.679 160.721C119.464 151.35 119.464 142.085 119.464 132.714C119.464 127.974 119.679 123.234 121.295 118.71C121.834 117.094 122.48 115.586 123.019 114.078C123.449 110.954 123.773 106.86 122.911 103.629Z" fill="#88A7FF"/>
<path d="M150.595 30.9162C144.886 31.2394 139.069 31.4548 133.36 31.4548C131.529 33.717 123.988 41.0421 123.988 41.0421C126.681 40.9343 138.638 40.6112 141.224 40.5035C149.626 41.0421 158.244 40.6112 166.754 40.3957L176.125 30.8085C167.723 30.9162 158.998 31.4548 150.595 30.9162Z" fill="#BBD0FF"/>
<path d="M10.3413 31.7779L1.18494 41.3652C12.6035 41.5806 32.9629 42.4424 44.3815 41.6884L44.4892 41.7961L53.861 32.2088L53.7533 32.1011C39.3185 33.0706 24.8838 31.4548 10.3413 31.7779Z" fill="#FFC5C5"/>
</svg>
