<svg width="413" height="384" viewBox="0 0 413 384" fill="none" xmlns="http://www.w3.org/2000/svg">
<path d="M228.735 92.7276C226.475 85.0298 220.36 78.5265 211.519 80.65C202.811 82.7736 198.689 91.0022 199.687 99.43C199.753 100.094 199.62 100.624 199.354 101.023C199.421 101.222 199.487 101.421 199.554 101.62C199.952 102.682 200.418 103.677 201.016 104.606C209.059 117.48 234.12 111.242 228.735 92.7276Z" fill="#BBD0FF"/>
<path d="M211.452 80.65C202.944 82.7072 198.822 90.604 199.554 98.899C201.947 105.27 206.799 109.517 213.181 111.375C222.553 111.839 232.259 104.938 228.669 92.6612C226.475 85.0298 220.293 78.4601 211.452 80.65Z" fill="#BBD0FF"/>
<path d="M222.886 73.8813C221.29 73.4831 219.629 73.1513 218.033 73.0186C206.932 72.8195 194.967 79.1238 193.172 89.8077C193.106 90.3386 192.84 90.8031 192.574 91.1349C192.441 92.1967 192.308 93.2585 192.308 94.3866C192.241 102.018 196.23 110.379 202.412 115.224L202.877 115.555C206.467 117.347 211.186 119.404 216.305 119.404C219.296 119.404 222.155 118.674 224.681 117.214C226.143 116.418 227.472 115.489 228.735 114.494C230.73 111.906 233.256 109.782 235.05 107.061C236.912 104.274 237.576 101.288 237.842 98.1028C237.045 90.0732 234.652 76.8675 222.886 73.8813ZM213.181 111.375C206.799 109.517 201.947 105.27 199.554 98.8991C198.889 90.6041 203.01 82.7736 211.452 80.65C220.293 78.4601 226.475 85.0298 228.669 92.7276C232.325 105.004 222.553 111.839 213.181 111.375Z" fill="#BBD0FF"/>
<path d="M274.934 96.0456L274.868 93.1921C274.735 85.4943 273.539 78.1284 271.212 71.1605L271.013 70.4969C267.489 71.8905 263.435 72.8859 260.31 71.6251C259.18 71.4923 258.05 71.2269 256.987 70.7624L256.322 70.5633C255.192 70.3642 253.929 69.8333 252.865 67.8425C252.599 67.378 252.4 66.9135 252.267 66.449L252.001 65.8517C250.738 62.9982 250.605 60.5429 251.536 58.2867L251.669 57.8885C252.201 55.6986 253.397 53.6415 254.992 51.8497C255.458 51.5843 255.857 51.1861 255.99 50.788L258.183 48.6644L255.923 46.6073C250.605 41.6966 244.091 37.8477 235.981 34.7288C234.718 34.2643 233.256 33.8661 231.594 33.468L230.397 33.2025C230.198 34.1316 229.932 35.0606 229.666 35.9896C229.533 36.1224 229.467 36.2551 229.334 36.4542C226.409 41.8293 223.218 48.399 217.568 49.9253C217.103 49.9916 216.637 50.058 216.172 50.058H215.972C210.522 49.9916 207.331 46.74 205.802 42.9575C204.14 40.6349 202.944 37.9804 202.478 35.1933L201.149 35.5251C197.559 36.3878 193.903 37.4496 190.247 38.7104C183.932 40.7676 178.348 43.6874 173.562 47.2709L172.033 48.399L172.1 48.7308C173.23 50.1244 174.294 51.8497 175.291 53.8405C177.351 56.0968 178.348 59.8793 178.083 63.5955C178.083 63.7946 178.083 63.9936 178.149 64.2591C177.484 66.9798 176.487 69.5015 174.559 71.6914C171.036 75.673 165.386 76.2039 160.534 75.3412C160.268 75.2749 160.068 75.2085 159.802 75.1421L157.542 74.6113L156.545 76.7348C153.354 83.5699 151.626 90.9359 151.427 98.5009L151.36 100.824L153.62 101.354C160.534 103.013 167.447 105.203 168.643 111.972C169.973 119.272 165.586 124.182 161.664 127.036L159.404 128.695L160.999 130.951C166.051 138.118 172.898 143.825 180.874 147.607L183.068 148.603L184.863 146.081C185.727 144.82 186.591 143.626 187.588 142.763C189.383 141.171 192.374 140.772 194.9 141.701C199.554 143.36 202.013 146.214 203.542 151.589L204.074 153.514L206.068 153.713C208.527 153.912 211.053 154.044 213.513 154.044C218.366 154.044 223.085 153.646 227.605 152.784L230.53 152.253L229.865 149.333C229.467 147.541 229.267 145.617 229.4 143.759C229.267 142.299 229.334 140.839 229.6 139.445C230.663 136.592 232.724 134.269 236.446 132.875C243.094 131.283 249.807 134.269 254.793 139.047C254.926 139.18 255.059 139.312 255.192 139.512L256.388 138.383C260.576 134.269 264.365 129.292 268.154 122.656L269.683 120.002L266.958 118.674C264.166 117.281 255.192 112.237 257.585 105.27C259.779 98.8327 265.761 96.9746 269.55 96.3774C270.348 96.5765 271.013 96.5101 271.544 96.1783C271.744 96.1783 271.943 96.1783 272.076 96.1783L274.934 96.0456ZM254.594 130.354C251.935 128.23 249.076 126.505 245.819 125.244C242.163 123.851 236.912 126.704 233.588 127.965C225.079 131.15 222.886 139.047 222.886 147.342C222.886 147.475 222.886 147.607 222.952 147.74C219.163 148.205 215.241 148.404 211.253 148.271C208.129 135.198 191.377 129.757 181.872 139.246C179.811 137.056 177.152 135.663 174.958 133.672C172.964 131.88 171.169 129.823 169.109 128.098C173.695 123.187 175.623 117.215 174.493 110.844C172.831 101.819 164.921 98.3682 158.739 96.6428C159.071 96.311 159.271 95.9129 159.404 95.3156C159.935 92.6612 160.799 90.1396 161.331 87.5515C161.73 85.4943 161.664 83.3708 162.328 81.4464C164.256 81.8445 166.317 82.11 168.311 82.11C173.496 82.11 177.351 80.2519 179.744 76.5357C183.201 73.1513 184.398 68.3734 184.265 63.33C184.398 62.7328 184.464 62.1356 184.597 61.5383C184.73 60.5429 184.398 59.7466 183.866 59.083C183.4 55.8977 182.47 52.8451 181.406 50.1907C185.328 48.2663 189.184 46.4746 193.239 44.8819C197.825 43.0902 196.496 42.6257 198.091 46.01C200.285 50.7216 205.603 53.376 210.123 55.2341C214.709 57.1585 218.631 56.6277 222.022 54.6369C227.672 52.5133 231.461 47.4036 233.123 41.6966C238.906 42.8247 244.29 45.6782 249.143 48.9962C246.683 51.5843 245.553 55.5659 245.354 59.4811C245.154 60.8747 245.221 62.3346 245.487 63.7946C245.62 65.0554 245.819 66.3162 246.085 67.378C248.345 76.403 259.579 78.5265 267.357 78.4602C267.357 78.4602 267.357 78.4602 267.423 78.4602C268.354 82.309 268.885 86.2907 269.151 90.405C262.437 89.7414 253.331 94.453 251.536 100.824C248.943 110.114 253.065 116.285 259.845 121.528C259.646 123.121 258.117 124.846 257.253 126.107C256.255 127.567 255.657 129.093 254.594 130.354Z" fill="#BBD0FF"/>
<path d="M330.972 141.303L329.376 138.782H323.194V139.445H323.66C323.926 146.612 324.457 167.715 324.79 181.385C324.723 183.973 324.657 186.561 324.59 189.149C324.457 193.197 324.391 197.245 324.324 201.227C324.191 207.796 324.059 214.366 323.926 220.936C323.726 228.766 323.593 236.796 323.46 244.825C304.715 244.029 284.108 243.697 259.38 243.697C244.955 243.697 230.264 243.83 216.106 243.962L204.074 244.029C199.82 244.029 195.565 244.095 191.311 244.095C171.768 244.095 152.424 243.763 133.878 243.033C127.297 242.768 120.583 242.635 114.069 242.569C101.04 242.303 87.6788 242.104 74.65 240.777C74.3841 232.88 74.3176 224.917 74.3176 217.153C74.3176 208.128 74.2511 198.838 73.8523 189.68L73.6528 185.897C73.254 176.939 72.7887 167.648 72.9881 158.69V157.827C73.1211 153.646 73.1875 142.763 72.7887 137.454C71.4592 136.194 70.1962 134.8 69.1326 133.274H68.6673L64.7454 137.521L64.3466 140.507C65.7425 146.28 65.5431 152.452 65.4101 158.424C65.1442 168.909 65.7425 179.46 66.2743 189.945C67.1384 208.924 66.2743 228.368 67.3379 247.546C89.2076 250.333 111.543 249.736 133.545 250.599C157.077 251.461 180.542 251.793 204.074 251.594C246.417 251.262 288.761 250.665 330.972 252.788C331.105 235.667 331.637 218.547 331.969 201.359C332.102 194.723 332.301 188.021 332.501 181.318C331.902 158.69 331.038 140.839 330.972 141.303Z" fill="#E6EFFF"/>
<path d="M148.302 132.809L72.6556 136.459C73.1874 141.104 73.121 153.447 72.988 157.893V158.756C72.7886 167.715 73.1874 177.005 73.6527 185.964L73.8522 189.746C74.251 198.904 74.3175 208.194 74.3175 217.219C74.3175 224.983 74.3175 233.013 74.6498 240.844C87.6786 242.104 101.04 242.37 114.069 242.635C120.583 242.768 127.297 242.901 133.878 243.1C152.424 243.83 171.701 244.162 191.311 244.162C195.565 244.162 199.819 244.162 204.074 244.095L216.105 244.029C230.264 243.896 244.955 243.763 259.38 243.763C284.108 243.763 304.715 244.162 323.46 244.892C323.593 236.862 323.726 228.832 323.925 221.002C324.058 214.432 324.258 207.863 324.324 201.293C324.391 197.245 324.524 193.263 324.59 189.215C324.657 186.627 324.723 184.039 324.79 181.451C324.258 165.259 323.859 145.749 323.66 139.512L148.302 132.809Z" fill="white"/>
<path d="M329.509 112.835C312.16 113.565 294.81 112.768 277.46 111.773C252.998 110.379 228.47 109.45 203.941 109.251C178.149 109.052 152.357 110.114 126.499 109.583C109.814 109.251 93.1295 108.787 76.4446 108.322C72.9215 108.455 69.3984 108.521 65.9418 108.389C65.7424 118.144 64.8783 127.899 64.6788 137.653C91.0023 137.653 117.326 138.052 143.649 138.782C168.909 138.649 194.169 138.715 219.429 139.512C256.588 140.772 293.747 143.161 330.905 141.303C330.639 131.814 329.709 122.324 329.509 112.835Z" fill="#335FFF"/>
<path d="M383.885 62.202C383.552 61.2729 383.486 60.2775 383.685 59.2821C384.416 56.4286 387.075 55.1014 389.867 54.5705C389.601 53.1106 389.269 51.717 388.937 50.3898C388.671 49.3944 388.405 48.4654 388.072 47.5364C387.275 46.6073 386.477 45.6119 385.613 44.6165C385.413 44.8156 385.214 45.0147 385.015 45.2138C381.957 47.3373 376.639 49.0626 373.182 46.74C371.122 45.3465 369.726 43.2229 370.058 40.6349C370.324 38.5114 371.454 36.8524 372.651 35.127C371.653 34.5961 370.723 34.1316 369.726 33.6671C369.194 33.6007 368.596 33.5344 368.064 33.5344C365.272 32.8708 362.48 32.539 359.755 32.6053C360.619 35.7906 360.486 39.8386 358.359 41.6303C353.506 45.6783 349.451 39.6395 347.656 35.2597C344 36.8524 340.677 39.1086 337.752 42.0285C339.347 43.1566 341.474 44.7492 341.807 46.74C342.339 49.7262 340.278 51.9825 337.287 52.1816C335.292 52.3143 333.165 51.717 331.238 51.0534C329.576 54.4378 328.446 58.2203 327.98 62.0029C331.038 61.8701 334.561 61.7374 336.622 64.3255C338.417 66.6481 338.084 69.2361 335.691 70.8951C333.631 72.3551 330.972 73.0187 328.313 73.4168C329.044 77.0666 330.373 80.5174 332.301 83.5699C332.501 83.5036 332.634 83.4372 332.833 83.3708C335.492 81.2473 339.148 79.721 342.272 81.4464C344.466 82.6409 346.128 85.3617 345.928 87.8833C345.795 89.8741 344.998 91.5995 344.266 93.3912C347.856 94.8512 351.445 95.7802 355.035 96.1784C354.902 93.0594 355.434 89.4096 358.558 88.4806C359.223 88.0161 359.954 87.6179 360.885 87.4188C365.272 86.5561 368.994 90.4714 371.388 94.0548C374.578 92.794 377.57 91.0686 380.295 88.746C378.567 87.4188 376.772 85.9589 376.107 83.8354C375.243 81.2473 376.44 78.9247 378.5 77.3321C379.763 76.403 381.226 75.9385 382.622 75.8721C384.749 75.1422 387.208 75.474 389.535 75.7394C390.332 73.2841 390.731 70.5633 390.864 67.8426C387.806 67.2453 384.416 65.6527 383.885 62.202ZM364.674 71.8242C359.622 74.744 350.183 72.9523 349.119 66.2499C348.521 62.8656 349.784 58.8839 352.31 56.9595C352.642 56.6277 353.041 56.2959 353.44 56.0305C356.099 54.3715 358.957 54.3715 361.417 55.3669C367.599 56.7604 371.786 67.7098 364.674 71.8242Z" fill="#F9B2B2"/>
<path d="M260.576 228.766C253.663 216.489 238.972 208.46 225.345 204.544C225.146 204.345 224.946 204.146 224.68 204.014C214.111 197.577 197.493 201.492 186.924 206.27C173.296 212.441 162.927 222.993 157.21 236.862C151.294 251.262 149.499 268.449 156.545 282.65C163.658 296.918 176.953 305.545 191.71 310.124C208.262 315.233 220.493 312.778 236.114 305.545C249.276 299.44 258.914 282.451 263.102 269.246C267.489 255.177 268.021 241.905 260.576 228.766Z" fill="#88A7FF"/>
<path d="M240.568 239.649C236.313 232.15 227.406 227.24 219.03 224.851C218.897 224.718 218.764 224.585 218.631 224.519C212.184 220.604 202.013 222.993 195.565 225.912C187.256 229.695 180.875 236.132 177.418 244.56C173.828 253.319 172.698 263.87 177.019 272.497C181.34 281.19 189.516 286.499 198.49 289.286C208.594 292.405 216.105 290.879 225.611 286.499C233.654 282.783 239.504 272.431 242.097 264.335C244.756 255.775 245.088 247.679 240.568 239.649Z" fill="#335FFF"/>
<path d="M219.629 250.997C218.233 248.475 215.241 246.882 212.449 246.086C212.383 246.02 212.383 246.019 212.316 245.953C210.189 244.626 206.799 245.422 204.606 246.418C201.814 247.679 199.687 249.802 198.556 252.656C197.36 255.575 196.961 259.092 198.423 262.012C199.886 264.932 202.611 266.658 205.603 267.587C208.993 268.648 211.452 268.117 214.643 266.658C217.302 265.397 219.296 261.946 220.16 259.225C221.024 256.372 221.157 253.717 219.629 250.997Z" fill="white"/>
<path d="M137.268 337.198C137.002 334.743 136.67 332.288 136.404 329.832C137.999 333.018 138.797 336.535 139.528 339.986C140.392 343.834 141.19 347.617 142.054 351.466C146.508 346.622 149.765 343.171 149.765 343.171C149.765 343.171 147.372 323.196 147.438 315.3L112.34 348.413C112.207 360.955 113.803 370.578 113.936 383.12C114.667 381.394 121.048 374.493 125.835 369.383C125.702 362.946 125.369 356.443 124.771 350.006C126.1 355.58 127.297 361.022 128.493 366.53C129.69 365.202 130.621 364.207 131.019 363.809C133.678 360.756 136.47 357.637 139.063 354.784C138.664 348.878 137.999 343.038 137.268 337.198Z" fill="#335FFF"/>
<path d="M121.248 304.549C117.858 307.005 113.736 310.19 110.346 312.645C114.667 313.84 123.973 319.746 128.294 320.94C122.444 319.281 110.944 317.622 104.962 316.494C100.907 319.348 94.9908 323.727 90.6036 326.78C95.5226 328.306 103.234 331.292 109.549 332.951C102.635 331.624 94.7249 330.894 88.277 329.965C88.2105 329.965 88.144 329.965 88.0111 329.965C87.4793 329.766 87.014 329.633 86.4822 329.434C80.8319 333.349 75.3146 337.265 70.6615 340.715C80.0343 340.782 89.2076 343.237 98.4474 344.896C102.103 345.56 105.826 346.223 109.482 346.887C122.577 335.738 133.612 323.329 147.438 313.11C138.332 311.849 130.355 305.943 121.248 304.549Z" fill="#335FFF"/>
<path d="M198.822 271.435C202.944 266.193 207.663 261.481 212.649 257.035C211.585 254.912 209.392 253.518 207.065 252.722C203.21 256.77 200.152 261.481 196.296 265.529C192.308 268.648 188.652 272.099 185.062 275.683C183.666 276.877 182.337 278.072 181.007 279.266C179.279 280.859 177.484 282.385 175.69 283.845C161.265 298.046 146.175 311.915 130.355 324.258C127.496 327.112 124.571 329.965 121.713 332.819C117.193 337.198 112.274 343.834 106.491 347.219C103.632 350.006 100.907 352.926 98.5804 356.111C98.115 356.509 97.6497 356.907 97.2509 357.239C92.3983 355.713 86.2828 358.168 87.2134 364.34C87.3463 365.335 87.7452 366.264 88.277 367.06C88.5429 367.857 89.0082 368.587 89.54 369.25C91.933 372.037 97.7162 373.564 100.708 371.175C103.499 368.985 103.566 364.207 102.037 361.154C102.303 360.756 102.635 360.358 102.901 359.96C111.609 352.727 119.985 344.299 127.563 336.004C136.736 325.917 147.172 318.286 157.808 309.858C168.843 301.098 178.614 291.211 188.187 280.859C188.585 280.394 189.051 279.93 189.516 279.531C191.444 277.872 193.305 276.147 195.166 274.488C196.23 273.493 197.493 272.431 198.822 271.435Z" fill="#BBD0FF"/>
<path d="M210.721 186.561C206.799 186.561 202.811 186.826 198.889 187.424C197.692 187.689 196.496 188.021 195.299 188.353C187.588 190.874 179.479 194.192 171.435 196.117C170.638 196.515 169.906 196.913 169.109 197.311C168.71 197.577 168.311 197.842 167.846 198.041C166.649 198.838 165.386 199.7 164.19 200.497C157.143 205.739 151.427 213.039 147.239 221.068C143.716 229.297 141.589 237.99 140.525 246.882C141.522 246.882 142.586 246.882 143.583 246.816C146.242 228.965 153.753 210.252 170.305 201.027C185.794 192.401 204.207 187.623 221.623 191.472C224.215 191.936 226.808 192.533 229.267 193.396C229.6 192.533 229.998 191.737 230.464 190.874C224.082 188.751 217.435 186.959 210.721 186.561Z" fill="#BBD0FF"/>
<path d="M142.187 212.176C141.057 211.579 139.993 210.981 138.996 210.318C132.615 217.684 130.222 228.301 128.626 237.658C127.031 247.214 125.967 257.633 128.892 267.122C130.089 266.923 131.285 266.658 132.482 266.326C131.884 262.809 131.551 259.424 131.551 255.974C130.022 241.839 132.947 228.501 140.725 216.158C141.123 214.764 141.655 213.437 142.187 212.176Z" fill="#BBD0FF"/>
<path d="M265.894 298.577C272.209 287.959 276.463 277.143 278.059 264.003C277.062 263.804 276.065 263.671 275.067 263.605C272.342 277.873 267.357 290.945 257.585 300.7C242.828 318.817 211.785 324.988 189.782 317.357C189.516 318.352 189.184 319.414 188.785 320.409C199.354 322.666 209.259 324.723 220.293 324.325C226.143 322.997 232.059 321.67 237.776 319.812C241.764 318.087 245.686 316.03 249.409 314.105C252.732 312.38 255.79 310.256 258.516 308C259.18 307.336 259.845 306.606 260.443 305.877C262.437 303.421 264.232 301.032 265.894 298.577Z" fill="#BBD0FF"/>
<path d="M280.784 297.515C284.374 292.206 287.697 286.566 289.027 280.328C290.423 274.09 293.481 266.724 293.481 260.353C293.547 247.811 291.619 235.203 287.631 223.258C286.501 223.523 285.304 223.789 284.108 223.922C291.154 245.887 290.556 275.616 277.062 295.325C278.391 296.055 279.588 296.785 280.784 297.515Z" fill="#BBD0FF"/>
<path d="M399.838 338.26C398.043 326.913 390.465 321.405 381.226 319.945C383.153 318.286 384.682 316.162 385.945 312.977C388.272 307.27 387.208 299.639 383.286 294.927C381.824 293.202 380.295 291.808 378.7 290.614C366.668 285.106 350.315 286.101 337.22 287.76C336.489 292.936 337.021 298.776 337.287 304.085C337.553 311.119 338.35 318.087 338.483 325.121C338.616 337.663 338.948 350.47 338.217 363.079C347.324 363.676 356.431 364.472 365.471 364.738C371.188 364.074 376.307 363.145 378.766 362.813C384.483 362.084 393.723 361.752 397.046 355.912C399.838 350.67 400.702 344.1 399.838 338.26ZM352.908 298.776C353.107 298.71 353.373 298.71 353.573 298.71C359.821 298.776 366.535 296.918 372.185 300.501C374.911 302.227 376.439 304.947 376.572 307.735C376.24 308.995 375.775 310.256 375.243 311.451C373.515 315.432 368.928 315.565 365.338 315.698C359.954 315.83 354.503 315.963 349.119 315.963C349.119 310.256 349.185 304.549 349.185 298.842C350.382 298.71 351.645 298.71 352.908 298.776ZM386.278 348.48C385.214 350.802 382.156 352.129 378.567 352.926C373.049 353.523 366.269 352.063 362.015 352.063C357.893 351.997 353.639 351.798 349.451 352.063C350.116 345.095 349.784 338.128 349.451 331.16C356.165 330.297 363.477 330.43 369.992 330.695C378.168 331.027 382.954 333.283 387.74 339.388C388.139 341.976 387.806 344.963 386.278 348.48Z" fill="#FF5F5F"/>
<path d="M292.949 346.754C289.359 346.29 286.501 345.162 283.377 343.038C283.31 342.972 283.177 342.905 283.044 342.839C281.316 342.375 279.056 342.242 277.46 343.171C276.663 343.635 275.998 344.299 275.333 344.963C275.067 346.688 274.934 348.48 273.937 350.006C273.14 351.267 271.411 351.93 270.015 351.001C267.622 349.475 266.891 346.223 266.226 343.503C264.033 339.919 261.972 336.004 261.507 335.407C260.044 333.416 256.654 332.421 254.66 334.411C252.932 336.137 251.935 338.194 251.137 340.317C250.871 342.242 250.539 344.034 249.675 345.825C249.01 347.219 247.016 347.551 245.753 346.821C242.362 344.896 234.784 333.217 230.53 340.317C228.669 343.436 228.071 347.816 229.068 351.466C230.198 351.2 231.261 350.935 232.391 350.67C231.195 346.688 231.993 341.578 237.377 343.304C239.571 343.967 240.966 347.152 242.296 348.878C243.094 349.873 243.958 350.603 244.888 351.068C245.021 351.068 245.154 351.068 245.221 351.134C249.675 351.997 251.602 348.944 253.065 345.361C254.128 342.905 253.663 340.45 256.056 338.791C256.92 338.194 258.117 338.327 258.914 338.791C260.842 339.853 261.241 341.976 261.839 343.901C262.836 347.086 264.565 349.541 266.293 352.395C266.359 352.528 266.426 352.66 266.492 352.727C267.024 353.125 267.556 353.457 268.088 353.855C268.752 354.319 269.417 354.651 270.082 354.983C273.073 355.182 276.33 354.983 276.929 351.333C277.261 349.276 277.46 347.086 279.654 346.223C281.715 345.427 283.31 346.622 284.839 347.882C284.905 347.949 284.972 348.015 285.105 348.148C286.235 348.811 287.564 349.011 288.827 349.409C289.891 349.741 290.888 350.006 291.952 350.338C292.284 349.143 292.616 347.949 292.949 346.754Z" fill="#88A7FF"/>
<path d="M410.275 179.46C408.945 178.133 407.549 176.939 405.954 175.811C405.289 175.346 404.624 174.815 403.96 174.284C400.304 172.957 396.847 172.426 392.991 172.426C392.991 172.426 392.991 172.426 392.925 172.426C393.257 171.696 393.723 171.033 394.122 170.303C394.454 169.639 394.786 169.042 395.119 168.378C400.038 160.879 406.153 155.504 412.934 150.129C411.87 149.134 410.806 148.205 409.809 147.209C400.835 152.651 392.194 161.809 388.804 172.227C388.072 172.426 387.341 172.625 386.61 172.891C369.925 178.465 356.298 198.572 356.099 215.958C357.162 216.091 358.226 216.091 359.356 216.091C360.486 201.426 372.385 180.19 387.807 176.142C387.74 176.408 387.607 176.607 387.541 176.872C387.009 178.73 387.142 180.788 387.208 182.712C387.208 182.977 387.275 183.243 387.341 183.508C387.408 184.57 387.541 185.565 387.74 186.627C389.07 193.33 392.726 199.169 399.905 200.297C403.361 200.828 406.486 199.767 409.078 197.842C411.139 195.652 413 192.998 413 190.144C413 186.295 411.936 182.778 410.275 179.46ZM408.347 191.339C406.419 197.643 398.642 197.51 395.119 192.865C393.39 190.609 392.26 187.888 391.728 185.035C391.795 184.968 391.861 184.968 391.928 184.902C391.396 182.513 390.864 180.124 391.197 177.602C391.263 177.27 391.33 177.005 391.396 176.673C391.263 176.408 391.33 176.076 391.529 175.877C395.517 175.744 399.041 176.275 402.83 177.403C407.416 180.456 410.142 185.366 408.347 191.339Z" fill="#88A7FF"/>
<path d="M114.401 36.985C113.404 35.4588 112.274 34.4634 110.878 33.9325C109.216 32.9371 107.155 33.2025 105.294 33.9988C103.433 34.5961 102.103 35.5915 101.173 36.985C101.04 37.1178 100.907 37.2505 100.774 37.4496C99.5109 39.0422 99.378 41.4312 99.1121 43.3556C99.0456 43.7538 99.0456 44.0856 98.9791 44.4837C98.9127 44.4837 98.8462 44.4837 98.7132 44.4837C96.9185 44.4837 95.1237 44.2847 93.3289 43.9529C83.2914 41.4312 76.0458 35.5915 71.7915 26.1683C71.3926 24.9739 71.0603 23.7794 70.7279 22.6512C70.1296 22.784 69.4649 22.8503 68.8002 22.9167C68.9331 23.3812 68.9996 23.7794 69.1325 24.2439C68.9996 24.443 68.9996 24.6421 69.1325 24.9739C69.3984 25.6375 69.6643 26.2347 69.9967 26.8983C71.0603 29.9509 72.3897 32.8044 74.3839 35.5251C77.1094 39.2413 81.1642 41.5639 85.2856 43.4883C85.485 43.5547 85.618 43.6874 85.7509 43.7538C86.3492 44.0192 86.9474 44.2847 87.5457 44.5501C87.6122 44.5501 87.6786 44.6165 87.7451 44.6165C89.407 45.3464 91.0688 45.8109 92.7306 46.1427C94.7248 46.6073 96.7855 46.8727 98.8462 47.0054C98.8462 47.8018 98.9127 48.6644 99.1121 49.4608C99.0456 49.5935 99.0456 49.7926 99.1121 49.9916C99.4445 50.9207 99.4444 52.1152 99.6439 53.1106C99.7768 53.9069 99.9098 54.7032 100.109 55.4332C100.109 55.6322 100.176 55.8313 100.176 56.0304C100.176 56.2295 100.309 56.3622 100.375 56.4949C100.375 56.5613 100.442 56.694 100.442 56.7604C100.508 56.8931 100.574 57.0258 100.641 57.1585C101.904 62.9319 104.829 67.2453 107.887 72.2223C108.352 71.7578 108.884 71.3596 109.415 71.0278C106.092 65.5199 103.3 60.8747 102.303 54.7696C101.97 54.0396 101.705 53.2433 101.439 52.3806C101.372 51.9161 101.306 51.3852 101.239 50.8543C101.306 50.7216 101.372 50.5225 101.239 50.2571C100.907 49.1953 100.774 48.1336 100.774 47.0718C101.505 47.0718 102.236 47.0054 102.901 46.9391H102.968C103.1 46.9391 103.3 46.9391 103.433 46.8727C106.092 46.6073 108.684 46.01 110.878 44.9483C112.606 44.0856 113.736 42.692 114.202 41.1657C114.933 39.7058 115.265 38.3122 114.401 36.985ZM109.083 43.0238C107.155 44.2183 103.832 44.8819 101.572 45.0146C101.505 45.0146 101.439 45.081 101.306 45.081C101.106 45.081 100.973 45.081 100.774 45.081C100.84 44.351 100.973 43.5547 101.106 42.8247C101.173 42.4266 101.239 42.0948 101.306 41.763C101.572 40.8339 101.838 39.9712 102.236 39.2413C102.901 37.9804 103.965 36.985 105.56 36.1224C107.488 35.0606 109.748 35.326 111.343 36.786C113.803 38.9758 110.811 41.8957 109.083 43.0238Z" fill="#F9B2B2"/>
<path d="M301.191 15.5507C301.058 11.6355 301.125 7.72022 301.058 3.87132C301.058 2.87592 300.859 1.88052 300.793 0.951477C298.865 1.01784 296.937 1.01784 295.009 1.0842C294.943 8.71562 295.076 16.0816 295.541 23.713C297.535 23.713 299.53 23.6467 301.524 23.6467C301.524 22.2531 301.59 20.8595 301.59 19.466C301.391 18.1388 301.258 16.8779 301.191 15.5507Z" fill="#88A7FF"/>
<path d="M301.59 9.37918C297.668 9.5119 293.746 9.44554 289.891 9.5119C288.894 9.5119 287.897 9.71098 286.966 9.77734C287.033 11.7018 287.033 13.6262 287.099 15.5507C294.744 15.617 302.122 15.4843 309.767 15.0198C309.767 13.029 309.7 11.0382 309.7 9.04738C308.304 9.04738 306.908 8.98102 305.512 8.98102C304.183 9.11374 302.853 9.31282 301.59 9.37918Z" fill="#88A7FF"/>
<path d="M28.4508 90.1396C28.3178 86.2243 28.3843 82.3091 28.3178 78.4602C28.3178 77.4648 28.1184 76.4694 28.0519 75.5403C26.1242 75.6067 24.1965 75.6067 22.2687 75.6731C22.2023 83.3045 22.3352 90.6705 22.8005 98.3019C24.7947 98.3019 26.7889 98.2355 28.7831 98.2355C28.7831 96.842 28.8496 95.4484 28.8496 94.0548C28.6502 92.7276 28.4508 91.4668 28.4508 90.1396Z" fill="#88A7FF"/>
<path d="M28.7832 83.9681C24.8613 84.1008 20.9394 84.0345 17.0839 84.1008C16.0868 84.1008 15.0897 84.2999 14.1591 84.3663C14.2255 86.2907 14.2255 88.2152 14.292 90.1396C21.9365 90.206 29.315 90.0733 36.9595 89.6087C36.9595 87.6179 36.893 85.6271 36.893 83.6363C35.497 83.6363 34.1011 83.5699 32.7052 83.5699C31.4422 83.769 30.1127 83.9017 28.7832 83.9681Z" fill="#88A7FF"/>
<path d="M107.488 177.403C112.606 177.337 117.658 177.801 122.71 178.199C124.771 178.332 126.898 178.598 128.959 178.797C130.355 178.797 131.684 178.73 133.08 178.73C136.337 178.664 139.594 178.73 142.852 178.863C142.852 177.403 142.719 176.01 142.519 174.55C133.479 173.687 124.438 174.284 115.398 174.085C111.676 173.952 108.019 173.222 104.297 173.09C103.898 173.09 103.499 173.09 103.1 173.09C102.635 173.09 102.17 173.09 101.704 173.156C98.5802 173.355 95.5889 173.621 92.4647 173.488C92.4647 174.682 92.3982 175.81 92.2653 177.005C97.3837 177.669 102.369 177.403 107.488 177.403Z" fill="#BBD0FF"/>
<path d="M133.612 188.353C133.545 187.888 133.479 187.424 133.479 187.025C129.424 187.025 125.436 187.092 121.381 187.025C117.658 186.893 114.002 186.163 110.28 186.03C109.881 186.03 109.482 186.03 109.083 186.03C108.618 186.03 108.152 186.03 107.687 186.096C104.563 186.295 101.572 186.561 98.4473 186.428C98.4473 187.623 98.3809 188.751 98.2479 189.945C103.3 190.675 108.285 190.41 113.404 190.343C118.522 190.277 123.574 190.742 128.626 191.14C130.288 191.272 132.016 191.472 133.678 191.604C133.678 190.476 133.612 189.414 133.612 188.353Z" fill="#BBD0FF"/>
<path d="M308.969 198.307C308.902 197.842 308.836 197.378 308.836 196.98C304.781 196.98 300.793 197.046 296.738 196.98C293.015 196.847 289.359 196.117 285.637 195.984C285.238 195.984 284.839 195.984 284.44 195.984C283.975 195.984 283.51 195.984 283.044 196.05C279.92 196.25 276.929 196.515 273.804 196.382C273.804 197.577 273.738 198.705 273.605 199.899C274.403 200.032 275.2 200.032 275.932 200.165C278.856 200.165 281.715 200.165 284.573 200.43C285.969 200.43 287.299 200.364 288.695 200.364C293.215 200.298 297.735 200.696 302.189 201.027C302.587 201.027 302.986 201.027 303.452 201.027C305.313 201.094 307.108 201.027 308.902 200.895C309.035 199.966 308.969 199.103 308.969 198.307Z" fill="#BBD0FF"/>
<path d="M308.969 187.357C308.902 186.893 308.836 186.428 308.836 186.03C304.781 186.03 300.793 186.096 296.738 186.03C293.015 185.897 289.359 185.167 285.637 185.035C285.238 185.035 284.839 185.035 284.44 185.035C283.975 185.035 283.51 185.035 283.044 185.101C279.92 185.3 276.929 185.565 273.804 185.433C273.804 186.627 273.738 187.755 273.605 188.95C274.403 189.083 275.2 189.082 275.932 189.215C278.856 189.215 281.715 189.215 284.573 189.481C285.969 189.481 287.299 189.414 288.695 189.414C293.215 189.348 297.735 189.746 302.189 190.078C302.587 190.078 302.986 190.078 303.452 190.078C305.313 190.144 307.108 190.078 308.902 189.945C309.035 189.016 308.969 188.153 308.969 187.357Z" fill="#BBD0FF"/>
<path d="M176.886 154.443C171.302 154.443 165.652 154.509 160.068 154.044C156.745 153.779 153.487 153.381 150.164 152.983C150.097 152.983 150.031 153.049 149.964 153.049C140.592 153.049 131.285 152.916 121.912 152.584C121.447 152.584 120.915 152.584 120.45 152.584C119.121 152.584 117.725 152.651 116.395 152.651C114.933 152.651 113.47 152.651 112.074 152.584C106.69 152.717 101.306 152.916 95.9214 152.916C95.7884 154.111 95.6555 155.372 95.4561 156.566C110.28 156.632 125.103 156.898 139.927 157.163C152.158 157.362 164.588 156.832 176.886 157.628C176.886 156.5 176.886 155.438 176.886 154.443Z" fill="#BBD0FF"/>
<path d="M93.5947 118.94C89.8722 118.94 86.1497 118.874 82.4937 118.874C82.2942 122.059 82.5601 125.31 82.6266 128.496C86.2826 128.562 89.9387 128.695 93.5947 128.628C93.2624 125.377 93.3288 122.125 93.5947 118.94Z" fill="white"/>
<path d="M119.387 118.94C115.664 118.94 111.942 118.874 108.285 118.874C108.086 122.059 108.352 125.31 108.418 128.496C112.074 128.562 115.731 128.695 119.387 128.628C118.988 125.377 119.054 122.125 119.387 118.94Z" fill="#BBD0FF"/>
<path d="M145.644 118.94C141.921 118.94 138.199 118.874 134.542 118.874C134.343 122.059 134.609 125.31 134.675 128.496C138.331 128.562 141.988 128.695 145.644 128.628C145.245 125.377 145.311 122.125 145.644 118.94Z" fill="#88A7FF"/>
<path d="M104.762 185.897C98.0485 174.019 83.9561 166.255 70.7944 162.538C70.595 162.339 70.3955 162.14 70.1296 162.008C59.9592 155.836 43.8726 159.619 33.7022 164.197C20.5404 170.17 10.5029 180.323 5.0521 193.728C-0.664624 207.597 -2.39294 224.253 4.45384 237.924C11.3006 251.66 24.13 260.022 38.3553 264.401C54.309 269.312 66.1412 266.989 81.1642 259.955C93.8607 254.049 103.167 237.725 107.155 224.917C111.41 211.446 111.941 198.638 104.762 185.897Z" fill="#FF7878"/>
<path d="M71.1932 209.19C69.7308 206.27 68.5342 203.151 67.2048 200.098C66.2741 198.572 65.41 196.979 64.6123 195.387C64.5458 195.32 64.5458 195.188 64.4794 195.121C64.4794 195.121 64.4794 195.055 64.4129 195.055C63.0169 192.401 61.2886 189.945 59.6933 187.424C55.5719 187.424 51.3841 187.49 47.2627 187.556C45.8668 191.936 43.6732 196.117 42.0778 200.43C40.8813 203.615 39.6847 206.668 38.1559 209.654C37.2917 212.508 36.3611 215.361 35.231 218.082C32.9709 223.59 29.5808 229.496 28.0519 235.336C32.4391 235.468 36.8264 235.601 41.2136 235.667C42.2107 233.478 43.3408 231.288 44.1385 228.899C44.2714 228.501 44.4044 228.036 44.5373 227.638C46.3986 227.572 48.2598 227.505 50.1876 227.439C55.3725 227.771 60.8233 227.306 65.8088 227.173C65.9418 227.173 66.0747 227.173 66.1412 227.173C67.2048 229.496 68.1354 231.885 68.9331 234.274C74.1845 234.274 79.5024 234.208 84.7538 234.208C80.3665 225.846 75.381 217.75 71.1932 209.19ZM47.9275 218.148C48.1933 217.485 48.4592 216.755 48.7251 216.025C48.7916 215.826 48.9246 215.627 49.0575 215.428C49.3899 213.968 49.7887 212.441 50.1876 210.981C51.1182 207.597 52.3812 204.345 53.7771 201.16C55.9707 206.668 58.7626 211.91 61.488 217.219C57.0343 217.485 52.3812 217.617 47.9275 218.148Z" fill="white"/>
<path d="M15.0896 198.904C17.1503 193.927 20.8728 189.945 25.0606 186.627C24.3959 186.163 23.7976 185.698 23.1329 185.234C19.5433 188.552 16.2861 192.069 13.8266 196.117C12.6301 199.037 11.7659 202.222 11.0347 205.341C10.5029 211.048 11.3671 216.423 11.7659 222.13C12.6301 222.064 13.4278 221.997 14.2919 221.931C12.4971 214.499 12.1648 206.004 15.0896 198.904Z" fill="white"/>
<path d="M93.5948 197.245C93.4618 196.714 93.3954 196.183 93.2624 195.652C92.3983 193.595 91.5341 191.472 90.7364 189.414C89.6728 187.357 88.4763 185.366 87.1469 183.442C86.0168 181.783 84.6873 180.323 83.3579 178.929C77.3752 174.019 70.0632 171.763 62.5517 169.573C61.9534 169.506 61.4216 169.44 60.8233 169.374C60.6239 169.904 60.491 170.502 60.358 171.033C60.8233 171.165 61.2887 171.298 61.754 171.431C63.1499 171.696 64.6123 172.094 66.0083 172.559C68.9331 173.355 71.7915 174.218 74.4504 175.479C77.0429 176.673 78.9706 178.2 80.8319 179.991C82.5602 181.252 84.0891 182.845 85.3521 184.769C88.011 188.751 89.8723 193.064 91.2682 197.444C91.9994 197.311 92.7971 197.245 93.5948 197.245Z" fill="white"/>
<path d="M95.3895 206.867C94.7912 206.933 94.193 207 93.5947 207C93.9271 208.858 94.193 210.716 94.3924 212.574C95.0571 212.574 95.7219 212.508 96.3866 212.441C96.3866 211.91 96.3201 211.446 96.3201 210.915C96.0542 209.588 95.7219 208.194 95.3895 206.867Z" fill="white"/>
<path d="M36.0952 249.537C34.7658 249.072 33.5028 248.209 32.3062 247.479C31.9739 248.01 31.708 248.541 31.3756 249.072C33.1039 250.068 34.8987 250.997 36.8264 251.793C37.89 251.992 38.9536 252.257 40.0172 252.523C40.2166 251.926 40.4825 251.395 40.7484 250.798C39.153 250.466 37.5576 250.134 36.0952 249.537Z" fill="white"/>
<path d="M76.5776 248.077C70.6615 251.594 63.5488 253.585 56.7685 253.651C54.1096 253.717 51.65 253.386 49.1905 252.855C49.0576 253.452 48.9246 254.049 48.8582 254.646C49.0576 254.713 49.1905 254.779 49.3899 254.846C54.4419 255.045 59.4939 255.708 64.5459 254.514C69.0661 253.452 73.4534 251.66 77.4418 249.338C77.1094 248.939 76.8435 248.541 76.5776 248.077Z" fill="white"/>
</svg>
