<svg width="379" height="330" viewBox="0 0 379 330" fill="none" xmlns="http://www.w3.org/2000/svg">
<path d="M34.763 272.583C34.6458 269.296 34.7044 266.009 34.6458 262.781C34.6458 261.959 34.4699 261.138 34.4113 260.316C32.7699 260.375 31.1871 260.375 29.5456 260.433C29.487 266.831 29.6043 272.993 30.0146 279.391C31.656 279.391 33.3561 279.332 34.9975 279.332C34.9975 278.158 35.0561 276.985 35.0561 275.811C34.9389 274.754 34.8217 273.639 34.763 272.583Z" fill="#88A7FF"/>
<path d="M35.0561 267.359C31.7733 267.476 28.4904 267.418 25.2662 267.476C24.4455 267.476 23.6248 267.652 22.8041 267.711C22.8627 269.354 22.8627 270.939 22.9213 272.583C29.3111 272.641 35.4665 272.524 41.8563 272.113C41.8563 270.47 41.7977 268.768 41.7977 267.124C40.6252 267.124 39.4528 267.065 38.2803 267.065C37.2251 267.183 36.1699 267.359 35.0561 267.359Z" fill="#88A7FF"/>
<path d="M168.949 35.641C168.832 32.3542 168.891 29.0674 168.832 25.8394C168.832 25.0177 168.656 24.196 168.597 23.3743C166.956 23.433 165.373 23.433 163.732 23.4917C163.673 29.8891 163.79 36.0519 164.201 42.4493C165.842 42.4493 167.542 42.3906 169.184 42.3906C169.184 41.2168 169.242 40.0429 169.242 38.8691C169.125 37.8126 169.008 36.7562 168.949 35.641Z" fill="#88A7FF"/>
<path d="M169.301 30.4761C166.018 30.5935 162.735 30.5348 159.511 30.5935C158.69 30.5935 157.87 30.7695 157.049 30.8282C157.108 32.4716 157.108 34.0563 157.166 35.6997C163.556 35.7584 169.711 35.641 176.101 35.2302C176.101 33.5868 176.042 31.8847 176.042 30.2413C174.87 30.2413 173.698 30.1826 172.525 30.1826C171.47 30.2413 170.356 30.4174 169.301 30.4761Z" fill="#88A7FF"/>
<path d="M354.547 93.8052C354.489 93.4531 354.489 93.0422 354.43 92.6901C351.088 92.6901 347.688 92.7488 344.288 92.6901C341.181 92.6314 338.074 91.9858 334.967 91.8684C334.616 91.8684 334.323 91.8684 333.971 91.8684C333.56 91.8684 333.209 91.8684 332.798 91.9271C330.219 92.1032 327.64 92.3379 325.06 92.2205C325.06 93.2183 325.002 94.1574 324.943 95.1552C325.588 95.2725 326.233 95.2725 326.936 95.3312C329.34 95.3312 331.743 95.3312 334.205 95.5073C335.378 95.5073 336.492 95.4486 337.664 95.4486C341.474 95.3899 345.226 95.6834 348.978 95.9769C349.33 95.9769 349.682 95.9769 350.033 95.9769C351.616 96.0355 353.082 95.9769 354.606 95.8595C354.547 95.2139 354.547 94.5095 354.547 93.8052Z" fill="#BBD0FF"/>
<path d="M354.547 84.6492C354.489 84.297 354.489 83.8862 354.43 83.534C351.088 83.534 347.688 83.5927 344.288 83.534C341.181 83.4753 338.074 82.8297 334.967 82.7123C334.616 82.7123 334.323 82.7123 333.971 82.7123C333.56 82.7123 333.209 82.7123 332.798 82.771C330.219 82.9471 327.64 83.1819 325.06 83.0645C325.06 84.0623 325.002 85.0014 324.943 85.9991C325.588 86.1165 326.233 86.1165 326.936 86.1752C329.34 86.1752 331.743 86.1752 334.205 86.3513C335.378 86.3513 336.492 86.2926 337.664 86.2926C341.474 86.2339 345.226 86.5274 348.978 86.8208C349.33 86.8208 349.682 86.8208 350.033 86.8208C351.616 86.8795 353.082 86.8208 354.606 86.7034C354.547 86.0578 354.547 85.3535 354.547 84.6492Z" fill="#BBD0FF"/>
<path d="M132.076 293.888C137.059 293.712 141.924 293.888 146.907 294.064C148.959 294.123 150.952 294.24 153.004 294.358C154.352 294.299 155.642 294.24 156.99 294.181C160.156 294.064 163.322 294.005 166.487 294.005C166.429 292.773 166.253 291.599 166.077 290.425C157.284 290.014 148.49 290.777 139.697 290.895C136.062 290.953 132.486 290.425 128.852 290.425C128.441 290.425 128.09 290.425 127.679 290.425C127.21 290.425 126.8 290.484 126.331 290.484C123.341 290.777 120.352 291.071 117.362 291.071C117.362 292.069 117.362 293.008 117.303 294.005C122.286 294.475 127.152 294.064 132.076 293.888Z" fill="#BBD0FF"/>
<path d="M147.963 307.739C147.904 307.387 147.845 306.976 147.787 306.624C144.445 306.742 141.045 306.918 137.645 306.918C134.538 306.918 131.431 306.39 128.324 306.39C127.972 306.39 127.679 306.39 127.327 306.39C126.917 306.39 126.565 306.448 126.155 306.448C123.576 306.683 121.055 307.035 118.475 306.976C118.475 307.974 118.475 308.913 118.417 309.911C122.638 310.381 126.858 310.028 131.079 309.852C135.359 309.676 139.58 309.911 143.859 310.087C145.266 310.146 146.673 310.263 148.08 310.322C148.08 309.5 148.021 308.62 147.963 307.739Z" fill="#BBD0FF"/>
<path d="M185.364 275.283C180.674 275.459 175.925 275.635 171.294 275.4C168.539 275.283 165.725 274.989 162.97 274.813C162.911 274.813 162.853 274.872 162.794 274.872C154.997 275.106 147.142 275.283 139.345 275.224C138.935 275.224 138.524 275.224 138.114 275.224C137 275.283 135.828 275.341 134.714 275.4C133.483 275.459 132.31 275.459 131.079 275.459C126.565 275.693 122.052 276.046 117.538 276.163C117.479 277.219 117.362 278.217 117.303 279.274C129.731 278.921 142.1 278.745 154.528 278.511C164.787 278.335 175.163 277.513 185.481 277.865C185.422 277.043 185.422 276.163 185.364 275.283Z" fill="#BBD0FF"/>
<path d="M295.397 213.127C294.694 213.127 293.932 213.068 293.228 212.951C287.542 217.294 280.918 221.227 274.938 218.233C273.824 217.177 272.886 215.886 272.242 214.477C271.597 212.482 271.421 210.251 271.421 208.608C271.48 206.26 272.007 203.912 272.652 201.506C272.3 200.802 272.007 200.039 271.714 199.334C265.5 197.574 259.052 196.693 252.603 196.752C252.193 197.163 251.782 197.574 251.372 197.984C250.727 204.734 248.851 211.484 242.227 212.423C241.289 212.54 240.41 212.54 239.589 212.423C235.603 210.721 232.965 206.554 230.972 202.504C230.385 202.21 229.799 201.858 229.272 201.506C227.22 202.386 225.227 203.325 223.292 204.382C219.775 206.436 216.082 208.667 213.561 211.601C213.678 212.129 213.737 212.716 213.854 213.245C217.606 217.236 221.475 221.285 221.416 226.92C221.358 232.32 215.906 234.609 211.333 235.019C208.812 234.609 206.174 233.669 203.712 232.613C203.067 232.789 202.423 232.848 201.778 232.906C199.96 240.184 198.378 246.993 198.319 253.86C198.553 254.153 198.788 254.447 199.022 254.799C199.96 254.916 200.84 255.092 201.719 255.327C207.112 255.855 211.919 257.616 213.092 263.133C213.971 267.183 211.216 270.646 207.347 273.287C206.643 274.109 205.823 274.872 205.002 275.635C204.885 275.987 204.709 276.398 204.533 276.75C208.343 283.91 212.623 290.249 217.957 295.473C218.485 295.414 219.071 295.414 219.599 295.414C220.889 294.534 222.178 293.712 223.585 293.008C228.158 289.721 233.082 288.43 237.361 292.714C241.289 296.646 240.937 302.222 239.413 307.915C239.472 308.15 239.589 308.444 239.648 308.678C246.448 311.378 253.893 313.315 260.986 311.848C261.162 311.613 261.396 311.378 261.572 311.144C261.572 310.909 261.631 310.674 261.631 310.498C261.045 308.209 260.986 305.568 261.572 303.161C261.69 302.398 261.924 301.694 262.217 300.99C263.155 298.642 264.738 296.646 267.083 295.473C270.893 293.594 274.469 295.062 277.283 297.644C278.573 298.583 279.569 299.875 280.39 301.401C280.859 302.105 281.211 302.809 281.563 303.455C282.09 303.514 282.618 303.631 283.145 303.748C288.773 300.696 294.284 296.94 298.856 292.421C298.856 292.127 298.856 291.834 298.856 291.54C294.049 288.664 289.594 282.032 291.997 276.632C293.815 272.465 298.446 271.291 302.842 271.644C304.953 271.761 307.005 272.113 308.998 272.7C309.232 272.524 309.467 272.406 309.76 272.289C310.874 267.124 311.401 261.724 311.284 256.207C311.167 256.09 310.991 255.973 310.874 255.855C307.591 255.738 304.425 255.268 301.553 254.212C297.391 252.627 292.759 249.047 293.99 243.941C294.284 242.649 294.811 241.534 295.515 240.478C297.332 236.78 301.494 234.08 305.598 232.73C305.832 232.613 306.067 232.437 306.242 232.32C306.36 231.967 306.477 231.674 306.477 231.322C303.956 224.572 300.204 218.351 295.397 213.127ZM266.731 262.957C264.386 270.059 255.241 272.23 248.851 269.824C247.151 269.178 245.51 268.181 244.044 266.948C242.93 266.244 241.875 265.363 240.996 264.307C231.03 251.864 244.689 236.78 258.7 241.593C267.2 244.528 269.252 255.327 266.731 262.957Z" fill="#FF5F5F"/>
<path d="M227.396 268.474C221.475 256.56 226.399 238.6 239.12 231.791C238.827 231.146 238.475 230.5 238.182 229.854C228.158 236.487 219.892 248.812 222.12 261.138C222.94 264.483 224.289 267.3 225.989 269.824C226.399 269.355 226.868 268.885 227.396 268.474Z" fill="white"/>
<path d="M236.423 277.513C234.899 276.75 233.492 275.869 232.261 274.872C231.968 275.224 231.675 275.576 231.382 275.928C233.727 278.1 236.423 280.095 239.296 282.208C239.648 281.445 240.058 280.741 240.468 279.978C239.12 279.156 237.713 278.511 236.423 277.513Z" fill="white"/>
<path d="M269.604 233.963C270.248 233.024 270.893 232.143 271.538 231.204C268.314 229.033 264.562 227.565 260.224 226.861C259.872 227.742 259.52 228.622 259.11 229.502C262.862 230.207 266.497 231.791 269.604 233.963Z" fill="white"/>
<path d="M275.114 239.011C276.287 240.478 277.4 242.063 278.221 243.765C281.445 248.519 283.204 254.74 281.914 260.199C281.269 262.722 280.273 265.246 278.983 267.652C278.573 268.592 278.104 269.472 277.518 270.294C277.224 270.704 276.931 271.057 276.58 271.467C275.993 272.23 275.466 272.993 274.821 273.639C273.766 274.872 272.593 275.811 271.304 276.75C270.19 277.748 268.959 278.628 267.669 279.391C266.555 280.213 265.441 281.093 264.445 282.091C264.621 282.678 264.797 283.265 264.972 283.852C277.459 277.806 287.601 265.246 283.966 250.338C282.676 245.115 280.507 240.537 277.518 236.78C276.697 237.426 275.876 238.189 275.114 239.011Z" fill="white"/>
<path d="M289.359 50.0207C284.259 40.9233 275.055 35.2301 267.376 31.7673C266.086 34.878 264.562 37.8713 263.155 40.9233C269.076 43.6819 275.876 48.2012 279.804 55.1269C284.611 63.6373 285.197 72.9107 281.621 84.2971C278.749 93.5118 271.948 105.837 262.276 110.357C254.42 113.995 248.5 115.58 242.462 115.58C238.651 115.58 234.782 114.935 230.503 113.643C218.661 109.946 209.926 103.137 205.354 93.864C200.781 84.7079 200.957 72.676 205.764 60.9375C209.809 51.0184 217.195 43.4471 227.044 38.9278C229.74 37.6952 236.775 34.878 244.22 34.878C246.448 34.878 248.5 35.1128 250.317 35.641C251.958 32.6477 253.776 29.7717 255.534 26.8958C252.545 25.3698 248.91 24.5481 244.631 24.5481C235.31 24.5481 226.458 28.1284 223.058 29.6544C210.63 35.2888 201.367 44.8557 196.267 57.2985C190.17 72.1477 189.936 87.2317 195.622 98.618C202.892 113.232 216.844 120.158 227.278 123.386C232.613 125.03 237.479 125.851 242.286 125.851C249.907 125.851 257.352 123.856 267.376 119.219C279.394 113.585 287.952 98.0311 291.587 86.41C296.042 72.2651 295.339 60.644 289.359 50.0207Z" fill="#88A7FF"/>
<path d="M249.907 170.34C249.086 140.935 247.796 111.53 247.503 82.1255C246.8 79.1322 245.451 76.3736 242.637 75.5519C234.196 75.4932 225.696 75.3758 217.254 75.3171C205.295 75.8454 193.395 75.6106 181.436 75.4345C173.405 75.6693 165.315 76.0215 157.284 76.3149C155.994 76.6084 154.821 77.1366 153.942 78.017C152.183 79.7191 151.714 82.0081 151.597 84.3558C151.89 96.5638 151.89 108.772 151.773 120.921C152.945 138.177 152.828 155.491 152.535 172.805C152.77 187.537 153.356 202.328 153.942 217.001C154.294 224.631 153.649 232.437 153.356 240.243C153.708 244.586 154.177 248.871 154.704 253.214C155.466 254.447 156.287 255.679 157.401 256.56C158.163 257.146 159.042 257.557 159.922 257.851C166.311 257.557 172.76 257.675 179.15 257.909C182.843 257.675 186.595 257.851 190.346 257.44C197.264 256.677 204.181 255.973 211.157 255.973C218.837 255.973 226.458 256.325 234.137 256.56C238.241 256.266 242.403 255.973 246.507 255.738C246.8 255.62 247.093 255.562 247.386 255.444C250.845 254.094 251.431 249.458 251.489 246.171C249.672 220.933 250.551 195.578 249.907 170.34Z" fill="#335FFF"/>
<path d="M159.628 122.917C160.801 140.466 160.625 158.308 160.39 175.036C160.683 190.354 161.27 205.791 161.797 218.879C162.032 224.807 161.739 230.794 161.504 236.545C175.456 237.25 189.936 235.606 203.947 235.548C216.961 235.489 229.975 234.785 242.989 234.491C242.52 222.987 242.403 211.542 242.344 200.332C242.286 191.293 242.286 181.903 241.992 172.747C241.758 163.18 241.406 153.672 241.113 144.105C240.586 127.495 239.999 110.415 239.765 93.4531C227.337 93.9813 214.792 93.2183 202.422 93.2183C188.119 93.1596 173.873 94.0987 159.628 94.3922C159.745 103.196 159.745 112.587 159.628 122.917Z" fill="white"/>
<path d="M293.053 28.5392C286.897 23.0808 280.683 18.6201 273.062 16.5072C267.552 26.1328 262.335 35.8757 257.352 45.7948C252.427 55.6551 248.265 65.985 242.872 75.6106C242.872 75.7279 242.813 75.904 242.755 76.0214C262.276 63.9308 282.032 52.2509 302.901 42.8015C300.615 37.5191 297.86 32.765 293.053 28.5392Z" fill="#F9B2B2"/>
<path opacity="0.19" d="M289.008 49.5511C285.783 51.1945 282.559 52.8379 279.394 54.5987C279.511 54.8334 279.687 55.0095 279.804 55.2443C283.438 61.7005 284.611 68.5088 283.497 76.3736C286.956 76.491 290.415 76.6084 293.873 76.6084C295.339 66.748 293.873 58.1202 289.359 50.138C289.242 49.8446 289.125 49.7272 289.008 49.5511Z" fill="#0000FF"/>
<path d="M189.936 119.043C189.76 118.867 189.526 118.691 189.233 118.691C187.708 121.156 184.484 125.734 185.832 127.084C188.236 129.373 190.815 131.486 193.043 133.951C193.043 133.892 193.102 133.834 193.102 133.775C193.746 128.845 192.75 123.856 192.75 118.926C192.75 117.517 190.581 117.517 190.581 118.926C190.581 119.043 190.581 119.102 190.581 119.219C190.464 119.16 190.288 119.102 190.112 119.102H189.936V119.043Z" fill="#88A7FF"/>
<path d="M208.168 153.437C206.467 153.554 204.826 153.378 203.126 153.554C201.016 153.73 198.847 153.906 196.736 153.554C195.388 153.319 194.802 155.432 196.15 155.667C198.202 156.019 200.254 155.902 202.305 155.785C204.298 155.667 206.233 155.785 208.168 155.608C209.574 155.491 209.574 153.319 208.168 153.437Z" fill="#335FFF"/>
<path d="M201.778 159.306C201.192 159.306 200.84 159.658 200.781 160.128C200.605 160.128 200.43 160.128 200.312 160.128C200.312 159.776 200.195 159.423 199.785 159.189C199.257 158.895 198.788 158.484 198.319 158.074C197.029 157.369 196.033 156.313 195.271 155.08C190.933 157.369 187.533 159.071 185.364 163.825C183.488 167.993 184.015 172.16 184.191 176.503C190.346 177.09 196.56 177.501 202.774 177.383C202.599 171.338 202.364 165.351 202.188 159.306H201.778Z" fill="#E1ECFF"/>
<path d="M221.475 176.386C220.947 172.512 220.537 168.521 219.247 164.823C218.251 161.889 216.902 159.071 214.03 157.604C212.623 156.9 211.216 156.313 209.75 155.726C208.637 157.311 206.819 158.308 204.943 158.719C204.474 158.954 203.947 159.189 203.478 159.365C203.361 159.306 203.185 159.247 203.009 159.247H202.188C202.364 165.293 202.598 171.279 202.774 177.325C203.536 177.325 204.24 177.325 205.002 177.266C210.512 177.09 215.964 176.62 221.475 176.386Z" fill="#BBD0FF"/>
<path d="M208.578 156.078C208.636 155.843 208.578 155.55 208.343 155.315C208.05 155.315 207.757 155.315 207.464 155.256C206.409 155.08 205.647 154.493 205.119 153.613C204.181 152.028 204.123 149.68 204.357 147.802C204.298 147.626 204.298 147.45 204.24 147.274C203.947 145.983 202.012 146.452 202.129 147.685C202.012 147.861 201.895 148.096 201.954 148.331C201.954 149.035 202.012 149.681 202.071 150.326C201.719 150.444 201.367 150.444 201.016 150.444C200.605 150.385 200.195 150.209 199.902 150.033C199.843 150.267 199.843 150.561 199.785 150.796C199.609 152.967 198.671 155.198 196.443 155.785C196.209 155.902 196.033 156.019 195.798 156.078C195.974 156.724 196.619 157.252 197.205 156.958C197.791 157.545 198.553 157.839 199.316 158.132C200.312 158.543 201.191 159.247 202.247 159.541C203.595 159.952 205.823 159.776 206.585 158.367C206.643 158.25 206.702 158.132 206.761 158.015C206.819 158.015 206.819 158.074 206.878 158.074C207.581 158.602 208.285 158.074 208.402 157.369C208.695 157.134 208.754 156.548 208.578 156.078Z" fill="#BBD0FF"/>
<path d="M195.857 153.613C195.212 154.141 194.626 154.611 193.981 155.08C193.922 155.08 193.922 155.139 193.864 155.139C194.567 158.25 195.974 161.243 198.612 163.18C199.374 162.475 200.136 161.83 200.898 161.126C201.426 160.597 201.895 160.01 202.305 159.423C199.667 158.132 197.322 156.195 195.857 153.613Z" fill="#88A7FF"/>
<path d="M208.812 153.613C209.457 154.141 210.044 154.611 210.688 155.08C210.747 155.08 210.747 155.139 210.806 155.139C210.102 158.25 208.695 161.243 206.057 163.18C205.295 162.475 204.533 161.83 203.771 161.126C203.243 160.597 202.774 160.01 202.364 159.423C205.002 158.132 207.347 156.195 208.812 153.613Z" fill="#88A7FF"/>
<path d="M209.399 135.242C209.75 131.779 209.34 128.316 208.402 124.912C207.523 121.684 205.412 117.165 201.543 116.813C197.791 116.519 195.212 118.104 193.981 121.039C193.512 120.217 191.929 120.393 191.929 121.567C191.871 130.605 190.522 144.046 199.198 149.974C200.254 150.678 201.133 150.972 201.954 150.913C202.129 150.972 202.364 150.972 202.54 150.913C203.419 150.62 204.123 150.033 204.65 149.387C205.178 148.8 205.705 148.154 206.292 147.45C207.699 145.631 208.402 143.224 208.637 140.759C208.812 139.938 208.93 139.116 208.988 138.294C209.281 137.238 209.399 136.24 209.399 135.242Z" fill="#BBD0FF"/>
<path d="M214.03 118.104C213.502 117.165 212.857 116.284 212.154 115.404C212.506 114.406 212.74 113.35 212.857 112.176C212.916 111.296 212.975 110.298 212.857 109.417C209.926 107.774 207.171 105.837 204.533 103.783C202.774 104.781 201.543 105.896 199.96 107.246C199.374 107.774 198.554 108.537 197.733 108.478C195.505 108.361 193.219 107.481 191.167 106.483C189.115 108.654 187.064 110.826 184.719 112.763C184.719 115.932 185.95 119.63 188.705 121.391C189.115 121.684 189.526 121.802 189.936 121.978C189.995 121.919 190.112 121.919 190.171 121.86C191.46 121.978 192.691 122.036 193.922 122.036C194.86 122.036 195.681 122.33 196.502 121.919C197.205 121.567 197.029 120.334 197.205 119.689C197.264 119.454 197.381 119.278 197.44 119.043C197.498 119.043 197.616 119.043 197.674 119.043C200.195 118.926 203.712 121.391 205.881 122.506C206.057 122.623 206.233 122.682 206.409 122.741C207.112 124.501 207.699 126.262 208.519 127.964C208.578 128.316 208.695 128.61 208.695 128.962C208.812 129.96 208.871 130.899 209.106 131.897C209.164 132.19 209.34 132.425 209.575 132.484C209.516 133.305 209.399 134.068 209.34 134.831C210.278 134.244 210.923 133.129 211.45 132.308C211.978 131.486 212.564 130.664 213.15 129.901C214.206 125.969 214.147 122.036 214.03 118.104Z" fill="#335FFF"/>
<path d="M82.1884 265.833C81.8953 259.846 81.9539 253.86 81.6022 247.404C78.1435 247.404 74.6848 246.993 71.2261 246.582C71.2261 253.155 71.3433 259.729 71.8709 266.302C75.3296 266.185 78.7297 266.009 82.1884 265.833Z" fill="#BBD0FF"/>
<path d="M66.8294 329.28C74.2744 329.866 81.7194 329.632 89.1645 329.338C89.1058 327.284 88.93 325.23 88.6955 323.234C88.6369 322.706 88.6955 322.295 88.8127 321.826C88.461 315.78 88.2265 309.735 88.2265 303.69C88.2265 299.933 88.2265 296.177 88.2851 292.362C87.8161 287.314 88.1093 282.267 87.9334 277.161C87.7575 271.585 87.4058 266.068 87.2299 260.551C80.4297 260.609 73.6296 260.785 66.888 260.961C66.5363 277.395 66.888 293.888 66.888 310.322C66.8294 316.602 66.7708 322.941 66.8294 329.28Z" fill="#88A7FF"/>
<path d="M312.457 175.094C313.688 175.036 314.919 175.036 316.15 174.86C316.208 177.149 316.15 179.438 316.208 181.727C313.981 182.079 311.694 182.079 309.408 182.079C309.35 179.79 309.232 177.501 309.35 175.212C310.346 175.212 311.401 175.153 312.457 175.094Z" fill="#335FFF"/>
<path d="M296.863 152.263H303.311C303.253 153.848 303.253 155.374 303.37 156.958C303.018 162.828 303.136 168.814 303.194 174.684C303.018 177.325 302.784 179.966 302.549 182.607C300.439 182.783 298.27 182.607 296.101 182.607C295.632 172.453 296.628 162.358 296.863 152.263Z" fill="#335FFF"/>
<path d="M286.194 162.71C285.901 165.821 286.252 168.932 286.428 172.16C286.604 175.681 286.663 179.203 286.604 182.783C284.494 182.842 282.383 182.959 280.273 183.077V162.71C282.266 162.71 284.201 162.71 286.194 162.71Z" fill="#335FFF"/>
<path d="M262.745 182.959C262.803 168.462 263.39 154.024 263.448 139.527C265.266 139.527 267.024 139.527 268.842 139.585C269.252 139.585 269.662 139.585 270.073 139.585C270.131 153.965 269.838 168.345 270.014 182.724C267.611 182.783 265.207 182.901 262.745 182.959Z" fill="#335FFF"/>
<path d="M111.91 15.0986C110.093 15.8029 108.392 16.6246 106.692 17.6811C105.989 18.0919 105.227 18.5028 104.465 18.9136C101.651 21.7896 99.775 24.8416 98.1336 28.5392C98.1336 28.5392 98.1336 28.5392 98.075 28.5979C97.5474 27.9523 97.0784 27.248 96.5508 26.6023C96.0818 26.0154 95.6128 25.4285 95.1439 24.8416C90.1024 17.0942 87.523 9.05329 85.2367 0.425491C83.8884 1.01242 82.5401 1.59934 81.1918 2.18627C82.5987 12.927 87.6988 24.9003 96.1404 32.4716C96.0232 33.2346 95.9059 34.0563 95.8473 34.8193C94.2059 52.8966 107.572 74.1433 123.986 81.5972C124.572 80.6581 125.041 79.6017 125.452 78.5452C112.027 71.3847 96.9025 51.3119 99.4233 34.9954C99.5992 35.1715 99.8336 35.3475 100.01 35.5236C101.534 36.8148 103.527 37.5191 105.344 38.2822C105.637 38.3995 105.872 38.4582 106.106 38.5169C107.103 38.8691 108.158 39.2212 109.213 39.456C116.131 40.982 123.107 39.9842 127.152 33.6454C129.086 30.6521 129.438 27.1893 128.617 23.9612C127.386 21.0853 125.686 18.2093 122.931 17.0355C119.472 15.3921 115.72 14.9225 111.91 15.0986ZM122.286 21.9069C127.445 26.3676 124.103 33.6454 118.241 35.1128C115.369 35.8171 112.379 35.7584 109.448 35.0541C109.448 34.9954 109.389 34.9367 109.389 34.8193C106.868 34.2911 104.406 33.8215 102.179 32.4716C101.885 32.2955 101.651 32.1194 101.416 31.8847C101.123 31.8847 100.83 31.7086 100.713 31.4151C102.237 27.6001 104.172 24.4894 106.868 21.32C111.617 18.268 117.479 17.7398 122.286 21.9069Z" fill="#BBD0FF"/>
<path d="M347.513 136.533C347.454 136.533 347.337 136.533 347.278 136.533C347.219 136.123 347.161 135.77 347.102 135.36C346.809 133.364 346.692 130.899 345.344 129.256C345.226 129.079 345.109 128.962 344.933 128.786C343.995 127.377 342.588 126.321 340.654 125.734C338.719 124.912 336.667 124.677 334.909 125.675C333.502 126.203 332.329 127.26 331.274 128.845C330.395 130.195 330.747 131.662 331.509 133.012C331.978 134.597 333.15 136.064 334.967 136.944C337.254 138.059 339.892 138.705 342.647 138.94C342.823 138.94 342.999 138.94 343.116 138.998H343.175C343.937 139.057 344.64 139.116 345.402 139.116C345.402 140.231 345.285 141.346 344.875 142.461C344.816 142.696 344.816 142.872 344.875 143.048C344.816 143.577 344.757 144.105 344.699 144.633C344.464 145.513 344.171 146.394 343.819 147.098C342.764 153.437 339.892 158.25 336.492 163.943C337.019 164.295 337.547 164.706 338.016 165.175C341.181 160.01 344.171 155.55 345.461 149.563C345.578 149.446 345.637 149.328 345.695 149.152C345.695 149.035 345.754 148.976 345.754 148.859C345.871 148.741 345.93 148.565 345.988 148.331C345.988 148.155 346.047 147.92 346.047 147.744C346.223 146.922 346.399 146.1 346.516 145.337C346.692 144.281 346.692 143.107 347.044 142.109C347.102 141.874 347.102 141.698 347.044 141.522C347.219 140.701 347.278 139.82 347.278 138.998C349.389 138.881 351.557 138.588 353.551 138.118C355.251 137.825 357.009 137.296 358.709 136.533C358.768 136.533 358.827 136.475 358.885 136.475C359.53 136.24 360.116 135.946 360.703 135.712C360.878 135.653 361.054 135.536 361.23 135.418C365.51 133.423 369.613 131.016 372.486 127.143C374.479 124.384 375.944 121.391 377 118.221C377.293 117.576 377.586 116.93 377.879 116.226C377.996 115.932 377.938 115.698 377.82 115.521C377.938 115.052 378.055 114.641 378.172 114.172C377.527 114.113 376.882 113.995 376.237 113.878C375.944 115.111 375.534 116.343 375.124 117.517C370.727 127.26 363.223 133.305 352.847 135.946C351.206 136.357 349.388 136.533 347.513 136.533ZM345.344 137.179C345.168 137.179 344.992 137.179 344.816 137.179C344.757 137.179 344.64 137.12 344.581 137.12C342.295 136.944 338.778 136.357 336.843 135.066C335.085 133.951 331.978 130.84 334.498 128.493C336.14 126.967 338.485 126.673 340.478 127.788C342.119 128.727 343.175 129.784 343.878 131.075C344.288 131.897 344.581 132.777 344.816 133.716C344.875 134.068 344.992 134.42 345.05 134.831C345.168 135.653 345.285 136.416 345.344 137.179Z" fill="#F9B2B2"/>
<path d="M203.771 240.654C201.895 240.713 200.019 240.83 198.084 241.006C195.857 241.182 194.098 243.119 194.215 245.349V245.408C194.333 247.814 196.326 249.634 198.729 249.458C199.491 249.399 200.312 249.34 201.133 249.34C202.071 249.282 203.009 249.282 204.005 249.282C206.409 249.282 208.343 247.286 208.226 244.88C208.226 244.821 208.226 244.704 208.226 244.645C208.05 242.356 206.057 240.537 203.771 240.654Z" fill="white"/>
<path d="M214.85 197.926C210.747 190.178 206.116 183.84 197.44 181.433C193.688 180.67 190.464 178.792 187.239 174.625C184.074 170.575 181.612 165.528 177.743 162.123C172.467 157.487 167.308 160.363 162.442 162.652C160.273 165.058 158.104 167.406 155.876 169.753C152.711 173.04 148.842 179.203 144.738 181.316C138.348 184.603 133.6 180.729 130.024 175.857C129.614 175.623 129.262 175.27 128.969 174.742C128.734 174.273 128.5 173.803 128.265 173.334L128.207 173.275C128.031 173.04 127.972 172.805 127.855 172.571C118.769 153.848 116.365 132.131 106.575 113.878C101.182 103.9 91.4507 96.6812 79.609 100.907C77.7917 101.553 76.0916 102.374 74.5675 103.372C73.2191 104.37 71.9881 105.426 70.757 106.6C68.8811 108.772 67.2397 111.178 65.6569 113.702C59.5015 129.197 54.0497 144.926 48.6564 160.832C44.9046 171.925 39.6872 182.9 36.932 194.287C35.4664 200.273 34.5285 206.319 32.1836 211.953H223.644C220.361 207.375 217.371 202.797 214.85 197.926Z" fill="#BBD0FF"/>
<path d="M72.9261 145.513C72.8675 142.696 72.8675 139.879 72.8089 137.062C71.8709 137.179 70.8744 137.296 69.9364 137.414C69.995 160.597 70.2881 183.722 70.3468 206.964C70.3468 208.08 70.2881 208.96 70.1709 209.723C70.1709 210.427 70.1709 211.073 70.2295 211.777C71.1089 211.777 71.9882 211.777 72.8675 211.777C72.8675 209.43 72.9261 207.082 72.9848 204.734C72.5744 185.131 72.7503 165.293 72.9261 145.513Z" fill="white"/>
<path d="M52.7013 186.187C52.7599 193.113 52.8186 200.039 52.8186 206.964C52.8186 208.08 52.7599 208.96 52.6427 209.723C52.6427 210.427 52.6427 211.073 52.7013 211.777C53.5807 211.777 54.46 211.777 55.3393 211.777C55.3393 209.43 55.398 207.082 55.4566 204.734C55.3393 198.571 55.2807 192.35 55.2807 186.129C54.4014 186.129 53.5807 186.129 52.7013 186.187Z" fill="white"/>
<path d="M90.3955 135.594C90.3369 130.019 90.2783 124.501 90.2197 118.926C89.2817 118.75 88.3437 118.573 87.3472 118.456C87.3472 147.744 87.6989 176.914 87.7575 206.26C87.7575 207.551 87.6989 208.549 87.5817 209.429C87.5817 210.192 87.5817 211.014 87.6403 211.777C88.5196 211.777 89.3989 211.777 90.2783 211.777C90.2783 209.077 90.3369 206.377 90.3955 203.736C90.1024 181.14 90.2783 158.308 90.3955 135.594Z" fill="white"/>
<path d="M107.748 169.108C106.868 169.049 105.989 168.99 105.168 168.873C105.227 181.316 105.344 193.7 105.344 206.201C105.344 207.493 105.285 208.49 105.168 209.371C105.168 210.134 105.168 210.955 105.227 211.718C106.106 211.718 106.986 211.718 107.865 211.718C107.865 209.019 107.923 206.319 107.982 203.678C107.748 192.233 107.748 180.67 107.748 169.108Z" fill="white"/>
<path d="M122.755 189.65C122.755 195.167 122.814 200.684 122.814 206.201C122.814 207.493 122.755 208.49 122.638 209.371C122.638 210.134 122.638 210.955 122.696 211.718C123.576 211.718 124.455 211.718 125.334 211.718C125.334 209.019 125.393 206.319 125.452 203.678C125.393 198.982 125.334 194.287 125.276 189.533C124.455 189.533 123.576 189.591 122.755 189.65Z" fill="white"/>
<path d="M140.283 196.106C140.283 199.452 140.342 202.856 140.342 206.201C140.342 207.493 140.283 208.49 140.166 209.371C140.166 210.134 140.166 210.956 140.224 211.719C141.104 211.719 141.983 211.719 142.862 211.719C142.862 209.019 142.921 206.319 142.98 203.678C142.921 201.213 142.921 198.689 142.921 196.224C142.042 196.224 141.162 196.165 140.283 196.106Z" fill="white"/>
<path d="M157.752 185.718C157.811 192.526 157.811 199.393 157.811 206.201C157.811 207.493 157.752 208.49 157.635 209.371C157.635 210.134 157.635 210.955 157.694 211.718C158.573 211.718 159.452 211.718 160.332 211.718C160.332 209.019 160.39 206.319 160.449 203.678C160.332 197.456 160.332 191.235 160.273 184.955C159.452 185.19 158.573 185.424 157.752 185.718Z" fill="white"/>
<path d="M175.163 178.968C175.222 188.007 175.28 197.104 175.28 206.201C175.28 207.493 175.222 208.49 175.105 209.371C175.105 210.134 175.105 210.955 175.163 211.718C176.042 211.718 176.922 211.718 177.801 211.718C177.801 209.019 177.86 206.319 177.918 203.678C177.801 195.461 177.743 187.185 177.743 178.909C176.922 178.909 176.042 178.968 175.163 178.968Z" fill="white"/>
<path d="M192.808 198.043C192.808 200.743 192.808 203.502 192.867 206.201C192.867 207.493 192.808 208.49 192.691 209.371C192.691 210.134 192.691 210.955 192.75 211.718C193.629 211.718 194.509 211.718 195.388 211.718C195.388 209.019 195.446 206.319 195.505 203.678C195.446 201.799 195.446 199.921 195.446 198.102C194.509 198.102 193.688 198.043 192.808 198.043Z" fill="white"/>
<path d="M118.827 180.553C111.617 167.758 95.9645 162.006 89.5161 160.128L89.1643 159.952C89.0471 159.834 88.9298 159.776 88.754 159.658C85.5884 157.721 81.5435 156.724 76.8537 156.724C68.0603 156.724 59.7946 160.069 56.629 161.478C44.9632 166.76 36.2871 175.74 31.5387 187.42C25.8523 201.33 25.6765 215.475 31.0111 226.274C36.4043 237.191 46.6632 245.232 60.6739 249.575C65.6568 251.101 70.2294 251.864 74.7433 251.864C81.8952 251.864 88.8712 250.045 98.1335 245.701C109.565 240.36 117.596 225.805 120.938 214.947C125.158 201.506 124.514 190.589 118.827 180.553ZM108.451 211.836C105.754 220.405 99.6577 230.617 91.9782 234.198C85.178 237.367 80.0779 238.717 74.8605 238.717C71.6363 238.717 68.2948 238.189 64.6603 237.074C57.567 234.843 48.0115 230.148 43.0873 220.229C39.2182 212.481 39.3941 202.21 43.4976 192.056C46.9563 183.605 53.2875 177.09 61.7291 173.216C64.0154 172.16 70.0535 169.753 76.4433 169.753C79.7262 169.753 82.4814 170.399 84.6504 171.749L85.2953 172.16C90.0437 173.51 101.709 177.677 106.927 187.009C111.089 194.346 111.558 201.976 108.451 211.836Z" fill="#335FFF"/>
<path d="M29.3697 74.4954C29.8387 74.6715 30.1905 74.965 30.4836 75.2584C35.2906 77.43 38.6907 81.832 34.5871 87.6425C33.825 88.7577 32.8871 89.7555 31.8905 90.6945C31.0112 91.9271 29.956 93.0422 28.8421 93.9226C26.1455 96.0355 24.2696 98.3246 23.0385 100.731C22.9213 101.083 22.7454 101.494 22.6282 101.846C21.8075 104.781 21.3385 107.715 21.2799 110.65C21.2799 110.826 21.2799 111.061 21.2799 111.237C21.3971 111.941 21.5144 112.646 21.6902 113.291C21.6316 113.702 21.6316 114.172 21.573 114.582C21.573 114.641 21.573 114.758 21.6316 114.817C24.9731 114.817 28.3145 114.817 31.656 114.817C31.656 114.758 31.7146 114.7 31.7146 114.582C30.7767 111.178 30.7181 107.07 32.4181 104.194C32.3008 104.076 32.2422 103.9 32.125 103.783C39.3355 97.5029 46.6047 93.0422 45.1977 81.3624C44.0839 72.5586 36.2285 64.9872 27.5525 64.0482C17.7039 62.9917 9.84854 66.748 4.10356 74.6128C2.28627 77.1366 0.586222 80.0712 0 82.8297C2.81387 83.7688 5.51049 84.9427 8.14849 86.3513C9.08645 83.2406 10.6106 79.9538 12.9555 77.6061C14.3038 75.9627 16.1211 74.6715 17.9384 73.7324C21.7488 71.7956 25.6765 72.9694 29.3697 74.4954Z" fill="#FF5F5F"/>
<path d="M32.1835 131.31C32.1249 129.666 32.418 127.729 32.2422 125.969C29.4869 126.262 26.673 126.321 23.9764 125.851C23.5661 125.91 23.0971 125.91 22.6867 125.969C22.5695 128.903 22.335 131.897 22.4522 134.831C22.7454 135.125 23.0971 135.359 23.4488 135.594C26.3799 135.712 29.3697 135.653 32.3008 135.653C32.1835 134.244 32.1835 132.777 32.1835 131.31Z" fill="#FF5F5F"/>
<path opacity="0.19" d="M208.461 124.854C207.757 122.271 206.292 118.926 203.771 117.517C204.005 124.208 204.24 130.958 204.533 137.649C204.65 140.407 204.709 143.224 203.771 145.865C203.712 146.1 203.595 146.335 203.478 146.57C203.067 147.568 202.54 148.565 202.247 149.622C202.129 150.033 202.071 150.443 202.012 150.913C201.66 154.082 203.302 157.369 205.94 159.13C206.174 158.954 206.409 158.719 206.526 158.426C206.585 158.308 206.643 158.191 206.702 158.074C206.761 158.074 206.761 158.132 206.819 158.132C207.523 158.66 208.226 158.132 208.343 157.428C208.695 157.134 208.754 156.548 208.578 156.137C208.637 155.902 208.578 155.608 208.343 155.374C208.05 155.374 207.757 155.374 207.464 155.315C206.409 155.139 205.647 154.552 205.119 153.672C204.533 152.615 204.298 151.265 204.298 149.915C204.474 149.739 204.65 149.622 204.826 149.446C205.354 148.859 205.881 148.213 206.468 147.509C207.874 145.689 208.578 143.283 208.812 140.818C208.988 139.996 209.105 139.175 209.164 138.353C209.281 137.355 209.399 136.357 209.457 135.36C209.75 131.779 209.34 128.316 208.461 124.854Z" fill="#335FFF"/>
<path d="M88.1678 182.548C88.8127 181.609 89.4575 180.729 90.1023 179.79C86.8781 177.618 83.1263 176.151 78.7883 175.447C78.4365 176.327 78.0848 177.207 77.6744 178.088C81.4263 178.851 85.0022 180.377 88.1678 182.548Z" fill="#88A7FF"/>
<path d="M93.6784 187.596C94.8509 189.063 95.9647 190.648 96.7854 192.35C100.01 197.104 101.768 203.325 100.479 208.784C99.8337 211.308 98.8372 213.831 97.5475 216.238C97.1371 217.177 96.6681 218.057 96.0819 218.879C95.7888 219.29 95.4957 219.642 95.144 220.053C94.5577 220.816 94.0301 221.579 93.3853 222.224C92.3301 223.457 91.1576 224.396 89.868 225.335C88.7541 226.333 87.5231 227.213 86.2334 227.976C85.1196 228.798 84.0057 229.678 83.0092 230.676C83.185 231.263 83.3609 231.85 83.5368 232.437C96.0233 226.392 106.165 213.831 102.53 198.924C101.241 193.7 99.0716 189.122 96.0819 185.366C95.2612 186.07 94.4405 186.833 93.6784 187.596Z" fill="#88A7FF"/>
</svg>
