<svg width="410" height="362" viewBox="0 0 410 362" fill="none" xmlns="http://www.w3.org/2000/svg">
<path d="M96.5038 58.7142C102.096 58.7142 107.689 58.5611 113.358 58.5611C113.588 58.7142 113.818 58.7907 114.125 58.7907C124.85 58.7907 135.576 59.0204 146.302 59.0204C146.225 58.2549 146.225 57.4128 146.225 56.6473C137.338 57.1832 128.451 56.1115 119.564 55.8818C110.83 55.7287 102.096 56.2646 93.3627 56.1115C93.2095 62.6948 93.1329 69.2016 93.2095 75.7849C93.2095 78.4642 92.9797 81.0669 93.0563 83.7461C93.1329 87.344 94.5119 89.4109 97.1167 90.7888C100.717 91.7074 104.548 91.8605 108.302 91.8605C111.443 91.4777 114.737 91.2481 116.883 93.0087C118.645 94.5397 118.875 96.9894 118.798 99.1328C118.721 100.358 118.721 101.506 118.645 102.731C118.645 105.104 118.798 107.553 118.798 109.926H121.633C121.479 108.242 121.633 106.558 121.786 104.951C121.786 101.276 121.709 97.6783 121.173 94.0804C120.79 93.2384 120.254 92.4729 119.411 91.7839C117.725 90.3295 115.657 89.564 113.512 89.1812C111.443 89.2578 109.375 89.2578 107.306 89.1812C103.705 89.4109 100.105 89.4109 97.8062 87.4971C96.5038 85.7365 96.274 83.1337 96.3506 80.1483C96.5038 72.876 96.5804 65.8334 96.5038 58.7142Z" fill="#6090FC"/>
<path d="M188.898 243.813C188.055 241.746 186.753 239.909 184.837 238.837C181.773 237.076 177.942 237.153 174.265 237.229C168.289 238.072 159.939 239.526 158.636 233.632C158.33 233.555 158.1 233.249 158.1 232.866C157.87 221.46 156.031 210.131 156.031 198.725C150.515 199.031 145.076 198.725 139.56 198.725C132.665 198.725 125.77 198.954 118.798 199.107C117.879 199.107 117.036 199.184 116.117 199.184C116.04 198.189 116.116 197.194 116.346 196.198C115.887 189.998 117.189 183.644 116.729 177.444C116.27 169.942 115.81 162.44 115.733 154.938C115.733 153.713 114.278 153.177 112.975 153.254C112.899 168.564 112.363 183.874 112.975 199.184C108.302 199.261 103.629 199.414 98.9554 199.72C94.3587 200.026 89.762 200.332 85.1653 199.873C85.0887 199.873 85.0121 199.873 85.0121 199.873C84.4758 199.796 83.9395 199.72 83.4798 199.643C81.871 199.796 81.4113 202.323 83.0968 202.858C87.1572 202.323 91.6773 202.782 95.6611 202.629C101.637 202.399 107.613 202.323 113.588 202.246C126.229 202.169 138.794 202.093 151.358 201.48C151.588 201.48 151.741 201.557 151.894 201.634C152.047 201.634 152.124 201.557 152.277 201.557C152.584 201.48 152.737 201.404 152.967 201.251C153.12 201.251 153.197 201.251 153.35 201.251C154.116 210.131 154.576 218.934 155.112 227.89C155.189 229.421 155.112 230.799 155.035 232.177C155.189 234.244 155.648 236.541 156.797 238.148C157.793 239.449 159.096 240.292 160.475 240.904C163.08 241.593 166.067 241.44 168.902 241.057C168.979 240.98 169.132 240.98 169.285 240.98C170.817 240.98 172.503 240.904 174.265 240.827C174.342 240.751 174.495 240.751 174.648 240.751C178.862 240.751 184.837 241.287 184.914 246.109C184.991 246.186 185.067 246.262 185.144 246.339C186.063 251.851 185.22 259.199 184.608 261.343C183.995 263.41 187.212 264.328 187.825 262.261C188.821 259.046 188.668 255.984 188.515 252.616C188.362 250.013 189.204 246.722 188.898 243.813Z" fill="#BBD0FF"/>
<path d="M219.849 228.732H219.773V194.285C219.389 189.385 219.006 184.486 218.93 179.587C218.93 177.444 215.559 177.444 215.559 179.587C215.789 193.596 216.785 200.868 216.555 214.953C216.325 227.737 216.861 244.655 216.708 257.668H219.466V248.253C218.93 241.746 219.313 235.239 219.849 228.732Z" fill="#BBD0FF"/>
<path d="M215.789 77.4689C215.635 75.3255 211.192 75.3255 211.422 77.4689C212.494 89.9466 211.958 102.348 212.648 114.749C212.801 116.892 216.095 116.892 216.018 114.749C215.252 102.271 216.478 89.6404 215.789 77.4689Z" fill="#BBD0FF"/>
<path d="M388.395 151.876C388.549 141.312 387.859 130.672 388.242 120.108C388.319 117.964 384.948 117.964 384.871 120.108C384.412 136.566 384.718 153.254 385.178 169.789C385.484 179.893 380.045 183.568 370.928 185.099C360.815 186.783 350.626 187.395 340.36 187.395C328.561 187.395 316.533 186.094 304.659 186.63C304.352 177.75 302.973 169.023 302.207 160.143C301.977 153.713 301.747 147.206 301.671 140.776C301.747 136.489 301.824 132.279 301.824 127.992C301.824 127.916 301.824 127.916 301.824 127.839C301.824 127.533 301.824 127.303 301.824 126.997C301.9 124.854 298.53 124.854 298.453 126.997C298.223 131.437 298.3 135.953 298.376 140.47C298.376 146.288 298.376 152.106 298.683 157.923C298.759 159.225 298.836 160.603 298.989 161.904C299.066 165.961 299.219 170.018 299.526 174.076C299.832 177.98 300.905 182.42 299.372 186.17C299.219 186.477 299.219 186.783 299.296 187.013C297.61 187.166 295.848 187.395 294.163 187.701C289.872 188.39 284.433 189.309 281.139 192.448C276.312 196.888 275.699 203.394 272.558 208.753C272.482 208.753 272.482 208.829 272.405 208.829C272.022 210.36 271.486 211.815 271.026 213.269C270.796 214.647 270.566 215.949 270.26 217.326C270.26 217.862 270.336 218.398 270.336 219.011C269.8 223.757 269.034 228.426 265.663 230.952C265.51 231.106 265.28 231.182 265.127 231.335C264.59 231.641 263.978 231.871 263.288 232.101C262.752 232.254 262.216 232.483 261.679 232.637C258.615 233.402 255.244 233.632 252.945 235.928C251.107 237.765 250.034 240.215 249.345 242.894C249.191 245.574 249.115 248.253 249.268 250.932C249.421 253.764 250.187 256.673 249.498 259.429C249.804 259.735 250.187 259.888 250.571 259.888C250.877 260.501 251.566 260.731 252.103 260.654C252.179 258.664 252.256 256.597 252.409 254.607C252.256 249.401 251.49 242.512 254.631 238.301C255.55 237.076 257.466 236.388 258.921 236.234C259.534 236.158 260.147 236.158 260.76 236.081C263.288 234.78 266.199 234.321 268.728 233.019C272.711 229.957 273.554 225.288 273.631 220.312C274.014 216.944 274.167 213.652 274.856 211.202C278.304 205.385 279.07 197.73 284.893 193.902C291.711 189.462 302.59 190.075 310.404 189.921C328.945 189.539 347.331 191.912 365.795 189.233C376.75 187.625 386.94 187.166 388.472 174.458C389.315 167.186 388.319 159.225 388.395 151.876Z" fill="#BBD0FF"/>
<path d="M326.57 88.7219C326.493 88.5688 326.416 88.4157 326.34 88.2626C319.215 73.718 296.001 72.4932 283.131 79C270.26 85.5068 265.816 98.6734 268.038 111.687C268.421 117.581 270.949 123.016 275.086 127.533C277.155 129.829 279.53 131.437 282.058 132.509C286.808 135.724 291.481 137.561 298.683 137.714C302.82 137.791 307.57 138.173 311.554 136.489C313.929 135.494 315.997 134.04 317.989 132.585C318.525 132.279 319.062 131.973 319.674 131.667C321.283 130.671 322.662 129.6 323.888 128.375C324.348 128.069 324.884 127.763 325.42 127.456C326.11 127.074 326.263 126.385 326.11 125.772C328.715 122.251 330.17 118.041 330.783 113.601C333.311 105.18 331.396 96.0707 326.57 88.7219Z" fill="#F9D4D4"/>
<path d="M225.059 210.207C225.059 210.131 225.059 210.131 224.982 210.054C222.99 206.074 216.708 205.767 213.184 207.528C209.66 209.289 208.434 212.886 209.047 216.484C209.123 218.092 209.813 219.546 210.962 220.848C211.498 221.46 212.188 221.919 212.877 222.226C214.18 223.068 215.482 223.604 217.397 223.68C218.547 223.68 219.849 223.833 220.922 223.374C221.535 223.068 222.147 222.685 222.684 222.302C222.837 222.226 222.99 222.149 223.143 222.073C223.603 221.843 223.986 221.537 224.293 221.154C224.446 221.077 224.599 221.001 224.676 220.924C224.905 220.848 224.905 220.618 224.905 220.465C225.595 219.47 226.055 218.322 226.208 217.097C226.897 214.724 226.361 212.198 225.059 210.207Z" fill="#6090FC"/>
<path d="M55.7463 10.4108C55.7463 4.89922 60.1898 0.459302 65.7058 0.382752C74.363 0.306201 83.0967 0.153101 91.7539 0C95.0482 0.153101 100.258 0.229651 105.238 0.382752C110.754 0.535852 115.044 5.05232 115.044 10.4874C114.967 20.0562 115.044 29.625 115.121 39.1938C115.197 47.3847 115.733 55.5756 115.121 63.7664C115.044 64.685 115.044 65.6037 115.044 66.4457C115.044 71.9573 110.6 76.3972 105.084 76.4738C92.7498 76.5503 78.5 76.9331 66.1655 76.78C60.4962 76.7035 56.0527 71.9573 56.2826 66.2926C56.8955 47.7674 55.7463 29.0126 55.7463 10.4108Z" fill="#E6EFFF"/>
<path d="M158.406 116.203C158.483 123.323 158.713 130.442 158.789 137.561C158.636 140.317 158.483 144.757 158.406 148.89C158.253 153.024 154.882 156.316 150.745 156.316C140.019 156.239 129.217 156.239 118.491 156.392C109.834 156.469 101.177 156.316 92.52 156.316C91.6773 156.316 90.9111 156.316 90.0684 156.392C85.7781 156.545 82.254 153.101 82.254 148.814C82.1774 138.633 81.7177 126.767 81.9475 116.51C82.0242 112.223 85.5483 108.855 89.8386 109.008C110.141 109.697 130.596 108.548 150.822 108.701C154.959 108.625 158.33 111.993 158.406 116.203Z" fill="#88A7FF"/>
<path d="M351.698 173.463C351.775 180.659 352.005 187.855 352.081 195.05C351.928 197.806 351.775 202.016 351.698 206.074C351.545 210.973 347.485 214.8 342.658 214.8C331.473 214.724 320.364 214.8 309.179 214.877C299.985 214.953 290.792 214.8 281.522 214.8C280.985 214.8 280.373 214.8 279.836 214.8C274.78 214.877 270.643 210.896 270.566 205.844C270.49 195.586 270.03 183.951 270.183 173.693C270.26 168.64 274.473 164.66 279.53 164.813C300.521 165.425 321.666 164.354 342.658 164.43C347.638 164.507 351.622 168.487 351.698 173.463Z" fill="#F9D4D4"/>
<path d="M189.664 122.098C189.664 116.816 193.954 112.529 199.24 112.453C207.591 112.376 215.865 112.223 224.216 112.07C227.357 112.146 232.337 112.299 237.087 112.453C242.373 112.606 246.587 116.893 246.51 122.174C246.433 131.131 246.433 140.393 246.663 150.881C246.816 158.153 246.663 165.349 246.51 172.621C246.51 172.698 246.51 172.698 246.51 172.774C246.433 178.056 242.22 182.42 236.933 182.42C225.059 182.496 211.498 182.879 199.623 182.726C194.184 182.649 189.894 178.133 190.124 172.698C190.737 155.857 189.664 138.939 189.664 122.098Z" fill="#335FFF"/>
<path d="M29.3917 189.539C29.3151 184.333 33.5288 180.046 38.7384 180.046C47.1657 179.97 55.5164 179.893 63.9437 179.74C67.1614 179.817 72.2178 179.893 77.0443 180.046C82.1774 180.123 86.3144 184.333 86.3144 189.462C86.3144 195.433 86.3144 201.327 86.391 207.298C86.4676 213.04 86.9273 218.781 86.391 224.522V224.599C85.9313 229.498 82.0241 233.402 77.0443 233.402C65.0929 233.479 51.3027 233.785 39.2747 233.632C33.9884 233.555 29.7748 229.192 30.0046 223.91C30.3111 212.504 29.4683 201.021 29.3917 189.539Z" fill="#E6EFFF"/>
<path d="M297.84 257.975C269.187 257.975 240.534 257.898 211.881 257.592C210.656 257.745 209.43 257.821 208.204 257.898C200.313 258.434 192.345 258.357 184.378 258.281C176.563 258.281 168.672 259.735 160.858 258.587C159.326 258.357 157.793 258.204 156.261 258.051C149.749 258.434 143.161 258.74 136.648 258.817C136.878 265.706 137.185 272.596 137.338 279.485C138.334 279.715 141.169 279.562 142.165 279.791C145.229 279.638 146.455 279.791 149.519 279.868C153.81 280.021 158.023 280.327 162.314 280.404C164.612 280.251 166.91 280.021 169.209 279.944C180.471 279.256 191.656 278.873 202.918 279.026C204.833 279.026 206.748 279.102 208.664 279.102C214.256 278.949 219.849 278.796 225.442 278.72C230.805 278.643 236.167 278.643 241.53 278.796C244.442 278.873 247.506 278.72 250.494 279.026C256.929 278.72 263.365 278.337 269.8 278.337C273.937 278.107 278.074 278.337 282.211 278.031C287.727 277.648 293.243 277.878 298.759 277.954C298.759 277.571 298.759 277.189 298.759 276.806C298.3 270.376 298.376 264.099 297.84 257.975Z" fill="#335FFF"/>
<path d="M282.135 277.725C277.998 278.031 273.861 277.801 269.723 278.031C263.288 278.107 256.853 278.414 250.417 278.72C247.429 278.414 244.365 278.643 241.454 278.49C236.091 278.337 230.728 278.337 225.365 278.414C219.773 278.49 214.18 278.643 208.587 278.796C206.672 278.796 204.757 278.72 202.841 278.72C191.579 278.567 180.394 279.026 169.132 279.638C166.91 279.791 164.612 279.945 162.237 280.098C157.947 280.098 153.656 279.791 149.443 279.562C146.378 279.409 145.152 279.332 142.088 279.485C141.092 279.332 138.257 279.485 137.261 279.179C137.261 279.179 150.285 288.365 157.41 293.494C164.995 298.852 171.967 305.665 179.398 311.636C182.233 313.933 184.991 316.306 187.672 318.679C193.571 323.042 199.7 327.482 205.216 332.917C212.954 333.223 220.692 332.688 228.506 332.228C232.643 329.396 237.087 327.635 241.684 322.889C249.268 315.081 257.925 310.258 266.046 303.599C266.276 303.369 266.582 303.369 266.736 303.445C266.812 303.369 266.889 303.292 267.042 303.216C272.941 298.47 278.917 293.8 284.816 288.824C289.336 284.92 293.78 281.016 298.453 277.648C298.606 277.495 298.759 277.342 298.759 277.342C293.243 277.571 287.651 277.342 282.135 277.725Z" fill="#88A7FF"/>
<path d="M205.293 333.146L205.216 333.07C205.216 338.275 205.293 343.71 205.523 348.992C205.446 349.145 205.446 349.375 205.446 349.528C205.446 353.585 205.293 357.642 205.369 361.7C209.506 359.709 213.337 356.571 217.397 354.274C221.228 352.054 225.135 350.294 229.042 348.227C229.042 345.088 229.042 342.026 229.042 338.888C228.966 336.744 228.813 334.524 228.736 332.381C228.659 332.457 228.583 332.457 228.583 332.534C220.845 332.917 213.107 333.453 205.293 333.146Z" fill="#BBD0FF"/>
<path d="M313.929 94.9991C312.933 94.3101 311.937 93.7743 310.788 93.468C308.719 93.3915 306.727 93.0087 304.735 94.2336C303.05 95.3053 301.824 96.2239 300.521 97.7549C300.368 97.908 299.755 98.75 299.755 98.75C299.755 98.75 298.683 97.5252 298.53 97.2956C296.844 95.9177 295.159 94.2336 293.014 93.7743C291.558 93.4681 290.102 93.6977 288.647 93.8508C286.195 94.7694 284.28 96.5301 283.207 99.2093C282.824 100.587 282.364 102.654 282.901 104.109C283.743 106.864 285.582 108.931 287.651 110.845C291.405 114.366 300.675 119.572 301.211 119.954C303.663 118.27 306.88 115.744 309.179 113.907C311.324 112.223 313.392 110.539 315.078 108.472C315.308 108.089 315.537 107.706 315.691 107.324C316.074 106.482 316.38 105.64 316.533 104.797C317.453 100.664 316.304 97.1425 313.929 94.9991Z" fill="#FF5F5F"/>
<path d="M233.869 34.1416C219.389 34.6009 204.527 33.9119 190.047 34.1416C182.616 34.2947 175.184 33.9119 167.753 34.1416C160.322 34.3712 152.814 33.9885 145.382 34.1416C145.382 43.098 145.612 53.2792 145.382 62.2355C145.306 66.4458 145.152 70.5795 145.382 74.7898C145.535 77.3925 145.842 79.6125 145.382 82.2152C149.749 82.751 153.886 82.5979 158.253 82.2152C161.088 81.9855 164.152 82.3683 167.063 82.2152C168.979 82.2917 170.971 82.2152 172.963 82.2152C172.963 82.2917 172.963 82.1386 172.963 82.2152C172.733 85.5834 172.809 89.3344 172.963 92.7791C173.039 95.1522 173.039 97.4487 172.963 99.7452C172.963 99.7452 185.91 87.3441 191.886 82.2152C191.886 82.1386 212.724 82.2152 203.377 82.2152C203.607 82.0621 209.353 82.3683 209.583 82.2152C210.732 82.1386 214.563 82.2152 215.789 82.2152C217.244 82.1386 220.615 82.751 221.994 82.2152H228.2C240.304 81.909 221.764 82.2917 233.869 82.2152C233.792 66.752 233.946 49.6047 233.869 34.1416Z" fill="#FF5F5F"/>
<path d="M186.063 50.5999C185.45 50.5999 184.761 50.6764 184.148 50.6764C179.092 50.5999 174.035 50.6764 168.979 50.6764C168.749 50.6764 168.519 50.5999 168.289 50.5999H163.693C163.616 50.6764 163.463 50.6764 163.386 50.753C163.386 51.5185 163.309 52.3605 163.309 53.126H186.829C190.813 52.8964 194.797 52.8964 198.781 52.8964C204.45 53.0495 210.119 53.126 215.789 52.8964V50.5999H186.063Z" fill="white"/>
<path d="M186.063 62.0823C185.45 62.0823 184.761 62.1588 184.148 62.1588C179.092 62.0823 174.035 62.1588 168.979 62.1588C168.749 62.1588 168.519 62.0823 168.289 62.0823H163.693C163.616 62.1588 163.463 62.1588 163.386 62.2354C163.386 63.0009 163.309 63.8429 163.309 64.6084H186.829C190.813 64.3788 194.797 64.3788 198.781 64.3788C204.45 64.5319 210.119 64.6084 215.789 64.3788V62.0823H186.063Z" fill="white"/>
<path d="M102.25 59.7857C102.173 59.7091 102.173 59.556 102.097 59.4795C102.02 59.3264 101.943 59.1733 101.867 59.0202C101.713 58.6374 101.56 58.3312 101.407 58.025C100.871 57.183 100.334 56.4175 99.7216 55.652C99.1853 55.1161 98.649 54.5803 98.0361 54.1975C98.0361 54.1975 97.9595 54.1975 97.9595 54.121C95.3547 51.8244 92.4434 50.9824 89.3789 50.9058C85.9314 50.2169 82.4839 50.4465 79.1129 51.5948C77.4275 52.1307 75.8186 53.0493 74.2098 54.121C73.9799 54.2741 73.7501 54.5037 73.5203 54.7334C72.7541 55.3458 71.988 55.9582 71.2219 56.8002C70.609 57.4892 70.0727 58.3312 69.4598 59.3264C68.9235 60.3981 68.3106 61.9291 67.9276 63.5367C67.851 64.3022 67.7744 65.1442 67.6978 65.9097C68.6171 67.2111 69.8429 67.9766 71.2219 68.4359H99.3385C99.9514 68.2062 100.564 68.0531 101.177 67.9C102.02 67.3642 102.786 66.6752 103.476 65.8332C103.476 65.4504 103.476 65.0677 103.476 64.6849C103.092 62.9243 102.633 61.3932 102.25 59.7857Z" fill="#BBD0FF"/>
<path d="M88.766 50.6764C88.4596 49.375 88.6128 47.9971 88.5362 46.6957C88.5362 45.9302 88.5362 45.1647 88.5362 44.3992C88.2297 44.3227 87.9233 44.3992 87.9233 44.782C87.9233 45.1647 87.9233 45.4709 87.9233 45.8537C87.6934 45.9302 87.5402 46.0068 87.5402 46.313C87.5402 46.4661 87.5402 46.6192 87.5402 46.8488C87.4636 46.8488 87.3104 46.8488 87.2338 46.8488C87.3104 45.624 87.4636 44.3227 87.2338 43.251C87.2338 43.3275 87.2338 43.4041 87.1572 43.4041C87.0039 43.4806 86.8507 43.5572 86.7741 43.7103C86.6975 43.9399 86.6209 44.2461 86.6209 44.4758C85.4717 44.8585 84.2459 45.2413 83.0201 45.5475C83.0201 45.4709 83.0201 45.3944 83.0201 45.3178C83.0201 44.7054 82.1008 44.7054 82.1008 45.3178C82.1008 46.313 82.1008 47.3081 82.1008 48.2267C82.1008 48.9157 82.254 49.6047 81.9475 50.2171C81.8709 50.2936 81.7177 50.3702 81.6411 50.4467C80.6451 51.9012 80.3387 53.968 81.1814 55.5756C81.3346 55.8052 81.4879 56.0349 81.6411 56.2645C81.7943 56.4176 81.9475 56.5707 82.1008 56.7238L82.1774 56.8004C82.254 56.8769 82.4072 56.9535 82.4838 57.03C84.629 57.6424 87.6168 57.7955 88.6894 56.0349C89.4555 54.7335 89.6853 53.3556 89.8386 51.9012C89.762 51.7481 89.6853 51.595 89.6087 51.5184C89.2257 51.5184 88.9192 51.2122 88.766 50.6764Z" fill="#88A7FF"/>
<path d="M84.3226 26.7161C82.9435 26.2568 81.7177 26.3333 80.6452 26.7926C80.6452 26.8692 80.5686 26.9457 80.492 27.0223C78.1936 29.2422 77.3509 32.0746 76.9678 35.06C76.8912 36.1317 76.9678 37.28 77.121 38.3517C77.1976 38.9641 77.3509 39.5 77.3509 40.1124C77.5807 40.8013 77.7339 41.4903 77.8871 42.2558C78.4234 44.5523 79.4194 47.0019 81.7177 48.0736C84.0927 49.2219 86.1612 47.997 88.0765 46.466C88.8427 45.7005 89.4556 44.7819 89.9918 43.7868C90.5281 42.4089 90.6814 40.8779 90.9878 39.2703C92.2136 33.9118 89.6088 28.5533 84.3226 26.7161Z" fill="#BBD0FF"/>
<path d="M97.0401 28.0176C96.1974 26.1038 93.6692 25.3383 92.0603 26.3335C91.9837 22.3528 90.8346 18.5253 86.3145 17.224C84.629 16.7647 82.1008 16.8412 80.875 18.3722C79.6492 19.8267 79.496 21.4342 79.496 23.1949C78.8831 22.4294 78.1936 21.7404 77.121 21.5873C75.4356 21.3577 73.4436 21.817 72.2945 23.2714C70.2259 25.9507 71.605 29.5486 74.2864 31.2327C74.2098 31.7685 74.1332 32.3044 74.2098 32.8402C74.2864 33.5292 74.7461 34.1416 75.2823 34.6009C75.4356 34.754 75.5122 34.9071 75.6654 35.0602C76.0485 35.4429 76.3549 35.8257 76.738 36.2084C76.8146 36.285 76.9678 36.3615 77.0444 36.285C77.0444 36.0553 77.121 35.8257 77.121 35.596C77.1976 34.9071 77.2742 34.2947 77.4275 33.6057C77.8871 31.0796 78.8065 28.4003 81.4113 27.8645C81.7943 27.7879 82.1774 27.7879 82.5605 27.7879C83.1734 27.7114 83.7863 27.7879 84.3992 27.8645C85.4717 28.0176 86.7741 28.2472 87.6935 28.9362C87.6935 29.7782 87.5402 30.6203 87.4636 31.3858C87.387 32.6106 87.5402 33.9119 87.5402 35.1367C87.5402 35.9788 87.7701 36.8208 88.1531 37.4333C88.3064 37.6629 88.4596 37.9691 88.6894 38.1988C88.6894 38.2753 88.766 38.4284 88.8426 38.505C89.2257 38.7346 89.4555 38.8877 89.9152 39.0408C90.2217 39.1174 90.5281 39.1174 90.9112 39.1174C90.6813 40.4187 90.5281 41.6435 90.3749 42.9449C90.2983 43.1745 90.2217 43.4042 90.145 43.7104V43.7869C90.2983 43.8635 90.3749 43.8635 90.5281 43.8635C90.5281 43.7869 90.6047 43.7104 90.6813 43.7104C91.6773 43.0214 91.6773 41.9497 92.0603 41.0311C94.3587 39.8829 96.1208 36.8208 94.2821 34.5243C96.4272 33.1464 98.1893 30.5437 97.0401 28.0176Z" fill="#335FFF"/>
<path d="M89.5322 50.8294C89.2257 50.8294 88.9193 50.6763 88.6894 50.5232C88.6894 50.6763 88.6894 50.8294 88.766 50.9059C90.4515 52.8197 89.1491 56.0348 87.1572 57.1831C85.5483 58.1017 83.3266 56.8003 82.3306 55.499C81.4879 54.4273 81.4113 52.9728 81.4113 51.5949C81.4879 51.5183 81.4879 51.4418 81.4879 51.3652C81.4879 51.059 81.5645 50.7528 81.6411 50.5232C81.3347 50.8294 80.9516 51.059 80.4919 51.1356C80.4919 53.2025 80.6452 55.1928 82.1774 56.8769C83.4032 58.1782 85.5483 58.8672 87.2338 58.2548C89.9918 57.3362 91.2942 53.3556 89.8386 50.9059C89.762 50.8294 89.6854 50.8294 89.5322 50.8294Z" fill="#335FFF"/>
<path d="M170.741 16.2287C170.741 15.7694 170.741 15.3101 170.741 14.8508C170.741 13.1667 169.285 11.7888 167.523 11.7888C167.14 11.7888 166.757 11.7888 166.297 11.7888C164.612 11.7888 163.233 13.1667 163.233 14.9274C163.233 15.3101 163.233 15.6163 163.233 15.9991C163.233 17.7597 164.612 19.1377 166.374 19.1377C166.757 19.1377 167.14 19.1377 167.6 19.1377C169.209 19.2142 170.588 17.9128 170.741 16.2287C170.741 16.3053 170.741 16.2287 170.741 16.2287Z" fill="#88A7FF"/>
<path d="M195.18 16.2287C195.18 15.7694 195.18 15.3101 195.18 14.8508C195.18 13.1667 193.724 11.7888 191.962 11.7888C191.579 11.7888 191.196 11.7888 190.736 11.7888C189.051 11.7888 187.672 13.1667 187.672 14.9274C187.672 15.3101 187.672 15.6929 187.672 15.9991C187.672 17.7597 189.051 19.1377 190.813 19.1377C191.196 19.1377 191.656 19.1377 192.039 19.1377C193.648 19.2142 195.027 17.9128 195.18 16.2287C195.18 16.3053 195.18 16.2287 195.18 16.2287Z" fill="#6090FC"/>
<path d="M219.543 16.2287C219.543 15.7694 219.543 15.3101 219.543 14.8508C219.543 13.1667 218.087 11.7888 216.325 11.7888C215.942 11.7888 215.559 11.7888 215.099 11.7888C213.414 11.7888 212.035 13.1667 212.035 14.9274C212.035 15.3101 212.035 15.6163 212.035 15.9991C212.035 17.7597 213.414 19.1377 215.176 19.1377C215.559 19.1377 215.942 19.1377 216.401 19.1377C218.087 19.2142 219.466 17.9128 219.543 16.2287C219.543 16.3053 219.543 16.2287 219.543 16.2287Z" fill="#BBD0FF"/>
<path d="M139.33 134.04C138.181 136.03 130.52 149.656 130.52 149.656C130.52 149.58 117.419 141.848 117.419 141.848L105.161 133.964C105.161 133.964 94.2055 127.227 92.4434 125.849C100.181 124.471 144.386 118.73 148.064 118.424C147.834 119.189 140.096 132.815 139.33 134.04Z" fill="#E6EFFF"/>
<path d="M117.496 141.925L148.14 118.424L110.6 147.207L117.496 141.925Z" fill="#BBD0FF"/>
<path d="M110.6 147.207L148.14 118.424L105.238 133.964L110.6 147.207Z" fill="#BBD0FF"/>
<path d="M226.285 145.675C225.518 143.761 224.829 141.695 224.139 139.628C223.68 138.556 223.143 137.561 222.76 136.489C222.76 136.413 222.684 136.336 222.684 136.259V136.183C221.918 134.422 220.998 132.815 220.156 131.131C217.934 131.131 215.712 131.207 213.49 131.207C212.724 134.116 211.575 136.948 210.732 139.781C210.119 141.924 209.43 143.915 208.587 145.905C208.127 147.819 207.668 149.656 207.055 151.493C205.829 155.167 203.99 159.071 203.148 162.976C205.523 163.052 207.898 163.205 210.196 163.205C210.732 161.751 211.345 160.296 211.728 158.689C211.805 158.383 211.881 158.153 211.958 157.847C212.954 157.77 213.95 157.77 214.946 157.694C217.781 157.923 220.692 157.617 223.373 157.54C223.45 157.54 223.526 157.54 223.603 157.54C224.139 159.072 224.676 160.679 225.135 162.287C227.97 162.287 230.805 162.287 233.639 162.21C231.188 156.775 228.506 151.34 226.285 145.675ZM213.72 151.646C213.873 151.187 214.027 150.728 214.103 150.268C214.18 150.115 214.256 149.962 214.256 149.885C214.486 148.89 214.639 147.895 214.869 146.9C215.329 144.68 216.019 142.46 216.785 140.393C218.01 144.068 219.466 147.589 220.922 151.11C218.623 151.187 216.095 151.263 213.72 151.646Z" fill="white"/>
<path d="M313.775 196.122C317.3 194.668 320.747 193.137 324.195 191.606C322.892 190.917 321.666 190.151 320.441 189.462C318.219 188.237 315.844 187.242 313.546 186.17C309.638 184.333 305.884 182.19 302.284 179.893C302.284 183.568 302.207 187.242 302.054 190.917C301.901 194.514 302.13 197.959 302.36 201.481C306.267 199.95 309.945 197.73 313.775 196.122Z" fill="#FF5F5F"/>
<path d="M179.475 189.387C178.938 188.315 178.325 187.243 177.559 186.248C176.334 184.028 174.648 182.114 172.503 180.813C172.273 180.66 172.12 180.583 171.89 180.43C161.088 172.316 144.31 172.163 134.58 182.65C132.511 184.794 131.056 187.09 129.983 189.616C129.37 190.841 128.987 192.142 128.681 193.52C127.149 199.338 127.455 205.615 129.6 210.897C129.983 212.046 130.52 213.194 131.056 214.265C133.507 219.165 138.717 221.767 144.156 223.145C152.89 226.59 163.999 226.437 170.664 221.232C171.66 220.466 172.58 219.471 173.499 218.399C174.878 217.251 176.104 215.95 177.1 214.419C181.62 208.065 182.999 196.276 179.475 189.387Z" fill="#6090FC"/>
<path d="M157.64 194.438C157.564 191.912 157.64 189.462 157.717 186.936C156.031 187.013 154.346 187.013 152.584 187.013C152.047 187.013 151.588 187.089 151.052 187.089C151.052 195.739 151.205 204.39 151.358 213.04C151.358 213.116 151.358 213.116 151.358 213.193H157.564C157.564 208.906 157.87 204.619 158.176 200.332C157.947 198.342 157.64 196.428 157.64 194.438Z" fill="white"/>
<path d="M160.322 203.012C162.85 202.935 165.301 203.012 167.83 203.088C167.753 201.404 167.753 199.72 167.753 197.959C167.753 197.423 167.676 196.964 167.676 196.428C159.019 196.428 150.362 196.581 141.705 196.734C141.628 196.734 141.628 196.734 141.552 196.734V202.935C145.842 202.935 150.132 203.241 154.422 203.547C156.338 203.318 158.33 203.088 160.322 203.012Z" fill="white"/>
<path d="M60.6495 204.772C60.4196 204.772 60.1898 204.849 60.0366 204.849C60.0366 204.313 59.96 203.777 59.96 203.318C59.96 203.241 59.9599 203.165 59.8833 203.088C59.8833 198.954 59.96 194.897 60.1132 190.763C59.0406 192.448 57.968 194.055 56.8189 195.663C55.5931 197.806 54.2907 199.873 52.9883 201.863C51.6859 203.854 50.1536 205.614 48.698 207.528C47.702 209.059 46.7827 210.667 45.7867 212.198C47.8553 212.198 49.9238 212.198 51.9923 212.044C53.1415 212.121 54.3673 212.198 55.5931 212.121C55.5931 212.504 55.5931 212.886 55.5931 213.269H55.5165C55.5165 213.805 55.4398 214.341 55.4398 214.8C55.4398 216.255 55.3632 217.786 55.2866 219.24C55.2866 221.537 55.2866 223.833 55.2866 226.206C57.585 222.455 60.4196 219.317 62.9478 215.719C65.3994 212.121 67.851 208.447 70.3026 204.849C67.0849 205.078 63.8672 204.849 60.6495 204.772Z" fill="#335FFF"/>
<path d="M273.105 25.559C269.044 25.7886 265.137 25.3293 261.153 25.6355C265.75 30.841 270.04 36.1995 274.943 41.0987C277.242 43.4718 279.77 45.6152 282.298 47.7586C284.443 49.6724 286.282 51.9689 288.35 53.8826C289.193 54.3419 289.959 54.9543 290.649 55.5667L275.633 25.3293C274.714 25.4824 273.947 25.4824 273.105 25.559Z" fill="#E6EFFF"/>
<path d="M287.584 24.7171C283.601 24.7936 279.54 25.1764 275.556 25.406L290.572 55.6434L301.604 24.564C296.931 24.564 292.258 24.6405 287.584 24.7171Z" fill="#BBD0FF"/>
<path d="M304.592 24.5639C303.596 24.5639 302.6 24.5639 301.604 24.5639L290.572 55.6433C291.492 54.4951 292.488 53.4999 293.637 52.5047C296.931 48.5241 299.996 44.2373 303.29 40.2567C307.81 34.7451 312.713 29.0803 317.233 23.6453C312.943 23.8749 308.729 24.1811 304.592 24.5639Z" fill="#88A7FF"/>
<path d="M266.21 19.282C264.294 21.2723 262.685 23.4923 261 25.7122C265.06 25.3295 269.044 25.7888 273.181 25.5591C274.024 25.4826 274.79 25.4826 275.633 25.406L270.347 14.689C269.198 16.4496 267.589 17.8275 266.21 19.282Z" fill="#BBD0FF"/>
<path d="M275.556 25.4061C279.54 25.1764 283.524 24.7937 287.584 24.7171C292.258 24.564 296.931 24.564 301.604 24.564L288.58 14.2297L275.556 25.4061Z" fill="#E6EFFF"/>
<path d="M317.157 23.5688C315.471 22.344 313.709 21.1192 312.177 19.6647C310.262 17.8275 308.346 15.8372 306.431 14L301.604 24.5639C302.6 24.5639 303.596 24.5639 304.592 24.5639C308.729 24.1812 312.943 23.875 317.157 23.5688Z" fill="#E6EFFF"/>
<path d="M288.58 14.2297C285.516 14.3063 282.375 14.3828 279.31 14.3828C276.246 14.5359 273.258 14.689 270.193 14.689L275.48 25.4061L288.58 14.2297Z" fill="#88A7FF"/>
<path d="M300.302 14C299.842 14 299.306 14 298.846 14C295.399 14.0766 292.028 14.1531 288.58 14.2297L301.604 24.5639L306.431 14C304.362 14 302.37 14 300.302 14Z" fill="#BBD0FF"/>
<path d="M407.625 128.375C408.238 127.61 408.774 126.614 409.081 125.313C410.23 120.337 409.464 114.979 409.464 109.85C409.387 100.358 409.923 76.4739 409.923 76.4739L410 73.2588L402.109 80.3014L394.218 73.6415L386.327 80.378L378.436 73.565L370.545 80.2249L362.654 73.4119C362.654 73.4119 362.807 86.1958 363.113 90.253C363.573 96.1473 363.19 102.042 363.19 107.936C363.19 115.132 365.335 126.002 358.21 130.365C366.561 131.131 374.988 130.595 383.416 130.365C387.936 130.212 395.52 130.365 401.036 130.442C403.488 130.212 405.94 129.829 407.625 128.375Z" fill="#BBD0FF"/>
<path d="M363.267 107.936C363.267 107.553 363.267 107.171 363.267 106.788C359.436 106.711 355.682 106.788 351.928 107.324C351.928 112.299 351.928 120.337 352.311 123.323C352.311 123.705 352.388 124.012 352.388 124.394C352.694 127.456 355.222 130.901 358.67 130.518C358.9 130.518 359.053 130.442 359.283 130.442C358.976 130.442 358.593 130.365 358.287 130.365C365.412 126.002 363.267 115.132 363.267 107.936Z" fill="#88A7FF"/>
<path d="M398.355 93.0088C389.928 93.1619 381.5 93.5446 373.073 93.5446C373.15 94.3867 373.226 95.3053 373.303 96.1474C379.125 96.2239 384.948 96.1474 390.77 96.1474C393.452 96.0708 396.133 95.9177 398.815 95.6881C398.661 94.7694 398.508 93.9274 398.355 93.0088Z" fill="white"/>
<path d="M373.379 103.037C373.379 103.19 373.379 103.343 373.379 103.496C373.379 104.185 373.456 104.95 373.456 105.639C378.742 105.716 384.105 105.639 389.391 105.639L389.468 102.73C384.105 102.884 378.742 102.96 373.379 103.037Z" fill="white"/>
<path d="M373.533 112.682C373.533 113.524 373.609 114.443 373.609 115.285C378.819 115.361 384.029 115.285 389.238 115.285L389.315 112.376C384.029 112.529 378.742 112.682 373.533 112.682Z" fill="white"/>
<path d="M222.76 211.049C222.76 210.973 222.76 210.973 222.76 211.049C222.071 209.595 219.772 209.442 218.47 210.131C217.168 210.743 216.785 212.045 217.014 213.346C217.091 213.958 217.321 214.494 217.704 214.953C217.934 215.183 218.164 215.336 218.393 215.413C218.853 215.719 219.313 215.949 220.002 215.949C220.385 215.949 220.845 216.025 221.305 215.795C221.535 215.719 221.764 215.566 221.918 215.413C221.994 215.413 221.994 215.336 222.071 215.336C222.224 215.26 222.377 215.107 222.454 215.03C222.531 215.03 222.531 214.953 222.607 214.953C222.684 214.877 222.684 214.877 222.684 214.8C222.914 214.418 223.067 214.035 223.143 213.576C223.373 212.657 223.22 211.738 222.76 211.049Z" fill="white"/>
<path d="M358.9 237.154C358.823 238.838 358.976 240.522 359.053 242.283C361.964 242.283 364.875 242.206 367.71 242.13C367.71 239.374 367.787 236.618 367.787 233.786C364.876 233.786 361.964 233.709 358.976 233.709C358.976 234.857 358.976 236.005 358.9 237.154Z" fill="#88A7FF"/>
<path d="M332.852 237.154C332.775 238.838 332.928 240.522 333.005 242.283C335.916 242.283 338.828 242.206 341.662 242.13C341.662 239.374 341.739 236.618 341.739 233.786C338.828 233.786 335.916 233.709 333.005 233.709C333.005 234.857 332.928 236.005 332.852 237.154Z" fill="#335FFF"/>
<path d="M306.804 237.154C306.727 238.838 306.88 240.522 306.957 242.283C309.868 242.283 312.779 242.206 315.614 242.13C315.614 239.374 315.691 236.618 315.691 233.786C312.779 233.786 309.868 233.709 306.957 233.709C306.957 234.857 306.88 236.005 306.804 237.154Z" fill="#88A7FF"/>
<path d="M28.7788 142.766C28.7788 138.939 28.7788 135.111 28.7788 131.36H12.1541C12.1541 135.188 12.2307 138.939 12.3073 142.766H28.7788Z" fill="#88A7FF"/>
<path d="M40.5771 103.037C37.2062 94.2334 29.3151 88.7983 19.7386 88.9514C10.0855 89.0279 1.505 95.6878 0.202595 105.18C-1.32964 116.203 6.10172 123.782 13.3032 131.054C18.4362 131.054 23.5692 131.054 28.7022 131.36C34.2183 124.777 38.9682 118.423 40.6537 110.615C41.0368 108.012 41.19 105.486 40.5771 103.037Z" fill="#FF5F5F"/>
<path d="M35.061 133.427C35.061 132.126 35.061 130.825 34.9844 129.6C25.3313 129.447 15.6016 130.059 5.87189 129.523C5.9485 130.901 6.02511 132.279 6.10172 133.657C15.6782 132.738 25.4846 133.657 35.061 133.427Z" fill="#335FFF"/>
<path d="M35.061 145.063C35.061 143.762 35.061 142.46 34.9844 141.235C25.3313 141.082 15.6016 141.695 5.87189 141.159C5.9485 142.537 6.02511 143.915 6.10172 145.293C15.6782 144.374 25.4846 145.293 35.061 145.063Z" fill="#335FFF"/>
<path d="M23.9523 147.053C21.654 147.053 19.3556 146.977 17.0573 146.823C17.1339 148.201 17.2105 149.579 17.2871 150.957C19.5088 150.728 21.7306 150.651 23.9523 150.574V147.053Z" fill="#335FFF"/>
<path d="M31.7668 104.721C32.7627 104.95 33.8353 105.027 34.1417 104.491C34.7546 103.496 34.8312 102.348 34.8312 101.276C34.2184 99.3623 33.1458 97.6016 31.3837 96.1471C29.7749 94.8458 28.0128 94.1568 26.2507 93.5444C24.7951 93.6975 23.4927 94.2334 23.7225 95.7644C23.7991 95.994 23.7225 96.3002 23.7225 96.5299C24.3354 98.3671 25.2548 100.051 26.7104 101.429C28.2426 102.884 29.9281 103.879 31.7668 104.721Z" fill="#F9B2B2"/>
</svg>
