<svg width="132" height="213" viewBox="0 0 132 213" fill="none" xmlns="http://www.w3.org/2000/svg">
<path fill-rule="evenodd" clip-rule="evenodd" d="M24.3458 196.241C25.9033 195.499 27.4259 194.733 28.6951 194.079C29.5257 193.651 30.2414 193.274 30.7793 192.986C31.0484 192.842 31.2704 192.722 31.4384 192.63C31.5225 192.584 31.5906 192.546 31.6428 192.517L31.7052 192.482L31.7232 192.472C31.7277 192.469 31.7296 192.468 31.7295 192.468C42.4565 186.221 52.9607 180.268 65.0779 176.182C66.9096 175.564 68.7771 176.583 69.2491 178.458C69.7212 180.332 68.619 182.352 66.7873 182.97C55.4299 186.8 45.4946 192.403 34.7592 198.655C34.1024 199.038 29.6019 201.457 25.2881 203.438C23.1529 204.419 20.8889 205.375 19.1085 205.899C18.2945 206.138 17.1981 206.408 16.1737 206.353C15.6778 206.326 14.7103 206.205 13.8486 205.485C12.7764 204.589 12.4324 203.262 12.5578 202.087C12.793 199.883 13.926 198.285 14.8295 197.235C15.2427 196.755 15.6868 196.302 16.0351 195.947C16.0616 195.92 16.0875 195.894 16.1128 195.868C16.5065 195.466 16.7951 195.166 17.0414 194.873C18.4283 193.222 19.528 191.317 20.6381 189.137C20.9568 188.512 21.2902 187.833 21.6371 187.127C22.4215 185.53 23.2746 183.793 24.1823 182.212C30.0292 172.028 34.0166 161.835 37.7834 150.906C38.4359 149.012 40.4041 147.929 42.1795 148.486C43.9549 149.043 44.8651 151.03 44.2125 152.923C40.3847 164.03 36.2082 174.762 29.9977 185.58C29.2154 186.942 28.5586 188.282 27.84 189.747C27.4659 190.509 27.075 191.306 26.641 192.158C25.9658 193.484 25.2198 194.868 24.3458 196.241Z" fill="#88A7FF"/>
<path d="M49.0259 46.8773C53.2502 47.831 57.2114 49.0784 61.1862 50.8382C62.8294 51.509 64.6076 52.1609 66.3857 52.8129C73.0298 58.1856 77.5248 64.2435 81.5173 71.7856C81.5173 71.7856 81.5173 71.7856 81.6556 71.8949C82.8329 70.3167 83.8718 68.6292 85.0491 67.0511C86.0948 65.6198 87.1406 64.1885 88.1863 62.7572C99.3412 44.1049 104.818 25.8585 109.579 6.16929C112.717 7.01733 115.855 7.86537 118.993 8.71341C116.375 32.6031 105.326 60.3677 86.3297 79.599C86.6437 81.2264 86.9611 82.9818 87.1402 84.628C91.9638 123.549 62.4221 174.203 25.0655 195.737C23.6617 193.876 22.521 191.721 21.5152 189.547C52.0061 169.613 85.6643 120.956 78.9181 86.16C78.5234 86.6006 77.9937 87.0601 77.599 87.5008C74.1648 90.8077 69.6171 92.9843 65.4776 95.2325C64.8096 95.5828 64.2731 95.7861 63.7367 95.9894C61.4628 97.0778 59.054 98.1849 56.6384 99.0358C40.8019 104.586 24.6845 104.648 15.0062 92.1134C10.3796 86.2024 9.36975 78.7587 11.0725 71.451C13.7404 64.7801 17.4878 57.9587 23.7629 54.5129C31.6336 49.9447 40.2436 47.716 49.0259 46.8773ZM25.5324 65.0644C13.9141 76.454 22.0273 91.2631 35.6076 92.5836C42.2611 93.1986 49.1404 92.111 55.8475 89.6334C55.8441 89.5053 55.9757 89.3584 55.9689 89.1023C61.7414 87.1405 67.3824 85.3257 72.4327 81.665C73.0973 81.1867 73.6269 80.7272 74.1532 80.1396C74.8279 80.0455 75.4925 79.5672 75.7455 78.8892C72.0161 71.0534 67.3828 64.8862 60.9917 58.8354C49.7489 53.7182 36.3578 54.4282 25.5324 65.0644Z" fill="#88A7FF"/>
</svg>
