<svg width="154" height="152" viewBox="0 0 154 152" fill="none" xmlns="http://www.w3.org/2000/svg">
<path fill-rule="evenodd" clip-rule="evenodd" d="M45.4297 145.669C45.4302 145.679 45.4306 145.689 45.431 145.699C45.4309 145.697 45.4307 145.696 45.4304 145.694C45.4295 145.69 45.4281 145.682 45.4297 145.669ZM48.1519 141.007C48.6739 140.729 49.1707 140.457 49.6159 140.207C50.1068 139.933 50.528 139.69 50.8423 139.505C50.9996 139.413 51.1275 139.337 51.2221 139.28C51.3014 139.232 51.3419 139.207 51.3541 139.199C51.3582 139.196 51.359 139.196 51.357 139.197C57.7212 135.037 64.1126 130.992 71.7933 128.534C73.3713 128.029 75.0702 128.895 75.5879 130.469C76.1055 132.043 75.246 133.728 73.6679 134.233C66.847 136.416 61.0646 140.035 54.6812 144.207C54.2391 144.496 51.4962 146.113 48.837 147.398C47.5323 148.028 46.0535 148.674 44.8115 149.002C44.2612 149.147 43.3503 149.347 42.4127 149.196C41.9002 149.113 41.1247 148.884 40.4526 148.228C39.7237 147.517 39.4479 146.63 39.4207 145.874C39.3623 144.249 39.9302 143.022 40.5001 142.133C40.7414 141.757 41.0067 141.407 41.197 141.156C41.2123 141.135 41.2271 141.116 41.2415 141.097C41.4591 140.809 41.5946 140.625 41.7033 140.45C42.3959 139.335 42.9112 137.982 43.4236 136.353C43.567 135.898 43.7162 135.398 43.8721 134.875C44.2289 133.68 44.6215 132.364 45.063 131.181C47.8655 123.675 49.4677 116.027 50.8578 107.768C51.1319 106.14 52.682 105.049 54.32 105.333C55.958 105.616 57.0636 107.166 56.7895 108.794C55.3795 117.172 53.7035 125.26 50.7022 133.298C50.33 134.295 50.0384 135.275 49.7157 136.36C49.5458 136.93 49.3673 137.53 49.164 138.176C48.8781 139.085 48.5531 140.045 48.1519 141.007ZM42.9901 143.268C42.9901 143.269 42.9925 143.268 42.9976 143.268C42.9927 143.268 42.9901 143.268 42.9901 143.268Z" fill="#88A7FF"/>
<path d="M61.9853 28.965C64.8471 30.2108 67.5651 31.6518 70.3298 33.4569C71.4738 34.2127 72.7134 34.9242 73.9531 35.6357C78.4756 40.6122 81.708 45.8004 84.4599 51.9825C84.4599 51.9825 84.4599 51.9825 84.5074 52.0891C85.3222 51.0689 85.9466 49.8798 86.714 48.753C87.4332 47.7771 88.0568 46.8455 88.776 45.8696C96.0729 32.9766 99.4551 19.5824 102.363 5.12242C104.557 6.16339 106.655 7.24865 108.801 8.18303C107.364 26.2048 100.333 46.1741 87.736 58.5647C87.971 59.8701 88.206 61.1754 88.3453 62.5251C92.2203 92.9996 72.9663 128.272 48.0495 140.197C47.099 138.581 46.3399 136.875 45.5333 135.063C65.8644 123.462 87.978 90.2076 82.8046 62.777C82.4695 63.0608 82.2775 63.4068 81.9423 63.6906C79.6438 65.7836 76.5839 66.9436 73.7627 68.1216C73.3802 68.2988 72.9501 68.3694 72.5201 68.44C70.9423 69.0422 69.4127 69.4935 67.7401 69.8824C57.1309 72.2246 46.1045 70.2603 39.3542 59.5018C36.1218 54.3136 35.4221 48.5952 36.3454 43.1537C38.0309 38.3877 40.5282 33.6313 44.641 31.7266C50.3315 29.2197 56.0642 28.6217 61.9853 28.965ZM46.3837 40.0474C38.6733 47.3466 44.416 59.7289 53.6258 62.2773C58.1114 63.5425 62.8395 63.5383 67.3318 62.4863C67.38 62.3354 67.3326 62.2288 67.3808 62.078C71.2036 61.336 75.0264 60.594 78.4237 58.3778C78.8545 58.0497 79.1896 57.766 79.6204 57.4379C80.0979 57.4739 80.5287 57.1458 80.6733 56.6932C78.0177 50.2093 74.7379 44.9145 70.4074 39.592C62.6382 34.3193 53.6151 33.2271 46.3837 40.0474Z" fill="#88A7FF"/>
</svg>
