<svg width="711" height="594" viewBox="0 0 711 594" fill="none" xmlns="http://www.w3.org/2000/svg">
<path d="M130.33 94.1543C129.172 92.4179 127.918 91.3567 126.471 90.7779C124.638 89.7167 122.323 89.9097 120.297 90.8744C118.175 91.5496 116.728 92.7073 115.667 94.1543C115.474 94.3473 115.377 94.4437 115.281 94.6367C113.834 96.3731 113.737 99.0743 113.448 101.197C113.351 101.582 113.351 102.065 113.255 102.451C113.159 102.451 113.062 102.451 112.966 102.451C110.94 102.451 108.914 102.258 106.985 101.872C95.8905 98.9778 87.7871 92.4179 83.0601 81.9992C82.5778 80.6486 82.1919 79.3945 81.9025 78.0439C81.2272 78.1404 80.4554 78.2369 79.7802 78.3333C79.8766 78.8157 80.0696 79.298 80.166 79.7804C80.0696 79.9733 79.9731 80.2627 80.166 80.5521C80.4554 81.3239 80.7448 81.9992 81.1307 82.6745C82.2884 86.0509 83.8319 89.2344 85.9542 92.2249C89.0412 96.3731 93.4788 98.9778 98.0129 101.1C98.2058 101.197 98.3987 101.293 98.5917 101.39C99.267 101.679 99.8458 101.968 100.521 102.258C100.618 102.258 100.618 102.354 100.714 102.354C102.547 103.126 104.38 103.705 106.213 104.091C108.432 104.573 110.747 104.862 112.966 105.055C112.966 105.924 113.062 106.888 113.255 107.756C113.159 107.949 113.159 108.142 113.255 108.335C113.641 109.396 113.641 110.651 113.834 111.808C114.027 112.676 114.123 113.545 114.316 114.413C114.316 114.606 114.413 114.895 114.413 115.088C114.413 115.281 114.509 115.474 114.606 115.667C114.606 115.763 114.606 115.86 114.702 115.956C114.799 116.149 114.799 116.246 114.895 116.342C116.342 122.806 119.526 127.533 122.902 133.128C123.384 132.646 123.963 132.163 124.542 131.777C120.876 125.7 117.789 120.49 116.631 113.641C116.246 112.869 115.956 112.001 115.667 111.036C115.57 110.458 115.57 109.879 115.474 109.396C115.57 109.204 115.57 109.011 115.474 108.721C115.088 107.564 114.895 106.309 114.895 105.152C115.667 105.152 116.438 105.055 117.307 105.055C117.307 105.055 117.307 105.055 117.403 105.055C117.596 105.055 117.789 105.055 117.982 104.959C120.973 104.669 123.77 103.994 126.278 102.837C128.208 101.872 129.462 100.328 129.944 98.5919C130.909 97.1449 131.295 95.6014 130.33 94.1543ZM124.445 100.811C122.323 102.161 118.561 102.837 116.053 103.029C115.956 103.029 115.86 103.029 115.763 103.126C115.57 103.126 115.377 103.126 115.184 103.126C115.281 102.258 115.377 101.486 115.57 100.618C115.667 100.232 115.667 99.7495 115.763 99.3637C116.053 98.399 116.342 97.4343 116.824 96.566C117.596 95.2155 118.754 94.0578 120.49 93.0932C122.613 91.9355 125.121 92.2249 126.954 93.8649C129.655 96.2766 126.375 99.5566 124.445 100.811Z" fill="#BBD0FF"/>
<path d="M667.568 105.055C666.506 104.476 665.445 103.994 664.384 103.512C672.295 95.1188 679.626 86.3401 686.669 77.272C677.89 83.2531 669.208 89.2342 660.332 95.0223C653.29 99.6529 646.441 105.055 639.109 109.396C640.653 109.879 642.679 110.457 644.704 111.133C646.73 111.904 648.563 113.062 650.589 113.93C651.843 114.509 653.194 114.991 654.448 115.474C655.509 116.053 656.667 116.631 657.728 117.114C650.686 124.445 643.643 132.067 637.759 140.17C641.039 138.434 644.126 136.408 647.116 134.382C647.695 133.996 648.274 133.514 648.853 133.128C653.483 129.848 658.114 126.278 662.841 123.191C669.401 118.947 675.96 114.606 682.617 110.65C678.276 108.914 674.031 106.888 669.497 106.213C668.918 105.827 668.146 105.345 667.568 105.055Z" fill="#BBD0FF"/>
<path d="M685.125 172.68C685.221 172.68 685.318 172.68 685.414 172.68C693.711 171.909 702.104 170.847 710.4 169.497C696.026 167.471 685.318 168.05 674.224 167.375C675.092 168.339 675.768 169.4 676.539 170.462C677.215 171.523 677.986 172.487 678.758 173.549C679.916 175.478 680.784 177.504 682.038 179.337C681.942 179.433 681.749 179.626 681.556 179.723C678.855 181.17 676.057 182.52 673.259 183.967C678.854 183.003 684.45 181.556 689.948 180.205C689.08 179.24 688.212 178.276 687.247 177.407C686.765 175.767 686.09 174.127 685.125 172.68Z" fill="#88A7FF"/>
<path d="M592.804 107.177L589.138 97.1442C589.138 97.1442 586.244 87.8832 584.122 81.3232C584.99 93.0925 584.508 104.765 584.122 116.535C587.112 115.666 590.199 114.895 592.997 113.448C593.576 113.158 594.058 113.062 594.54 113.062C595.312 114.605 598.689 123.191 599.557 125.313C601.004 117.982 602.837 110.65 603.705 103.222C600.329 104.476 592.804 107.177 592.804 107.177Z" fill="#E6EFFF"/>
<path d="M152.807 13.1198C149.72 10.2257 148.177 6.46344 147.501 2.41173C147.309 1.63998 147.116 0.771755 146.826 0C146.247 4.05171 145.476 8.39283 143.257 11.6728C140.363 16.0139 136.215 17.268 131.391 18.3292C135.346 18.3292 139.398 18.6186 142.774 20.548C147.019 22.9597 148.37 27.3973 149.238 31.8349C149.624 27.3973 150.974 22.7668 154.447 19.9691C156.859 18.0398 160.235 17.268 163.419 16.9786C159.657 16.6892 155.798 15.821 152.807 13.1198Z" fill="#BBD0FF"/>
<path d="M692.071 354.717C688.984 351.823 687.44 348.061 686.765 344.009C686.572 343.238 686.379 342.369 686.09 341.598C685.511 345.649 684.739 349.99 682.52 353.27C679.626 357.612 675.478 358.866 670.655 359.927C674.61 359.927 678.662 360.216 682.038 362.146C686.283 364.557 687.633 368.995 688.501 373.433C688.887 368.995 690.238 364.364 693.711 361.567C696.123 359.637 699.499 358.866 702.682 358.576C698.824 358.287 695.061 357.419 692.071 354.717Z" fill="#BBD0FF"/>
<path d="M21.4162 370.635C18.3292 367.741 16.7857 363.979 16.1104 359.927C15.9174 359.156 15.7245 358.287 15.4351 357.516C14.8563 361.567 14.0845 365.908 11.8657 369.188C8.97165 373.53 4.82347 374.784 0 375.845C3.95524 375.845 8.00695 376.134 11.3834 378.064C15.628 380.475 16.9786 384.913 17.8468 389.35C18.2327 384.913 19.5833 380.282 23.0562 377.485C25.4679 375.555 28.8443 374.784 32.0278 374.494C28.2655 374.205 24.4067 373.337 21.4162 370.635Z" fill="#BBD0FF"/>
<path d="M108.045 424.176C105.441 418.677 100.328 414.722 93.6716 414.239C92.8998 414.239 92.4175 413.854 92.0316 413.468C88.6552 412.792 85.2787 412.021 82.1917 410.67C78.7188 409.127 76.7894 405.461 78.3329 401.795C79.78 398.418 84.7964 397.454 87.9799 398.033C89.041 398.226 89.9093 398.515 90.8739 398.901C94.2504 399.094 97.3374 401.12 99.6527 403.531C100.81 401.313 102.354 399.287 104.09 397.357C96.9515 390.701 83.9282 387.71 76.9824 393.306C73.413 395.428 71.0013 399.383 70.7119 403.531C70.6154 403.821 70.6154 404.11 70.5189 404.496C69.7472 411.538 73.7024 415.686 79.8764 418.291C83.0599 419.642 86.6293 420.124 90.1022 420.799C92.9963 421.378 95.7939 421.861 98.3986 423.308C98.688 423.5 98.9774 423.693 99.1703 423.886C99.5562 424.272 99.8456 424.755 100.135 425.14C100.617 426.105 100.617 427.359 100.328 428.517C100.328 428.517 100.328 428.517 100.328 428.613C100.231 428.903 100.135 429.192 100.039 429.482C99.5562 430.639 98.9774 431.604 98.3021 432.279C98.1092 432.472 97.9162 432.762 97.7233 432.954C97.6268 432.954 97.5303 432.954 97.4339 432.954C94.7327 434.884 90.5845 434.594 86.5328 433.244C81.227 432.472 76.1141 430.446 71.8695 427.07C70.5189 429.096 69.1684 431.122 67.7213 432.954C71.966 437.874 80.0694 440.19 87.3046 441.444C88.3657 441.54 89.4269 441.54 90.4881 441.251C95.8904 441.444 101.003 439.997 104.38 435.27C104.958 434.498 105.441 433.63 105.73 432.858C106.695 431.411 107.467 429.675 107.853 427.456C108.238 426.395 108.238 425.237 108.045 424.176Z" fill="#F9B2B2"/>
<path d="M90.9705 380.476C88.9447 380.669 86.9188 380.765 84.7965 380.765C84.7965 384.913 84.7965 389.061 84.5071 393.21C86.7259 393.499 88.9447 393.788 91.1635 393.981C91.2599 389.447 91.067 384.913 90.9705 380.476Z" fill="#F9B2B2"/>
<path d="M91.2598 449.836C91.2598 445.592 91.0668 441.347 91.0668 437.199C89.041 437.392 87.0151 437.488 84.8928 437.488C84.8928 441.636 84.8928 445.784 84.6034 449.933C85.1822 450.029 85.6646 450.029 86.2434 450.126C87.9798 450.029 89.6198 449.933 91.2598 449.836Z" fill="#F9B2B2"/>
<path d="M519.97 237.99C519.777 218.503 519.294 199.112 518.619 179.626C517.461 142.967 515.918 106.309 515.146 69.6507C488.81 69.3613 462.474 68.493 436.041 68.3966C421.185 68.3966 406.329 68.3001 391.472 68.7825C377.677 69.2648 363.882 66.8531 350.184 67.6248C335.617 68.493 320.953 70.6154 306.29 70.133C291.144 69.6507 275.999 69.3613 260.853 69.4577C245.997 69.5542 231.14 69.7471 216.381 70.6154C205.673 71.1942 195.061 71.6765 184.449 71.0012C184.16 78.14 183.195 85.1822 183.581 92.321C184.063 100.714 185.221 109.107 185.317 117.499C185.607 135.636 184.642 153.772 184.546 172.005C184.546 172.68 184.353 173.259 183.967 173.548C184.353 183.195 184.256 192.842 184.546 202.489C185.414 211.654 186.282 220.722 186.765 229.886C187.343 241.27 188.597 252.942 186.957 264.229C186.186 269.824 184.449 276.867 188.308 281.594C191.395 285.356 198.63 284.97 202.778 284.874C210.303 284.681 217.731 283.041 225.256 282.269C237.025 281.111 249.277 282.076 261.046 282.173C275.034 282.366 289.022 282.462 303.01 282.944C330.021 283.813 356.936 284.584 383.851 281.98C410.477 279.375 436.813 277.831 463.535 276.77C474.725 276.288 486.398 274.262 497.589 274.937C504.245 275.323 511.673 277.639 517.365 273.201C520.259 270.886 520.259 265.676 520.259 262.396C520.452 254.196 519.97 246.093 519.97 237.99Z" fill="#F5F8FF"/>
<path d="M184.546 104.573C211.171 107.66 237.893 103.222 264.615 103.126C292.688 103.029 320.76 102.643 348.833 102.547C404.592 102.45 460.255 101.582 516.014 101.486C515.725 90.8739 515.435 80.2623 515.146 69.6507C488.81 69.3613 462.474 68.493 436.041 68.3966C421.185 68.3966 406.329 68.3001 391.472 68.7825C377.677 69.2648 363.882 66.8531 350.184 67.6248C335.617 68.493 320.953 70.6154 306.29 70.133C291.144 69.6507 275.999 69.3613 260.853 69.4577C245.997 69.5542 231.14 69.7471 216.381 70.6154C205.673 71.1942 195.061 71.6765 184.449 71.0012C184.16 78.14 183.195 85.1822 183.581 92.321C183.774 96.3727 184.16 100.424 184.546 104.573Z" fill="#BBD0FF"/>
<path d="M206.637 81.5164C206.541 84.8928 206.444 88.2692 206.734 91.6457C210.11 91.6457 213.583 91.7421 216.863 91.4527C216.863 88.0763 216.863 84.7963 217.056 81.4199C213.583 81.5164 210.11 81.5164 206.637 81.5164Z" fill="white"/>
<path d="M237.99 81.5169C237.893 84.8933 237.797 88.2697 238.086 91.6462C241.463 91.6462 244.936 91.7426 248.216 91.4532C248.216 88.0768 248.216 84.7968 248.408 81.4204C244.936 81.5169 241.463 81.5169 237.99 81.5169Z" fill="#88A7FF"/>
<path d="M269.342 81.5169C269.246 84.8933 269.149 88.2697 269.439 91.6462C272.815 91.6462 276.288 91.7426 279.568 91.4532C279.568 88.0768 279.568 84.7968 279.761 81.4204C276.385 81.5169 272.912 81.5169 269.342 81.5169Z" fill="#E6EFFF"/>
<path d="M287.575 38.5882C287.479 41.9646 287.382 45.341 287.671 48.7174C291.048 48.7174 294.521 48.8139 297.801 48.5245C297.801 45.1481 297.801 41.8681 297.994 38.4917C294.521 38.5882 291.048 38.5882 287.575 38.5882Z" fill="#E6EFFF"/>
<path d="M318.928 38.5877C318.831 41.9641 318.735 45.3405 319.024 48.717C322.4 48.717 325.873 48.8134 329.153 48.524C329.153 45.1476 329.153 41.8676 329.346 38.4912C325.873 38.5877 322.4 38.5877 318.928 38.5877Z" fill="#88A7FF"/>
<path d="M350.28 38.5877C350.184 41.9641 350.087 45.3405 350.377 48.717C353.753 48.717 357.226 48.8134 360.506 48.524C360.506 45.1476 360.506 41.8676 360.699 38.4912C357.226 38.5877 353.753 38.5877 350.28 38.5877Z" fill="#BBD0FF"/>
<path d="M537.238 445.109C537.141 448.486 537.045 451.862 537.334 455.238C540.71 455.238 544.183 455.335 547.463 455.046C547.463 451.669 547.463 448.389 547.656 445.013C544.183 445.013 540.71 445.013 537.238 445.109Z" fill="#E6EFFF"/>
<path d="M568.59 445.109C568.494 448.486 568.397 451.862 568.687 455.238C572.063 455.238 575.536 455.335 578.816 455.046C578.719 450.994 578.719 447.328 579.009 445.013C575.536 445.013 572.063 445.013 568.59 445.109Z" fill="#BBD0FF"/>
<path d="M599.943 445.109C599.846 448.486 599.75 451.862 600.039 455.238C603.416 455.238 606.888 455.335 610.168 455.046C610.168 451.669 610.168 448.389 610.361 445.013C606.888 445.013 603.415 445.013 599.943 445.109Z" fill="#88A7FF"/>
<path d="M489.292 166.602C466.911 156.184 460.834 183.678 447.907 194.675C434.787 205.962 421.474 197.859 410.187 188.019C401.891 180.88 392.437 172.777 381.247 180.398C374.301 185.125 367.934 191.684 359.252 193.228C341.694 196.411 326.741 185.896 316.323 172.584C303.878 156.763 288.347 126.954 264.422 142.678C251.881 150.878 242.234 170.847 224.773 161.875C215.126 156.956 207.312 153.579 197.665 160.621C193.035 163.998 188.887 167.953 184.449 171.522C184.449 171.619 184.449 171.715 184.449 171.812C184.449 172.487 184.256 173.066 183.87 173.355C184.256 183.002 184.16 192.649 184.449 202.296C185.317 211.461 186.186 220.529 186.668 229.693C187.247 241.077 188.501 252.75 186.861 264.036C186.089 269.632 184.353 276.674 188.211 281.401C191.298 285.163 198.534 284.777 202.682 284.681C210.206 284.488 217.635 282.848 225.159 282.076C236.928 280.919 249.18 281.883 260.949 281.98C274.937 282.173 288.925 282.269 302.913 282.752C329.925 283.62 356.84 284.391 383.755 281.787C410.38 279.182 436.716 277.639 463.438 276.577C474.629 276.095 486.302 274.069 497.492 274.745C504.148 275.13 511.577 277.446 517.268 273.008C520.162 270.693 520.162 265.483 520.162 262.204C520.259 254.1 519.776 245.997 519.68 237.893C519.584 220.529 519.198 203.261 518.522 186.089C515.628 185.028 512.831 183.678 510.226 182.038C503.184 177.6 497.203 170.268 489.292 166.602Z" fill="#BBD0FF"/>
<path d="M336.292 177.31C345.167 177.6 356.454 179.24 365.619 177.407C360.409 171.329 355.296 165.155 350.666 158.692C350.184 158.016 349.701 157.245 349.219 156.473C344.01 150.492 338.704 144.607 335.134 137.469C334.556 136.793 334.073 136.021 333.591 135.346C332.144 138.047 330.311 140.556 328.478 143.16C324.909 148.466 321.436 153.868 317.866 159.078C314.297 164.191 310.535 169.207 306.965 174.416C306.386 175.284 305.808 176.249 305.325 177.214C315.455 178.371 325.97 177.021 336.292 177.31Z" fill="#335FFF"/>
<path d="M342.852 213.101C342.369 208.277 341.887 203.454 341.887 198.63C341.887 191.491 342.852 184.449 341.598 177.31C341.501 176.635 341.598 176.056 341.887 175.574C341.887 175.188 341.791 174.802 341.791 174.416C338.511 172.294 330.504 174.03 327.996 174.127C327.899 174.127 327.803 174.127 327.706 174.223C327.127 173.645 326.356 173.355 325.487 173.452C325.68 186.379 326.259 199.305 325.97 212.329C325.68 223.905 325.294 235.481 325.584 247.154C331.179 247.154 336.678 247.251 342.273 247.251C342.177 235.964 342.562 224.484 342.852 213.101Z" fill="#335FFF"/>
<path d="M299.634 200.56C298.669 200.56 297.704 200.56 296.74 200.56C296.74 213.969 297.608 227.86 296.547 241.27C296.643 242.62 296.74 243.874 296.836 245.225C297.897 245.225 298.958 245.225 300.02 245.225C300.02 243.103 300.116 240.98 300.116 238.954C299.827 226.124 299.73 213.39 299.634 200.56Z" fill="#335FFF"/>
<path d="M270.982 136.987C271.175 147.309 271.465 157.728 270.693 167.857C270.789 169.208 270.886 170.462 270.982 171.812C272.043 171.812 273.105 171.812 274.166 171.812C274.166 169.69 274.262 167.568 274.262 165.542C274.069 155.991 273.973 146.537 273.876 136.987H270.982Z" fill="#FF5F5F"/>
<path d="M222.555 153.386H225.642C225.545 146.055 225.449 138.819 225.352 131.488H222.458C222.555 138.819 222.748 146.151 222.555 153.386Z" fill="#335FFF"/>
<path d="M371.021 192.938C370.056 192.938 369.092 192.938 368.127 192.938C368.127 206.348 368.995 220.239 367.934 233.649C368.03 234.999 368.127 236.253 368.223 237.604C369.285 237.604 370.346 237.604 371.407 237.604C371.407 235.481 371.503 233.359 371.503 231.333C371.214 218.599 371.117 205.769 371.021 192.938Z" fill="#FF5F5F"/>
<path d="M408.065 136.408C407.101 136.408 406.136 136.504 405.171 136.504C405.171 161.393 406.039 186.958 404.978 211.847C405.075 214.258 405.171 216.67 405.268 219.082C406.329 219.082 407.39 219.178 408.451 219.178C408.451 215.32 408.548 211.364 408.548 207.506C408.355 183.871 408.162 160.139 408.065 136.408Z" fill="#335FFF"/>
<path d="M442.119 207.505H445.592C445.592 206.541 445.592 205.479 445.592 204.515C445.399 190.913 445.302 177.31 445.206 163.805H442.408C442.601 178.372 442.601 193.131 442.119 207.505Z" fill="#FF5F5F"/>
<path d="M479.163 215.705H482.636C482.636 213.969 482.636 212.232 482.636 210.496C482.443 186.765 482.346 163.13 482.25 139.495H479.549C479.645 164.963 479.742 190.527 479.163 215.705Z" fill="#FF5F5F"/>
<path d="M278.796 305.422C278.41 296.45 277.735 287.478 278.217 278.507C278.025 270.017 277.928 261.528 277.542 253.039C276.578 225.738 277.928 198.437 278.025 171.136C244.743 172.294 211.461 171.136 178.082 170.268C152.132 171.426 126.278 172.68 100.232 172.68H17.6539C17.6539 196.894 17.8468 221.011 17.5574 245.225C17.3645 262.686 16.5927 280.243 16.0139 297.704C16.3998 309.473 16.7857 321.339 16.9786 333.108C29.9055 333.108 42.8324 333.301 55.7593 333.591C112.869 332.722 169.979 330.6 227.185 330.6C227.668 330.6 228.15 330.697 228.439 330.986C238.183 330.504 247.926 330.021 257.573 330.021C264.615 330.021 271.754 330.407 278.796 330.118C278.507 321.821 279.086 313.621 278.796 305.422Z" fill="#F9B2B2"/>
<path d="M202.103 240.594C196.99 226.124 189.08 212.232 175.767 205.479C174.899 205.19 174.127 204.997 173.162 204.708L172.776 204.611L172.391 204.515C170.461 203.839 168.435 203.357 166.217 203.164H165.831L165.445 203.068C164.48 202.875 163.515 202.682 162.454 202.585C160.235 202.296 158.017 202.103 155.701 202.103C145.476 202.103 134.961 205.094 125.796 210.689C124.445 211.461 123.095 212.329 121.841 213.39C119.911 214.837 118.175 216.284 116.631 217.828C114.991 219.468 113.448 221.204 112.194 223.037C105.923 234.517 103.608 247.347 106.599 260.853C107.177 263.361 107.853 265.676 108.721 267.895C113.641 265.676 118.561 263.554 123.481 261.528C123.191 260.563 122.902 259.599 122.612 258.634C117.982 245.128 122.227 227.474 135.539 222.072C137.469 220.722 139.591 219.66 141.906 218.985C145.862 217.731 149.913 217.056 154.061 217.056C171.812 217.056 185.125 228.729 186.379 245.514C187.054 254.968 183.678 264.519 177.021 271.561C170.944 278.121 163.033 281.787 154.64 281.787C154.061 281.787 153.386 281.787 152.807 281.69C141.52 283.33 132.549 277.831 127.146 269.439C124.445 270.5 121.841 271.657 119.236 272.911C117.017 274.069 114.702 275.13 112.387 276.095C115.184 280.918 118.754 285.26 122.902 289.118C127.918 292.302 133.899 294.714 140.652 296.161L140.942 296.257L141.231 296.354C144.704 297.415 148.08 297.994 151.167 298.09C152.229 298.09 153.29 298.09 154.351 298.09C157.534 298.09 160.525 297.897 163.322 297.608C171.136 295.678 178.275 291.337 185.221 287.092C191.202 281.69 195.157 274.937 198.63 267.895C199.788 264.229 200.463 260.274 200.656 256.029V255.354L200.849 254.679C202.296 249.566 202.585 244.935 202.103 240.594Z" fill="white"/>
<path d="M120.297 235.096C114.606 233.07 109.203 230.851 103.801 228.054C100.039 226.028 96.0834 224.677 92.1282 223.327C88.0765 231.141 85.4718 239.534 85.5683 248.602C85.6647 258.538 88.2694 266.834 92.6105 275.227C106.309 269.535 120.297 264.133 134.189 258.827C139.495 256.319 144.8 254.1 150.492 252.557C150.878 252.46 151.264 252.267 151.457 251.978C151.553 251.978 151.65 251.978 151.843 252.075C153.772 251.303 155.701 250.531 157.631 249.759C144.8 246.093 132.838 239.534 120.297 235.096Z" fill="#FF5F5F"/>
<path d="M198.534 203.647C196.026 201.235 193.324 199.017 190.623 196.798L190.527 196.701C190.045 196.991 189.369 197.087 188.597 196.798C180.301 193.228 171.812 190.817 162.937 190.045C161.393 190.141 159.85 190.334 158.403 190.624C165.831 190.141 172.873 191.974 179.24 195.447C186.572 197.955 195.061 204.129 199.884 210.111C213.776 224.967 213.197 244.261 213.583 246.287C213.872 242.138 214.162 237.894 213.969 233.746C211.557 222.844 206.251 211.943 198.534 203.647Z" fill="#FF5F5F"/>
<path d="M101.003 282.076C104.38 302.142 125.121 308.991 143.064 311.307C143.739 311.114 144.511 311.017 145.186 310.921C134.864 309.474 124.831 307.448 116.245 300.984C109.975 296.257 103.897 289.601 101.1 281.98C101.003 281.98 101.003 281.98 101.003 282.076Z" fill="#FF5F5F"/>
<path d="M48.2347 240.981C48.2347 245.997 48.1382 251.013 48.1382 256.03C53.3475 256.223 58.5569 256.03 63.7662 255.933C63.6697 250.917 63.2839 245.804 62.9945 240.788C58.0745 240.788 53.1546 240.788 48.2347 240.981Z" fill="white"/>
<path d="M93.4788 247.154C81.7096 247.057 70.0368 246.961 58.2675 247.154C57.6887 247.926 57.6887 249.083 58.0746 249.855C69.9403 249.855 81.7096 249.566 93.4788 249.276C93.4788 248.601 93.4788 247.829 93.4788 247.154Z" fill="white"/>
<path d="M43.3147 278.121C43.2182 278.989 43.0253 279.954 42.9288 280.822C52.5758 280.822 62.2227 280.918 71.8696 281.015C71.8696 280.146 71.8696 279.278 71.8696 278.41C62.4156 277.928 52.6722 278.796 43.3147 278.121Z" fill="white"/>
<path d="M43.3147 288.443C43.2182 289.311 43.0253 290.276 42.9288 291.144C52.5758 291.144 62.2227 291.24 71.8696 291.337C71.8696 290.469 71.8696 289.6 71.8696 288.732C62.4156 288.25 52.6722 289.118 43.3147 288.443Z" fill="white"/>
<path d="M43.3147 297.705C43.2182 298.573 43.0253 299.537 42.9288 300.406C52.5758 300.406 62.2227 300.502 71.8696 300.599C71.8696 299.73 71.8696 298.862 71.8696 297.994C62.4156 297.512 52.6722 298.38 43.3147 297.705Z" fill="#FF5F5F"/>
<path d="M43.3147 308.027C43.2182 308.895 43.0253 309.86 42.9288 310.728C52.5758 310.728 62.2227 310.824 71.8696 310.921C71.8696 310.053 71.8696 309.185 71.8696 308.316C62.4156 307.834 52.6722 308.702 43.3147 308.027Z" fill="#FF5F5F"/>
<path d="M595.216 163.805C588.366 165.734 581.035 167.181 573.703 167.953C586.34 180.012 600.136 190.816 612.87 202.682C613.062 203.357 613.545 203.936 614.413 204.226C614.413 204.226 614.51 204.226 614.51 204.322L614.606 204.419C614.992 204.804 615.474 204.997 615.86 205.094C616.921 205.866 617.789 206.83 618.658 207.699C619.044 208.663 620.008 209.146 620.973 209.146C622.323 191.878 624.446 174.61 624.928 157.245C615.088 159.078 604.959 161.007 595.216 163.805Z" fill="#335FFF"/>
<path d="M459.58 480.803C467.297 468.455 475.497 456.396 481.768 443.276C480.899 438.453 479.838 433.726 479.452 428.806C461.702 427.07 443.855 429.867 426.105 430.06C424.947 430.06 424.079 429.578 423.5 428.903C388.482 428.71 353.56 426.684 318.542 426.298C283.813 425.912 249.47 429.964 214.837 430.446C214.162 431.411 213.583 432.472 212.908 433.437C197.666 460.448 178.275 484.662 159.464 509.358C157.92 512.156 156.377 514.953 154.93 517.751C154.447 518.715 154.64 520.066 155.508 520.741C165.252 520.452 174.995 519.68 184.739 520.259C195.833 520.934 207.023 521.899 218.117 522.188C243.006 522.767 267.992 521.706 292.881 521.61C340.344 521.417 387.71 522.767 435.173 523.057C444.241 509.551 450.994 494.598 459.58 480.803Z" fill="white"/>
<path d="M473.182 285.936H217.056V419.063H473.182V285.936Z" fill="white"/>
<path d="M465.947 495.66C473.761 481.093 481.864 466.815 488.81 451.863C488.52 445.785 488.328 439.611 487.363 433.533C487.266 433.533 487.266 433.533 487.17 433.533C488.038 428.517 480.128 426.588 478.198 431.99C475.208 440.383 470.288 447.811 466.043 455.625C461.798 463.439 458.904 471.832 454.853 479.742C450.801 487.653 445.688 494.984 440.768 502.316C437.585 507.043 435.752 512.445 433.437 517.751C432.858 517.558 432.182 517.558 431.411 517.655C421.185 519.681 411.056 517.944 400.733 517.751C389.543 517.558 378.16 518.137 366.969 518.137C344.106 518.137 321.339 518.137 298.476 517.848C251.399 517.269 204.418 516.979 157.341 516.787C159.56 513.314 162.261 509.937 164.77 506.947C170.461 500.001 176.249 493.537 181.362 486.109C192.939 469.131 206.541 453.31 216.477 435.366C216.863 434.691 217.056 434.112 217.056 433.437C213.583 433.437 210.207 433.437 206.734 433.437C200.849 443.566 193.71 452.827 186.572 462.185C179.915 470.867 174.32 480.225 167.857 489.1C166.217 491.415 163.033 494.695 159.657 498.457C159.56 498.747 159.464 498.94 159.271 499.229C154.93 506.078 150.106 512.542 145.283 518.909V519.005C144.318 520.259 143.45 521.417 142.485 522.671C142.485 522.864 142.485 523.057 142.485 523.25C143.064 529.424 144.318 535.116 144.414 541.29C144.414 542.061 144.511 542.833 144.704 543.509C165.155 546.596 186.379 544.956 206.927 544.859C229.79 544.763 252.653 544.377 275.516 543.605C298.476 542.737 321.339 544.956 344.299 545.438C367.451 545.824 390.508 545.341 413.66 545.341C413.757 545.341 413.757 545.341 413.853 545.341C415.879 545.148 417.905 544.956 419.931 544.859C426.298 544.57 432.665 544.763 438.935 544.956C445.881 533.669 452.248 521.996 458.711 510.42C461.123 505.5 463.438 500.483 465.947 495.66Z" fill="#88A7FF"/>
<path d="M485.048 269.247C483.215 269.15 481.382 269.054 479.645 269.054C461.799 269.922 443.952 270.211 426.105 270.308C413.275 270.404 400.444 270.501 387.614 270.501C383.176 270.501 330.6 269.15 315.937 268.957C305.904 268.861 214.548 268.764 204.515 268.957C203.743 267.51 205.383 389.833 204.901 410.478C205.094 412.986 205.19 415.494 205.287 418.002C205.576 423.019 205.48 430.157 205.769 435.174C208.76 437.103 224.195 435.463 227.378 435.077C237.218 433.727 247.444 434.691 257.284 434.595C277.542 434.498 297.801 433.437 318.059 433.437C359.445 433.437 400.734 433.92 442.119 433.92C450.898 433.92 459.58 433.823 468.358 434.016C474.822 434.113 481.189 434.981 487.652 433.63C487.556 378.836 485.434 324.041 485.048 269.247ZM389.64 414.143C376.23 414.24 357.322 412.407 344.01 412.696C334.363 412.889 298.187 414.819 288.54 414.143C261.239 415.397 224.484 414.143 224.484 414.143C224.484 414.143 225.449 390.798 224.484 377.099C223.809 367.259 224.87 317.964 224.484 293.171C289.504 293.074 405.364 290.856 462.184 290.856C461.895 317.578 465.561 341.406 465.464 368.224C465.464 380.765 467.201 392.245 466.911 404.786C466.815 409.706 468.551 413.082 468.551 413.082C467.104 413.565 415.879 413.95 389.64 414.143Z" fill="#335FFF"/>
<path d="M227.957 447.329C226.413 450.126 224.773 452.731 223.037 455.432C226.992 456.204 231.044 456.493 234.999 456.493C236.543 453.792 237.893 451.091 239.051 448.197C238.954 448.004 238.858 447.907 238.761 447.714C235.096 447.618 231.526 447.522 227.957 447.329Z" fill="#335FFF"/>
<path d="M224.87 472.699C224.774 472.506 224.677 472.313 224.581 472.121C221.108 471.735 217.635 471.252 214.065 470.963C212.618 473.761 210.882 476.462 209.146 479.163C213.004 479.645 216.96 480.031 220.818 480.224C222.265 477.812 223.712 475.4 225.063 472.989C224.966 472.892 224.87 472.796 224.87 472.699Z" fill="#335FFF"/>
<path d="M210.978 496.238C209.821 496.045 208.663 495.852 207.409 495.852C204.322 495.755 201.331 495.948 198.341 495.562C196.604 498.071 194.964 500.675 193.421 503.28C193.614 503.569 193.807 503.859 194.096 504.148C194.193 504.245 194.289 504.341 194.482 504.438C198.63 504.631 202.778 504.824 206.927 504.824C208.374 502.219 209.917 499.614 211.557 497.202C211.461 496.913 211.268 496.624 211.075 496.334C211.075 496.431 210.978 496.334 210.978 496.238Z" fill="#335FFF"/>
<path d="M256.801 449.065C255.258 451.863 253.618 454.467 251.881 457.168C255.837 457.94 259.888 458.23 263.844 458.23C265.387 455.528 266.738 452.827 267.895 449.933C267.799 449.74 267.702 449.644 267.606 449.451C263.94 449.354 260.371 449.161 256.801 449.065Z" fill="#335FFF"/>
<path d="M253.714 474.34C253.618 474.147 253.521 473.954 253.425 473.761C249.952 473.375 246.479 472.893 242.91 472.604C241.463 475.401 239.726 478.102 237.99 480.803C241.849 481.286 245.804 481.672 249.663 481.865C251.11 479.453 252.557 477.041 253.907 474.629C253.811 474.533 253.714 474.436 253.714 474.34Z" fill="#335FFF"/>
<path d="M239.823 497.974C238.665 497.781 237.508 497.588 236.253 497.588C233.166 497.492 230.176 497.685 227.185 497.299C225.449 499.807 223.809 502.412 222.265 505.016C222.458 505.306 222.651 505.595 222.941 505.885C223.037 505.981 223.134 506.078 223.327 506.174C227.475 506.367 231.623 506.56 235.771 506.56C237.218 503.955 238.762 501.351 240.402 498.939C240.305 498.649 240.112 498.36 239.919 498.071L239.823 497.974Z" fill="#335FFF"/>
<path d="M285.646 447.811C284.102 450.609 282.462 453.213 280.726 455.914C284.681 456.686 288.733 456.976 292.688 456.976C294.231 454.274 295.582 451.573 296.74 448.679C296.643 448.486 296.547 448.39 296.45 448.197C292.881 448.1 289.215 448.004 285.646 447.811Z" fill="#335FFF"/>
<path d="M282.558 473.182C282.462 472.989 282.366 472.796 282.269 472.603C278.796 472.217 275.323 471.735 271.754 471.445C270.307 474.243 268.57 476.944 266.834 479.645C270.693 480.128 274.648 480.513 278.507 480.706C279.954 478.295 281.401 475.883 282.751 473.471C282.655 473.375 282.655 473.278 282.558 473.182Z" fill="#335FFF"/>
<path d="M268.667 496.72C267.509 496.527 266.352 496.334 265.098 496.334C262.011 496.238 259.02 496.431 256.03 496.045C254.293 498.553 252.653 501.158 251.11 503.762C251.303 504.052 251.495 504.341 251.785 504.631C251.881 504.727 251.978 504.824 252.171 504.92C256.319 505.113 260.467 505.306 264.615 505.306C266.062 502.701 267.606 500.097 269.246 497.685C269.149 497.396 268.956 497.106 268.763 496.817C268.763 496.913 268.763 496.817 268.667 496.72Z" fill="#335FFF"/>
<path d="M314.49 448.1C312.947 450.898 311.307 453.502 309.57 456.204C313.525 456.975 317.577 457.265 321.532 457.265C323.076 454.564 324.426 451.862 325.584 448.968C325.488 448.775 325.391 448.679 325.295 448.486C321.725 448.389 318.059 448.197 314.49 448.1Z" fill="#335FFF"/>
<path d="M311.403 473.375C311.306 473.182 311.21 472.989 311.113 472.796C307.641 472.41 304.168 471.928 300.598 471.639C299.151 474.436 297.415 477.137 295.678 479.839C299.537 480.321 303.492 480.707 307.351 480.9C308.798 478.488 310.245 476.076 311.596 473.665C311.499 473.568 311.499 473.472 311.403 473.375Z" fill="#335FFF"/>
<path d="M297.511 497.01C296.354 496.817 295.196 496.624 293.942 496.624C290.855 496.528 287.864 496.721 284.874 496.335C283.137 498.843 281.497 501.448 279.954 504.053C280.147 504.342 280.34 504.631 280.629 504.921C280.726 505.017 280.822 505.114 281.015 505.21C285.163 505.403 289.311 505.596 293.46 505.596C294.907 502.991 296.45 500.387 298.09 497.975C297.994 497.686 297.801 497.396 297.608 497.107C297.608 497.107 297.608 497.01 297.511 497.01Z" fill="#335FFF"/>
<path d="M343.334 448.293C341.791 451.091 340.151 453.696 338.414 456.397C342.37 457.169 346.421 457.458 350.377 457.458C351.92 454.757 353.271 452.056 354.428 449.162C354.332 448.969 354.235 448.872 354.139 448.679C350.569 448.583 346.904 448.486 343.334 448.293Z" fill="#335FFF"/>
<path d="M340.247 473.664C340.151 473.471 340.054 473.278 339.958 473.085C336.485 472.699 333.012 472.217 329.443 471.928C327.996 474.725 326.259 477.426 324.523 480.128C328.382 480.61 332.337 480.996 336.196 481.189C337.643 478.777 339.09 476.365 340.44 473.954C340.344 473.761 340.344 473.664 340.247 473.664Z" fill="#335FFF"/>
<path d="M326.356 497.203C325.198 497.01 324.04 496.817 322.786 496.817C319.699 496.72 316.709 496.913 313.718 496.527C311.982 499.036 310.342 501.64 308.798 504.245C308.991 504.534 309.184 504.824 309.474 505.113C309.57 505.21 309.666 505.306 309.859 505.403C314.008 505.595 318.156 505.788 322.304 505.788C323.751 503.184 325.294 500.579 326.934 498.167C326.838 497.878 326.645 497.588 326.452 497.299C326.452 497.299 326.452 497.299 326.356 497.203Z" fill="#335FFF"/>
<path d="M372.179 448.583C370.635 451.38 368.995 453.985 367.259 456.686C371.214 457.458 375.266 457.747 379.221 457.747C380.764 455.046 382.115 452.345 383.273 449.451C383.176 449.258 383.08 449.161 382.983 448.968C379.414 448.872 375.748 448.679 372.179 448.583Z" fill="#335FFF"/>
<path d="M369.092 473.858C368.995 473.665 368.899 473.472 368.802 473.279C365.329 472.893 361.856 472.411 358.287 472.121C356.84 474.919 355.104 477.62 353.367 480.321C357.226 480.803 361.181 481.189 365.04 481.382C366.487 478.97 367.934 476.559 369.285 474.147C369.188 474.05 369.188 473.954 369.092 473.858Z" fill="#335FFF"/>
<path d="M355.296 497.492C354.139 497.299 352.981 497.106 351.727 497.106C348.64 497.009 345.65 497.202 342.659 496.816C340.923 499.325 339.283 501.929 337.739 504.534C337.932 504.823 338.125 505.113 338.414 505.402C338.511 505.499 338.607 505.595 338.8 505.692C342.948 505.885 347.097 506.077 351.245 506.077C352.692 503.473 354.235 500.868 355.875 498.456C355.779 498.167 355.586 497.878 355.393 497.588C355.296 497.588 355.296 497.492 355.296 497.492Z" fill="#335FFF"/>
<path d="M401.023 448.776C399.479 451.573 397.839 454.178 396.103 456.879C400.058 457.651 404.11 457.94 408.065 457.94C409.609 455.239 410.959 452.538 412.117 449.644C412.02 449.451 411.924 449.355 411.827 449.162C408.258 449.065 404.689 448.969 401.023 448.776Z" fill="#335FFF"/>
<path d="M397.936 474.051C397.839 473.858 397.743 473.665 397.647 473.472C394.174 473.086 390.701 472.604 387.131 472.314C385.684 475.112 383.948 477.813 382.211 480.514C386.07 480.997 390.025 481.383 393.884 481.576C395.331 479.164 396.778 476.752 398.129 474.34C398.032 474.244 398.032 474.147 397.936 474.051Z" fill="#335FFF"/>
<path d="M384.141 497.685C382.983 497.492 381.826 497.299 380.571 497.299C377.484 497.203 374.494 497.396 371.503 497.01C369.767 499.518 368.127 502.123 366.583 504.727C366.776 505.017 366.969 505.306 367.259 505.595C367.355 505.692 367.452 505.788 367.645 505.885C371.793 506.078 375.941 506.271 380.089 506.271C381.536 503.666 383.08 501.061 384.72 498.65C384.623 498.36 384.43 498.071 384.237 497.782C384.141 497.782 384.141 497.782 384.141 497.685Z" fill="#335FFF"/>
<path d="M429.867 447.618C428.324 450.415 426.684 453.02 424.947 455.721C428.903 456.493 432.954 456.782 436.909 456.782C438.453 454.081 439.804 451.38 440.961 448.486C440.865 448.293 440.768 448.196 440.672 448.004C437.102 447.907 433.533 447.714 429.867 447.618Z" fill="#335FFF"/>
<path d="M426.78 472.893C426.684 472.7 426.587 472.507 426.491 472.314C423.018 471.928 419.545 471.446 415.976 471.156C414.529 473.954 412.792 476.655 411.056 479.356C414.914 479.838 418.87 480.224 422.728 480.417C424.175 478.006 425.623 475.594 426.973 473.182C426.973 473.086 426.877 472.989 426.78 472.893Z" fill="#335FFF"/>
<path d="M412.985 496.528C411.827 496.335 410.67 496.142 409.416 496.142C406.329 496.045 403.338 496.238 400.348 495.853C398.611 498.361 396.971 500.965 395.428 503.57C395.621 503.859 395.814 504.149 396.103 504.438C396.199 504.535 396.296 504.631 396.489 504.728C400.637 504.921 404.785 505.114 408.933 505.114C410.38 502.509 411.924 499.904 413.564 497.493C413.467 497.203 413.275 496.914 413.082 496.624C412.985 496.624 412.985 496.624 412.985 496.528Z" fill="#335FFF"/>
<path d="M371.889 329.346C367.452 344.395 361.953 359.927 343.913 362.146C336.678 363.014 330.504 359.348 325.102 355.104C320.954 351.824 316.998 348.544 311.789 347.097C306.869 345.746 303.01 347.675 298.38 348.351C290.952 352.692 285.549 359.059 281.498 366.68C278.314 372.564 275.324 379.124 270.404 383.755C262.3 391.569 249.663 395.428 240.016 388C226.317 377.484 207.988 364.557 189.562 368.802C172.777 372.661 159.078 384.72 153.869 401.216C154.737 401.505 155.605 401.891 156.473 402.277C160.429 389.157 169.883 378.835 182.424 373.336C191.588 369.381 199.402 370.056 207.12 372.757C212.136 374.204 217.056 376.327 221.204 378.546C226.607 381.44 231.912 385.298 236.543 389.254C239.919 392.148 243.489 395.138 248.119 395.331C257.573 395.717 269.439 391.183 274.938 383.08C283.234 370.828 286.321 355.104 302.335 350.184C310.535 347.675 316.902 353.753 322.786 358.287C327.513 361.953 332.047 364.172 337.932 365.136C360.699 368.995 374.687 350.184 375.073 330.504C374.108 330.118 372.95 329.732 371.889 329.346Z" fill="#F9B2B2"/>
<path d="M309.088 341.116C308.991 340.826 308.798 340.537 308.509 340.344C304.554 336.871 299.344 335.713 294.521 338.125C289.987 340.44 288.733 346.036 290.759 350.473C292.977 355.2 297.222 357.998 302.528 356.744C306.579 355.779 310.342 352.017 311.21 347.868C311.789 344.974 310.824 342.659 309.088 341.116Z" fill="#FF5F5F"/>
<path d="M256.222 388.964C256.126 388.771 255.933 388.578 255.74 388.385C252.75 385.684 248.698 384.816 245.032 386.649C241.559 388.385 240.594 392.726 242.138 396.103C243.778 399.768 247.154 401.891 251.11 400.926C254.293 400.154 257.091 397.26 257.766 394.077C258.345 391.954 257.573 390.121 256.222 388.964Z" fill="#FF5F5F"/>
<path d="M202.489 361.856C202.393 361.567 202.2 361.277 201.91 361.085C197.955 357.612 192.746 356.454 187.922 358.866C183.388 361.181 182.134 366.776 184.16 371.214C186.379 375.941 190.623 378.738 195.929 377.484C199.981 376.52 203.743 372.757 204.611 368.609C205.19 365.715 204.226 363.496 202.489 361.856Z" fill="#FF5F5F"/>
<path d="M160.911 399.672C160.814 399.479 160.718 399.286 160.428 399.093C157.438 396.489 153.579 395.62 149.913 397.453C146.44 399.19 145.572 403.435 147.116 406.714C148.756 410.284 152.036 412.406 155.991 411.441C159.078 410.67 161.875 407.872 162.454 404.785C162.937 402.566 162.165 400.83 160.911 399.672Z" fill="#FF5F5F"/>
<path d="M348.64 359.734C348.544 359.541 348.447 359.348 348.254 359.252C345.649 356.936 342.273 356.261 339.09 357.805C336.099 359.348 335.327 363.014 336.678 365.908C338.125 368.995 340.922 370.828 344.395 370.056C347.097 369.381 349.508 366.969 350.087 364.268C350.376 362.339 349.701 360.795 348.64 359.734Z" fill="#FF5F5F"/>
<path d="M382.115 320.279C382.018 319.989 381.825 319.7 381.536 319.507C377.581 316.034 372.372 314.876 367.548 317.288C363.014 319.603 361.76 325.199 363.786 329.636C366.005 334.363 370.249 337.161 375.555 335.907C379.607 334.942 383.369 331.18 384.237 327.032C384.72 324.234 383.851 321.919 382.115 320.279Z" fill="#FF5F5F"/>
<path d="M343.334 324.522C343.334 323.365 343.238 322.207 343.141 321.049C332.53 321.242 321.918 321.918 311.306 321.435V324.522C322.015 324.426 332.723 324.136 343.334 324.522Z" fill="#88A7FF"/>
<path d="M317.384 382.308C309.956 382.501 302.431 382.886 295.003 382.694C295.1 383.658 295.196 384.719 295.293 385.684C302.721 385.588 310.245 385.491 317.673 385.588C317.481 384.526 317.384 383.369 317.384 382.308Z" fill="#E6EFFF"/>
<path d="M346.518 339.861C346.807 339.861 347.097 339.861 347.386 339.861C347.868 339.861 348.351 339.861 348.737 339.861C349.701 339.861 350.762 339.765 351.727 339.765C351.727 338.896 351.727 337.932 351.631 337.063C343.817 337.256 336.099 337.932 328.382 337.449V340.343C334.363 340.247 340.344 340.15 346.325 339.958C346.325 339.861 346.421 339.861 346.518 339.861Z" fill="#BBD0FF"/>
<path d="M313.622 307.158C313.911 307.158 314.201 307.158 314.586 307.158C315.069 307.158 315.648 307.158 316.13 307.158C317.288 307.158 318.349 307.061 319.506 307.061C319.506 306.193 319.506 305.229 319.41 304.36C310.631 304.553 301.853 305.229 293.17 304.746V307.64C299.923 307.544 306.676 307.447 313.429 307.254C313.429 307.158 313.525 307.158 313.622 307.158Z" fill="#E6EFFF"/>
<path d="M314.104 397.743C314.49 397.743 314.779 397.743 315.165 397.743C315.744 397.743 316.323 397.743 316.902 397.743C318.156 397.743 319.41 397.646 320.761 397.646C320.761 396.778 320.664 395.814 320.664 394.945C310.728 395.138 300.791 395.814 290.759 395.331V398.225C298.476 398.129 306.097 398.032 313.815 397.839C313.911 397.743 314.008 397.743 314.104 397.743Z" fill="#88A7FF"/>
<path d="M430.543 383.272C431.314 383.272 432.182 383.272 432.954 383.272C434.305 383.272 435.655 383.272 437.006 383.272C439.9 383.272 442.891 383.176 445.785 383.176C445.688 382.308 445.688 381.343 445.495 380.475C422.728 380.668 400.058 381.343 377.291 380.86V383.755C394.849 383.658 412.31 383.562 429.867 383.369C430.06 383.272 430.253 383.272 430.543 383.272Z" fill="#BBD0FF"/>
<path d="M588.752 382.79C589.813 382.79 590.874 382.79 591.936 382.79C593.672 382.79 595.409 382.79 597.241 382.79C601.004 382.79 604.766 382.693 608.625 382.693C608.528 381.825 608.432 380.86 608.239 379.992C578.719 380.185 549.296 380.86 519.777 380.378V383.272C542.447 383.176 565.214 383.079 587.884 382.886C588.173 382.79 588.366 382.79 588.752 382.79Z" fill="#88A7FF"/>
<path d="M95.2151 560.97C96.5657 560.97 97.9163 560.97 99.3633 560.97C101.679 560.97 103.897 560.97 106.213 560.97C111.133 560.97 116.053 560.873 120.972 560.873C120.876 560.005 120.78 559.04 120.49 558.172C82.0953 558.365 43.797 559.04 5.40222 558.558V561.452C34.9218 561.355 64.5379 561.259 94.0575 561.066C94.4434 560.969 94.7328 560.97 95.2151 560.97Z" fill="#BBD0FF"/>
<path d="M100.039 577.08C84.0247 577.176 68.0108 577.176 52.0934 576.983V579.877C68.1073 579.781 84.1212 579.781 100.039 579.685V577.08Z" fill="#E6EFFF"/>
<path d="M277.832 560.005C261.818 560.101 245.804 560.101 229.886 559.908V562.802C245.9 562.706 261.914 562.706 277.832 562.609V560.005Z" fill="#E6EFFF"/>
<path d="M154.158 590.97C135.925 591.067 117.596 591.163 99.2668 590.874V593.768C117.596 593.672 135.829 593.672 154.158 593.575V590.97Z" fill="#88A7FF"/>
<path d="M169.979 463.149C151.746 463.246 133.417 463.342 115.088 463.053V465.947C133.417 465.85 151.65 465.85 169.979 465.754V463.149Z" fill="#BBD0FF"/>
<path d="M539.263 497.01C520.838 497.203 502.509 497.396 484.083 497.106V500C502.509 499.904 520.838 499.807 539.263 499.711V497.01Z" fill="#88A7FF"/>
<path d="M572.642 496.721C567.722 496.721 562.705 496.817 557.786 496.817V499.615C559.04 499.615 560.39 499.615 561.644 499.615C565.407 499.615 569.169 499.518 573.028 499.518C572.931 498.554 572.835 497.685 572.642 496.721Z" fill="#BBD0FF"/>
<path d="M577.948 399.479C558.557 399.672 539.071 400.155 519.68 399.769V402.663C537.238 402.566 554.699 402.47 572.256 402.277C572.449 402.277 572.738 402.277 572.931 402.277C573.703 402.277 574.571 402.277 575.343 402.277C576.211 402.277 577.079 402.277 577.948 402.277V399.479Z" fill="#BBD0FF"/>
<path d="M554.699 416.748C540.903 416.94 530.388 417.037 519.68 416.748V419.642C531.353 419.545 543.026 419.449 554.699 419.449V416.748Z" fill="#E6EFFF"/>
<path d="M505.499 514.566C493.826 514.663 482.154 514.759 470.481 514.566V517.46C482.154 517.364 493.826 517.268 505.499 517.268V514.566Z" fill="#E6EFFF"/>
<path d="M111.036 485.82C99.3634 485.917 87.6906 486.013 76.0178 485.82V488.714C87.6906 488.618 99.3634 488.521 111.036 488.521V485.82Z" fill="#E6EFFF"/>
<path d="M496.431 532.125C490.546 532.125 484.758 532.125 478.874 531.932V534.826C484.758 534.826 490.546 534.729 496.431 534.729V532.125Z" fill="#BBD0FF"/>
<path d="M415.879 396.489C406.039 396.585 396.199 396.682 386.36 396.585V399.286C396.199 399.19 406.039 399.19 415.879 399.093V396.489Z" fill="#E6EFFF"/>
<path d="M259.31 349.701C259.695 349.701 259.985 349.701 260.371 349.701C260.95 349.701 261.528 349.701 262.107 349.701C263.361 349.701 264.615 349.604 265.966 349.604C265.966 348.736 265.869 347.772 265.869 346.903C255.933 347.096 245.997 347.772 235.964 347.289V350.183C243.682 350.087 251.303 349.99 259.02 349.797C259.117 349.701 259.213 349.701 259.31 349.701Z" fill="#88A7FF"/>
<path d="M636.408 283.234C635.829 264.326 635.636 245.515 633.996 226.703C594.54 229.404 554.988 228.825 515.532 228.825C504.245 228.825 492.958 228.922 481.575 229.018C464.596 230.562 447.618 231.912 430.639 229.983C429.771 229.983 428.903 229.983 428.034 230.08C417.809 230.948 407.583 231.72 397.357 231.527C396.971 235.578 396.971 239.63 396.971 243.585C396.971 244.068 396.875 244.453 396.682 244.839C396.971 280.629 398.032 316.42 398.225 352.21C440.479 352.017 482.733 349.798 525.083 349.412C562.995 349.123 601.1 351.149 639.013 348.351C638.723 326.645 637.083 305.036 636.408 283.234Z" fill="#88A7FF"/>
<path d="M608.335 192.07C608.239 191.588 608.046 191.202 607.66 190.72C605.152 188.212 602.74 185.607 600.329 183.099C599.267 181.941 598.013 180.976 596.856 179.819C583.35 197.087 565.696 211.847 550.261 227.282C541.772 235.771 533.572 244.55 526.144 254.004C525.179 255.258 524.118 256.512 523.057 257.766C520.838 259.599 518.619 261.335 516.497 263.168C513.217 265.966 510.419 269.342 507.332 272.429C497.492 265.869 488.038 257.67 479.356 249.47C478.102 250.627 476.848 251.688 475.497 252.557L475.594 252.653C452.73 267.509 430.35 283.041 407.776 298.476C408.162 303.589 408.644 308.605 408.355 313.718C408.74 313.525 409.126 313.236 409.319 312.85C419.738 307.641 428.903 299.634 438.839 293.46C450.415 284.874 463.439 278.41 474.822 269.535C480.224 273.201 485.241 278.121 490.064 282.269C495.37 286.707 500.772 291.048 506.174 295.389C506.85 294.617 507.622 293.846 508.393 293.074C512.252 289.215 516.69 285.935 520.548 282.173C532.125 269.149 543.894 256.319 556.146 244.164C564.538 235.675 572.738 226.992 581.324 218.6C589.717 210.4 598.303 202.489 605.345 193.035C606.213 191.878 607.564 191.781 608.625 192.263C608.432 192.263 608.432 192.167 608.335 192.07Z" fill="#335FFF"/>
<path d="M428.131 311.982C426.201 313.622 424.176 315.069 421.957 316.227C422.053 323.944 422.15 331.565 422.343 339.283C425.912 339.765 429.385 339.862 432.954 339.765C432.761 329.54 432.568 319.314 432.375 309.185C431.121 310.149 429.674 311.114 428.131 311.982Z" fill="#BBD0FF"/>
<path d="M452.055 295.485C452.055 295.678 452.055 295.871 452.055 296.161C452.345 310.245 452.248 324.426 452.73 338.414C456.203 338.318 459.773 338.221 463.342 338.221C463.053 321.725 462.763 305.325 462.377 288.829C459.001 291.241 455.625 293.556 452.055 295.485Z" fill="#E6EFFF"/>
<path d="M492.379 295.872C489.003 292.785 485.627 289.505 482.154 286.514C482.25 289.505 482.25 292.399 482.347 295.389C482.636 309.667 482.443 323.944 483.022 338.125C486.495 338.029 490.064 338.029 493.537 337.932C493.344 324.041 493.055 310.053 492.765 296.161C492.669 296.065 492.476 295.968 492.379 295.872Z" fill="#BBD0FF"/>
<path d="M521.513 293.46C518.715 296.161 515.725 298.573 512.734 301.081C512.927 313.236 512.831 325.487 513.313 337.643C515.532 337.643 517.751 337.546 519.97 337.546C521.224 337.546 522.574 337.546 523.828 337.45C523.635 322.4 523.25 307.351 522.96 292.206C522.478 292.591 521.995 293.074 521.513 293.46Z" fill="white"/>
<path d="M547.463 272.333C545.823 273.49 544.183 274.745 542.543 275.999C542.64 281.883 542.736 287.768 542.833 293.653C543.122 308.123 542.929 322.69 543.508 337.16C546.981 337.064 550.55 337.064 554.023 336.967C553.637 314.2 553.155 291.434 552.673 268.667C550.936 269.825 549.2 271.079 547.463 272.333Z" fill="#E6EFFF"/>
<path d="M574.668 252.943C573.992 253.811 573.414 254.776 572.931 255.837C572.835 256.126 572.642 256.319 572.449 256.512C572.642 268.571 572.931 280.629 573.124 292.784C573.414 307.351 573.221 322.015 573.799 336.582C577.272 336.485 580.842 336.485 584.315 336.389C583.832 306.483 583.157 276.578 582.482 246.576C579.973 248.794 577.369 250.917 574.668 252.943Z" fill="white"/>
<path d="M604.091 336.196C607.564 336.196 611.133 336.099 614.606 336.099C614.124 305.036 613.352 273.877 612.677 242.813C609.3 242.91 605.924 243.006 602.547 243.006C602.644 259.31 603.03 275.613 603.319 291.916C603.705 306.676 603.512 321.436 604.091 336.196Z" fill="#BBD0FF"/>
<path d="M488.81 73.8955C486.977 69.9402 483.311 67.1426 478.584 66.8532C478.102 66.8532 477.716 66.5638 477.427 66.2744C475.015 65.792 472.603 65.2132 470.384 64.2485C467.876 63.0909 466.526 60.4862 467.587 57.978C468.648 55.5663 472.121 54.891 474.436 55.2769C475.111 55.3734 475.787 55.6628 476.462 55.8557C478.874 56.0486 481.092 57.4957 482.732 59.1357C483.601 57.5921 484.662 56.1451 485.819 54.7945C480.707 50.0675 471.445 47.9452 466.526 51.9005C464.017 53.444 462.281 56.2416 461.991 59.2321C461.895 59.4251 461.895 59.7145 461.895 59.9074C461.316 64.9238 464.114 67.9144 468.551 69.7473C470.867 70.712 473.375 71.0979 475.787 71.4837C477.909 71.8696 479.838 72.2555 481.671 73.3166C481.864 73.4131 482.057 73.6061 482.25 73.7025C482.539 73.9919 482.732 74.2813 482.925 74.5708C483.311 75.246 483.311 76.1143 483.022 76.9825C482.925 77.1754 482.925 77.3684 482.829 77.5613C482.539 78.4295 482.057 79.1048 481.575 79.5872C481.478 79.7801 481.285 79.8766 481.189 80.0695C481.092 80.0695 481.092 80.0695 480.996 80.0695C479.067 81.4201 476.172 81.2271 473.182 80.2624C469.42 79.6836 465.754 78.2366 462.763 75.9213C461.799 77.3684 460.834 78.8154 459.773 80.166C462.763 83.6389 468.551 85.3753 473.761 86.2435C474.533 86.34 475.304 86.2435 476.076 86.1471C479.935 86.2435 483.601 85.2788 485.916 81.9024C486.302 81.3236 486.591 80.7448 486.881 80.166C487.556 79.1048 488.135 77.8507 488.424 76.3072C488.906 75.439 488.906 74.5707 488.81 73.8955Z" fill="#335FFF"/>
<path d="M476.655 42.7354C475.208 42.8318 473.761 42.9283 472.314 42.9283C472.314 45.8224 472.314 48.8129 472.121 51.707C473.664 51.8999 475.208 52.0929 476.848 52.2858C476.751 49.1023 476.655 45.9188 476.655 42.7354Z" fill="#335FFF"/>
<path d="M476.848 92.1279C476.848 89.1374 476.751 86.1468 476.655 83.1562C475.208 83.2527 473.761 83.3492 472.314 83.3492C472.314 86.2433 472.314 89.2338 472.121 92.1279C472.507 92.2244 472.892 92.2244 473.278 92.3208C474.436 92.2244 475.594 92.1279 476.848 92.1279Z" fill="#335FFF"/>
</svg>
