<svg width="565" height="449" viewBox="0 0 565 449" fill="none" xmlns="http://www.w3.org/2000/svg">
<path d="M254.771 138.13C251.917 135.509 250.528 132.041 249.911 128.341C249.68 127.57 249.525 126.876 249.294 126.105C248.754 129.805 248.06 133.814 246.054 136.82C243.432 140.828 239.575 141.984 235.256 142.909C238.881 142.909 242.583 143.218 245.669 144.99C249.525 147.226 250.837 151.234 251.608 155.396C251.994 151.388 253.151 147.072 256.313 144.528C258.55 142.755 261.558 142.061 264.566 141.753C261.018 141.445 257.47 140.597 254.771 138.13Z" fill="#6090FC"/>
<path d="M546.796 160.792C544.328 158.557 543.171 155.551 542.631 152.39C542.477 151.774 542.323 151.157 542.091 150.54C541.629 153.701 541.011 157.169 539.315 159.713C537.078 163.105 533.761 164.107 530.059 164.877C533.144 164.877 536.384 165.109 539.006 166.65C542.323 168.5 543.403 171.969 544.097 175.515C544.405 172.046 545.408 168.423 548.185 166.188C550.113 164.646 552.736 164.03 555.281 163.798C552.119 163.567 549.11 162.873 546.796 160.792Z" fill="#6090FC"/>
<path d="M360.983 11.7935C358.206 9.1727 356.818 5.78112 356.201 2.15828C356.046 1.46455 355.815 0.693734 355.583 0C355.121 3.62283 354.349 7.55399 352.421 10.4831C349.798 14.4142 346.096 15.5705 341.777 16.4184C345.325 16.4184 349.027 16.7267 352.035 18.4225C355.815 20.5808 357.049 24.5119 357.82 28.5973C358.206 24.6661 359.363 20.4266 362.448 17.96C364.608 16.1871 367.616 15.4934 370.547 15.2621C367.076 14.9538 363.605 14.183 360.983 11.7935Z" fill="#6090FC"/>
<path d="M221.835 12.1018C219.829 10.2518 218.904 7.8623 218.441 5.31861C218.287 4.77904 218.132 4.31655 217.978 3.77698C217.592 6.39775 217.13 9.17269 215.741 11.1768C213.89 13.9517 211.267 14.7996 208.182 15.4163C210.728 15.4163 213.35 15.6475 215.433 16.8038C218.132 18.3454 218.981 21.1203 219.521 24.0494C219.829 21.1974 220.601 18.2683 222.837 16.4954C224.38 15.2621 226.54 14.7226 228.622 14.5684C226.154 14.3371 223.686 13.7976 221.835 12.1018Z" fill="#6090FC"/>
<path d="M417.984 153.778C415.979 151.928 415.053 149.538 414.59 146.995C414.436 146.455 414.282 145.992 414.128 145.453C413.742 148.074 413.279 150.849 411.891 152.853C410.039 155.628 407.417 156.476 404.332 157.092C406.877 157.092 409.5 157.323 411.582 158.48C414.282 160.021 415.13 162.796 415.67 165.725C415.979 162.873 416.75 159.944 418.987 158.171C420.53 156.938 422.689 156.398 424.772 156.244C422.304 156.09 419.835 155.551 417.984 153.778Z" fill="#6090FC"/>
<path d="M517.794 350.027C515.789 348.177 514.863 345.788 514.401 343.244C514.246 342.705 514.092 342.242 513.938 341.703C513.552 344.323 513.089 347.098 511.701 349.102C509.85 351.877 507.227 352.725 504.142 353.342C506.687 353.342 509.31 353.573 511.392 354.729C514.092 356.271 514.94 359.046 515.48 361.975C515.789 359.123 516.56 356.194 518.797 354.421C520.34 353.188 522.5 352.648 524.582 352.494C522.114 352.263 519.646 351.723 517.794 350.027Z" fill="#6090FC"/>
<path d="M42.4231 137.128C40.4176 135.278 39.492 132.889 39.0292 130.345C38.8749 129.805 38.7207 129.343 38.5664 128.803C38.1807 131.424 37.7179 134.199 36.3296 136.203C34.4784 138.978 31.8558 139.826 28.7705 140.443C31.3159 140.443 33.9384 140.674 36.021 141.83C38.7207 143.372 39.5691 146.147 40.1091 149.076C40.4176 146.224 41.1889 143.295 43.4258 141.522C44.9685 140.288 47.1282 139.749 49.2108 139.595C46.7425 139.44 44.3514 138.824 42.4231 137.128Z" fill="#6090FC"/>
<path d="M437.036 64.4402C436.496 64.1319 435.879 64.0548 435.185 64.5173C431.868 66.4443 428.166 67.061 424.695 68.6797C420.375 70.6838 416.21 73.1504 412.199 75.6941C405.643 79.9336 399.935 87.5647 395.616 93.9624C392.684 98.279 389.213 107.452 390.679 112.847C391.99 117.549 401.478 116.624 404.871 117.781C405.411 117.935 405.874 117.935 406.26 117.704C406.954 118.32 408.034 118.397 408.805 117.549C410.194 116.085 410.039 113.772 410.117 111.845C410.194 107.452 409.731 103.598 410.811 99.2811C412.431 92.7291 416.133 86.2543 419.835 80.6273C424.078 74.2296 431.328 71.3776 437.884 68.063C439.659 67.1381 438.656 64.6715 437.036 64.4402Z" fill="#E6EFFF"/>
<path d="M385.28 193.552C385.974 192.627 385.974 191.239 384.74 190.546C375.252 185.381 364.531 186.769 354.812 182.915C353.038 182.221 352.035 183.994 352.421 185.458C341.931 184.148 331.672 184.456 321.028 184.148C308.532 183.84 296.037 185.458 283.695 186.769C275.519 187.694 262.252 187.925 256.313 194.477C255.696 195.171 255.233 196.25 255.619 197.175C255.773 197.483 255.928 197.791 256.159 198.1C254.231 198.1 252.919 200.952 255.002 201.877H255.079C255.233 202.108 255.465 202.339 255.696 202.57C263.487 207.966 272.665 207.658 281.69 208.506C295.111 209.816 308.687 209.739 322.108 209.122C335.76 208.506 349.336 207.272 362.834 205.345C370.933 204.189 379.958 202.879 385.434 196.173C385.974 195.402 385.82 194.323 385.28 193.552Z" fill="#88A7FF"/>
<path d="M306.681 185.689C306.681 185.458 306.681 185.304 306.604 185.073C306.681 183.994 305.987 182.915 304.598 182.915C297.425 182.915 290.406 183.531 283.156 184.148C277.062 184.687 269.349 184.765 263.718 187.308C255.388 191.162 256.082 201.645 263.487 206.039C267.343 208.351 272.82 208.583 277.216 208.891C284.93 209.508 292.72 209.431 300.433 209.893C302.824 210.047 306.758 210.201 306.604 206.733C306.218 199.718 306.681 192.704 306.681 185.689Z" fill="#6E96F9"/>
<path d="M327.121 447.536C333.523 447.613 339.848 447.69 346.25 447.767C346.327 445.146 346.327 442.448 346.405 439.827C345.71 433.044 346.405 425.953 346.019 419.401C339.386 419.478 332.829 419.17 326.196 419.247C326.196 419.401 326.196 419.555 326.196 419.709C326.273 422.869 326.273 426.03 326.427 429.19C326.581 435.973 326.89 441.677 327.121 447.536Z" fill="#E6EFFF"/>
<path d="M494.963 445.917C501.442 445.917 507.921 445.84 514.323 445.608C514.323 445.069 514.323 444.529 514.401 443.99C513.706 439.442 514.401 434.663 514.015 430.269C507.381 430.269 500.825 430.115 494.192 430.192C494.192 430.269 494.192 430.423 494.192 430.5C494.269 432.659 494.346 434.74 494.423 436.898C494.577 439.904 494.809 442.91 494.963 445.917Z" fill="#BBD0FF"/>
<path d="M411.119 447.844C417.444 447.767 423.846 447.613 430.171 447.381C430.248 442.911 430.248 438.44 430.325 433.969C429.631 423.101 430.325 411.693 429.94 401.132C423.306 401.209 416.75 400.747 410.117 400.901C410.117 401.132 410.117 401.441 410.117 401.672C410.194 406.759 410.271 411.847 410.348 416.934C410.656 427.263 410.965 437.515 411.119 447.844Z" fill="#E6EFFF"/>
<path d="M369.159 447.921C375.484 447.998 381.809 447.998 388.211 447.998C388.211 440.598 388.288 433.121 388.365 425.721C387.671 408.995 388.365 391.343 387.979 375.156C381.346 375.31 374.79 374.616 368.156 374.77C368.156 375.156 368.156 375.618 368.156 376.004C368.233 383.866 368.31 391.651 368.388 399.514C368.619 415.624 369.005 431.734 369.159 447.921Z" fill="#BBD0FF"/>
<path d="M472.054 387.181H452.54C452.771 407.068 453.003 426.878 453.157 446.842C459.482 446.611 465.884 446.456 472.209 446.379C472.286 436.282 472.286 426.261 472.363 416.163C472.054 406.605 472.054 396.893 472.054 387.181Z" fill="#88A7FF"/>
<path d="M399.472 321.122C399.009 314.493 398.547 307.864 398.392 301.235C398.161 287.514 397.467 260.304 397.467 260.304C397.467 260.304 397.93 209.585 391.219 189.235C388.596 190.546 385.82 191.702 382.966 192.704C389.522 212.514 388.751 262.386 388.751 262.386C388.751 262.386 389.291 289.981 389.445 303.778C389.522 310.33 390.216 316.805 390.602 323.28C390.91 327.597 390.679 331.913 390.833 336.153L399.626 336.538C399.395 331.297 399.858 326.209 399.472 321.122Z" fill="#335FFF"/>
<path d="M308.764 357.89C307.915 349.565 308.687 341.163 308.301 332.838C300.896 332.453 293.568 332.915 286.164 333.378C278.45 333.917 270.968 333.301 263.255 333.146C262.175 333.455 260.864 333.069 260.478 331.605C259.398 327.134 259.861 322.74 259.476 318.193C259.167 314.878 259.013 311.564 259.013 308.249C258.781 307.941 258.627 307.555 258.55 307.016C257.856 297.226 257.547 287.36 257.47 277.494C255.465 277.571 253.459 277.879 251.454 278.033C251.222 278.033 250.991 278.033 250.837 278.11C250.682 278.11 250.451 278.11 250.297 278.11C244.743 277.879 239.19 278.65 233.636 278.341C236.181 270.71 240.501 263.85 244.049 256.604C248.677 247.278 253.228 237.874 257.239 228.238C257.933 226.543 258.627 224.77 259.321 222.997C258.781 218.912 259.013 214.826 259.013 210.664C258.936 205.499 258.704 200.412 258.627 195.248C255.696 195.17 252.765 195.093 249.757 194.939C249.757 195.016 249.757 195.093 249.757 195.093C249.68 195.325 249.603 195.633 249.603 195.941C249.603 198.947 249.911 201.954 249.988 205.037C250.065 207.658 249.834 210.124 250.22 212.668C249.988 215.982 249.911 219.297 249.911 222.611C246.132 231.707 241.812 240.649 237.493 249.513C233.173 258.454 227.62 267.01 224.689 276.492C224.534 276.492 224.38 276.569 224.303 276.569C223.146 279.806 221.758 282.889 220.446 286.05C230.011 286.82 239.652 287.052 249.294 287.052C249.294 287.052 249.294 287.052 249.371 287.052C249.063 294.76 249.834 302.776 250.297 310.407C250.837 320.043 250.605 329.986 252.148 339.544C254.462 339.775 256.776 340.084 259.167 340.238C262.252 340.392 265.338 340.7 268.423 341.009C278.759 341.009 289.172 341.086 299.508 341.163C300.125 345.094 299.122 349.179 299.276 353.111C299.508 357.735 299.97 362.437 300.973 366.985C303.673 366.754 306.295 366.908 308.995 366.985V357.735C308.995 357.89 308.841 357.89 308.764 357.89Z" fill="#335FFF"/>
<path d="M271.123 400.593C270.197 400.901 269.194 401.132 268.269 401.441C257.239 404.524 246.594 404.216 235.873 399.359C227.003 395.274 220.061 387.566 212.193 382.016C211.036 381.168 209.802 381.245 208.953 381.862C212.733 387.103 216.435 392.345 220.523 397.278C222.452 398.82 224.457 400.361 226.54 401.826C226.154 402.366 226 402.982 225.923 403.599C227.08 404.909 228.314 406.143 229.548 407.376C235.256 410.228 240.732 412.54 247.289 413.157C252.071 413.62 256.93 412.463 261.713 410.999C264.721 406.528 268.963 403.291 273.745 400.901C272.974 400.439 272.125 400.284 271.123 400.593Z" fill="#88A7FF"/>
<path d="M127.269 403.445C121.485 409.843 116.317 412.386 107.986 412.309C100.504 410.228 92.6367 404.524 86.6975 401.903C83.7664 400.593 81.221 400.207 78.907 400.284C75.2818 399.822 71.7336 400.207 68.3398 401.595C64.7145 402.52 61.2435 404.293 58.0811 407.145C57.2326 407.916 56.9241 408.84 57.0012 409.765C65.9487 404.061 75.3589 404.755 82.8408 409.997C83.3036 410.228 83.7664 410.305 84.1521 410.382C84.0749 410.536 84.0749 410.768 84.0749 410.999C86.8517 413.234 89.3971 416.009 91.4026 419.401C96.1848 422.946 100.967 425.567 107.832 424.719C108.68 424.642 109.529 424.488 110.3 424.334C114.003 422.715 117.396 420.403 120.328 417.628C122.179 415.007 123.876 412.232 125.727 409.534C127.269 407.222 128.966 405.064 130.586 402.751C129.661 402.134 128.349 402.212 127.269 403.445Z" fill="#88A7FF"/>
<path d="M272.665 399.591C263.641 403.445 256.93 414.313 246.286 412.617C236.413 411.076 229.625 404.447 223.686 396.816C217.669 389.031 211.807 381.168 205.791 373.383C197.692 362.9 188.899 349.796 173.472 352.031C158.586 354.267 148.944 368.141 140.845 379.627C133.286 390.264 117.011 431.888 99.3473 422.176C88.6258 416.24 85.0777 402.366 70.7309 402.674C57.6183 402.982 46.6654 418.553 38.9521 428.265C39.7234 428.805 40.5719 429.344 41.3432 429.961C45.5084 424.488 50.2907 419.324 55.15 414.93C59.161 411.307 65.1773 406.374 71.1166 407.145C74.4333 406.528 77.5186 407.607 80.2183 410.305C83.9207 414.005 87.5459 417.782 91.0941 421.636C91.4797 421.944 91.9425 422.176 92.3282 422.407C100.813 427.494 108.68 427.726 116.548 424.642C116.934 424.334 117.319 424.026 117.705 423.64C122.564 418.784 125.727 412.463 129.275 406.605C135.368 396.507 141.385 386.41 148.712 377.16C155.423 366.369 166.299 354.344 180.029 356.271C185.582 357.042 190.596 361.744 193.99 365.906C198.001 370.839 202.474 375.85 205.791 381.399C210.342 388.106 215.895 394.58 220.832 400.978C225.537 407.068 231.785 415.007 239.884 416.317C240.655 416.472 241.195 416.857 241.426 417.319C245.592 418.244 249.834 418.244 253.613 416.703C258.781 414.622 262.792 411.153 267.266 407.916C274.208 402.982 281.381 400.13 289.635 401.749C289.789 400.284 289.943 398.743 290.02 397.278C283.773 396.045 278.527 397.047 272.665 399.591Z" fill="#335FFF"/>
<path d="M68.8797 449H72.8907C72.8907 439.904 72.6593 430.809 72.5821 421.636C71.348 421.636 70.1139 421.559 68.8797 421.559C69.1111 430.732 68.417 439.827 68.8797 449Z" fill="#88A7FF"/>
<path d="M97.9589 444.683C98.1132 446.148 98.2674 447.535 98.3446 449H101.507C101.353 445.377 101.121 441.754 101.276 438.132C101.276 438.132 101.276 438.132 101.276 438.054C100.041 438.132 98.7302 438.209 97.4961 438.209C97.6504 440.367 97.7275 442.525 97.9589 444.683Z" fill="#88A7FF"/>
<path d="M127.115 427.803C127.038 428.188 126.961 428.573 126.884 428.882C127.578 434.2 127.578 439.904 127.192 445.377C127.347 446.533 127.578 447.613 127.732 448.692C127.732 448.769 127.732 448.846 127.732 449H130.663C130.663 440.829 130.509 432.659 130.432 424.488C129.506 425.644 128.426 426.723 127.115 427.803C127.192 427.803 127.192 427.803 127.115 427.803Z" fill="#88A7FF"/>
<path d="M156.811 381.322C156.349 381.631 155.963 381.862 155.5 382.17C155.269 391.189 155.192 400.285 155.346 409.226C155.5 416.472 155.346 423.794 155.577 431.04C155.732 436.821 154.806 443.296 155.654 449H159.357C159.357 426.107 158.663 403.291 158.2 380.397C157.814 380.706 157.351 381.014 156.811 381.322Z" fill="#88A7FF"/>
<path d="M186.739 429.113C186.353 421.559 185.736 414.005 185.891 406.374C186.199 394.195 185.968 382.17 185.736 369.991C184.502 369.298 183.268 368.45 182.265 367.448C182.343 381.245 182.497 395.043 182.805 408.841C183.114 422.253 182.497 435.588 183.422 449H186.585C186.122 442.371 187.125 435.742 186.739 429.113Z" fill="#88A7FF"/>
<path d="M216.358 435.202C216.05 428.265 216.204 421.405 216.281 414.467V414.39C216.204 411.77 216.204 409.149 216.127 406.605C215.895 406.451 215.664 406.22 215.433 405.911C214.353 404.37 213.196 402.905 212.116 401.441C212.81 417.319 212.039 433.121 212.424 449H216.513C216.204 444.452 216.59 439.75 216.358 435.202Z" fill="#88A7FF"/>
<path d="M240.886 449H245.283C245.283 440.675 245.206 432.273 245.052 423.948C243.663 423.794 242.352 423.486 241.118 423.023C241.118 431.657 241.118 440.29 240.886 449Z" fill="#88A7FF"/>
<path d="M269.349 433.584C269.503 438.748 269.734 443.836 269.58 449H274.054C274.054 437.361 273.822 425.798 273.591 414.159C272.28 415.084 270.968 416.009 269.657 417.011C269.657 422.561 269.117 428.034 269.349 433.584Z" fill="#88A7FF"/>
<path d="M391.836 193.783C391.836 193.783 391.913 193.783 391.836 193.783C394.536 191.779 392.222 187.385 389.522 188.696C389.522 188.927 389.445 189.235 389.368 189.466C384.971 199.179 373.787 201.029 364.3 202.185C350.03 203.958 335.992 206.579 321.568 206.579C305.755 206.579 289.866 205.576 274.131 204.652C266.418 204.189 256.699 203.341 252.996 195.402C252.842 195.093 252.765 194.708 252.765 194.4C249.911 193.937 248.677 198.1 251.068 199.564C249.68 200.412 249.294 202.647 250.528 203.958C250.605 204.035 250.605 204.189 250.76 204.266C252.302 206.27 254.076 207.658 256.082 208.66C259.244 210.895 263.178 212.283 266.726 212.591C271.431 212.976 276.136 213.208 280.842 213.362C292.566 214.98 304.136 216.291 316.323 215.828C330.978 215.289 345.171 214.518 359.363 211.666C371.936 211.203 385.665 210.51 391.682 199.95C391.99 199.41 391.99 198.87 391.913 198.408C393.687 197.175 393.147 194.785 391.836 193.783Z" fill="#335FFF"/>
<path d="M524.659 98.5102C524.351 96.9686 523.965 95.427 523.502 93.9624C522.808 91.8041 521.574 89.8 520.186 88.0271C515.172 78.3919 506.302 71.1463 495.889 65.6735C481.465 58.0424 465.267 56.8091 449.3 57.8112C440.507 57.7341 432.1 58.9674 423.615 61.6652C418.447 63.2839 412.353 66.213 408.111 70.2984C403.175 73.4587 398.778 77.3899 394.999 82.5543C390.525 88.7979 386.051 95.504 384.663 103.212C383.968 107.143 384.354 111.306 383.891 115.314C384.046 115.699 384.123 116.162 384.277 116.547C384.894 116.933 385.974 117.164 386.514 117.318C387.285 117.549 388.057 117.781 388.828 118.012C389.599 117.241 390.062 116.008 389.445 114.697C389.368 114.466 389.214 114.158 389.136 113.849C389.291 113.541 389.445 113.079 389.445 112.616C389.445 112.154 389.522 111.768 389.522 111.306C390.293 111.537 391.142 111.768 391.99 111.999C392.067 111.691 392.222 111.383 392.299 111.075C392.299 110.92 392.376 110.843 392.376 110.689C392.067 102.518 397.235 94.4249 401.94 88.1042C408.343 79.5482 416.904 73.4587 427.163 70.2984C437.576 67.138 448.915 65.1339 459.945 66.136C473.443 65.5193 487.79 70.2213 498.897 77.8524C503.91 82.246 508.461 86.4855 512.318 92.3437C516.56 98.7415 518.026 106.295 518.643 113.849C519.723 113.695 520.803 113.464 521.882 113.233C523.502 112.539 525.045 111.845 526.665 111.152C526.433 106.835 525.893 102.518 524.659 98.5102Z" fill="#335FFF"/>
<path d="M525.354 101.671C525.354 101.594 525.354 101.594 525.354 101.516C525.354 101.516 525.353 101.516 525.276 101.439C524.968 100.591 524.659 99.7435 524.428 99.0498C524.042 97.7394 522.654 97.4311 521.651 97.8165C522.577 98.279 523.194 99.4352 522.5 100.591C518.334 107.991 509.85 111.152 501.905 112.539C490.952 114.466 479.614 115.237 468.506 115.777C467.427 115.854 466.424 115.854 465.344 115.931C463.03 116.085 460.639 116.239 458.325 116.316C452.54 116.547 446.678 116.47 440.816 116.239C435.879 116.239 430.865 116.162 425.929 116.085C425.466 116.085 425.003 116.085 424.463 116.085C424.155 116.239 423.846 116.393 423.383 116.316C421.687 116.239 419.912 116.162 418.216 116.085C411.042 116.162 403.715 116.162 396.773 114.62C396.618 114.62 396.541 114.62 396.387 114.62C395.307 114.466 394.304 114.312 393.379 114.004C392.299 112 391.99 109.533 391.373 107.375C390.602 104.908 386.822 105.987 387.517 108.454C387.825 109.456 388.057 110.458 388.365 111.46C387.285 110.458 386.36 109.302 385.743 107.76C385.588 107.452 385.588 107.143 385.588 106.912C385.357 106.989 385.203 106.989 384.971 107.143C384.894 108.3 384.663 109.379 384.431 110.458C384.431 110.92 384.508 111.306 384.508 111.768C384.586 111.845 384.663 111.922 384.817 112C384.586 112.231 384.431 112.539 384.277 112.924C384.2 113.156 384.2 113.387 384.123 113.618C384.123 113.695 384.123 113.695 384.046 113.772C383.429 116.624 384.046 118.783 385.357 120.401C396.773 124.872 408.265 126.028 420.607 126.414C433.411 126.799 446.215 127.262 459.096 127.03C472.209 126.799 485.399 126.105 498.357 124.024C504.296 123.099 510.852 122.483 516.637 120.556C520.186 119.322 522.962 117.395 525.585 115.16C525.662 115.006 525.816 114.929 525.893 114.774C528.593 111.383 526.742 105.833 525.354 101.671Z" fill="#335FFF"/>
<path d="M392.762 187.617C390.756 182.837 385.82 181.065 381.269 179.677C373.787 177.442 365.688 177.365 357.975 177.365C348.102 177.365 338.151 177.442 328.278 177.365C324.113 177.288 306.141 177.133 288.478 178.829C282.616 178.983 276.676 179.369 270.891 180.217C265.646 180.988 257.856 183.069 253.922 187.617C251.454 189.466 249.988 191.548 250.065 194.091C249.525 195.325 249.988 196.866 250.991 197.637C250.991 197.637 250.991 197.714 251.068 197.714C248.6 199.564 250.374 203.418 252.842 202.956C252.842 202.802 252.765 202.57 252.842 202.339C252.919 201.645 253.074 200.952 253.228 200.335C253.228 200.412 253.228 200.489 253.305 200.489C254.848 204.266 258.936 207.118 262.947 207.504C265.646 207.735 265.569 203.572 262.947 203.341C261.481 203.187 260.016 202.339 258.859 201.26C258.087 188.773 274.517 188.079 283.85 187.539C290.869 187.154 297.965 186.692 304.984 186.306C305.293 186.306 305.601 186.306 305.91 186.306C311.541 186.075 317.171 186.152 322.879 186.075C332.444 187.694 343.088 186.46 352.498 186.383C359.132 186.306 365.765 186.846 372.399 187.308C381.269 187.925 385.203 192.935 387.054 201.26C387.362 202.57 388.519 202.956 389.522 202.647C389.368 203.264 389.214 203.804 389.059 204.343C388.288 206.887 392.299 208.043 393.07 205.422C394.613 199.487 395.153 193.398 392.762 187.617Z" fill="#335FFF"/>
<path d="M331.364 110.997C331.055 102.056 330.669 93.1145 330.438 84.1731C329.744 76.2337 329.435 68.3714 329.975 60.432C329.975 59.9695 329.975 59.4299 329.975 58.9674C324.422 59.1987 318.868 59.3528 313.237 59.507V114.081C313.237 129.112 311.695 144.451 312.697 159.559C312.929 160.946 313.16 162.411 313.315 163.798C315.243 167.036 321.953 166.804 322.879 163.413C323.573 164.03 324.345 164.646 325.193 165.263C326.736 166.342 328.664 166.496 330.284 166.034C330.669 166.111 331.055 166.034 331.441 166.034C331.132 147.765 329.281 129.343 331.364 110.997Z" fill="#FF5F5F"/>
<path d="M288.092 160.946C293.954 166.496 299.122 172.663 305.138 178.135C311.463 183.917 318.02 189.312 323.727 195.633C328.818 190.546 333.523 185.227 338.614 180.063C344.708 173.973 351.264 168.269 356.201 161.255C333.523 161.178 310.615 161.563 288.092 160.946Z" fill="#FF5F5F"/>
<path d="M281.381 38.4637C281.381 37.847 281.381 37.2304 281.304 36.6908H270.506V41.0844C270.506 53.6487 269.58 66.5214 270.197 79.2398C270.351 80.396 270.429 81.6293 270.583 82.7856C271.74 85.5605 275.751 85.3293 276.291 82.4772C276.676 83.0168 277.139 83.5564 277.679 84.0189C278.605 84.9439 279.762 85.0209 280.687 84.6355C280.919 84.6355 281.15 84.6355 281.381 84.6355C281.227 69.2963 280.147 53.8029 281.381 38.4637Z" fill="#BBD0FF"/>
<path d="M257.085 80.396C260.324 84.0188 263.178 88.1041 266.495 91.727C269.966 95.5811 273.591 99.1268 276.753 103.289C279.53 99.9747 282.153 96.4289 285.007 93.0374C288.323 89.0291 292.026 85.2521 294.725 80.6272C282.23 80.5502 269.58 80.7814 257.085 80.396Z" fill="#BBD0FF"/>
<path d="M388.211 64.9797C387.362 64.363 386.591 63.6693 385.742 63.0526C382.271 67.1379 378.955 71.3774 376.024 75.8481C376.949 76.3106 377.952 76.7731 378.878 77.3127C381.346 72.7649 384.663 68.7566 388.211 64.9797Z" fill="#6090FC"/>
<path d="M371.319 94.4248C370.162 94.0394 368.928 93.5769 367.771 93.1915C366.151 97.7393 364.839 102.518 364.222 107.066C365.148 107.529 365.996 107.991 366.922 108.454C367.539 103.52 369.236 98.9726 371.319 94.4248Z" fill="#6090FC"/>
<path d="M412.585 44.3218C412.122 43.551 411.582 42.7802 411.119 42.0094C406.414 44.476 401.94 47.4051 397.852 50.7196C398.469 51.4134 399.009 52.1071 399.626 52.7237C403.175 49.178 407.803 46.4801 412.585 44.3218Z" fill="#6090FC"/>
<path d="M446.678 35.5345C446.678 34.6095 446.678 33.7616 446.678 32.8367C444.518 32.9138 442.358 32.9908 440.199 32.9908C436.573 33.3762 432.948 34.07 429.4 34.995C429.708 35.8429 430.017 36.6907 430.326 37.5386C435.262 35.7658 441.278 35.3033 446.678 35.5345Z" fill="#6090FC"/>
<path d="M466.809 35.8428C472.44 36.1511 477.994 37.0761 483.547 38.4636C483.624 37.5386 483.624 36.6136 483.624 35.6886C478.071 34.4553 472.44 33.5304 466.809 33.0679C466.887 33.9928 466.887 34.9178 466.809 35.8428Z" fill="#6090FC"/>
<path d="M511.238 48.5613C509.464 47.4822 507.69 46.2489 506.07 44.8614C503.988 43.7823 501.905 42.7802 499.668 41.8552C499.205 41.624 498.742 41.4698 498.357 41.3157C497.971 42.0094 497.585 42.7031 497.2 43.3969C499.745 44.2448 502.059 45.7864 504.45 47.1739C507.073 48.7155 509.618 50.1801 512.009 52.03C512.472 51.4134 512.858 50.7967 513.243 50.103C513.089 50.0259 513.012 49.8717 512.858 49.7946C512.318 49.3322 511.778 48.9467 511.238 48.5613Z" fill="#6090FC"/>
<path d="M534.301 70.915C534.069 70.5296 533.838 70.1442 533.53 69.7588C533.452 69.6817 533.375 69.6046 533.298 69.5275C531.061 66.9068 528.979 64.1318 526.588 61.5881C525.97 62.2048 525.353 62.8214 524.659 63.4381C528.053 66.6755 531.138 70.6838 533.684 74.6149C534.378 74.1524 535.072 73.6899 535.689 73.1504C535.381 72.6879 535.072 72.1483 534.764 71.6858C534.687 71.5317 534.532 71.2233 534.301 70.915Z" fill="#6090FC"/>
<path d="M544.405 88.7208C543.788 89.0292 543.171 89.3375 542.554 89.5687C542.631 89.7229 542.786 89.9541 542.786 90.1854C542.786 90.2625 542.786 90.2625 542.786 90.3395C542.786 90.4166 542.863 90.4937 542.863 90.4937C543.634 92.8061 544.56 95.1186 545.331 97.5081C546.102 99.4351 546.874 101.362 547.414 103.366C548.108 103.135 548.725 102.904 549.419 102.673C547.876 97.9706 546.488 93.2686 544.405 88.7208Z" fill="#6090FC"/>
<path d="M480.308 85.7918C476.837 81.0127 472.98 76.6191 468.738 72.4566C468.661 72.3796 468.506 72.2254 468.506 72.1483C467.426 71.3004 466.424 70.5296 465.267 69.7588C462.644 67.9088 459.945 66.213 457.476 64.286C456.319 63.9006 455.162 63.5152 453.928 63.2839C453.388 63.2069 453.003 62.8985 452.771 62.5902C452.463 62.6673 452.154 62.8215 451.846 62.8985C460.485 67.4463 468.429 73.2275 474.446 81.0127C478.148 85.7918 481.079 90.8791 483.47 96.429C486.17 102.673 486.941 109.379 488.021 116.085C488.638 116.085 489.255 116.008 489.872 116.008C489.564 113.772 489.409 111.614 489.178 109.379C487.173 100.746 484.087 93.4999 480.308 85.7918Z" fill="#335FFF"/>
<path d="M145.241 208.506C145.473 206.964 145.936 205.422 146.476 203.881C139.919 201.954 133.132 200.72 126.652 198.562C122.024 197.02 117.628 195.093 112.923 194.168C112.383 195.479 111.843 196.789 111.303 198.177C114.388 199.025 117.242 200.258 120.173 201.414C128.812 202.57 136.988 205.577 145.241 208.506Z" fill="#88A7FF"/>
<path d="M193.835 222.766C195.841 223.382 197.846 223.922 199.852 224.538C200.546 223.074 201.24 221.686 201.857 220.145C198.232 219.143 194.607 218.064 190.981 217.062C182.574 214.672 174.166 212.283 165.759 209.816C165.759 209.97 165.682 210.124 165.605 210.278C165.065 211.666 164.448 213.053 163.908 214.441C166.067 215.057 168.15 215.751 170.31 216.368C178.177 218.449 186.045 220.453 193.835 222.766Z" fill="#88A7FF"/>
<path d="M243.046 231.861C240.501 231.168 238.033 230.474 235.564 229.78C230.396 228.316 226.077 227.005 221.68 225.772C221.449 227.313 220.986 228.855 220.446 230.32C225.151 231.63 229.857 232.94 234.562 234.328C236.644 234.945 238.727 235.561 240.732 236.178C241.426 234.713 242.198 233.326 243.046 231.861Z" fill="#88A7FF"/>
<path d="M265.492 237.874C263.024 237.18 260.556 236.486 258.087 235.87C257.239 237.488 256.159 239.03 255.002 240.417C257.239 240.957 259.476 241.496 261.79 241.959C267.266 243.038 272.743 244.271 277.988 246.198C278.296 244.965 278.913 243.732 279.916 242.807C279.916 242.653 279.916 242.499 279.916 242.344C275.057 241.034 270.274 239.415 265.492 237.874Z" fill="#88A7FF"/>
<path d="M133.594 309.097C129.815 310.716 126.035 312.411 122.024 313.568C122.41 314.647 122.719 315.649 123.104 316.728C132.36 314.107 141.462 310.716 150.487 307.093C150.024 305.628 149.484 304.164 148.944 302.776C143.853 304.857 138.685 306.939 133.594 309.097Z" fill="#88A7FF"/>
<path d="M167.61 294.683C168.227 296.147 168.767 297.612 169.23 299.153C177.792 295.454 186.276 291.677 194.838 288.208C194.375 286.743 193.912 285.279 193.45 283.814C184.888 287.514 176.249 291.06 167.61 294.683Z" fill="#88A7FF"/>
<path d="M250.76 257.529C247.211 259.379 243.586 261.229 239.961 263.002C231.476 267.088 222.837 270.942 214.276 274.719C215.124 276.183 215.973 277.725 216.821 279.266C225.151 275.644 233.405 271.712 241.581 267.473C245.283 265.546 249.063 263.773 252.919 262.077C252.071 260.536 251.377 259.071 250.76 257.529Z" fill="#88A7FF"/>
<path d="M275.365 246.198C270.737 248.434 265.955 250.361 261.25 252.442C262.098 253.83 262.947 255.14 263.872 256.527C264.875 256.065 265.878 255.602 266.88 255.14C269.811 253.29 272.82 251.209 275.982 249.821C275.596 248.588 275.442 247.355 275.365 246.198Z" fill="#88A7FF"/>
<path d="M86.7746 211.897C83.7664 205.345 76.8244 202.108 69.8053 203.033C62.7091 203.958 57.3869 209.353 56.4613 216.445C56.3842 217.062 56.3841 217.755 56.3841 218.372C56.0756 222.303 57.6954 226.388 60.3951 229.395C65.9487 235.484 77.0558 233.634 82.7637 228.855C87.8545 224.77 89.5514 217.832 86.7746 211.897Z" fill="#BBD0FF"/>
<path d="M45.8941 241.959C41.9603 241.805 38.1037 241.419 34.1699 241.342C27.2279 241.188 20.2859 241.496 13.2668 241.651C13.2668 252.211 13.7296 262.771 13.961 273.331C24.7596 273.254 35.5583 272.946 46.2798 272.792C45.5084 262.54 45.9712 252.211 45.8941 241.959Z" fill="#88A7FF"/>
<path d="M116.625 234.867C114.697 237.488 112.691 239.955 110.84 242.73C107.523 247.509 104.361 252.673 101.198 257.684C106.135 265.16 111.38 272.329 116.394 279.652C121.407 271.944 126.344 264.158 131.358 256.45C126.112 249.744 121.485 242.113 116.625 234.867Z" fill="#F9B2B2"/>
<path d="M74.2019 273.562C73.1221 275.104 72.0422 276.491 70.8081 277.879C69.3426 279.652 67.877 281.425 66.4115 283.12C64.7917 285.202 63.0948 287.283 61.5521 289.364C58.1583 293.912 54.7644 298.46 51.062 302.776C62.632 303.547 77.9043 303.701 93.5624 303.778C86.8518 293.835 80.3726 283.814 74.2019 273.562Z" fill="#FF5F5F"/>
<path d="M283.927 241.034L283.85 240.957C281.15 237.874 276.214 239.338 274.131 242.344C272.125 245.273 273.36 250.669 276.753 251.98C280.533 253.444 285.084 250.438 285.547 246.584C285.778 244.58 285.238 242.344 283.927 241.034Z" fill="#335FFF"/>
<path d="M170.85 90.1375C170.967 89.9048 171.083 89.6721 171.199 89.4394C171.258 89.323 171.316 89.2067 171.374 89.1485C171.141 88.974 170.908 88.9158 170.559 88.974C167.241 89.2648 163.923 88.9158 160.604 89.3812C155.831 90.0211 150.3 90.1375 145.527 89.323C143.897 89.0321 143.023 91.1847 144.129 91.9991C144.071 92.3482 144.071 92.6972 144.362 93.0463C147.273 97.3513 150.475 101.016 152.803 105.729C153.793 107.707 154.783 111.372 156.704 113.175C156.937 113.524 157.286 113.757 157.635 113.815C157.81 113.932 158.043 113.99 158.276 114.048C158.334 113.932 158.392 113.815 158.45 113.699C158.625 113.641 158.741 113.524 158.858 113.35C160.779 110.906 162.118 107.823 163.515 105.031C165.727 100.609 168.405 96.1296 171.199 92.1155C171.723 91.2428 171.432 90.5447 170.85 90.1375Z" fill="#E6EFFF"/>
<path d="M148.961 77.6876C148.03 76.9895 146.982 76.4078 145.759 76.0587C139.938 74.3716 132.312 77.3386 129.343 82.5744C126.316 87.9266 128.353 94.7914 132.661 98.8055C136.503 102.412 141.219 103.111 145.643 101.714C145.759 101.656 145.876 101.656 145.934 101.656C145.992 101.656 146.051 101.598 146.167 101.598C146.516 101.482 146.807 101.365 147.098 101.191C149.369 100.26 151.232 99.3291 152.862 97.2348C154.725 94.7914 155.365 91.8244 155.365 88.7993C155.54 84.087 153.036 79.6656 148.961 77.6876Z" fill="#FF5F5F"/>
<path d="M172.48 103.111C172.597 99.7946 173.295 96.6531 173.528 93.3953C173.644 91.7663 171.025 90.9519 170.326 92.5226C167.357 99.2129 163.573 105.263 159.789 111.488C159.44 111.837 159.091 112.186 158.741 112.535C158.334 113.001 158.217 113.524 158.276 113.99C158.101 114.28 157.926 114.513 157.81 114.804C156.646 116.724 159.673 118.469 160.779 116.549C161.012 116.142 161.245 115.735 161.536 115.328C165.203 115.037 171.316 115.328 172.364 111.43C173.004 108.87 172.422 105.612 172.48 103.111Z" fill="#BBD0FF"/>
<path d="M152.512 115.967C151.814 116.142 151.115 116.2 150.417 116.317C146.574 116.258 142.732 115.386 138.948 116.026C138.832 116.026 138.774 116.084 138.657 116.084C136.969 115.909 135.339 115.735 133.651 115.502C132.778 115.56 131.904 115.502 131.089 115.56C131.031 116.2 130.856 116.84 130.682 117.422C131.671 118.004 132.719 118.469 133.709 118.993C134.349 119.109 134.99 119.167 135.63 119.284C137.318 120.098 138.832 121.145 140.462 121.901C141.335 122.309 142.092 121.901 142.499 121.262C143.897 121.145 145.468 120.331 146.866 120.04C147.913 119.807 148.961 119.633 150.009 119.458C150.184 119.284 150.417 119.167 150.65 119.051C151.988 118.644 153.036 117.655 154.259 116.898C154.026 116.317 153.386 115.793 152.512 115.967Z" fill="#BBD0FF"/>
<path d="M176.206 137.609C175.682 134.177 174.692 130.686 173.936 127.312C173.062 123.414 173.062 119.4 171.898 115.618C171.549 114.571 170.617 114.339 169.919 114.688C160.721 114.048 152.629 118.527 144.362 121.552C142.558 122.192 143.314 124.985 145.061 124.461C145.177 124.578 145.294 124.636 145.41 124.694C147.797 125.857 150.184 126.905 152.512 128.243C155.074 129.697 158.334 130.686 160.663 132.373C164.97 135.515 169.278 137.202 173.994 139.354C175.274 139.878 176.439 138.947 176.206 137.609Z" fill="#E6EFFF"/>
<path d="M190.701 62.9109C190.003 62.7946 189.304 62.62 188.606 62.5037C183.599 59.5367 177.719 57.3842 172.422 54.999C169.453 53.6609 166.542 52.2065 163.631 50.7521C161.245 49.5304 159.324 47.5524 157.053 46.0398C156.704 45.5163 156.005 45.2836 155.423 45.3417C154.201 45.3999 153.386 47.087 154.433 47.9597C155.074 52.4392 156.18 56.9188 156.995 61.3983C157.111 61.9219 157.402 62.2128 157.752 62.3873C157.985 62.62 158.334 62.7364 158.741 62.7946C168.347 63.0273 177.952 63.609 187.441 65.3543C187.616 65.4707 187.791 65.5288 187.965 65.6452C188.489 65.9942 188.955 65.9361 189.362 65.7034C189.537 65.7615 189.654 65.7615 189.828 65.7615C191.749 66.2269 192.564 63.3181 190.701 62.9109Z" fill="#BBD0FF"/>
<path d="M124.511 64.6564C124.395 64.1909 123.929 63.6674 123.463 63.6092C120.319 63.1438 116.71 65.0636 113.567 65.4126C111.529 65.6453 109.375 66.0526 107.338 66.1689C106.231 66.2271 105.009 66.0526 104.019 66.6343C103.961 66.6343 103.961 66.6925 103.961 66.6925C103.03 66.3435 101.807 66.7507 101.865 68.0306C102.04 72.2192 104.31 76.8733 105.999 80.6548C106.814 82.4582 108.153 86.6469 110.656 86.6469C111.937 86.6469 112.752 85.1343 113.334 84.2035C114.789 82.051 116.594 80.2475 117.991 78.0368C119.737 75.3026 121.484 72.801 122.881 69.8922C123.696 68.2051 124.918 66.6343 124.511 64.6564Z" fill="#E6EFFF"/>
<path d="M111.645 89.3229C114.44 85.2506 116.652 80.9455 119.097 76.6405C121.891 71.8119 125.151 67.1578 127.596 62.0965C126.956 61.6893 126.025 61.6311 125.559 62.5037C120.727 70.7066 115.546 78.793 110.889 87.1122C110.365 88.043 110.889 88.9738 111.645 89.3229Z" fill="#6090FC"/>
<path d="M142.558 89.3229C145.352 85.2506 147.564 80.9455 150.009 76.6405C152.803 71.8119 156.064 67.1578 158.509 62.0965C157.868 61.6893 156.937 61.6311 156.471 62.5037C151.639 70.7066 146.458 78.793 141.801 87.1122C141.219 88.043 141.801 88.9738 142.558 89.3229Z" fill="#BBD0FF"/>
<path d="M172.946 89.3229C170.152 85.2506 167.939 80.9455 165.494 76.6405C162.7 71.8119 159.44 67.1578 156.995 62.0965C157.635 61.6893 158.567 61.6311 159.032 62.5037C163.864 70.7066 169.045 78.793 173.703 87.1122C174.227 88.043 173.703 88.9738 172.946 89.3229Z" fill="#6090FC"/>
<path d="M142.092 89.3229C139.298 85.2506 137.085 80.9455 134.64 76.6405C131.846 71.8119 128.586 67.1578 126.141 62.0965C126.781 61.6893 127.713 61.6311 128.179 62.5037C133.01 70.7066 138.191 78.793 142.849 87.1122C143.373 88.043 142.79 88.9738 142.092 89.3229Z" fill="#88A7FF"/>
<path d="M157.519 116.84C154.725 112.768 152.512 108.463 150.067 104.158C147.273 99.3292 144.013 94.6751 141.568 89.6138C142.208 89.2066 143.14 89.1484 143.606 90.0211C148.437 98.2239 153.618 106.31 158.276 114.63C158.8 115.56 158.276 116.491 157.519 116.84Z" fill="#88A7FF"/>
<path d="M126.607 116.84C123.812 112.768 121.6 108.463 119.155 104.158C116.361 99.3292 113.101 94.6751 110.656 89.6138C111.296 89.2066 112.228 89.1484 112.693 90.0211C117.525 98.2239 122.706 106.31 127.364 114.63C127.946 115.56 127.364 116.491 126.607 116.84Z" fill="#6090FC"/>
<path d="M157.926 116.724C152.978 117.015 148.146 116.666 143.198 116.549C137.609 116.433 131.963 116.84 126.374 116.317C126.316 115.56 126.781 114.746 127.771 114.804C137.318 114.862 146.866 114.63 156.413 114.921C157.519 114.921 158.043 115.851 157.926 116.724Z" fill="#6090FC"/>
<path d="M142.15 89.8465C137.202 90.1374 132.37 89.7884 127.422 89.672C121.833 89.5557 116.186 89.9629 110.598 89.4393C110.539 88.683 111.005 87.8685 111.995 87.9267C121.542 87.9849 131.089 87.7522 140.637 88.0431C141.743 88.1012 142.208 89.0321 142.15 89.8465Z" fill="#BBD0FF"/>
<path d="M173.703 90.2538C168.754 90.5446 163.923 90.1956 158.974 90.0792C153.386 89.9629 147.739 90.3701 142.15 89.8465C142.092 89.0902 142.558 88.2758 143.547 88.3339C153.095 88.3921 162.642 88.1594 172.189 88.4503C173.295 88.4503 173.819 89.3811 173.703 90.2538Z" fill="#BBD0FF"/>
<path d="M157.926 63.0855C152.978 63.3764 148.146 63.0274 143.198 62.911C137.609 62.7947 131.963 63.2019 126.374 62.6783C126.316 61.922 126.781 61.1076 127.771 61.1657C137.318 61.2239 146.866 60.9912 156.413 61.2821C157.519 61.3403 158.043 62.2711 157.926 63.0855Z" fill="#6090FC"/>
<path d="M127.072 116.433C129.867 112.361 132.079 108.056 134.524 103.751C137.318 98.9221 140.578 94.268 143.023 89.2067C142.383 88.7995 141.452 88.7413 140.986 89.614C136.154 97.8168 130.973 105.903 126.316 114.222C125.792 115.211 126.316 116.142 127.072 116.433Z" fill="#BBD0FF"/>
<path d="M157.985 116.433C160.779 112.361 162.991 108.056 165.436 103.751C168.23 98.9221 171.491 94.268 173.936 89.2067C173.295 88.7995 172.364 88.7413 171.898 89.614C167.066 97.8168 161.885 105.903 157.228 114.222C156.646 115.211 157.228 116.142 157.985 116.433Z" fill="#6090FC"/>
<path d="M105.125 75.2443C103.67 72.2191 102.739 68.8449 100.992 65.9943C100.41 66.1106 99.8278 66.2851 99.3039 66.5178C99.3039 66.576 99.3039 66.6342 99.3621 66.6342C100.876 70.2993 102.622 73.848 104.136 77.5131C105.591 81.12 107.862 84.4943 109.084 88.1594C109.433 89.2647 110.714 89.4392 111.471 88.9156C109.666 84.2616 107.279 79.8402 105.125 75.2443Z" fill="#6090FC"/>
<path d="M127.189 61.5729C117.933 63.2018 108.444 63.8417 99.3621 66.3433C99.4203 67.0414 99.8861 67.7395 100.817 67.7395C100.876 67.7395 100.992 67.7395 101.05 67.7395C104.019 67.3905 106.988 66.8669 109.957 66.4015C110.656 66.2851 111.296 66.1106 111.995 65.9943C116.768 65.0053 121.6 64.6562 126.374 63.6672C127.422 63.4345 127.596 62.3292 127.189 61.5729Z" fill="#6090FC"/>
<path d="M99.3621 66.3434C96.5678 70.183 92.842 73.0918 89.1745 76.0588C85.798 78.8512 82.0722 82.8654 78.9869 85.8905C78.2883 86.5305 79.2779 86.2978 79.8019 86.8214C83.9933 84.0871 87.3698 80.0148 91.0956 76.7569C94.6467 73.6154 98.6635 70.6484 101.691 66.9251C100.934 66.6343 100.061 66.5179 99.3621 66.3434Z" fill="#6090FC"/>
<path d="M111.122 88.8575C100.468 88.1012 89.9313 86.5305 79.2197 86.1814C79.2779 86.7632 79.3362 87.4031 79.3944 87.9849C84.6919 88.6248 89.9313 88.683 95.2288 89.2647C99.7114 89.7301 104.951 89.7301 109.317 90.8937C110.656 91.1845 111.471 89.8465 111.122 88.8575Z" fill="#6090FC"/>
<path d="M108.851 112.012C103.554 107.707 99.1875 102.529 93.7735 98.3403C88.767 94.4425 84.4591 89.672 79.3362 85.8324C79.278 85.7742 79.2197 85.7742 79.2197 85.7161C78.5212 86.2396 78.2301 87.1705 79.0451 87.8686C82.9455 91.0101 86.4384 94.5588 90.2224 97.8167C93.8899 100.958 97.6739 103.925 101.225 107.241C101.341 107.474 101.574 107.707 101.865 107.823C102.04 107.939 102.215 108.056 102.389 108.114C103.03 108.579 103.437 109.394 103.961 109.975C104.951 111.139 106.29 112.128 107.512 113.001C108.385 113.641 109.259 113.117 109.55 112.303C109.317 112.303 109.084 112.186 108.851 112.012Z" fill="#BBD0FF"/>
<path d="M110.015 102.994C110.248 98.2239 110.656 93.3953 110.656 88.6248C109.841 88.5667 109.026 89.0321 109.084 90.0792C109.375 97.3512 108.211 104.856 107.396 112.07C107.279 113.175 108.211 113.641 109.026 113.466C108.735 109.917 109.783 106.659 110.015 102.994Z" fill="#6090FC"/>
<path d="M110.714 120.098C110.074 116.84 109.142 113.524 108.851 110.208C108.094 110.208 107.396 110.674 107.396 111.663C107.57 114.571 108.444 117.306 109.084 120.098C109.841 123.298 110.248 126.614 110.772 129.814C110.947 130.395 111.063 131.035 111.238 131.617C111.587 132.082 112.228 132.141 112.81 131.966C111.937 128.126 111.471 124.054 110.714 120.098Z" fill="#6090FC"/>
<path d="M126.898 116.491C120.378 114.688 113.159 113.291 107.046 110.499C106.697 111.255 106.93 112.302 107.92 112.652C110.481 113.408 112.926 114.571 115.488 115.386C118.631 116.375 121.95 116.258 124.977 117.538C125.966 117.946 126.84 117.364 127.189 116.608C127.131 116.549 127.014 116.549 126.898 116.491Z" fill="#6090FC"/>
<path d="M123.696 115.909C121.717 119.226 118.748 122.134 116.361 125.159C114.731 127.196 112.461 129.348 111.296 131.675C111.354 132.024 111.471 132.373 111.529 132.722C111.82 132.664 112.169 132.664 112.461 132.606C114.382 130.395 116.303 128.185 118.166 125.858C119.505 124.17 121.309 122.774 122.415 120.913C123.463 119.167 124.453 117.422 125.501 115.735C125.559 115.619 125.675 115.502 125.792 115.386C125.151 115.095 124.22 115.095 123.696 115.909Z" fill="#6090FC"/>
<path d="M140.811 122.541C131.497 125.45 121.95 128.65 112.577 131.093C111.704 131.326 111.413 132.082 111.529 132.78V132.839C111.995 132.78 112.519 132.722 112.984 132.664C116.827 131.268 121.018 130.861 124.918 129.697C130.915 127.894 136.678 125.567 142.558 123.472C142.325 122.774 141.684 122.251 140.811 122.541Z" fill="#6090FC"/>
<path d="M133.01 119.982C136.154 121.203 139.356 122.251 142.441 123.589C142.791 122.949 142.674 122.192 141.859 121.785C136.794 119.516 131.439 117.946 126.607 115.095C125.734 114.571 124.977 115.037 124.569 115.677C127.538 116.957 130.1 118.876 133.01 119.982Z" fill="#6090FC"/>
<path d="M159.615 116.259C159.906 116.142 160.197 116.084 160.488 116.142C160.604 115.153 159.906 114.048 158.683 114.513C155.423 115.851 152.163 117.189 148.961 118.586C146.633 119.633 143.547 120.273 141.568 122.018C140.986 122.542 140.986 123.181 141.277 123.705C147.389 121.204 153.56 118.935 159.615 116.259Z" fill="#6090FC"/>
<path d="M177.196 139.936C171.141 137.26 165.32 134.06 159.498 130.919C153.327 127.661 146.691 124.869 140.695 121.262C140.229 121.902 140.229 122.891 141.16 123.298C152.862 128.825 164.039 135.631 175.624 141.449C176.148 140.983 176.672 140.46 177.196 139.936Z" fill="#6090FC"/>
<path d="M173.47 89.2647C173.47 88.8575 173.644 88.5084 173.877 88.2757C173.004 87.9267 171.723 88.3921 171.723 89.6138C171.665 97.4094 171.025 105.147 170.85 112.942C170.734 112.942 170.676 112.942 170.559 113.001C166.484 114.164 162.351 114.571 158.159 114.571C156.937 114.571 156.471 115.735 156.762 116.608C156.82 116.608 156.879 116.549 156.995 116.549C162.351 116.142 167.648 115.968 172.946 114.979C173.004 106.427 173.528 97.8166 173.47 89.2647Z" fill="#6090FC"/>
<path d="M177.312 139.82C176.613 135.747 175.682 131.675 174.867 127.603C173.994 123.181 173.877 118.702 172.946 114.28C172.713 113.175 171.665 113 170.85 113.408C172.364 117.771 172.073 122.541 172.888 127.021C173.761 131.791 174.809 136.562 175.74 141.332C176.264 140.867 176.788 140.343 177.312 139.82Z" fill="#6090FC"/>
<path d="M153.211 44.3528C143.664 49.9377 133.709 54.8827 124.919 61.5729C125.093 62.5619 126.083 63.3764 127.072 62.6201C135.63 56.7443 144.595 51.1012 153.677 45.9817C154.317 45.6327 154.492 44.9927 154.375 44.411C153.968 44.411 153.56 44.411 153.211 44.3528Z" fill="#BBD0FF"/>
<path d="M154.666 44.411C154.201 44.411 153.677 44.411 153.211 44.3528C153.793 49.3559 154.899 54.3009 155.772 59.2459C155.947 60.0603 156.18 60.933 156.355 61.7474C156.587 62.7946 157.519 63.0273 158.276 62.6782C156.82 56.6861 155.831 50.5194 154.666 44.411Z" fill="#6090FC"/>
<path d="M194.835 64.889C191.051 62.7365 186.626 61.2821 183.308 58.4314C183.25 58.4314 183.192 58.3733 183.133 58.3733C180.165 57.2097 177.254 56.0462 174.518 54.5336C167.998 51.0431 161.012 48.2506 154.725 44.411C154.375 44.411 154.026 44.411 153.677 44.411C153.735 44.8764 153.793 45.3418 153.793 45.8654C155.598 46.5635 157.635 48.0761 159.44 49.356C160.604 49.8796 161.71 50.5195 162.875 51.0431C164.505 51.7412 166.018 52.4975 167.415 53.6028C169.104 54.3591 170.85 55.1154 172.538 55.8717C179.873 59.1877 187.034 62.7365 194.136 66.5179C194.66 66.8088 195.126 66.7506 195.475 66.5761C195.242 65.9943 195.009 65.4126 194.835 64.889Z" fill="#6090FC"/>
<path d="M194.835 65.0053C181.736 63.8418 168.754 61.922 155.598 61.8057C155.54 62.6201 156.005 63.4928 157.053 63.4928C169.628 63.6091 181.853 65.9943 194.369 66.6343C194.835 66.6343 195.184 66.5179 195.417 66.227C195.184 65.8198 195.009 65.4126 194.835 65.0053Z" fill="#6090FC"/>
<path d="M194.02 64.4236C193.67 64.5399 193.379 64.7145 193.205 65.0635C190.643 69.3104 186.801 73.15 183.075 76.466C179.466 79.6657 176.497 83.5635 172.829 86.6469C171.898 87.4031 172.364 88.5085 173.179 88.9157C176.322 85.0179 180.223 81.7601 183.657 78.1531C186.044 75.5934 188.78 73.4409 191.109 70.823C192.623 69.1358 193.845 67.2742 195.126 65.4708C195.068 65.2962 194.951 65.0635 194.893 64.8308C194.544 64.7145 194.311 64.5399 194.02 64.4236Z" fill="#6090FC"/>
<path d="M206.885 88.9158C203.683 81.5274 198.328 74.1391 195.533 66.518C195.242 65.9944 195.009 65.4127 194.777 64.8309C194.485 64.6564 194.253 64.4818 193.962 64.3655C193.496 64.3073 192.972 64.4237 192.623 64.7146C195.068 68.6123 196.465 73.2083 198.735 77.2224C201.122 81.5274 203.974 85.6579 205.837 90.1375L205.488 91.1265C206.128 90.7774 207.235 89.7884 206.885 88.9158Z" fill="#6090FC"/>
<path d="M206.303 89.0902C194.951 89.8465 183.832 88.6248 172.48 88.5667C172.48 88.5667 172.48 88.5667 172.422 88.5667C172.131 89.4393 172.597 90.6028 173.819 90.6028C184.298 90.6028 195.126 92.1736 205.546 91.0682C206.711 90.9519 207.176 89.7883 206.943 88.9739C206.711 89.0321 206.536 89.0902 206.303 89.0902Z" fill="#6090FC"/>
<path d="M206.303 88.6249C199.375 94.1516 191.866 99.0966 184.531 104.1C181.154 106.369 176.555 108.637 173.761 111.604C173.062 112.361 172.422 113.117 171.665 113.757C172.014 113.99 172.422 114.164 172.771 114.339C173.819 113.35 174.983 112.593 176.264 111.837C177.836 110.674 179.582 109.685 180.688 108.928C183.541 106.892 186.335 104.74 189.13 102.645C194.776 98.3985 201.122 95.3733 206.419 90.661C207.118 89.9629 206.885 89.0903 206.303 88.6249Z" fill="#BBD0FF"/>
<path d="M113.334 84.9597C112.984 84.727 112.635 84.4943 112.228 84.378C110.132 83.7962 107.454 84.8434 106.406 86.705C105.358 88.6248 106.057 91.0682 107.57 92.4644C108.909 93.7443 110.598 93.977 112.169 93.5116C112.228 93.5116 112.228 93.5116 112.286 93.5116C112.286 93.5116 112.344 93.5116 112.344 93.4534C112.461 93.3953 112.577 93.3953 112.693 93.3371C113.508 92.988 114.149 92.639 114.731 91.9409C115.371 91.0682 115.604 90.0211 115.604 88.9739C115.662 87.2286 114.789 85.6578 113.334 84.9597Z" fill="#335FFF"/>
<path d="M128.179 58.7804C127.887 58.5477 127.596 58.3732 127.247 58.315C125.501 57.7914 123.23 58.7222 122.299 60.293C121.367 61.9219 122.008 63.9581 123.289 65.1797C124.453 66.2851 125.85 66.4596 127.189 66.0524C127.247 66.0524 127.247 66.0524 127.305 66.0524H127.364C127.48 65.9942 127.538 65.9942 127.655 65.936C128.353 65.6452 128.877 65.3543 129.401 64.7143C129.983 63.9581 130.158 63.0854 130.158 62.2128C130.1 60.7002 129.343 59.3621 128.179 58.7804Z" fill="#335FFF"/>
<path d="M155.074 43.3638C154.899 43.2475 154.783 43.1893 154.608 43.1311C153.735 42.8984 152.571 43.3056 152.105 44.1201C151.639 44.9346 151.93 45.9817 152.629 46.6217C153.211 47.1453 153.968 47.2616 154.608 47.0871H154.666C154.666 47.0871 154.666 47.0871 154.725 47.0871C154.783 47.0871 154.841 47.0289 154.899 47.0289C155.249 46.9125 155.54 46.738 155.772 46.389C156.064 46.0399 156.18 45.5745 156.18 45.1091C156.064 44.3528 155.714 43.6547 155.074 43.3638Z" fill="#335FFF"/>
<path d="M195.359 63.3763C195.126 63.2018 194.893 63.0854 194.66 63.0272C193.321 62.62 191.633 63.3181 190.934 64.5398C190.236 65.7615 190.701 67.3322 191.691 68.2049C192.564 69.0194 193.67 69.1939 194.66 68.8448H194.718H194.777C194.835 68.8448 194.893 68.7867 195.009 68.7867C195.533 68.5539 195.941 68.3794 196.29 67.8558C196.698 67.3323 196.872 66.6341 196.872 65.936C196.872 64.8889 196.29 63.8417 195.359 63.3763Z" fill="#335FFF"/>
<path d="M101.807 65.0634C101.633 64.947 101.4 64.8307 101.167 64.7143C99.9443 64.3653 98.4307 64.947 97.7904 66.0524C97.15 67.1577 97.6157 68.5539 98.4889 69.3684C99.3039 70.1247 100.235 70.241 101.167 69.9502H101.225C101.225 69.9502 101.225 69.9502 101.283 69.9502C101.341 69.9502 101.4 69.892 101.458 69.892C101.924 69.7175 102.331 69.4848 102.622 69.0775C103.03 68.5539 103.146 67.9722 103.146 67.3322C103.146 66.4014 102.622 65.4706 101.807 65.0634Z" fill="#335FFF"/>
<path d="M80.8497 84.0289C80.6169 83.8544 80.4422 83.738 80.1511 83.6798C78.8704 83.3308 77.2404 83.9707 76.6 85.0761C75.9597 86.2396 76.3672 87.7522 77.2986 88.6248C78.1136 89.3811 79.1615 89.5556 80.1511 89.2648H80.2094H80.2676C80.3258 89.2648 80.384 89.2066 80.5004 89.2066C80.9662 89.032 81.4319 88.7993 81.7812 88.3339C82.1887 87.8103 82.3051 87.1704 82.3051 86.4723C82.3051 85.4251 81.7812 84.4943 80.8497 84.0289Z" fill="#335FFF"/>
<path d="M207.467 87.6939C207.235 87.5194 207.06 87.4031 206.769 87.3449C205.488 86.9958 203.858 87.6358 203.218 88.7411C202.577 89.9046 202.985 91.4172 203.916 92.2898C204.731 93.0461 205.779 93.2207 206.769 92.9298H206.827H206.885C206.943 92.9298 207.002 92.8716 207.118 92.8716C207.584 92.6971 208.05 92.4644 208.399 91.999C208.806 91.4754 208.923 90.8354 208.923 90.1373C208.923 89.0902 208.341 88.1012 207.467 87.6939Z" fill="#335FFF"/>
<path d="M113.567 129.639C113.334 129.464 113.159 129.348 112.868 129.29C111.587 128.941 109.957 129.581 109.317 130.686C108.677 131.85 109.084 133.362 110.016 134.235C110.831 134.991 111.878 135.166 112.868 134.875H112.926H112.984C113.043 134.875 113.101 134.817 113.217 134.817C113.683 134.642 114.149 134.409 114.498 133.944C114.906 133.42 115.022 132.781 115.022 132.082C115.022 131.035 114.44 130.104 113.567 129.639Z" fill="#335FFF"/>
<path d="M109.899 109.859C109.666 109.684 109.492 109.568 109.2 109.51C107.92 109.161 106.29 109.801 105.649 110.906C105.009 112.07 105.416 113.582 106.348 114.455C107.163 115.211 108.211 115.386 109.2 115.095H109.259H109.317C109.375 115.095 109.433 115.037 109.55 115.037C110.015 114.862 110.481 114.629 110.83 114.164C111.238 113.64 111.354 113 111.354 112.302C111.296 111.255 110.772 110.266 109.899 109.859Z" fill="#335FFF"/>
<path d="M143.023 120.505C142.849 120.389 142.674 120.273 142.441 120.214C141.393 119.924 140.054 120.447 139.53 121.378C139.007 122.309 139.356 123.53 140.113 124.287C140.811 124.927 141.626 125.043 142.441 124.81H142.499C142.499 124.81 142.499 124.81 142.558 124.81C142.616 124.81 142.674 124.752 142.732 124.752C143.14 124.578 143.489 124.403 143.78 124.054C144.129 123.647 144.246 123.065 144.246 122.541C144.188 121.669 143.722 120.854 143.023 120.505Z" fill="#335FFF"/>
<path d="M173.412 111.837C173.237 111.721 173.004 111.604 172.771 111.488C171.607 111.139 170.035 111.721 169.395 112.826C168.754 113.931 169.22 115.328 170.093 116.142C170.85 116.898 171.84 117.015 172.771 116.724H172.829C172.829 116.724 172.829 116.724 172.888 116.724C172.946 116.724 173.004 116.666 173.062 116.666C173.528 116.491 173.936 116.258 174.227 115.851C174.634 115.328 174.751 114.746 174.751 114.106C174.751 113.117 174.227 112.244 173.412 111.837Z" fill="#335FFF"/>
<path d="M177.254 138.191C177.079 138.074 176.904 137.958 176.672 137.9C175.624 137.609 174.285 138.133 173.703 139.063C173.179 140.052 173.528 141.274 174.285 141.972C174.983 142.612 175.798 142.728 176.613 142.496H176.672C176.672 142.496 176.672 142.496 176.73 142.496C176.788 142.496 176.846 142.438 176.904 142.438C177.312 142.263 177.661 142.089 177.952 141.739C178.302 141.332 178.418 140.75 178.418 140.227C178.418 139.354 178.011 138.54 177.254 138.191Z" fill="#335FFF"/>
<path d="M159.964 57.9078C159.615 57.6751 159.207 57.4424 158.741 57.3261C156.529 56.6861 153.677 57.7915 152.571 59.7694C151.465 61.8056 152.221 64.3654 153.793 65.8779C155.249 67.216 156.995 67.5069 158.683 66.9833C158.741 66.9833 158.741 66.9833 158.8 66.9833C158.8 66.9833 158.858 66.9833 158.858 66.9251C158.974 66.8669 159.091 66.8088 159.207 66.8088C160.08 66.4597 160.779 66.1106 161.361 65.2962C162.06 64.3654 162.293 63.26 162.293 62.1547C162.409 60.3512 161.478 58.6641 159.964 57.9078Z" fill="#335FFF"/>
<path d="M128.994 111.081C128.586 110.79 128.179 110.557 127.655 110.441C125.21 109.743 122.124 110.965 120.843 113.117C119.621 115.328 120.436 118.178 122.241 119.807C123.812 121.262 125.792 121.611 127.596 121.029C127.655 121.029 127.655 121.029 127.713 120.971C127.771 120.971 127.771 120.971 127.829 120.913C127.946 120.854 128.12 120.796 128.237 120.738C129.168 120.389 129.925 119.982 130.624 119.109C131.38 118.12 131.671 116.84 131.671 115.619C131.671 113.757 130.624 111.895 128.994 111.081Z" fill="#335FFF"/>
<path d="M159.615 112.07C159.324 111.837 158.974 111.663 158.567 111.546C156.646 111.023 154.201 111.953 153.211 113.699C152.221 115.444 152.92 117.655 154.317 118.993C155.598 120.156 157.111 120.389 158.567 119.924C158.625 119.924 158.625 119.924 158.683 119.924H158.741C158.858 119.865 158.974 119.865 159.032 119.807C159.789 119.516 160.371 119.167 160.895 118.527C161.478 117.713 161.71 116.782 161.71 115.793C161.769 114.164 160.895 112.71 159.615 112.07Z" fill="#335FFF"/>
<path d="M144.886 83.9708C144.479 83.6799 144.013 83.389 143.489 83.2727C140.928 82.5164 137.609 83.8544 136.27 86.1233C134.931 88.4504 135.863 91.4755 137.726 93.2208C139.414 94.7915 141.51 95.1406 143.431 94.5007C143.489 94.5007 143.547 94.5007 143.547 94.4425C143.606 94.4425 143.606 94.4425 143.664 94.3843C143.78 94.3261 143.955 94.268 144.071 94.2098C145.061 93.8026 145.876 93.3953 146.574 92.4645C147.39 91.4173 147.681 90.0793 147.681 88.7412C147.797 86.8214 146.691 84.9016 144.886 83.9708Z" fill="#335FFF"/>
<path d="M174.751 85.7159C174.46 85.5414 174.168 85.3669 173.819 85.2505C172.131 84.7851 169.977 85.5996 169.104 87.1122C168.231 88.6247 168.813 90.6027 170.035 91.7663C171.141 92.8134 172.48 92.988 173.761 92.5807C173.819 92.5807 173.819 92.5807 173.877 92.5807H173.936C174.052 92.5225 174.11 92.5225 174.227 92.4644C174.867 92.2317 175.391 91.9408 175.857 91.3008C176.381 90.6027 176.555 89.7301 176.555 88.9156C176.613 87.5776 175.915 86.2977 174.751 85.7159Z" fill="#335FFF"/>
<path d="M439.89 67.2151C442.204 66.213 444.749 65.7505 447.14 64.9026V62.9756C437.422 65.288 428.628 69.8358 420.761 76.8503C415.747 81.321 413.896 87.8729 412.045 94.0394C409.654 101.825 408.882 109.687 408.805 117.781C408.805 118.937 409.577 119.553 410.425 119.708C410.425 119.631 410.425 119.553 410.425 119.399C412.353 105.756 412.045 88.7979 422.458 78.2377C426.16 74.4607 430.557 71.6087 435.416 69.5275C436.805 68.6796 438.27 67.9088 439.89 67.2151Z" fill="#335FFF"/>
<path d="M450.843 63.9777C442.667 68.8338 439.427 79.7023 437.885 88.7208C436.033 99.4352 436.188 110.304 436.188 121.172C437.499 121.635 439.35 120.556 438.964 118.783C436.959 109.61 438.579 98.0477 440.044 88.875C441.51 79.3169 444.518 69.065 453.311 64.0547C452.386 64.0547 451.614 64.0547 450.843 63.9777Z" fill="#335FFF"/>
<path d="M461.024 106.373C460.639 102.133 459.636 98.0477 460.176 93.8853C459.79 91.9583 459.328 90.0312 458.865 88.1042C456.705 79.0086 454.854 69.3734 450.457 61.0486C450.226 60.6631 450.149 60.2007 450.226 59.8923C449.532 60.4319 449.146 61.434 449.609 62.436C457.168 79.0086 458.556 99.3581 460.793 117.241C460.947 118.166 461.487 118.706 462.181 119.014C461.179 115.006 461.41 110.458 461.024 106.373Z" fill="#335FFF"/>
<path d="M509.927 110.612C504.759 84.5585 482.082 61.9736 454.468 61.6653C453.62 61.6653 453.08 62.1278 452.848 62.7444C481.619 64.4402 502.445 85.8689 508.461 113.156C509.387 112.847 510.235 111.845 509.927 110.612Z" fill="#335FFF"/>
<path d="M473.443 322.972L503.679 268.629L475.371 269.323L536.075 214.287L506.919 266.625L536.306 265.854L473.443 322.972ZM505.839 268.552L480.693 313.722L531.216 267.858L505.839 268.552ZM528.747 223.459L480.462 267.319L504.759 266.702L528.747 223.459Z" fill="#F9B2B2"/>
<path d="M478.337 218.276L477.045 219.707L531.796 269.072L533.088 267.641L478.337 218.276Z" fill="#F9B2B2"/>
<path d="M482.776 324.59L417.521 241.805L445.521 253.675L416.287 194.477L481.233 270.788L449.609 257.375L482.776 324.59ZM423.615 246.43L472.98 309.097L446.832 256.296L423.615 246.43ZM448.297 254.755L474.6 265.854L424.926 207.427L448.297 254.755Z" fill="#F9B2B2"/>
<path d="M477.454 317.653L417.907 287.822L477.608 267.396L478.225 269.246L422.843 288.131L478.302 315.957L477.454 317.653Z" fill="#F9B2B2"/>
<path d="M415.824 294.914L446.909 233.711L417.367 246.507L446.909 210.587L418.138 201.106L478.688 171.044L479.305 169.734L479.999 170.35L484.01 168.346L481.388 171.584L536.229 220.839L478.302 220.762L415.824 294.914ZM449.609 232.555L424.926 281.116L475.371 221.378L449.609 232.555ZM448.837 211.281L423.846 241.651L448.22 231.09L456.936 213.978L448.837 211.281ZM458.71 214.518L450.92 229.857L474.368 219.682L458.71 214.518ZM478.148 218.912L531.216 218.989L480.076 173.125L479.074 174.358L459.636 212.822L477.068 218.526L477.917 218.141L478.148 218.912ZM450.149 209.662L457.785 212.205L473.52 181.219L450.149 209.662ZM423.075 200.797L448.143 209.045L476.837 174.127L423.075 200.797Z" fill="#F9B2B2"/>
<path d="M360.443 246.661L419.99 200.181L421.147 201.722L366.151 244.58L420.53 243.115L420.607 245.042L360.443 246.661Z" fill="#F9B2B2"/>
<path d="M363.858 244.884L362.708 246.431L419.844 288.748L420.994 287.201L363.858 244.884Z" fill="#F9B2B2"/>
<path d="M479.706 170.413L478.026 171.36L531.659 266.36L533.339 265.413L479.706 170.413Z" fill="#F9B2B2"/>
<path d="M564.923 218.989H532.45V220.916H564.923V218.989Z" fill="#F9B2B2"/>
<path d="M365.919 243.886H333.446V245.813H365.919V243.886Z" fill="#F9B2B2"/>
<path d="M564.923 265.931H532.45V267.858H564.923V265.931Z" fill="#F9B2B2"/>
<path d="M376.872 243.423C376.949 238.105 372.399 233.865 367.925 232.015C361.986 229.549 355.044 232.247 352.113 237.18C349.799 240.109 349.027 244.117 350.261 248.048C352.113 254.215 359.363 256.759 365.148 256.913C370.162 257.067 373.633 253.444 375.33 249.128C376.332 247.509 376.872 245.428 376.872 243.423Z" fill="#FF5F5F"/>
<path d="M363.065 243.115C365.302 244.117 367.616 244.348 370.007 243.886C371.087 243.038 371.704 241.574 371.55 240.109C371.396 237.951 370.239 236.486 368.542 235.484C368.465 235.407 368.465 235.407 368.388 235.33C367.153 234.405 365.611 234.251 364.145 234.559C362.834 234.79 361.831 235.715 361.137 236.872C360.674 239.338 361.446 241.651 363.065 243.115Z" fill="white"/>
<path d="M546.257 219.22C546.334 213.901 541.783 209.662 537.309 207.812C531.37 205.345 524.428 208.043 521.497 212.976C519.183 215.905 518.411 219.914 519.646 223.845C521.497 230.011 528.747 232.555 534.532 232.709C539.546 232.863 543.017 229.241 544.714 224.924C545.794 223.305 546.257 221.224 546.257 219.22Z" fill="#FF5F5F"/>
<path d="M532.45 218.912C534.687 219.914 537.001 220.145 539.392 219.682C540.472 218.834 541.089 217.37 540.934 215.905C540.78 213.747 539.623 212.283 537.926 211.28C537.849 211.203 537.849 211.203 537.772 211.126C536.538 210.201 534.995 210.047 533.53 210.355C532.218 210.587 531.216 211.512 530.521 212.668C530.059 215.135 530.83 217.447 532.45 218.912Z" fill="white"/>
<path d="M546.257 266.24C546.334 260.998 541.783 256.682 537.309 254.832C531.37 252.365 524.428 255.063 521.497 259.996C519.183 262.925 518.411 266.933 519.646 270.865C521.497 277.031 528.747 279.575 534.532 279.729C539.546 279.883 543.017 276.26 544.714 271.944C545.794 270.325 546.257 268.244 546.257 266.24Z" fill="#FF5F5F"/>
<path d="M532.45 265.854C534.687 266.856 537.001 267.087 539.392 266.625C540.472 265.777 541.089 264.313 540.934 262.848C540.78 260.69 539.623 259.225 537.926 258.223C537.849 258.146 537.849 258.146 537.772 258.069C536.538 257.144 534.995 256.99 533.53 257.298C532.218 257.529 531.216 258.454 530.521 259.611C530.059 262.154 530.83 264.39 532.45 265.854Z" fill="white"/>
<path d="M432.254 243.501C432.254 238.953 428.397 235.253 424.54 233.634C419.45 231.476 413.51 233.865 410.965 238.105C408.96 240.649 408.342 244.04 409.345 247.509C410.965 252.75 417.213 254.986 422.149 255.14C426.392 255.294 429.477 252.134 430.865 248.434C431.868 247.046 432.254 245.273 432.254 243.501Z" fill="#FF5F5F"/>
<path d="M420.375 243.192C422.304 244.04 424.309 244.271 426.392 243.886C427.317 243.115 427.78 241.882 427.703 240.649C427.549 238.799 426.546 237.488 425.08 236.64C425.003 236.563 425.003 236.563 424.926 236.486C423.846 235.715 422.535 235.561 421.301 235.792C420.221 236.024 419.295 236.794 418.755 237.797C418.293 239.955 418.987 241.959 420.375 243.192Z" fill="white"/>
<path d="M432.254 198.716C432.254 194.168 428.397 190.468 424.54 188.85C419.45 186.691 413.51 189.081 410.965 193.32C408.96 195.864 408.342 199.256 409.345 202.724C410.965 207.966 417.213 210.201 422.149 210.355C426.392 210.51 429.477 207.349 430.865 203.649C431.868 202.262 432.254 200.489 432.254 198.716Z" fill="#FF5F5F"/>
<path d="M420.375 198.408C422.304 199.256 424.309 199.487 426.392 199.102C427.317 198.331 427.78 197.097 427.703 195.864C427.549 194.014 426.546 192.704 425.08 191.856C425.003 191.779 425.003 191.779 424.926 191.702C423.846 190.931 422.535 190.777 421.301 191.008C420.221 191.239 419.295 192.01 418.755 193.012C418.293 195.17 418.987 197.174 420.375 198.408Z" fill="white"/>
<path d="M432.254 288.285C432.254 283.737 428.397 280.037 424.54 278.418C419.45 276.26 413.51 278.65 410.965 282.889C408.96 285.433 408.342 288.824 409.345 292.293C410.965 297.535 417.213 299.77 422.149 299.924C426.392 300.078 429.477 296.918 430.865 293.218C431.868 291.831 432.254 289.981 432.254 288.285Z" fill="#FF5F5F"/>
<path d="M420.375 287.976C422.304 288.824 424.309 289.056 426.392 288.67C427.317 287.899 427.78 286.666 427.703 285.433C427.549 283.583 426.546 282.272 425.08 281.425C425.003 281.347 425.003 281.347 424.926 281.27C423.846 280.5 422.535 280.345 421.301 280.577C420.221 280.808 419.295 281.579 418.755 282.581C418.293 284.739 418.987 286.743 420.375 287.976Z" fill="white"/>
<path d="M489.564 219.297C489.564 214.749 485.707 211.049 481.85 209.431C476.76 207.272 470.82 209.662 468.275 213.901C466.27 216.445 465.652 219.837 466.655 223.305C468.275 228.547 474.523 230.782 479.459 230.936C483.702 231.09 486.787 227.93 488.175 224.23C489.178 222.766 489.564 220.993 489.564 219.297Z" fill="#FF5F5F"/>
<path d="M477.685 218.989C479.614 219.836 481.619 220.068 483.702 219.682C484.627 218.912 485.09 217.678 485.013 216.445C484.859 214.595 483.856 213.285 482.39 212.437C482.313 212.36 482.313 212.36 482.236 212.282C481.156 211.512 479.845 211.358 478.611 211.589C477.531 211.82 476.605 212.591 476.065 213.593C475.603 215.751 476.297 217.678 477.685 218.989Z" fill="white"/>
<path d="M489.564 170.813C489.564 166.265 485.707 162.565 481.85 160.946C476.76 158.788 470.82 161.178 468.275 165.417C466.27 167.961 465.652 171.352 466.655 174.821C468.275 180.062 474.523 182.298 479.459 182.452C483.702 182.606 486.787 179.446 488.175 175.746C489.178 174.281 489.564 172.508 489.564 170.813Z" fill="#FF5F5F"/>
<path d="M477.685 170.504C479.614 171.352 481.619 171.583 483.702 171.198C484.627 170.427 485.09 169.194 485.013 167.961C484.859 166.111 483.856 164.8 482.39 163.952C482.313 163.875 482.313 163.875 482.236 163.798C481.156 163.027 479.845 162.873 478.611 163.105C477.531 163.336 476.605 164.107 476.065 165.109C475.603 167.267 476.297 169.194 477.685 170.504Z" fill="white"/>
<path d="M489.564 267.781C489.564 263.234 485.707 259.534 481.85 257.915C476.76 255.757 470.82 258.146 468.275 262.386C466.27 264.929 465.652 268.321 466.655 271.79C468.275 277.031 474.523 279.267 479.459 279.421C483.702 279.575 486.787 276.414 488.175 272.715C489.178 271.25 489.564 269.477 489.564 267.781Z" fill="#FF5F5F"/>
<path d="M477.685 267.473C479.614 268.321 481.619 268.552 483.702 268.167C484.627 267.396 485.09 266.163 485.013 264.929C484.859 263.079 483.856 261.769 482.39 260.921C482.313 260.844 482.313 260.844 482.236 260.767C481.156 259.996 479.845 259.842 478.611 260.073C477.531 260.304 476.605 261.075 476.065 262.077C475.603 264.236 476.297 266.163 477.685 267.473Z" fill="white"/>
<path d="M489.564 316.266C489.564 311.718 485.707 308.018 481.85 306.399C476.76 304.241 470.82 306.63 468.275 310.87C466.27 313.414 465.652 316.805 466.655 320.274C468.275 325.515 474.523 327.751 479.459 327.905C483.702 328.059 486.787 324.899 488.175 321.199C489.178 319.734 489.564 317.961 489.564 316.266Z" fill="#FF5F5F"/>
<path d="M477.685 315.957C479.614 316.805 481.619 317.036 483.702 316.651C484.627 315.88 485.09 314.647 485.013 313.414C484.859 311.564 483.856 310.253 482.39 309.405C482.313 309.328 482.313 309.328 482.236 309.251C481.156 308.48 479.845 308.326 478.611 308.557C477.531 308.789 476.605 309.559 476.065 310.562C475.603 312.72 476.297 314.724 477.685 315.957Z" fill="white"/>
<path d="M273.283 246.661C273.128 245.659 273.283 244.58 273.668 243.655C242.738 242.73 212.347 237.72 181.571 235.253C167.996 234.559 154.42 233.942 140.922 231.938C134.289 230.936 127.655 230.011 121.022 229.086C117.397 228.855 113.848 228.624 110.223 228.316C105.672 227.93 100.967 227.236 96.2621 226.62C94.7195 226.466 93.2539 226.234 91.7113 226.08C88.3945 225.695 85.0778 225.464 81.8382 225.541C81.3754 225.541 80.9898 225.386 80.6812 225.232C78.83 225.155 76.9788 225.078 75.2048 224.847C75.1277 224.847 75.0505 224.847 74.9734 224.847C69.7283 224.616 64.5604 223.768 59.4696 222.612C51.8335 222.149 44.1973 221.687 36.5611 220.762C24.5283 219.297 12.5727 217.293 0.385666 217.062C0.231399 217.755 0.154266 218.526 0 219.22C6.24778 219.682 12.3413 221.147 18.5891 221.609C25.6853 222.072 32.7044 223.382 39.8007 224.307C53.2219 226.08 66.643 227.236 80.1413 228.47C93.4082 229.626 106.521 231.707 119.711 233.172C129.738 234.251 139.842 235.253 149.793 237.026C163.445 237.257 177.02 238.259 190.442 240.417C217.978 241.574 245.592 244.811 273.283 246.661Z" fill="#6090FC"/>
</svg>
