<svg width="206" height="26" viewBox="0 0 206 26" fill="none" xmlns="http://www.w3.org/2000/svg">
<path d="M0 5.27659V0H19.0154V5.27659C15.8315 5.27659 12.6696 5.27659 9.50769 5.27659C6.32382 5.27659 3.16191 5.27659 0 5.27659ZM0 15.6383V10.3617C2.02011 10.3617 4.06218 10.3617 6.10424 10.3617C8.14631 10.3617 10.1664 10.3617 12.2085 10.3617V15.6383C10.1664 15.6383 8.12435 15.6383 6.10424 15.6383C4.06218 15.6383 2.02011 15.6383 0 15.6383ZM19.0154 26H0V20.7021C3.16191 20.7021 6.32382 20.7021 9.50769 20.7021C12.6696 20.7021 15.8535 20.7021 19.0154 20.7021V26Z" fill="black"/>
<path d="M40.1437 26H36.7821H35.3546H35.1704C35.0553 26 34.9402 25.9787 34.825 25.9574C31.2793 25.6596 28.2861 24.2979 25.8456 21.8511C23.405 19.4043 22.1847 16.5106 22.1847 13.1702C22.1847 13.1064 22.1847 13.0638 22.1847 13C22.1847 12.9362 22.1847 12.8936 22.1847 12.8298C22.1847 9.48937 23.405 6.59575 25.8456 4.14894C28.2861 1.70213 31.2793 0.31915 34.825 0.0212779C34.9402 1.2983e-06 35.0553 0 35.1704 0H35.3546H36.7821H40.1437V5.27659H37.0354H36.1374C35.6309 5.27659 35.1704 5.31915 34.756 5.38298C34.7329 5.38298 34.6869 5.38298 34.6639 5.38298C34.6409 5.38298 34.6178 5.38298 34.5718 5.38298C33.9501 5.51064 33.4206 5.65957 33.0061 5.82979C32.914 5.85106 32.868 5.87234 32.845 5.89361C32.8219 5.91489 32.7759 5.93617 32.7529 5.93617C32.7298 5.93617 32.7068 5.95745 32.6608 5.95745C31.0721 6.65958 29.8748 7.63829 29.069 8.93616C28.2861 10.2128 27.8947 11.617 27.8947 13.1277C27.8947 13.1702 27.8947 13.1915 27.8947 13.234C27.8947 13.2766 27.8947 13.2979 27.8947 13.3192C27.8947 13.3192 27.8947 13.3404 27.8947 13.383C27.8947 13.4255 27.8947 13.4255 27.8947 13.4468C27.8947 13.4681 27.8947 13.4894 27.8947 13.5106C27.8947 13.5106 27.8947 13.5319 27.8947 13.5745C28.0098 15.617 28.8848 17.3192 30.4734 18.6809C32.0851 20.0426 33.9501 20.7447 36.0684 20.7447H36.9663H40.0746V26H40.1437Z" fill="black"/>
<path d="M68.6666 13.0425C68.6666 14.8693 68.3079 16.5474 67.5904 18.1193C66.8729 19.6912 65.8863 21.0506 64.6531 22.1977C63.4199 23.366 61.9625 24.3006 60.3033 24.9804C58.6441 25.6601 56.8728 26 54.9445 26C53.0386 26 51.2449 25.6601 49.6081 24.9804C47.9489 24.3006 46.4915 23.366 45.2359 22.1977C43.9578 21.0082 42.9713 19.6487 42.2762 18.098C41.5587 16.5049 41.2 14.8268 41.2 13.0212C41.2 11.2369 41.5587 9.55882 42.2762 7.98692C42.9713 6.43627 43.9578 5.03431 45.2359 3.82353C46.4915 2.63399 47.9489 1.69934 49.6081 1.01961C51.2449 0.339867 53.0386 0 54.9445 0C56.8952 0 58.6889 0.339867 60.3481 1.01961C62.0074 1.72059 63.4424 2.65523 64.698 3.84477C65.9312 5.01307 66.8953 6.41503 67.6352 8.00817C68.3079 9.55882 68.6666 11.2369 68.6666 13.0425ZM63.0612 13.0425C63.0612 12.384 62.9715 11.7042 62.7697 10.9608C62.5455 10.2173 62.2316 9.51634 61.8056 8.87908C61.3571 8.22058 60.7742 7.60458 60.1015 7.05229C59.384 6.5 58.5544 6.05392 57.5678 5.69281C57.3212 5.60784 57.097 5.56536 56.8728 5.54412C56.7382 5.54412 56.6037 5.52287 56.4692 5.50163C56.3346 5.48039 56.245 5.45915 56.1553 5.43791C56.0656 5.43791 55.8189 5.39542 55.3929 5.31046C54.9893 5.28921 54.8324 5.28921 54.8772 5.28921C54.3167 5.28921 53.7337 5.35294 53.1059 5.50163C52.5005 5.65032 51.8727 5.86274 51.2449 6.16013C50.5723 6.47876 49.9893 6.88235 49.4736 7.32843C48.9355 7.77451 48.4422 8.34804 48.0162 9.02778C47.4781 9.85621 47.1417 10.6634 47.0296 11.4493C46.9848 11.6618 46.9399 11.9379 46.8727 12.2353C46.8502 12.4902 46.8278 12.7663 46.8278 13.0425C46.8278 14.1046 47.052 15.0817 47.478 15.9951C47.8592 16.8872 48.4422 17.7157 49.2269 18.4379C49.9669 19.1601 50.8189 19.7124 51.8055 20.0948C52.792 20.5196 53.8458 20.732 54.9669 20.732C56.0207 20.732 57.0746 20.5196 58.0835 20.116C59.0477 19.7337 59.9221 19.1814 60.6621 18.4804C61.4244 17.7794 62.0074 16.9722 62.4334 16.0588C62.837 15.1454 63.0612 14.1471 63.0612 13.0425Z" fill="black"/>
<path d="M97.1898 26H91.8765V9.42554L84.5349 20.0851L77.1713 9.42554V26H71.8359V0H77.1272L84.4908 10.6808L91.9206 0H97.1898V26Z" fill="black"/>
<path d="M126.769 26H121.456V9.42554L114.114 20.0851L106.751 9.42554V26H101.415V0H106.707L114.07 10.6808L121.5 0H126.769V26Z" fill="black"/>
<path d="M154.236 26H148.82V15.2979H136.476V25.9787H130.995V0H136.476V10.0426H148.755V0H154.236V26Z" fill="black"/>
<path d="M180.646 15.715C180.646 15.8215 180.646 15.9492 180.624 16.0983C180.624 16.2048 180.601 16.3112 180.578 16.3964C180.555 16.4816 180.555 16.5667 180.555 16.6093C180.442 17.3759 180.238 18.1638 179.921 18.973C179.626 19.6757 179.218 20.421 178.719 21.2088C178.288 21.869 177.676 22.5291 176.905 23.2105C176.066 23.8706 175.34 24.3604 174.728 24.6372C174.615 24.7011 174.501 24.7437 174.388 24.7862C174.297 24.8288 174.184 24.8927 174.093 24.9353C173.98 24.9992 173.867 25.0418 173.753 25.0844C173.64 25.1269 173.549 25.1695 173.436 25.2121C172.801 25.4676 172.075 25.6806 171.304 25.8083C170.533 25.9361 169.785 26 169.06 26C168.765 26 168.334 25.9787 167.79 25.9361C167.541 25.9148 167.314 25.8722 167.087 25.8509C166.86 25.8296 166.634 25.7871 166.429 25.7658C165.659 25.5954 164.82 25.3186 163.913 24.914C163.051 24.5307 162.212 23.9984 161.35 23.2957C160.648 22.7207 160.058 22.1032 159.559 21.4218C159.038 20.7404 158.652 20.0803 158.38 19.4201C158.267 19.1859 158.108 18.8026 157.949 18.2916C157.881 18.1851 157.836 18.036 157.791 17.887C157.7 17.6101 157.655 17.4611 157.677 17.4824C157.677 17.4185 157.655 17.3546 157.632 17.2695C157.609 17.1843 157.587 17.0991 157.587 16.9926C157.564 16.9075 157.541 16.801 157.519 16.7158C157.496 16.6306 157.496 16.5242 157.496 16.439C157.496 16.3538 157.473 16.2686 157.451 16.2048C157.428 16.1196 157.428 16.0557 157.428 16.0131C157.428 15.9279 157.405 15.864 157.405 15.7789V0H163.074V15.6511C163.074 15.6724 163.074 15.715 163.096 15.7576C163.096 15.7576 163.119 15.8002 163.119 15.864C163.142 15.9492 163.164 16.0557 163.187 16.1622C163.21 16.2686 163.232 16.3751 163.278 16.5029C163.3 16.6945 163.368 16.8862 163.482 17.1204C164.071 18.4193 164.888 19.3563 165.931 19.9312C166.974 20.4848 167.994 20.7404 168.992 20.7404C169.49 20.7404 170.057 20.6552 170.67 20.5061C171.282 20.3358 171.826 20.1016 172.347 19.7609C172.892 19.3989 173.345 18.973 173.753 18.4832C174.161 17.9935 174.479 17.3759 174.706 16.6519C174.751 16.5029 174.819 16.3325 174.864 16.0983L174.978 15.6298V0.0212953H180.646V15.715Z" fill="black"/>
<path d="M206 18.2829C206 19.0057 205.888 19.7498 205.665 20.4939C205.42 21.3017 205.04 22.0245 204.549 22.7048C204.036 23.4276 203.389 24.0442 202.675 24.5756C201.938 25.1284 201.045 25.511 199.974 25.7662C199.885 25.7874 199.751 25.8087 199.617 25.8299C199.483 25.8512 199.327 25.8937 199.171 25.915C198.903 25.9787 198.702 26 198.613 26H183.815V20.6852H189.417H192.609H196.849H196.961H197.898C198.59 20.6852 199.193 20.4514 199.684 19.9836C200.197 19.5159 200.443 18.942 200.443 18.2617C200.443 17.6026 200.197 17.0286 199.684 16.5397C199.171 16.0507 198.59 15.8169 197.898 15.8169H196.961H196.849H192.609H189.417H183.815V10.1619H189.417H192.609H196.448H197.296H197.898C198.59 10.1619 199.193 9.92805 199.706 9.46034C200.22 8.99264 200.465 8.41865 200.465 7.73835C200.465 7.05806 200.22 6.48406 199.706 5.9951C199.193 5.50614 198.59 5.27228 197.898 5.27228H197.296H196.448H192.609H189.417H183.815V0H198.791C198.947 0 199.104 0.0212566 199.282 0.063775C199.394 0.0850342 199.505 0.127558 199.617 0.148817C199.729 0.170076 199.84 0.212593 199.952 0.233853C200.153 0.318889 200.353 0.382667 200.532 0.446445C200.778 0.510222 200.867 0.53148 200.844 0.53148C200.934 0.573998 201.09 0.637775 201.313 0.722812C201.648 0.892885 201.849 0.99918 201.916 1.02044C202.496 1.31807 203.009 1.67948 203.478 2.06214C203.991 2.52985 204.393 2.97629 204.661 3.40147C204.973 3.82666 205.241 4.31562 205.487 4.86836C205.665 5.35732 205.799 5.82502 205.866 6.31399C205.911 6.5691 205.955 6.84547 205.978 7.16435C206 7.3982 206 7.58953 206 7.75961C206 8.63124 205.844 9.50286 205.509 10.417C205.174 11.3737 204.639 12.2453 203.88 13.0319C203.947 13.0957 203.991 13.1594 204.036 13.202C204.058 13.2445 204.103 13.2657 204.125 13.3083C204.148 13.3508 204.17 13.372 204.192 13.372C204.839 14.0311 205.308 14.8177 205.598 15.7318C205.866 16.6034 206 17.4538 206 18.2829Z" fill="black"/>
</svg>
