<svg width="187" height="24" viewBox="0 0 187 24" fill="none" xmlns="http://www.w3.org/2000/svg">
<path d="M0 4.8707V0H17.2615V4.8707C14.3713 4.8707 11.501 4.8707 8.63077 4.8707C5.74056 4.8707 2.87028 4.8707 0 4.8707ZM0 14.4353V9.56465C1.83379 9.56465 3.68751 9.56465 5.54123 9.56465C7.39495 9.56465 9.22874 9.56465 11.0825 9.56465V14.4353C9.22874 14.4353 7.37502 14.4353 5.54123 14.4353C3.68751 14.4353 1.83379 14.4353 0 14.4353ZM17.2615 24H0V19.1097C2.87028 19.1097 5.74056 19.1097 8.63077 19.1097C11.501 19.1097 14.3913 19.1097 17.2615 19.1097V24Z" fill="black"/>
<path d="M36.4411 24H33.3896H32.0938H31.9266C31.8221 24 31.7175 23.9804 31.613 23.9607C28.3943 23.6858 25.6772 22.4288 23.4618 20.1702C21.2463 17.9116 20.1385 15.2406 20.1385 12.1571C20.1385 12.0982 20.1385 12.0589 20.1385 12C20.1385 11.9411 20.1385 11.9018 20.1385 11.8429C20.1385 8.75942 21.2463 6.08838 23.4618 3.82979C25.6772 1.5712 28.3943 0.2946 31.613 0.0196411C31.7175 1.19843e-06 31.8221 0 31.9266 0H32.0938H33.3896H36.4411V4.8707H33.6195H32.8044C32.3446 4.8707 31.9266 4.90998 31.5503 4.9689C31.5294 4.9689 31.4876 4.9689 31.4667 4.9689C31.4458 4.9689 31.4249 4.9689 31.3831 4.9689C30.8188 5.08674 30.3381 5.22422 29.9619 5.38134C29.8783 5.40098 29.8365 5.42062 29.8156 5.44026C29.7947 5.4599 29.7529 5.47954 29.732 5.47954C29.7111 5.47954 29.6902 5.49918 29.6484 5.49918C28.2062 6.1473 27.1194 7.05073 26.3879 8.24877C25.6772 9.42716 25.3219 10.7234 25.3219 12.1178C25.3219 12.1571 25.3219 12.1768 25.3219 12.216C25.3219 12.2553 25.3219 12.275 25.3219 12.2946C25.3219 12.2946 25.3219 12.3142 25.3219 12.3535C25.3219 12.3928 25.3219 12.3928 25.3219 12.4124C25.3219 12.4321 25.3219 12.4517 25.3219 12.4714C25.3219 12.4714 25.3219 12.491 25.3219 12.5303C25.4264 14.4157 26.2207 15.9869 27.6628 17.2439C29.1259 18.5008 30.8188 19.1489 32.7417 19.1489H33.5568H36.3784V24H36.4411Z" fill="black"/>
<path d="M62.3332 12.0392C62.3332 13.7255 62.0076 15.2745 61.3563 16.7255C60.7049 18.1765 59.8094 19.4314 58.6899 20.4902C57.5705 21.5686 56.2475 22.4314 54.7413 23.0588C53.2351 23.6863 51.6272 24 49.8767 24C48.1467 24 46.5184 23.6863 45.0326 23.0588C43.5264 22.4314 42.2034 21.5686 41.0636 20.4902C39.9034 19.3922 39.0079 18.1373 38.3769 16.7059C37.7256 15.2353 37.3999 13.6863 37.3999 12.0196C37.3999 10.3725 37.7256 8.82352 38.3769 7.37254C39.0079 5.94117 39.9034 4.64706 41.0636 3.52941C42.2034 2.43137 43.5264 1.56862 45.0326 0.941174C46.5184 0.313723 48.1467 0 49.8767 0C51.6475 0 53.2758 0.313723 54.782 0.941174C56.2882 1.58823 57.5908 2.45098 58.7306 3.54902C59.8501 4.62745 60.7253 5.92157 61.397 7.39216C62.0076 8.82353 62.3332 10.3726 62.3332 12.0392ZM57.2448 12.0392C57.2448 11.4314 57.1634 10.8039 56.9802 10.1176C56.7767 9.43137 56.4917 8.78431 56.105 8.19607C55.6979 7.58823 55.1687 7.01961 54.5581 6.5098C53.9068 6 53.1537 5.58823 52.2581 5.2549C52.0342 5.17647 51.8307 5.13726 51.6272 5.11765C51.5051 5.11765 51.3829 5.09804 51.2608 5.07843C51.1387 5.05882 51.0573 5.03922 50.9759 5.01961C50.8944 5.01961 50.6705 4.98039 50.2838 4.90196C49.9175 4.88235 49.775 4.88235 49.8157 4.88235C49.3068 4.88235 48.7776 4.94117 48.2077 5.07843C47.6582 5.21568 47.0883 5.41176 46.5184 5.68627C45.9078 5.98039 45.3786 6.35294 44.9104 6.7647C44.4219 7.17647 43.9742 7.70588 43.5874 8.33333C43.099 9.09804 42.7936 9.84314 42.6919 10.5686C42.6512 10.7647 42.6105 11.0196 42.5494 11.2941C42.529 11.5294 42.5087 11.7843 42.5087 12.0392C42.5087 13.0196 42.7122 13.9216 43.0989 14.7647C43.445 15.5882 43.9742 16.3529 44.6865 17.0196C45.3582 17.6863 46.1317 18.1961 47.0272 18.549C47.9228 18.9412 48.8794 19.1372 49.8971 19.1372C50.8537 19.1372 51.8104 18.9412 52.7263 18.5686C53.6015 18.2157 54.3953 17.7059 55.067 17.0588C55.759 16.4118 56.2882 15.6667 56.6749 14.8235C57.0413 13.9804 57.2448 13.0588 57.2448 12.0392Z" fill="black"/>
<path d="M88.2256 24H83.4024V8.7005L76.7379 18.5401L70.0534 8.7005V24H65.2102V0H70.0134L76.6979 9.85925L83.4424 0H88.2256V24Z" fill="black"/>
<path d="M115.077 24H110.254V8.7005L103.589 18.5401L96.9048 8.7005V24H92.0615V0H96.8647L103.549 9.85925L110.294 0H115.077V24Z" fill="black"/>
<path d="M140.01 24H135.094V14.1211H123.889V23.9804H118.913V0H123.889V9.27005H135.034V0H140.01V24Z" fill="black"/>
<path d="M163.985 14.5061C163.985 14.6044 163.985 14.7224 163.964 14.86C163.964 14.9582 163.943 15.0565 163.923 15.1351C163.902 15.2138 163.902 15.2924 163.902 15.3317C163.799 16.0393 163.614 16.7666 163.326 17.5135C163.058 18.1622 162.688 18.8501 162.235 19.5774C161.844 20.1867 161.288 20.7961 160.588 21.4251C159.827 22.0344 159.168 22.4865 158.613 22.742C158.51 22.801 158.407 22.8403 158.304 22.8796C158.221 22.9189 158.119 22.9779 158.036 23.0172C157.933 23.0762 157.83 23.1155 157.727 23.1548C157.625 23.1941 157.542 23.2334 157.439 23.2727C156.863 23.5086 156.204 23.7052 155.504 23.8231C154.805 23.941 154.125 24 153.467 24C153.199 24 152.808 23.9803 152.314 23.941C152.088 23.9214 151.882 23.8821 151.676 23.8624C151.47 23.8428 151.264 23.8034 151.079 23.7838C150.379 23.6265 149.618 23.371 148.794 22.9975C148.012 22.6437 147.251 22.1523 146.469 21.5037C145.831 20.973 145.295 20.4029 144.843 19.774C144.369 19.145 144.019 18.5356 143.772 17.9263C143.669 17.7101 143.525 17.3563 143.381 16.8845C143.319 16.7862 143.278 16.6486 143.237 16.511C143.155 16.2555 143.114 16.1179 143.134 16.1376C143.134 16.0786 143.114 16.0197 143.093 15.941C143.072 15.8624 143.052 15.7838 143.052 15.6855C143.031 15.6069 143.011 15.5086 142.99 15.43C142.97 15.3513 142.97 15.2531 142.97 15.1744C142.97 15.0958 142.949 15.0172 142.928 14.9582C142.908 14.8796 142.908 14.8206 142.908 14.7813C142.908 14.7027 142.887 14.6437 142.887 14.5651V0H148.033V14.4472C148.033 14.4668 148.033 14.5061 148.053 14.5454C148.053 14.5454 148.074 14.5848 148.074 14.6437C148.095 14.7224 148.115 14.8206 148.136 14.9189C148.156 15.0172 148.177 15.1155 148.218 15.2334C148.239 15.4103 148.3 15.5872 148.403 15.8034C148.939 17.0025 149.68 17.8673 150.626 18.398C151.573 18.9091 152.499 19.145 153.405 19.145C153.858 19.145 154.372 19.0663 154.928 18.9287C155.484 18.7715 155.978 18.5553 156.451 18.2408C156.945 17.9066 157.357 17.5135 157.727 17.0614C158.098 16.6093 158.386 16.0393 158.592 15.371C158.633 15.2334 158.695 15.0762 158.736 14.86L158.839 14.4275V0.0196572H163.985V14.5061Z" fill="black"/>
<path d="M187 16.8765C187 17.5437 186.899 18.2306 186.696 18.9174C186.473 19.6631 186.129 20.3303 185.683 20.9583C185.217 21.6255 184.63 22.1946 183.981 22.6852C183.313 23.1954 182.502 23.5487 181.53 23.7841C181.449 23.8038 181.327 23.8234 181.206 23.843C181.084 23.8626 180.942 23.9019 180.8 23.9215C180.557 23.9804 180.375 24 180.294 24H166.862V19.094H171.947H174.844H178.693H178.795H179.646C180.274 19.094 180.821 18.8782 181.266 18.4464C181.732 18.0147 181.955 17.4849 181.955 16.8569C181.955 16.2486 181.732 15.7187 181.266 15.2674C180.8 14.816 180.274 14.6002 179.646 14.6002H178.795H178.693H174.844H171.947H166.862V9.38021H171.947H174.844H178.329H179.099H179.646C180.274 9.38021 180.821 9.16435 181.287 8.73263C181.753 8.3009 181.976 7.77106 181.976 7.1431C181.976 6.51513 181.753 5.98528 181.287 5.53394C180.821 5.08259 180.274 4.86672 179.646 4.86672H179.099H178.329H174.844H171.947H166.862V0H180.456C180.598 0 180.74 0.0196215 180.902 0.0588692C181.003 0.0784931 181.104 0.117746 181.206 0.13737C181.307 0.156993 181.408 0.19624 181.51 0.215864C181.692 0.294359 181.874 0.353231 182.036 0.412103C182.259 0.470974 182.34 0.490597 182.32 0.490597C182.401 0.529845 182.543 0.588715 182.745 0.667211C183.049 0.824202 183.232 0.92232 183.292 0.941944C183.819 1.21668 184.285 1.55029 184.711 1.90352C185.177 2.33524 185.541 2.74734 185.784 3.13982C186.068 3.5323 186.311 3.98365 186.534 4.49387C186.696 4.94522 186.818 5.37694 186.878 5.82829C186.919 6.06378 186.96 6.31889 186.98 6.61325C187 6.82911 187 7.00572 187 7.16271C187 7.96729 186.858 8.77187 186.554 9.6157C186.25 10.4988 185.764 11.3034 185.075 12.0294C185.136 12.0883 185.177 12.1472 185.217 12.1864C185.237 12.2257 185.278 12.2453 185.298 12.2845C185.318 12.3238 185.339 12.3434 185.359 12.3434C185.947 12.9518 186.372 13.6778 186.635 14.5217C186.878 15.3262 187 16.1112 187 16.8765Z" fill="black"/>
</svg>
