<svg width="463" height="390" viewBox="0 0 463 390" fill="none" xmlns="http://www.w3.org/2000/svg">
<path d="M456.275 193.484L456.274 193.493L456.274 193.503C454.952 229.692 454.732 265.651 454.512 301.99L454.512 302.015L454.512 302.04C454.601 312.886 455.294 324.137 455.988 335.397C456.161 338.206 456.334 341.017 456.498 343.822C457.254 356.774 457.816 369.667 457.317 382.179C424.07 381.808 390.83 382.263 357.795 383.544L357.786 383.544C343.764 384.122 329.307 383.764 314.577 383.399C309.811 383.281 305.017 383.162 300.2 383.074C280.709 382.717 260.954 382.871 241.839 385.731C233.373 385.296 224.95 384.86 216.319 384.212L216.303 384.211L216.288 384.21C184.399 382.101 152.293 383.088 120.385 384.069C117.091 384.17 113.799 384.271 110.51 384.369C76.2855 385.386 42.302 386.028 8.67214 382.556C5.47077 321.929 3.59096 261.777 5.53403 201.015C6.63783 168.401 5.80923 135.808 4.90218 103.326C4.86181 101.881 4.82129 100.435 4.78077 98.9898C3.94043 69.0165 3.10285 39.1417 3.7041 9.27988C81.148 5.40783 159.754 2.87528 236.404 5.26059L236.407 5.26068C282.182 6.64566 327.986 5.6816 373.708 4.71928C399.564 4.17506 425.394 3.6314 451.178 3.51348C451.088 25.4476 453.288 47.2628 455.465 68.8407C455.97 73.8469 456.474 78.8403 456.947 83.8195L456.948 83.8234C459.915 114.652 458.468 145.786 457.017 176.989C456.762 182.486 456.506 187.984 456.275 193.484Z" fill="white" stroke="#88A7FF" stroke-width="7"/>
<path d="M402.669 57.2746C408.266 52.1871 414.114 47.395 419.698 42.4888C421.163 41.2454 422.378 39.7067 423.662 38.4478C421.139 35.6755 418.715 32.8203 416.192 30.048C404.872 39.482 394.195 48.8799 383.544 59.1016C386.053 62.0553 388.659 64.926 391.167 67.8797C393.219 66.139 395.354 64.4967 397.406 62.756C399.109 60.8028 400.799 59.0309 402.669 57.2746Z" fill="#335FFF"/>
<path d="M412.214 50.1493C407.112 44.5353 402.301 38.6739 397.379 33.0754C396.131 31.6062 394.591 30.3844 393.33 29.0956C390.594 31.5851 387.775 33.9766 385.039 36.4662C394.508 47.8126 403.937 58.5199 414.184 69.2066C417.1 66.7325 419.933 64.1606 422.849 61.6865C421.102 59.6296 419.452 57.4903 417.705 55.4334C415.847 53.6393 413.892 51.9278 412.214 50.1493Z" fill="#335FFF"/>
</svg>
