<svg width="528" height="330" viewBox="0 0 528 330" fill="none" xmlns="http://www.w3.org/2000/svg">
<rect x="1.5" y="122.5" width="514" height="117" stroke="#335FFF" stroke-width="3"/>
<path d="M238.539 109.12L187.332 0H527.161L475.954 109.12H238.539Z" fill="#BBD0FF"/>
<path d="M313 45H310.354V34.3389H305.23V45H302.594V32.2031H313V45ZM323.714 40.333C323.714 41.7979 323.38 42.9727 322.712 43.8574C322.05 44.7363 321.153 45.1758 320.022 45.1758C319.062 45.1758 318.285 44.8418 317.693 44.1738V48.6562H315.153V35.4902H317.509L317.597 36.4219C318.212 35.6836 319.015 35.3145 320.005 35.3145C321.177 35.3145 322.088 35.748 322.738 36.6152C323.389 37.4824 323.714 38.6777 323.714 40.2012V40.333ZM321.174 40.1484C321.174 39.2637 321.016 38.5811 320.699 38.1006C320.389 37.6201 319.935 37.3799 319.337 37.3799C318.54 37.3799 317.992 37.6846 317.693 38.2939V42.1875C318.004 42.8145 318.558 43.1279 319.354 43.1279C320.567 43.1279 321.174 42.1348 321.174 40.1484ZM331.026 35.4902H333.566V45H331.026V39.1289L327.845 45H325.296V35.4902H327.845V41.3525L331.026 35.4902ZM335.676 45V35.4902H339.648C340.943 35.4902 341.937 35.7188 342.628 36.1758C343.319 36.6328 343.665 37.2891 343.665 38.1445C343.665 38.584 343.519 38.9795 343.226 39.3311C342.938 39.6768 342.517 39.9434 341.96 40.1309C342.64 40.2598 343.173 40.5146 343.56 40.8955C343.952 41.2705 344.148 41.7334 344.148 42.2842C344.148 43.1689 343.814 43.8428 343.146 44.3057C342.484 44.7686 341.521 45 340.255 45H335.676ZM338.216 41.0537V42.9697H340.264C341.16 42.9697 341.608 42.6562 341.608 42.0293C341.608 41.3906 341.181 41.0654 340.325 41.0537H338.216ZM338.216 39.3486H339.789C340.68 39.3369 341.125 39.0498 341.125 38.4873C341.125 38.1416 341.002 37.8955 340.756 37.749C340.516 37.6025 340.146 37.5293 339.648 37.5293H338.216V39.3486ZM353.975 35.4902V45H351.435V37.5469H349.193L349.035 40.4824C348.936 42.0469 348.628 43.1865 348.112 43.9014C347.597 44.6162 346.829 44.9824 345.81 45H344.948L344.922 42.9346L345.238 42.9082C345.695 42.873 346.029 42.6035 346.24 42.0996C346.451 41.5957 346.583 40.7373 346.636 39.5244L346.812 35.4902H353.975ZM360.312 45.1758C358.917 45.1758 357.78 44.748 356.901 43.8926C356.028 43.0371 355.592 41.8975 355.592 40.4736V40.2275C355.592 39.2725 355.776 38.4199 356.146 37.6699C356.515 36.9141 357.036 36.334 357.71 35.9297C358.39 35.5195 359.163 35.3145 360.03 35.3145C361.331 35.3145 362.354 35.7246 363.098 36.5449C363.848 37.3652 364.223 38.5283 364.223 40.0342V41.0713H358.167C358.249 41.6924 358.495 42.1904 358.905 42.5654C359.321 42.9404 359.846 43.1279 360.479 43.1279C361.457 43.1279 362.222 42.7734 362.772 42.0645L364.021 43.4619C363.64 44.001 363.124 44.4229 362.474 44.7275C361.823 45.0264 361.103 45.1758 360.312 45.1758ZM360.021 37.3711C359.518 37.3711 359.107 37.541 358.791 37.8809C358.48 38.2207 358.281 38.707 358.193 39.3398H361.727V39.1377C361.715 38.5752 361.562 38.1416 361.27 37.8369C360.977 37.5264 360.561 37.3711 360.021 37.3711ZM373.688 45H371.148V42.0117C370.674 42.0996 370.231 42.1436 369.821 42.1436C368.386 42.1436 367.305 41.8389 366.578 41.2295C365.852 40.6201 365.482 39.7295 365.471 38.5576V35.4902H368.011V38.5576C368.017 39.1084 368.151 39.5039 368.415 39.7441C368.679 39.9785 369.147 40.0957 369.821 40.0957C370.243 40.0957 370.686 40.0459 371.148 39.9463V35.4902H373.688V45ZM380.017 45.1758C378.622 45.1758 377.485 44.748 376.606 43.8926C375.733 43.0371 375.297 41.8975 375.297 40.4736V40.2275C375.297 39.2725 375.481 38.4199 375.851 37.6699C376.22 36.9141 376.741 36.334 377.415 35.9297C378.095 35.5195 378.868 35.3145 379.735 35.3145C381.036 35.3145 382.059 35.7246 382.803 36.5449C383.553 37.3652 383.928 38.5283 383.928 40.0342V41.0713H377.872C377.954 41.6924 378.2 42.1904 378.61 42.5654C379.026 42.9404 379.551 43.1279 380.184 43.1279C381.162 43.1279 381.927 42.7734 382.478 42.0645L383.726 43.4619C383.345 44.001 382.829 44.4229 382.179 44.7275C381.528 45.0264 380.808 45.1758 380.017 45.1758ZM379.727 37.3711C379.223 37.3711 378.812 37.541 378.496 37.8809C378.186 38.2207 377.986 38.707 377.898 39.3398H381.432V39.1377C381.42 38.5752 381.268 38.1416 380.975 37.8369C380.682 37.5264 380.266 37.3711 379.727 37.3711ZM393.622 45H391.073V41.3438H387.918V45H385.378V35.4902H387.918V39.3047H391.073V35.4902H393.622V45ZM401.321 35.4902H403.861V45H401.321V39.1289L398.14 45H395.591V35.4902H398.14V41.3525L401.321 35.4902ZM410.181 45.1758C408.786 45.1758 407.649 44.748 406.771 43.8926C405.897 43.0371 405.461 41.8975 405.461 40.4736V40.2275C405.461 39.2725 405.646 38.4199 406.015 37.6699C406.384 36.9141 406.905 36.334 407.579 35.9297C408.259 35.5195 409.032 35.3145 409.899 35.3145C411.2 35.3145 412.223 35.7246 412.967 36.5449C413.717 37.3652 414.092 38.5283 414.092 40.0342V41.0713H408.036C408.118 41.6924 408.364 42.1904 408.774 42.5654C409.19 42.9404 409.715 43.1279 410.348 43.1279C411.326 43.1279 412.091 42.7734 412.642 42.0645L413.89 43.4619C413.509 44.001 412.993 44.4229 412.343 44.7275C411.692 45.0264 410.972 45.1758 410.181 45.1758ZM409.891 37.3711C409.387 37.3711 408.977 37.541 408.66 37.8809C408.35 38.2207 408.15 38.707 408.062 39.3398H411.596V39.1377C411.584 38.5752 411.432 38.1416 411.139 37.8369C410.846 37.5264 410.43 37.3711 409.891 37.3711ZM303.147 66H300.599V58.5469H297.417V66H294.877V56.4902H303.147V66ZM304.694 61.1572C304.694 60.2139 304.876 59.373 305.239 58.6348C305.603 57.8965 306.124 57.3252 306.804 56.9209C307.489 56.5166 308.283 56.3145 309.186 56.3145C310.469 56.3145 311.515 56.707 312.323 57.4922C313.138 58.2773 313.592 59.3438 313.686 60.6914L313.703 61.3418C313.703 62.8008 313.296 63.9727 312.481 64.8574C311.667 65.7363 310.574 66.1758 309.203 66.1758C307.832 66.1758 306.736 65.7363 305.916 64.8574C305.102 63.9785 304.694 62.7832 304.694 61.2715V61.1572ZM307.234 61.3418C307.234 62.2441 307.404 62.9355 307.744 63.416C308.084 63.8906 308.57 64.1279 309.203 64.1279C309.818 64.1279 310.299 63.8936 310.645 63.4248C310.99 62.9502 311.163 62.1943 311.163 61.1572C311.163 60.2725 310.99 59.5869 310.645 59.1006C310.299 58.6143 309.812 58.3711 309.186 58.3711C308.564 58.3711 308.084 58.6143 307.744 59.1006C307.404 59.5811 307.234 60.3281 307.234 61.3418ZM323.397 56.4902V66H320.857V58.5469H318.616L318.458 61.4824C318.358 63.0469 318.051 64.1865 317.535 64.9014C317.02 65.6162 316.252 65.9824 315.232 66H314.371L314.345 63.9346L314.661 63.9082C315.118 63.873 315.452 63.6035 315.663 63.0996C315.874 62.5957 316.006 61.7373 316.059 60.5244L316.234 56.4902H323.397ZM328.073 59.2764H329.893C330.713 59.2764 331.434 59.4141 332.055 59.6895C332.676 59.9648 333.15 60.3604 333.479 60.876C333.812 61.3857 333.979 61.9805 333.979 62.6602C333.979 63.6621 333.607 64.4707 332.863 65.0859C332.125 65.6953 331.117 66 329.84 66H325.524V56.4902H328.073V59.2764ZM328.073 61.3154V63.9697H329.875C330.379 63.9697 330.766 63.8525 331.035 63.6182C331.305 63.3838 331.439 63.0645 331.439 62.6602C331.439 62.25 331.308 61.9248 331.044 61.6846C330.78 61.4385 330.391 61.3154 329.875 61.3154H328.073ZM340.404 59.2939C340.404 58.96 340.293 58.7021 340.07 58.5205C339.854 58.333 339.543 58.2393 339.139 58.2393C338.723 58.2393 338.383 58.3271 338.119 58.5029C337.861 58.6729 337.732 58.916 337.732 59.2324H335.192C335.192 58.3711 335.55 57.6709 336.265 57.1318C336.979 56.5928 337.894 56.3232 339.007 56.3232C340.231 56.3232 341.192 56.5635 341.89 57.0439C342.593 57.5244 342.944 58.207 342.944 59.0918C342.944 59.5137 342.815 59.9033 342.558 60.2607C342.306 60.6123 341.948 60.8936 341.485 61.1045C342.569 61.4854 343.111 62.2207 343.111 63.3105C343.111 64.1836 342.736 64.8809 341.986 65.4023C341.242 65.918 340.249 66.1758 339.007 66.1758C337.853 66.1758 336.903 65.9062 336.159 65.3672C335.415 64.8281 335.043 64.1016 335.043 63.1875H337.583C337.583 63.5098 337.727 63.7705 338.014 63.9697C338.301 64.1689 338.676 64.2686 339.139 64.2686C339.59 64.2686 339.941 64.1631 340.193 63.9521C340.445 63.7412 340.571 63.4658 340.571 63.126C340.571 62.71 340.451 62.4141 340.211 62.2383C339.971 62.0566 339.61 61.9658 339.13 61.9658H337.75V60.3135H339.218C340.009 60.29 340.404 59.9502 340.404 59.2939ZM344.263 61.1572C344.263 60.2139 344.444 59.373 344.808 58.6348C345.171 57.8965 345.692 57.3252 346.372 56.9209C347.058 56.5166 347.852 56.3145 348.754 56.3145C350.037 56.3145 351.083 56.707 351.892 57.4922C352.706 58.2773 353.16 59.3438 353.254 60.6914L353.271 61.3418C353.271 62.8008 352.864 63.9727 352.05 64.8574C351.235 65.7363 350.143 66.1758 348.771 66.1758C347.4 66.1758 346.305 65.7363 345.484 64.8574C344.67 63.9785 344.263 62.7832 344.263 61.2715V61.1572ZM346.803 61.3418C346.803 62.2441 346.973 62.9355 347.312 63.416C347.652 63.8906 348.139 64.1279 348.771 64.1279C349.387 64.1279 349.867 63.8936 350.213 63.4248C350.559 62.9502 350.731 62.1943 350.731 61.1572C350.731 60.2725 350.559 59.5869 350.213 59.1006C349.867 58.6143 349.381 58.3711 348.754 58.3711C348.133 58.3711 347.652 58.6143 347.312 59.1006C346.973 59.5811 346.803 60.3281 346.803 61.3418ZM355.003 66V56.4902H358.976C360.271 56.4902 361.264 56.7188 361.955 57.1758C362.646 57.6328 362.992 58.2891 362.992 59.1445C362.992 59.584 362.846 59.9795 362.553 60.3311C362.266 60.6768 361.844 60.9434 361.287 61.1309C361.967 61.2598 362.5 61.5146 362.887 61.8955C363.279 62.2705 363.476 62.7334 363.476 63.2842C363.476 64.1689 363.142 64.8428 362.474 65.3057C361.812 65.7686 360.848 66 359.582 66H355.003ZM357.543 62.0537V63.9697H359.591C360.487 63.9697 360.936 63.6562 360.936 63.0293C360.936 62.3906 360.508 62.0654 359.652 62.0537H357.543ZM357.543 60.3486H359.116C360.007 60.3369 360.452 60.0498 360.452 59.4873C360.452 59.1416 360.329 58.8955 360.083 58.749C359.843 58.6025 359.474 58.5293 358.976 58.5293H357.543V60.3486ZM370.542 66C370.425 65.7715 370.34 65.4873 370.287 65.1475C369.672 65.833 368.872 66.1758 367.888 66.1758C366.956 66.1758 366.183 65.9062 365.567 65.3672C364.958 64.8281 364.653 64.1484 364.653 63.3281C364.653 62.3203 365.025 61.5469 365.77 61.0078C366.52 60.4688 367.601 60.1963 369.013 60.1904H370.182V59.6455C370.182 59.2061 370.067 58.8545 369.839 58.5908C369.616 58.3271 369.262 58.1953 368.775 58.1953C368.348 58.1953 368.011 58.2979 367.765 58.5029C367.524 58.708 367.404 58.9893 367.404 59.3467H364.864C364.864 58.7959 365.034 58.2861 365.374 57.8174C365.714 57.3486 366.194 56.9824 366.815 56.7188C367.437 56.4492 368.134 56.3145 368.907 56.3145C370.079 56.3145 371.008 56.6104 371.693 57.2021C372.385 57.7881 372.73 58.6143 372.73 59.6807V63.8027C372.736 64.7051 372.862 65.3877 373.108 65.8506V66H370.542ZM368.441 64.2334C368.816 64.2334 369.162 64.1514 369.479 63.9873C369.795 63.8174 370.029 63.5918 370.182 63.3105V61.6758H369.232C367.961 61.6758 367.284 62.1152 367.202 62.9941L367.193 63.1436C367.193 63.46 367.305 63.7207 367.527 63.9258C367.75 64.1309 368.055 64.2334 368.441 64.2334ZM382.434 58.5293H379.384V66H376.835V58.5293H373.838V56.4902H382.434V58.5293ZM387.531 66.1758C386.137 66.1758 385 65.748 384.121 64.8926C383.248 64.0371 382.812 62.8975 382.812 61.4736V61.2275C382.812 60.2725 382.996 59.4199 383.365 58.6699C383.734 57.9141 384.256 57.334 384.93 56.9297C385.609 56.5195 386.383 56.3145 387.25 56.3145C388.551 56.3145 389.573 56.7246 390.317 57.5449C391.067 58.3652 391.442 59.5283 391.442 61.0342V62.0713H385.387C385.469 62.6924 385.715 63.1904 386.125 63.5654C386.541 63.9404 387.065 64.1279 387.698 64.1279C388.677 64.1279 389.441 63.7734 389.992 63.0645L391.24 64.4619C390.859 65.001 390.344 65.4229 389.693 65.7275C389.043 66.0264 388.322 66.1758 387.531 66.1758ZM387.241 58.3711C386.737 58.3711 386.327 58.541 386.011 58.8809C385.7 59.2207 385.501 59.707 385.413 60.3398H388.946V60.1377C388.935 59.5752 388.782 59.1416 388.489 58.8369C388.196 58.5264 387.78 58.3711 387.241 58.3711ZM401.163 56.4902V66H398.623V58.5469H396.382L396.224 61.4824C396.124 63.0469 395.816 64.1865 395.301 64.9014C394.785 65.6162 394.018 65.9824 392.998 66H392.137L392.11 63.9346L392.427 63.9082C392.884 63.873 393.218 63.6035 393.429 63.0996C393.64 62.5957 393.771 61.7373 393.824 60.5244L394 56.4902H401.163ZM407.5 66.1758C406.105 66.1758 404.969 65.748 404.09 64.8926C403.217 64.0371 402.78 62.8975 402.78 61.4736V61.2275C402.78 60.2725 402.965 59.4199 403.334 58.6699C403.703 57.9141 404.225 57.334 404.898 56.9297C405.578 56.5195 406.352 56.3145 407.219 56.3145C408.52 56.3145 409.542 56.7246 410.286 57.5449C411.036 58.3652 411.411 59.5283 411.411 61.0342V62.0713H405.355C405.438 62.6924 405.684 63.1904 406.094 63.5654C406.51 63.9404 407.034 64.1279 407.667 64.1279C408.646 64.1279 409.41 63.7734 409.961 63.0645L411.209 64.4619C410.828 65.001 410.312 65.4229 409.662 65.7275C409.012 66.0264 408.291 66.1758 407.5 66.1758ZM407.21 58.3711C406.706 58.3711 406.296 58.541 405.979 58.8809C405.669 59.2207 405.47 59.707 405.382 60.3398H408.915V60.1377C408.903 59.5752 408.751 59.1416 408.458 58.8369C408.165 58.5264 407.749 58.3711 407.21 58.3711ZM418.592 56.4902H421.132V66H418.592V60.1289L415.41 66H412.861V56.4902H415.41V62.3525L418.592 56.4902ZM420.086 52.6318C420.086 53.4111 419.805 54.041 419.242 54.5215C418.686 55.002 417.953 55.2422 417.045 55.2422C416.137 55.2422 415.401 55.0049 414.839 54.5303C414.282 54.0557 414.004 53.4229 414.004 52.6318H415.806C415.806 53.001 415.914 53.2881 416.131 53.4932C416.354 53.6924 416.658 53.792 417.045 53.792C417.426 53.792 417.725 53.6924 417.941 53.4932C418.158 53.2881 418.267 53.001 418.267 52.6318H420.086Z" fill="#335FFF"/>
<path d="M56.6738 46.9961H52.6836V58H50.4775V46.9961H46.5225V45.2031H56.6738V46.9961ZM62.3604 58C62.2666 57.8184 62.1846 57.5225 62.1143 57.1123C61.4346 57.8213 60.6025 58.1758 59.6182 58.1758C58.6631 58.1758 57.8838 57.9033 57.2803 57.3584C56.6768 56.8135 56.375 56.1396 56.375 55.3369C56.375 54.3232 56.75 53.5469 57.5 53.0078C58.2559 52.4629 59.334 52.1904 60.7344 52.1904H62.0439V51.5664C62.0439 51.0742 61.9062 50.6816 61.6309 50.3887C61.3555 50.0898 60.9365 49.9404 60.374 49.9404C59.8877 49.9404 59.4893 50.0635 59.1787 50.3096C58.8682 50.5498 58.7129 50.8574 58.7129 51.2324H56.5771C56.5771 50.7109 56.75 50.2246 57.0957 49.7734C57.4414 49.3164 57.9102 48.959 58.502 48.7012C59.0996 48.4434 59.7646 48.3145 60.4971 48.3145C61.6104 48.3145 62.498 48.5957 63.1602 49.1582C63.8223 49.7148 64.1621 50.5 64.1797 51.5137V55.8027C64.1797 56.6582 64.2998 57.3408 64.54 57.8506V58H62.3604ZM60.0137 56.4619C60.4355 56.4619 60.8311 56.3594 61.2002 56.1543C61.5752 55.9492 61.8564 55.6738 62.0439 55.3281V53.5352H60.8926C60.1016 53.5352 59.5068 53.6729 59.1084 53.9482C58.71 54.2236 58.5107 54.6133 58.5107 55.1172C58.5107 55.5273 58.6455 55.8555 58.915 56.1016C59.1904 56.3418 59.5566 56.4619 60.0137 56.4619ZM74.7441 53.3418C74.7441 54.8125 74.4102 55.9873 73.7422 56.8662C73.0742 57.7393 72.1777 58.1758 71.0527 58.1758C70.0098 58.1758 69.1748 57.833 68.5479 57.1475V61.6562H66.4121V48.4902H68.3809L68.4688 49.457C69.0957 48.6953 69.9482 48.3145 71.0264 48.3145C72.1865 48.3145 73.0947 48.748 73.751 49.6152C74.4131 50.4766 74.7441 51.6748 74.7441 53.21V53.3418ZM72.6172 53.1572C72.6172 52.208 72.4268 51.4551 72.0459 50.8984C71.6709 50.3418 71.1318 50.0635 70.4287 50.0635C69.5557 50.0635 68.9287 50.4238 68.5479 51.1445V55.3633C68.9346 56.1016 69.5674 56.4707 70.4463 56.4707C71.126 56.4707 71.6562 56.1982 72.0371 55.6533C72.4238 55.1025 72.6172 54.2705 72.6172 53.1572ZM82.8916 50.2129H78.7607V58H76.6338V48.4902H82.8916V50.2129ZM88.1123 58.1758C86.7588 58.1758 85.6602 57.751 84.8164 56.9014C83.9785 56.0459 83.5596 54.9092 83.5596 53.4912V53.2275C83.5596 52.2783 83.7412 51.4316 84.1045 50.6875C84.4736 49.9375 84.9893 49.3545 85.6514 48.9385C86.3135 48.5225 87.0518 48.3145 87.8662 48.3145C89.1611 48.3145 90.1602 48.7275 90.8633 49.5537C91.5723 50.3799 91.9268 51.5488 91.9268 53.0605V53.9219H85.7129C85.7773 54.707 86.0381 55.3281 86.4951 55.7852C86.958 56.2422 87.5381 56.4707 88.2354 56.4707C89.2139 56.4707 90.0107 56.0752 90.626 55.2842L91.7773 56.3828C91.3965 56.9512 90.8867 57.3936 90.248 57.71C89.6152 58.0205 88.9033 58.1758 88.1123 58.1758ZM87.8574 50.0283C87.2715 50.0283 86.7969 50.2334 86.4336 50.6436C86.0762 51.0537 85.8477 51.625 85.748 52.3574H89.8174V52.1992C89.7705 51.4844 89.5801 50.9453 89.2461 50.582C88.9121 50.2129 88.4492 50.0283 87.8574 50.0283ZM100.971 50.1865H97.8857V58H95.75V50.1865H92.7002V48.4902H100.971V50.1865ZM108.336 48.4902H110.463V58H108.336V51.6543L104.609 58H102.482V48.4902H104.609V54.8359L108.336 48.4902ZM120.79 58H118.654V54.1592H114.954V58H112.818V48.4902H114.954V52.4541H118.654V48.4902H120.79V58ZM129.403 50.2129H125.272V58H123.146V48.4902H129.403V50.2129ZM41.6621 74.3418C41.6621 75.8125 41.3281 76.9873 40.6602 77.8662C39.9922 78.7393 39.0957 79.1758 37.9707 79.1758C36.9277 79.1758 36.0928 78.833 35.4658 78.1475V82.6562H33.3301V69.4902H35.2988L35.3867 70.457C36.0137 69.6953 36.8662 69.3145 37.9443 69.3145C39.1045 69.3145 40.0127 69.748 40.6689 70.6152C41.3311 71.4766 41.6621 72.6748 41.6621 74.21V74.3418ZM39.5352 74.1572C39.5352 73.208 39.3447 72.4551 38.9639 71.8984C38.5889 71.3418 38.0498 71.0635 37.3467 71.0635C36.4736 71.0635 35.8467 71.4238 35.4658 72.1445V76.3633C35.8525 77.1016 36.4854 77.4707 37.3643 77.4707C38.0439 77.4707 38.5742 77.1982 38.9551 76.6533C39.3418 76.1025 39.5352 75.2705 39.5352 74.1572ZM47.665 79.1758C46.3115 79.1758 45.2129 78.751 44.3691 77.9014C43.5312 77.0459 43.1123 75.9092 43.1123 74.4912V74.2275C43.1123 73.2783 43.2939 72.4316 43.6572 71.6875C44.0264 70.9375 44.542 70.3545 45.2041 69.9385C45.8662 69.5225 46.6045 69.3145 47.4189 69.3145C48.7139 69.3145 49.7129 69.7275 50.416 70.5537C51.125 71.3799 51.4795 72.5488 51.4795 74.0605V74.9219H45.2656C45.3301 75.707 45.5908 76.3281 46.0479 76.7852C46.5107 77.2422 47.0908 77.4707 47.7881 77.4707C48.7666 77.4707 49.5635 77.0752 50.1787 76.2842L51.3301 77.3828C50.9492 77.9512 50.4395 78.3936 49.8008 78.71C49.168 79.0205 48.4561 79.1758 47.665 79.1758ZM47.4102 71.0283C46.8242 71.0283 46.3496 71.2334 45.9863 71.6436C45.6289 72.0537 45.4004 72.625 45.3008 73.3574H49.3701V73.1992C49.3232 72.4844 49.1328 71.9453 48.7988 71.582C48.4648 71.2129 48.002 71.0283 47.4102 71.0283ZM56.5244 75.2383H55.4434V79H53.3076V69.4902H55.4434V73.2871H56.3838L59.0117 69.4902H61.6484L58.2119 74.043L61.9385 79H59.1611L56.5244 75.2383ZM71.1934 69.4902V79H69.0576V71.2129H66.3682L66.1924 74.5264C66.0811 76.1201 65.7734 77.2656 65.2695 77.9629C64.7715 78.6543 64.0068 79 62.9756 79H62.3164L62.3076 77.2246L62.7471 77.1807C63.2158 77.1162 63.5557 76.832 63.7666 76.3281C63.9834 75.8184 64.1211 74.8926 64.1797 73.5508L64.3555 69.4902H71.1934ZM79.1475 79C79.0537 78.8184 78.9717 78.5225 78.9014 78.1123C78.2217 78.8213 77.3896 79.1758 76.4053 79.1758C75.4502 79.1758 74.6709 78.9033 74.0674 78.3584C73.4639 77.8135 73.1621 77.1396 73.1621 76.3369C73.1621 75.3232 73.5371 74.5469 74.2871 74.0078C75.043 73.4629 76.1211 73.1904 77.5215 73.1904H78.8311V72.5664C78.8311 72.0742 78.6934 71.6816 78.418 71.3887C78.1426 71.0898 77.7236 70.9404 77.1611 70.9404C76.6748 70.9404 76.2764 71.0635 75.9658 71.3096C75.6553 71.5498 75.5 71.8574 75.5 72.2324H73.3643C73.3643 71.7109 73.5371 71.2246 73.8828 70.7734C74.2285 70.3164 74.6973 69.959 75.2891 69.7012C75.8867 69.4434 76.5518 69.3145 77.2842 69.3145C78.3975 69.3145 79.2852 69.5957 79.9473 70.1582C80.6094 70.7148 80.9492 71.5 80.9668 72.5137V76.8027C80.9668 77.6582 81.0869 78.3408 81.3271 78.8506V79H79.1475ZM76.8008 77.4619C77.2227 77.4619 77.6182 77.3594 77.9873 77.1543C78.3623 76.9492 78.6436 76.6738 78.8311 76.3281V74.5352H77.6797C76.8887 74.5352 76.2939 74.6729 75.8955 74.9482C75.4971 75.2236 75.2979 75.6133 75.2979 76.1172C75.2979 76.5273 75.4326 76.8555 75.7021 77.1016C75.9775 77.3418 76.3438 77.4619 76.8008 77.4619ZM88.8506 76.3721L91.6631 69.4902H94.335V79H92.1992V72.707L89.5801 79H88.1299L85.502 72.6719V79H83.3662V69.4902H86.0557L88.8506 76.3721ZM104.794 79H102.658V75.1592H98.958V79H96.8223V69.4902H98.958V73.4541H102.658V69.4902H104.794V79ZM109.373 72.5137H111.465C112.244 72.5137 112.924 72.6484 113.504 72.918C114.084 73.1875 114.523 73.5654 114.822 74.0518C115.127 74.5381 115.279 75.1035 115.279 75.748C115.279 76.7266 114.934 77.5117 114.242 78.1035C113.551 78.6953 112.631 78.9941 111.482 79H107.237V69.4902H109.373V72.5137ZM118.997 79H116.861V69.4902H118.997V79ZM109.373 74.2275V77.2949H111.456C111.978 77.2949 112.388 77.166 112.687 76.9082C112.991 76.6445 113.144 76.2725 113.144 75.792C113.144 75.3115 112.994 74.9336 112.695 74.6582C112.402 74.377 112.004 74.2334 111.5 74.2275H109.373ZM124.974 72.6191L126.784 69.4902H129.157L126.248 74.1748L129.254 79H126.898L125 75.748L123.11 79H120.737L123.743 74.1748L120.843 69.4902H123.198L124.974 72.6191ZM55.5312 100H53.3955V92.2129H49.6865V100H47.5508V90.4902H55.5312V100ZM65.8848 90.4902V100H63.749V92.2129H61.0596L60.8838 95.5264C60.7725 97.1201 60.4648 98.2656 59.9609 98.9629C59.4629 99.6543 58.6982 100 57.667 100H57.0078L56.999 98.2246L57.4385 98.1807C57.9072 98.1162 58.2471 97.832 58.458 97.3281C58.6748 96.8184 58.8125 95.8926 58.8711 94.5508L59.0469 90.4902H65.8848ZM67.7568 95.1572C67.7568 94.2256 67.9414 93.3877 68.3105 92.6436C68.6797 91.8936 69.1982 91.3193 69.8662 90.9209C70.5342 90.5166 71.3018 90.3145 72.1689 90.3145C73.4521 90.3145 74.4922 90.7275 75.2891 91.5537C76.0918 92.3799 76.5254 93.4756 76.5898 94.8408L76.5986 95.3418C76.5986 96.2793 76.417 97.1172 76.0537 97.8555C75.6963 98.5938 75.1807 99.165 74.5068 99.5693C73.8389 99.9736 73.0654 100.176 72.1865 100.176C70.8447 100.176 69.7695 99.7305 68.9609 98.8398C68.1582 97.9434 67.7568 96.751 67.7568 95.2627V95.1572ZM69.8926 95.3418C69.8926 96.3203 70.0947 97.0879 70.499 97.6445C70.9033 98.1953 71.4658 98.4707 72.1865 98.4707C72.9072 98.4707 73.4668 98.1895 73.8652 97.627C74.2695 97.0645 74.4717 96.2412 74.4717 95.1572C74.4717 94.1963 74.2637 93.4346 73.8477 92.8721C73.4375 92.3096 72.8779 92.0283 72.1689 92.0283C71.4717 92.0283 70.918 92.3066 70.5078 92.8633C70.0977 93.4141 69.8926 94.2402 69.8926 95.3418ZM80.5537 90.4902V98.2949H83.5244V90.4902H85.6602V98.2949H88.6396V90.4902H90.7666V98.2949H92.3926L92.2168 102.821H90.2744V100H78.418V90.4902H80.5537ZM99.6611 100C99.5674 99.8184 99.4854 99.5225 99.415 99.1123C98.7354 99.8213 97.9033 100.176 96.9189 100.176C95.9639 100.176 95.1846 99.9033 94.5811 99.3584C93.9775 98.8135 93.6758 98.1396 93.6758 97.3369C93.6758 96.3232 94.0508 95.5469 94.8008 95.0078C95.5566 94.4629 96.6348 94.1904 98.0352 94.1904H99.3447V93.5664C99.3447 93.0742 99.207 92.6816 98.9316 92.3887C98.6562 92.0898 98.2373 91.9404 97.6748 91.9404C97.1885 91.9404 96.79 92.0635 96.4795 92.3096C96.1689 92.5498 96.0137 92.8574 96.0137 93.2324H93.8779C93.8779 92.7109 94.0508 92.2246 94.3965 91.7734C94.7422 91.3164 95.2109 90.959 95.8027 90.7012C96.4004 90.4434 97.0654 90.3145 97.7979 90.3145C98.9111 90.3145 99.7988 90.5957 100.461 91.1582C101.123 91.7148 101.463 92.5 101.48 93.5137V97.8027C101.48 98.6582 101.601 99.3408 101.841 99.8506V100H99.6611ZM97.3145 98.4619C97.7363 98.4619 98.1318 98.3594 98.501 98.1543C98.876 97.9492 99.1572 97.6738 99.3447 97.3281V95.5352H98.1934C97.4023 95.5352 96.8076 95.6729 96.4092 95.9482C96.0107 96.2236 95.8115 96.6133 95.8115 97.1172C95.8115 97.5273 95.9463 97.8555 96.2158 98.1016C96.4912 98.3418 96.8574 98.4619 97.3145 98.4619ZM103.757 98.2949C104.349 97.6328 104.744 97.0059 104.943 96.4141C105.148 95.8164 105.271 95.0547 105.312 94.1289L105.436 90.4902H112.036V98.2949H113.354V102.83H111.228V100H105.128V102.83H102.966L102.975 98.2949H103.757ZM106.262 98.2949H109.909V92.3271H107.51L107.448 94.1465C107.366 95.8926 106.971 97.2754 106.262 98.2949ZM114.479 95.1572C114.479 94.2256 114.664 93.3877 115.033 92.6436C115.402 91.8936 115.921 91.3193 116.589 90.9209C117.257 90.5166 118.024 90.3145 118.892 90.3145C120.175 90.3145 121.215 90.7275 122.012 91.5537C122.814 92.3799 123.248 93.4756 123.312 94.8408L123.321 95.3418C123.321 96.2793 123.14 97.1172 122.776 97.8555C122.419 98.5938 121.903 99.165 121.229 99.5693C120.562 99.9736 119.788 100.176 118.909 100.176C117.567 100.176 116.492 99.7305 115.684 98.8398C114.881 97.9434 114.479 96.751 114.479 95.2627V95.1572ZM116.615 95.3418C116.615 96.3203 116.817 97.0879 117.222 97.6445C117.626 98.1953 118.188 98.4707 118.909 98.4707C119.63 98.4707 120.189 98.1895 120.588 97.627C120.992 97.0645 121.194 96.2412 121.194 95.1572C121.194 94.1963 120.986 93.4346 120.57 92.8721C120.16 92.3096 119.601 92.0283 118.892 92.0283C118.194 92.0283 117.641 92.3066 117.23 92.8633C116.82 93.4141 116.615 94.2402 116.615 95.3418ZM128.507 96.2383H127.426V100H125.29V90.4902H127.426V94.2871H128.366L130.994 90.4902H133.631L130.194 95.043L133.921 100H131.144L128.507 96.2383Z" fill="#88A7FF"/>
<path d="M472.151 131.348H243L288.368 229.556H427.072L472.151 131.348Z" fill="#88A7FF"/>
<path d="M45.6387 177H43.4238V165.996H37.79V177H35.5752V164.203H45.6387V177ZM47.7217 172.157C47.7217 171.226 47.9062 170.388 48.2754 169.644C48.6445 168.894 49.1631 168.319 49.8311 167.921C50.499 167.517 51.2666 167.314 52.1338 167.314C53.417 167.314 54.457 167.728 55.2539 168.554C56.0566 169.38 56.4902 170.476 56.5547 171.841L56.5635 172.342C56.5635 173.279 56.3818 174.117 56.0186 174.855C55.6611 175.594 55.1455 176.165 54.4717 176.569C53.8037 176.974 53.0303 177.176 52.1514 177.176C50.8096 177.176 49.7344 176.73 48.9258 175.84C48.123 174.943 47.7217 173.751 47.7217 172.263V172.157ZM49.8574 172.342C49.8574 173.32 50.0596 174.088 50.4639 174.645C50.8682 175.195 51.4307 175.471 52.1514 175.471C52.8721 175.471 53.4316 175.189 53.8301 174.627C54.2344 174.064 54.4365 173.241 54.4365 172.157C54.4365 171.196 54.2285 170.435 53.8125 169.872C53.4023 169.31 52.8428 169.028 52.1338 169.028C51.4365 169.028 50.8828 169.307 50.4727 169.863C50.0625 170.414 49.8574 171.24 49.8574 172.342ZM58.5322 177V167.49H62.3906C63.6914 167.49 64.6816 167.719 65.3613 168.176C66.041 168.627 66.3809 169.277 66.3809 170.127C66.3809 170.566 66.2432 170.962 65.9678 171.313C65.6982 171.659 65.2969 171.926 64.7637 172.113C65.3848 172.242 65.877 172.503 66.2402 172.896C66.6035 173.288 66.7852 173.751 66.7852 174.284C66.7852 175.169 66.457 175.843 65.8008 176.306C65.1504 176.769 64.2129 177 62.9883 177H58.5322ZM60.668 172.948V175.312H63.0059C64.1016 175.312 64.6494 174.92 64.6494 174.135C64.6494 173.344 64.0928 172.948 62.9795 172.948H60.668ZM60.668 171.419H62.4258C63.6387 171.419 64.2451 171.062 64.2451 170.347C64.2451 169.597 63.6709 169.21 62.5225 169.187H60.668V171.419ZM72.8232 177.176C71.4697 177.176 70.3711 176.751 69.5273 175.901C68.6895 175.046 68.2705 173.909 68.2705 172.491V172.228C68.2705 171.278 68.4521 170.432 68.8154 169.688C69.1846 168.938 69.7002 168.354 70.3623 167.938C71.0244 167.522 71.7627 167.314 72.5771 167.314C73.8721 167.314 74.8711 167.728 75.5742 168.554C76.2832 169.38 76.6377 170.549 76.6377 172.061V172.922H70.4238C70.4883 173.707 70.749 174.328 71.2061 174.785C71.6689 175.242 72.249 175.471 72.9463 175.471C73.9248 175.471 74.7217 175.075 75.3369 174.284L76.4883 175.383C76.1074 175.951 75.5977 176.394 74.959 176.71C74.3262 177.021 73.6143 177.176 72.8232 177.176ZM72.5684 169.028C71.9824 169.028 71.5078 169.233 71.1445 169.644C70.7871 170.054 70.5586 170.625 70.459 171.357H74.5283V171.199C74.4814 170.484 74.291 169.945 73.957 169.582C73.623 169.213 73.1602 169.028 72.5684 169.028ZM78.3428 175.295C78.9346 174.633 79.3301 174.006 79.5293 173.414C79.7344 172.816 79.8574 172.055 79.8984 171.129L80.0215 167.49H86.6221V175.295H87.9404V179.83H85.8135V177H79.7139V179.83H77.5518L77.5605 175.295H78.3428ZM80.8477 175.295H84.4951V169.327H82.0957L82.0342 171.146C81.9521 172.893 81.5566 174.275 80.8477 175.295ZM93.6533 177.176C92.2998 177.176 91.2012 176.751 90.3574 175.901C89.5195 175.046 89.1006 173.909 89.1006 172.491V172.228C89.1006 171.278 89.2822 170.432 89.6455 169.688C90.0146 168.938 90.5303 168.354 91.1924 167.938C91.8545 167.522 92.5928 167.314 93.4072 167.314C94.7021 167.314 95.7012 167.728 96.4043 168.554C97.1133 169.38 97.4678 170.549 97.4678 172.061V172.922H91.2539C91.3184 173.707 91.5791 174.328 92.0361 174.785C92.499 175.242 93.0791 175.471 93.7764 175.471C94.7549 175.471 95.5518 175.075 96.167 174.284L97.3184 175.383C96.9375 175.951 96.4277 176.394 95.7891 176.71C95.1562 177.021 94.4443 177.176 93.6533 177.176ZM93.3984 169.028C92.8125 169.028 92.3379 169.233 91.9746 169.644C91.6172 170.054 91.3887 170.625 91.2891 171.357H95.3584V171.199C95.3115 170.484 95.1211 169.945 94.7871 169.582C94.4531 169.213 93.9902 169.028 93.3984 169.028ZM107.188 177H105.053V173.159H101.353V177H99.2168V167.49H101.353V171.454H105.053V167.49H107.188V177ZM117.094 177H114.958V173.827C114.407 173.956 113.827 174.021 113.218 174.021C111.917 174.021 110.924 173.71 110.238 173.089C109.553 172.462 109.21 171.565 109.21 170.399V167.481H111.346V170.399C111.346 171.091 111.498 171.58 111.803 171.867C112.113 172.154 112.585 172.298 113.218 172.298C113.792 172.298 114.372 172.23 114.958 172.096V167.49H117.094V177ZM123.554 177.176C122.2 177.176 121.102 176.751 120.258 175.901C119.42 175.046 119.001 173.909 119.001 172.491V172.228C119.001 171.278 119.183 170.432 119.546 169.688C119.915 168.938 120.431 168.354 121.093 167.938C121.755 167.522 122.493 167.314 123.308 167.314C124.603 167.314 125.602 167.728 126.305 168.554C127.014 169.38 127.368 170.549 127.368 172.061V172.922H121.154C121.219 173.707 121.479 174.328 121.937 174.785C122.399 175.242 122.979 175.471 123.677 175.471C124.655 175.471 125.452 175.075 126.067 174.284L127.219 175.383C126.838 175.951 126.328 176.394 125.689 176.71C125.057 177.021 124.345 177.176 123.554 177.176ZM123.299 169.028C122.713 169.028 122.238 169.233 121.875 169.644C121.518 170.054 121.289 170.625 121.189 171.357H125.259V171.199C125.212 170.484 125.021 169.945 124.688 169.582C124.354 169.213 123.891 169.028 123.299 169.028ZM132.94 175.471C133.474 175.471 133.916 175.315 134.268 175.005C134.619 174.694 134.807 174.311 134.83 173.854H136.843C136.819 174.445 136.635 174.999 136.289 175.515C135.943 176.024 135.475 176.429 134.883 176.728C134.291 177.026 133.652 177.176 132.967 177.176C131.637 177.176 130.582 176.745 129.803 175.884C129.023 175.022 128.634 173.833 128.634 172.315V172.096C128.634 170.648 129.021 169.491 129.794 168.624C130.567 167.751 131.622 167.314 132.958 167.314C134.089 167.314 135.009 167.646 135.718 168.308C136.433 168.964 136.808 169.828 136.843 170.9H134.83C134.807 170.355 134.619 169.907 134.268 169.556C133.922 169.204 133.479 169.028 132.94 169.028C132.249 169.028 131.716 169.28 131.341 169.784C130.966 170.282 130.775 171.041 130.77 172.061V172.403C130.77 173.435 130.954 174.205 131.323 174.715C131.698 175.219 132.237 175.471 132.94 175.471ZM141.835 173.238H140.754V177H138.618V167.49H140.754V171.287H141.694L144.322 167.49H146.959L143.522 172.043L147.249 177H144.472L141.835 173.238ZM154.359 167.49H156.486V177H154.359V170.654L150.633 177H148.506V167.49H150.633V173.836L154.359 167.49ZM164.695 167.49H166.822V177H164.695V170.654L160.969 177H158.842V167.49H160.969V173.836L164.695 167.49ZM165.697 163.843C165.697 164.581 165.439 165.179 164.924 165.636C164.408 166.093 163.72 166.321 162.858 166.321C161.997 166.321 161.309 166.093 160.793 165.636C160.277 165.179 160.02 164.581 160.02 163.843H161.619C161.619 164.229 161.728 164.531 161.944 164.748C162.167 164.959 162.472 165.064 162.858 165.064C163.245 165.064 163.547 164.959 163.764 164.748C163.98 164.531 164.089 164.229 164.089 163.843H165.697ZM67.6816 193.342C67.6816 194.812 67.3477 195.987 66.6797 196.866C66.0117 197.739 65.1152 198.176 63.9902 198.176C62.9473 198.176 62.1123 197.833 61.4854 197.147V201.656H59.3496V188.49H61.3184L61.4062 189.457C62.0332 188.695 62.8857 188.314 63.9639 188.314C65.124 188.314 66.0322 188.748 66.6885 189.615C67.3506 190.477 67.6816 191.675 67.6816 193.21V193.342ZM65.5547 193.157C65.5547 192.208 65.3643 191.455 64.9834 190.898C64.6084 190.342 64.0693 190.063 63.3662 190.063C62.4932 190.063 61.8662 190.424 61.4854 191.145V195.363C61.8721 196.102 62.5049 196.471 63.3838 196.471C64.0635 196.471 64.5938 196.198 64.9746 195.653C65.3613 195.103 65.5547 194.271 65.5547 193.157ZM73.6846 198.176C72.3311 198.176 71.2324 197.751 70.3887 196.901C69.5508 196.046 69.1318 194.909 69.1318 193.491V193.228C69.1318 192.278 69.3135 191.432 69.6768 190.688C70.0459 189.938 70.5615 189.354 71.2236 188.938C71.8857 188.522 72.624 188.314 73.4385 188.314C74.7334 188.314 75.7324 188.728 76.4355 189.554C77.1445 190.38 77.499 191.549 77.499 193.061V193.922H71.2852C71.3496 194.707 71.6104 195.328 72.0674 195.785C72.5303 196.242 73.1104 196.471 73.8076 196.471C74.7861 196.471 75.583 196.075 76.1982 195.284L77.3496 196.383C76.9688 196.951 76.459 197.394 75.8203 197.71C75.1875 198.021 74.4756 198.176 73.6846 198.176ZM73.4297 190.028C72.8438 190.028 72.3691 190.233 72.0059 190.644C71.6484 191.054 71.4199 191.625 71.3203 192.357H75.3896V192.199C75.3428 191.484 75.1523 190.945 74.8184 190.582C74.4844 190.213 74.0215 190.028 73.4297 190.028ZM84.8115 195.372L87.624 188.49H90.2959V198H88.1602V191.707L85.541 198H84.0908L81.4629 191.672V198H79.3271V188.49H82.0166L84.8115 195.372ZM98.3818 198C98.2881 197.818 98.2061 197.522 98.1357 197.112C97.4561 197.821 96.624 198.176 95.6396 198.176C94.6846 198.176 93.9053 197.903 93.3018 197.358C92.6982 196.813 92.3965 196.14 92.3965 195.337C92.3965 194.323 92.7715 193.547 93.5215 193.008C94.2773 192.463 95.3555 192.19 96.7559 192.19H98.0654V191.566C98.0654 191.074 97.9277 190.682 97.6523 190.389C97.377 190.09 96.958 189.94 96.3955 189.94C95.9092 189.94 95.5107 190.063 95.2002 190.31C94.8896 190.55 94.7344 190.857 94.7344 191.232H92.5986C92.5986 190.711 92.7715 190.225 93.1172 189.773C93.4629 189.316 93.9316 188.959 94.5234 188.701C95.1211 188.443 95.7861 188.314 96.5186 188.314C97.6318 188.314 98.5195 188.596 99.1816 189.158C99.8438 189.715 100.184 190.5 100.201 191.514V195.803C100.201 196.658 100.321 197.341 100.562 197.851V198H98.3818ZM96.0352 196.462C96.457 196.462 96.8525 196.359 97.2217 196.154C97.5967 195.949 97.8779 195.674 98.0654 195.328V193.535H96.9141C96.123 193.535 95.5283 193.673 95.1299 193.948C94.7314 194.224 94.5322 194.613 94.5322 195.117C94.5322 195.527 94.667 195.855 94.9365 196.102C95.2119 196.342 95.5781 196.462 96.0352 196.462ZM110.766 193.342C110.766 194.812 110.432 195.987 109.764 196.866C109.096 197.739 108.199 198.176 107.074 198.176C106.031 198.176 105.196 197.833 104.569 197.147V201.656H102.434V188.49H104.402L104.49 189.457C105.117 188.695 105.97 188.314 107.048 188.314C108.208 188.314 109.116 188.748 109.772 189.615C110.435 190.477 110.766 191.675 110.766 193.21V193.342ZM108.639 193.157C108.639 192.208 108.448 191.455 108.067 190.898C107.692 190.342 107.153 190.063 106.45 190.063C105.577 190.063 104.95 190.424 104.569 191.145V195.363C104.956 196.102 105.589 196.471 106.468 196.471C107.147 196.471 107.678 196.198 108.059 195.653C108.445 195.103 108.639 194.271 108.639 193.157ZM115.96 194.238H114.879V198H112.743V188.49H114.879V192.287H115.819L118.447 188.49H121.084L117.647 193.043L121.374 198H118.597L115.96 194.238ZM126.595 198.176C125.241 198.176 124.143 197.751 123.299 196.901C122.461 196.046 122.042 194.909 122.042 193.491V193.228C122.042 192.278 122.224 191.432 122.587 190.688C122.956 189.938 123.472 189.354 124.134 188.938C124.796 188.522 125.534 188.314 126.349 188.314C127.644 188.314 128.643 188.728 129.346 189.554C130.055 190.38 130.409 191.549 130.409 193.061V193.922H124.195C124.26 194.707 124.521 195.328 124.978 195.785C125.44 196.242 126.021 196.471 126.718 196.471C127.696 196.471 128.493 196.075 129.108 195.284L130.26 196.383C129.879 196.951 129.369 197.394 128.73 197.71C128.098 198.021 127.386 198.176 126.595 198.176ZM126.34 190.028C125.754 190.028 125.279 190.233 124.916 190.644C124.559 191.054 124.33 191.625 124.23 192.357H128.3V192.199C128.253 191.484 128.062 190.945 127.729 190.582C127.395 190.213 126.932 190.028 126.34 190.028ZM139.453 190.187H136.368V198H134.232V190.187H131.183V188.49H139.453V190.187ZM146.818 188.49H148.945V198H146.818V191.654L143.092 198H140.965V188.49H143.092V194.836L146.818 188.49ZM159.272 198H157.137V194.159H153.437V198H151.301V188.49H153.437V192.454H157.137V188.49H159.272V198ZM167.886 190.213H163.755V198H161.628V188.49H167.886V190.213Z" fill="#88A7FF"/>
<path d="M307.104 176.771H305.583V182H302.946V169.203H305.583V174.327H306.787L309.916 169.203H313.133L309.187 175.259L313.546 182H310.399L307.104 176.771ZM313.757 177.157C313.757 176.214 313.938 175.373 314.302 174.635C314.665 173.896 315.187 173.325 315.866 172.921C316.552 172.517 317.346 172.314 318.248 172.314C319.531 172.314 320.577 172.707 321.386 173.492C322.2 174.277 322.654 175.344 322.748 176.691L322.766 177.342C322.766 178.801 322.358 179.973 321.544 180.857C320.729 181.736 319.637 182.176 318.266 182.176C316.895 182.176 315.799 181.736 314.979 180.857C314.164 179.979 313.757 178.783 313.757 177.271V177.157ZM316.297 177.342C316.297 178.244 316.467 178.936 316.807 179.416C317.146 179.891 317.633 180.128 318.266 180.128C318.881 180.128 319.361 179.894 319.707 179.425C320.053 178.95 320.226 178.194 320.226 177.157C320.226 176.272 320.053 175.587 319.707 175.101C319.361 174.614 318.875 174.371 318.248 174.371C317.627 174.371 317.146 174.614 316.807 175.101C316.467 175.581 316.297 176.328 316.297 177.342ZM332.574 182H330.025V178.344H326.87V182H324.33V172.49H326.87V176.305H330.025V172.49H332.574V182ZM334.71 182V172.49H338.683C339.978 172.49 340.971 172.719 341.662 173.176C342.354 173.633 342.699 174.289 342.699 175.145C342.699 175.584 342.553 175.979 342.26 176.331C341.973 176.677 341.551 176.943 340.994 177.131C341.674 177.26 342.207 177.515 342.594 177.896C342.986 178.271 343.183 178.733 343.183 179.284C343.183 180.169 342.849 180.843 342.181 181.306C341.519 181.769 340.555 182 339.289 182H334.71ZM337.25 178.054V179.97H339.298C340.194 179.97 340.643 179.656 340.643 179.029C340.643 178.391 340.215 178.065 339.359 178.054H337.25ZM337.25 176.349H338.823C339.714 176.337 340.159 176.05 340.159 175.487C340.159 175.142 340.036 174.896 339.79 174.749C339.55 174.603 339.181 174.529 338.683 174.529H337.25V176.349ZM349.115 182.176C347.721 182.176 346.584 181.748 345.705 180.893C344.832 180.037 344.396 178.897 344.396 177.474V177.228C344.396 176.272 344.58 175.42 344.949 174.67C345.318 173.914 345.84 173.334 346.514 172.93C347.193 172.52 347.967 172.314 348.834 172.314C350.135 172.314 351.157 172.725 351.901 173.545C352.651 174.365 353.026 175.528 353.026 177.034V178.071H346.971C347.053 178.692 347.299 179.19 347.709 179.565C348.125 179.94 348.649 180.128 349.282 180.128C350.261 180.128 351.025 179.773 351.576 179.064L352.824 180.462C352.443 181.001 351.928 181.423 351.277 181.728C350.627 182.026 349.906 182.176 349.115 182.176ZM348.825 174.371C348.321 174.371 347.911 174.541 347.595 174.881C347.284 175.221 347.085 175.707 346.997 176.34H350.53V176.138C350.519 175.575 350.366 175.142 350.073 174.837C349.78 174.526 349.364 174.371 348.825 174.371ZM363.037 177.333C363.037 178.798 362.703 179.973 362.035 180.857C361.373 181.736 360.477 182.176 359.346 182.176C358.385 182.176 357.608 181.842 357.017 181.174V185.656H354.477V172.49H356.832L356.92 173.422C357.535 172.684 358.338 172.314 359.328 172.314C360.5 172.314 361.411 172.748 362.062 173.615C362.712 174.482 363.037 175.678 363.037 177.201V177.333ZM360.497 177.148C360.497 176.264 360.339 175.581 360.022 175.101C359.712 174.62 359.258 174.38 358.66 174.38C357.863 174.38 357.315 174.685 357.017 175.294V179.188C357.327 179.814 357.881 180.128 358.678 180.128C359.891 180.128 360.497 179.135 360.497 177.148ZM372.143 174.529H369.093V182H366.544V174.529H363.547V172.49H372.143V174.529ZM378.796 182C378.679 181.771 378.594 181.487 378.541 181.147C377.926 181.833 377.126 182.176 376.142 182.176C375.21 182.176 374.437 181.906 373.821 181.367C373.212 180.828 372.907 180.148 372.907 179.328C372.907 178.32 373.279 177.547 374.023 177.008C374.773 176.469 375.854 176.196 377.267 176.19H378.436V175.646C378.436 175.206 378.321 174.854 378.093 174.591C377.87 174.327 377.516 174.195 377.029 174.195C376.602 174.195 376.265 174.298 376.019 174.503C375.778 174.708 375.658 174.989 375.658 175.347H373.118C373.118 174.796 373.288 174.286 373.628 173.817C373.968 173.349 374.448 172.982 375.069 172.719C375.69 172.449 376.388 172.314 377.161 172.314C378.333 172.314 379.262 172.61 379.947 173.202C380.639 173.788 380.984 174.614 380.984 175.681V179.803C380.99 180.705 381.116 181.388 381.362 181.851V182H378.796ZM376.695 180.233C377.07 180.233 377.416 180.151 377.732 179.987C378.049 179.817 378.283 179.592 378.436 179.311V177.676H377.486C376.215 177.676 375.538 178.115 375.456 178.994L375.447 179.144C375.447 179.46 375.559 179.721 375.781 179.926C376.004 180.131 376.309 180.233 376.695 180.233ZM382.936 172.49H385.476V179.952H388.657V172.49H391.206V179.97H392.63L392.454 184.821H390.09V182H382.936V172.49ZM399.635 172.49H402.175V182H399.635V176.129L396.453 182H393.904V172.49H396.453V178.353L399.635 172.49ZM412.045 172.49V182H409.514V178.713H407.905L406.077 182H403.502L405.576 178.282C405.008 178.019 404.568 177.661 404.258 177.21C403.953 176.759 403.801 176.246 403.801 175.672C403.801 174.752 404.155 173.999 404.864 173.413C405.579 172.821 406.534 172.514 407.729 172.49H412.045ZM407.773 176.938H409.514V174.529H407.861C407.41 174.529 407.044 174.649 406.763 174.89C406.481 175.124 406.341 175.411 406.341 175.751C406.341 176.091 406.476 176.372 406.745 176.595C407.015 176.817 407.357 176.932 407.773 176.938Z" fill="white"/>
<path d="M422.718 251.705H291.775L318.137 310.941H396.356L422.718 251.705Z" fill="#335FFF"/>
<path d="M99.1279 278.516H97.6162V284H95.4014V271.203H97.6162V276.582H98.8379L102.6 271.203H105.324L100.93 277.329L105.711 284H103.039L99.1279 278.516ZM106.089 279.157C106.089 278.226 106.273 277.388 106.643 276.644C107.012 275.894 107.53 275.319 108.198 274.921C108.866 274.517 109.634 274.314 110.501 274.314C111.784 274.314 112.824 274.728 113.621 275.554C114.424 276.38 114.857 277.476 114.922 278.841L114.931 279.342C114.931 280.279 114.749 281.117 114.386 281.855C114.028 282.594 113.513 283.165 112.839 283.569C112.171 283.974 111.397 284.176 110.519 284.176C109.177 284.176 108.102 283.73 107.293 282.84C106.49 281.943 106.089 280.751 106.089 279.263V279.157ZM108.225 279.342C108.225 280.32 108.427 281.088 108.831 281.645C109.235 282.195 109.798 282.471 110.519 282.471C111.239 282.471 111.799 282.189 112.197 281.627C112.602 281.064 112.804 280.241 112.804 279.157C112.804 278.196 112.596 277.435 112.18 276.872C111.77 276.31 111.21 276.028 110.501 276.028C109.804 276.028 109.25 276.307 108.84 276.863C108.43 277.414 108.225 278.24 108.225 279.342ZM122.384 281.372L125.196 274.49H127.868V284H125.732V277.707L123.113 284H121.663L119.035 277.672V284H116.899V274.49H119.589L122.384 281.372ZM135.919 281.372L138.731 274.49H141.403V284H139.268V277.707L136.648 284H135.198L132.57 277.672V284H130.435V274.49H133.124L135.919 281.372ZM147.134 280.941L149.067 274.49H151.344L147.564 285.441C146.984 287.041 146 287.841 144.611 287.841C144.301 287.841 143.958 287.788 143.583 287.683V286.03L143.987 286.057C144.526 286.057 144.931 285.957 145.2 285.758C145.476 285.564 145.692 285.236 145.851 284.773L146.158 283.956L142.818 274.49H145.121L147.134 280.941ZM160.634 284H158.498V280.159H154.798V284H152.662V274.49H154.798V278.454H158.498V274.49H160.634V284ZM168.852 274.49H170.979V284H168.852V277.654L165.125 284H162.998V274.49H165.125V280.836L168.852 274.49ZM176.63 280.238H175.549V284H173.413V274.49H175.549V278.287H176.489L179.117 274.49H181.754L178.317 279.043L182.044 284H179.267L176.63 280.238ZM188.899 284C188.806 283.818 188.724 283.522 188.653 283.112C187.974 283.821 187.142 284.176 186.157 284.176C185.202 284.176 184.423 283.903 183.819 283.358C183.216 282.813 182.914 282.14 182.914 281.337C182.914 280.323 183.289 279.547 184.039 279.008C184.795 278.463 185.873 278.19 187.273 278.19H188.583V277.566C188.583 277.074 188.445 276.682 188.17 276.389C187.895 276.09 187.476 275.94 186.913 275.94C186.427 275.94 186.028 276.063 185.718 276.31C185.407 276.55 185.252 276.857 185.252 277.232H183.116C183.116 276.711 183.289 276.225 183.635 275.773C183.98 275.316 184.449 274.959 185.041 274.701C185.639 274.443 186.304 274.314 187.036 274.314C188.149 274.314 189.037 274.596 189.699 275.158C190.361 275.715 190.701 276.5 190.719 277.514V281.803C190.719 282.658 190.839 283.341 191.079 283.851V284H188.899ZM186.553 282.462C186.975 282.462 187.37 282.359 187.739 282.154C188.114 281.949 188.396 281.674 188.583 281.328V279.535H187.432C186.641 279.535 186.046 279.673 185.647 279.948C185.249 280.224 185.05 280.613 185.05 281.117C185.05 281.527 185.185 281.855 185.454 282.102C185.729 282.342 186.096 282.462 186.553 282.462ZM193.039 274.49H195.175V282.295H198.884V274.49H201.02V282.295H202.312L202.136 286.821H200.193V284H193.039V274.49ZM209.756 274.49H211.883V284H209.756V277.654L206.029 284H203.902V274.49H206.029V280.836L209.756 274.49ZM221.771 274.49V284H219.644V280.511H217.648L215.618 284H213.403L215.645 280.159C215.059 279.913 214.607 279.562 214.291 279.104C213.98 278.647 213.825 278.123 213.825 277.531C213.825 276.646 214.165 275.923 214.845 275.36C215.53 274.792 216.453 274.502 217.613 274.49H221.771ZM215.961 277.584C215.961 277.982 216.107 278.308 216.4 278.56C216.699 278.806 217.08 278.929 217.543 278.929H219.644V276.187H217.675C217.153 276.187 216.737 276.318 216.427 276.582C216.116 276.846 215.961 277.18 215.961 277.584ZM224.442 286.883L223.291 286.197C223.631 285.664 223.862 285.198 223.985 284.8C224.114 284.407 224.182 284.006 224.188 283.596V281.935H226.112L226.104 283.473C226.098 284.094 225.939 284.715 225.629 285.336C225.324 285.963 224.929 286.479 224.442 286.883ZM98.0029 300.157C98.0029 299.226 98.1875 298.388 98.5566 297.644C98.9258 296.894 99.4443 296.319 100.112 295.921C100.78 295.517 101.548 295.314 102.415 295.314C103.698 295.314 104.738 295.728 105.535 296.554C106.338 297.38 106.771 298.476 106.836 299.841L106.845 300.342C106.845 301.279 106.663 302.117 106.3 302.855C105.942 303.594 105.427 304.165 104.753 304.569C104.085 304.974 103.312 305.176 102.433 305.176C101.091 305.176 100.016 304.73 99.207 303.84C98.4043 302.943 98.0029 301.751 98.0029 300.263V300.157ZM100.139 300.342C100.139 301.32 100.341 302.088 100.745 302.645C101.149 303.195 101.712 303.471 102.433 303.471C103.153 303.471 103.713 303.189 104.111 302.627C104.516 302.064 104.718 301.241 104.718 300.157C104.718 299.196 104.51 298.435 104.094 297.872C103.684 297.31 103.124 297.028 102.415 297.028C101.718 297.028 101.164 297.307 100.754 297.863C100.344 298.414 100.139 299.24 100.139 300.342ZM112.558 303.471C113.091 303.471 113.533 303.315 113.885 303.005C114.236 302.694 114.424 302.311 114.447 301.854H116.46C116.437 302.445 116.252 302.999 115.906 303.515C115.561 304.024 115.092 304.429 114.5 304.728C113.908 305.026 113.27 305.176 112.584 305.176C111.254 305.176 110.199 304.745 109.42 303.884C108.641 303.022 108.251 301.833 108.251 300.315V300.096C108.251 298.648 108.638 297.491 109.411 296.624C110.185 295.751 111.239 295.314 112.575 295.314C113.706 295.314 114.626 295.646 115.335 296.308C116.05 296.964 116.425 297.828 116.46 298.9H114.447C114.424 298.355 114.236 297.907 113.885 297.556C113.539 297.204 113.097 297.028 112.558 297.028C111.866 297.028 111.333 297.28 110.958 297.784C110.583 298.282 110.393 299.041 110.387 300.061V300.403C110.387 301.435 110.571 302.205 110.94 302.715C111.315 303.219 111.854 303.471 112.558 303.471ZM126.128 305H123.992V301.159H120.292V305H118.156V295.49H120.292V299.454H123.992V295.49H126.128V305ZM128.009 300.157C128.009 299.226 128.193 298.388 128.562 297.644C128.932 296.894 129.45 296.319 130.118 295.921C130.786 295.517 131.554 295.314 132.421 295.314C133.704 295.314 134.744 295.728 135.541 296.554C136.344 297.38 136.777 298.476 136.842 299.841L136.851 300.342C136.851 301.279 136.669 302.117 136.306 302.855C135.948 303.594 135.433 304.165 134.759 304.569C134.091 304.974 133.317 305.176 132.438 305.176C131.097 305.176 130.021 304.73 129.213 303.84C128.41 302.943 128.009 301.751 128.009 300.263V300.157ZM130.145 300.342C130.145 301.32 130.347 302.088 130.751 302.645C131.155 303.195 131.718 303.471 132.438 303.471C133.159 303.471 133.719 303.189 134.117 302.627C134.521 302.064 134.724 301.241 134.724 300.157C134.724 299.196 134.516 298.435 134.1 297.872C133.689 297.31 133.13 297.028 132.421 297.028C131.724 297.028 131.17 297.307 130.76 297.863C130.35 298.414 130.145 299.24 130.145 300.342ZM138.819 305V295.49H142.678C143.979 295.49 144.969 295.719 145.648 296.176C146.328 296.627 146.668 297.277 146.668 298.127C146.668 298.566 146.53 298.962 146.255 299.313C145.985 299.659 145.584 299.926 145.051 300.113C145.672 300.242 146.164 300.503 146.527 300.896C146.891 301.288 147.072 301.751 147.072 302.284C147.072 303.169 146.744 303.843 146.088 304.306C145.438 304.769 144.5 305 143.275 305H138.819ZM140.955 300.948V303.312H143.293C144.389 303.312 144.937 302.92 144.937 302.135C144.937 301.344 144.38 300.948 143.267 300.948H140.955ZM140.955 299.419H142.713C143.926 299.419 144.532 299.062 144.532 298.347C144.532 297.597 143.958 297.21 142.81 297.187H140.955V299.419ZM154.604 305C154.511 304.818 154.429 304.522 154.358 304.112C153.679 304.821 152.847 305.176 151.862 305.176C150.907 305.176 150.128 304.903 149.524 304.358C148.921 303.813 148.619 303.14 148.619 302.337C148.619 301.323 148.994 300.547 149.744 300.008C150.5 299.463 151.578 299.19 152.979 299.19H154.288V298.566C154.288 298.074 154.15 297.682 153.875 297.389C153.6 297.09 153.181 296.94 152.618 296.94C152.132 296.94 151.733 297.063 151.423 297.31C151.112 297.55 150.957 297.857 150.957 298.232H148.821C148.821 297.711 148.994 297.225 149.34 296.773C149.686 296.316 150.154 295.959 150.746 295.701C151.344 295.443 152.009 295.314 152.741 295.314C153.854 295.314 154.742 295.596 155.404 296.158C156.066 296.715 156.406 297.5 156.424 298.514V302.803C156.424 303.658 156.544 304.341 156.784 304.851V305H154.604ZM152.258 303.462C152.68 303.462 153.075 303.359 153.444 303.154C153.819 302.949 154.101 302.674 154.288 302.328V300.535H153.137C152.346 300.535 151.751 300.673 151.353 300.948C150.954 301.224 150.755 301.613 150.755 302.117C150.755 302.527 150.89 302.855 151.159 303.102C151.435 303.342 151.801 303.462 152.258 303.462ZM166.716 305H164.58V301.159H160.88V305H158.744V295.49H160.88V299.454H164.58V295.49H166.716V305ZM177.052 305H174.916V301.159H171.216V305H169.08V295.49H171.216V299.454H174.916V295.49H177.052V305ZM185.015 305C184.921 304.818 184.839 304.522 184.769 304.112C184.089 304.821 183.257 305.176 182.272 305.176C181.317 305.176 180.538 304.903 179.935 304.358C179.331 303.813 179.029 303.14 179.029 302.337C179.029 301.323 179.404 300.547 180.154 300.008C180.91 299.463 181.988 299.19 183.389 299.19H184.698V298.566C184.698 298.074 184.561 297.682 184.285 297.389C184.01 297.09 183.591 296.94 183.028 296.94C182.542 296.94 182.144 297.063 181.833 297.31C181.522 297.55 181.367 297.857 181.367 298.232H179.231C179.231 297.711 179.404 297.225 179.75 296.773C180.096 296.316 180.564 295.959 181.156 295.701C181.754 295.443 182.419 295.314 183.151 295.314C184.265 295.314 185.152 295.596 185.814 296.158C186.477 296.715 186.816 297.5 186.834 298.514V302.803C186.834 303.658 186.954 304.341 187.194 304.851V305H185.015ZM182.668 303.462C183.09 303.462 183.485 303.359 183.854 303.154C184.229 302.949 184.511 302.674 184.698 302.328V300.535H183.547C182.756 300.535 182.161 300.673 181.763 300.948C181.364 301.224 181.165 301.613 181.165 302.117C181.165 302.527 181.3 302.855 181.569 303.102C181.845 303.342 182.211 303.462 182.668 303.462ZM196.687 295.49V305H194.56V301.511H192.564L190.534 305H188.319L190.561 301.159C189.975 300.913 189.523 300.562 189.207 300.104C188.896 299.647 188.741 299.123 188.741 298.531C188.741 297.646 189.081 296.923 189.761 296.36C190.446 295.792 191.369 295.502 192.529 295.49H196.687ZM190.877 298.584C190.877 298.982 191.023 299.308 191.316 299.56C191.615 299.806 191.996 299.929 192.459 299.929H194.56V297.187H192.591C192.069 297.187 191.653 297.318 191.343 297.582C191.032 297.846 190.877 298.18 190.877 298.584ZM211.593 305H209.457V301.159H205.757V305H203.621V295.49H205.757V299.454H209.457V295.49H211.593V305ZM219.556 305C219.462 304.818 219.38 304.522 219.31 304.112C218.63 304.821 217.798 305.176 216.813 305.176C215.858 305.176 215.079 304.903 214.476 304.358C213.872 303.813 213.57 303.14 213.57 302.337C213.57 301.323 213.945 300.547 214.695 300.008C215.451 299.463 216.529 299.19 217.93 299.19H219.239V298.566C219.239 298.074 219.102 297.682 218.826 297.389C218.551 297.09 218.132 296.94 217.569 296.94C217.083 296.94 216.685 297.063 216.374 297.31C216.063 297.55 215.908 297.857 215.908 298.232H213.772C213.772 297.711 213.945 297.225 214.291 296.773C214.637 296.316 215.105 295.959 215.697 295.701C216.295 295.443 216.96 295.314 217.692 295.314C218.806 295.314 219.693 295.596 220.355 296.158C221.018 296.715 221.357 297.5 221.375 298.514V302.803C221.375 303.658 221.495 304.341 221.735 304.851V305H219.556ZM217.209 303.462C217.631 303.462 218.026 303.359 218.396 303.154C218.771 302.949 219.052 302.674 219.239 302.328V300.535H218.088C217.297 300.535 216.702 300.673 216.304 300.948C215.905 301.224 215.706 301.613 215.706 302.117C215.706 302.527 215.841 302.855 216.11 303.102C216.386 303.342 216.752 303.462 217.209 303.462ZM90.9102 316.49H93.0371V326H90.9102V319.654L87.1836 326H85.0566V316.49H87.1836V322.836L90.9102 316.49ZM99.2158 324.471C99.749 324.471 100.191 324.315 100.543 324.005C100.895 323.694 101.082 323.311 101.105 322.854H103.118C103.095 323.445 102.91 323.999 102.564 324.515C102.219 325.024 101.75 325.429 101.158 325.728C100.566 326.026 99.9277 326.176 99.2422 326.176C97.9121 326.176 96.8574 325.745 96.0781 324.884C95.2988 324.022 94.9092 322.833 94.9092 321.315V321.096C94.9092 319.648 95.2959 318.491 96.0693 317.624C96.8428 316.751 97.8975 316.314 99.2334 316.314C100.364 316.314 101.284 316.646 101.993 317.308C102.708 317.964 103.083 318.828 103.118 319.9H101.105C101.082 319.355 100.895 318.907 100.543 318.556C100.197 318.204 99.7549 318.028 99.2158 318.028C98.5244 318.028 97.9912 318.28 97.6162 318.784C97.2412 319.282 97.0508 320.041 97.0449 321.061V321.403C97.0449 322.435 97.2295 323.205 97.5986 323.715C97.9736 324.219 98.5127 324.471 99.2158 324.471ZM112.215 318.187H109.13V326H106.994V318.187H103.944V316.49H112.215V318.187ZM112.979 321.157C112.979 320.226 113.164 319.388 113.533 318.644C113.902 317.894 114.421 317.319 115.089 316.921C115.757 316.517 116.524 316.314 117.392 316.314C118.675 316.314 119.715 316.728 120.512 317.554C121.314 318.38 121.748 319.476 121.812 320.841L121.821 321.342C121.821 322.279 121.64 323.117 121.276 323.855C120.919 324.594 120.403 325.165 119.729 325.569C119.062 325.974 118.288 326.176 117.409 326.176C116.067 326.176 114.992 325.73 114.184 324.84C113.381 323.943 112.979 322.751 112.979 321.263V321.157ZM115.115 321.342C115.115 322.32 115.317 323.088 115.722 323.645C116.126 324.195 116.688 324.471 117.409 324.471C118.13 324.471 118.689 324.189 119.088 323.627C119.492 323.064 119.694 322.241 119.694 321.157C119.694 320.196 119.486 319.435 119.07 318.872C118.66 318.31 118.101 318.028 117.392 318.028C116.694 318.028 116.141 318.307 115.73 318.863C115.32 319.414 115.115 320.24 115.115 321.342ZM131.955 321.342C131.955 322.812 131.621 323.987 130.953 324.866C130.285 325.739 129.389 326.176 128.264 326.176C127.221 326.176 126.386 325.833 125.759 325.147V329.656H123.623V316.49H125.592L125.68 317.457C126.307 316.695 127.159 316.314 128.237 316.314C129.397 316.314 130.306 316.748 130.962 317.615C131.624 318.477 131.955 319.675 131.955 321.21V321.342ZM129.828 321.157C129.828 320.208 129.638 319.455 129.257 318.898C128.882 318.342 128.343 318.063 127.64 318.063C126.767 318.063 126.14 318.424 125.759 319.145V323.363C126.146 324.102 126.778 324.471 127.657 324.471C128.337 324.471 128.867 324.198 129.248 323.653C129.635 323.103 129.828 322.271 129.828 321.157ZM139.707 316.49H141.834V326H139.707V319.654L135.98 326H133.854V316.49H135.98V322.836L139.707 316.49ZM150.043 316.49H152.17V326H150.043V319.654L146.316 326H144.189V316.49H146.316V322.836L150.043 316.49ZM162.304 322.238H161.223V326H159.087V316.49H161.223V320.287H162.163L164.791 316.49H167.428L163.991 321.043L167.718 326H164.94L162.304 322.238ZM176.973 316.49V326H174.837V318.213H172.147L171.972 321.526C171.86 323.12 171.553 324.266 171.049 324.963C170.551 325.654 169.786 326 168.755 326H168.096L168.087 324.225L168.526 324.181C168.995 324.116 169.335 323.832 169.546 323.328C169.763 322.818 169.9 321.893 169.959 320.551L170.135 316.49H176.973ZM185.182 316.49H187.309V326H185.182V319.654L181.455 326H179.328V316.49H181.455V322.836L185.182 316.49ZM193.769 326.176C192.415 326.176 191.316 325.751 190.473 324.901C189.635 324.046 189.216 322.909 189.216 321.491V321.228C189.216 320.278 189.397 319.432 189.761 318.688C190.13 317.938 190.646 317.354 191.308 316.938C191.97 316.522 192.708 316.314 193.522 316.314C194.817 316.314 195.816 316.728 196.52 317.554C197.229 318.38 197.583 319.549 197.583 321.061V321.922H191.369C191.434 322.707 191.694 323.328 192.151 323.785C192.614 324.242 193.194 324.471 193.892 324.471C194.87 324.471 195.667 324.075 196.282 323.284L197.434 324.383C197.053 324.951 196.543 325.394 195.904 325.71C195.271 326.021 194.56 326.176 193.769 326.176ZM193.514 318.028C192.928 318.028 192.453 318.233 192.09 318.644C191.732 319.054 191.504 319.625 191.404 320.357H195.474V320.199C195.427 319.484 195.236 318.945 194.902 318.582C194.568 318.213 194.105 318.028 193.514 318.028ZM207.304 326H205.168V322.159H201.468V326H199.332V316.49H201.468V320.454H205.168V316.49H207.304V326ZM217.068 318.187H213.983V326H211.848V318.187H208.798V316.49H217.068V318.187ZM224.038 326C223.944 325.818 223.862 325.522 223.792 325.112C223.112 325.821 222.28 326.176 221.296 326.176C220.341 326.176 219.562 325.903 218.958 325.358C218.354 324.813 218.053 324.14 218.053 323.337C218.053 322.323 218.428 321.547 219.178 321.008C219.934 320.463 221.012 320.19 222.412 320.19H223.722V319.566C223.722 319.074 223.584 318.682 223.309 318.389C223.033 318.09 222.614 317.94 222.052 317.94C221.565 317.94 221.167 318.063 220.856 318.31C220.546 318.55 220.391 318.857 220.391 319.232H218.255C218.255 318.711 218.428 318.225 218.773 317.773C219.119 317.316 219.588 316.959 220.18 316.701C220.777 316.443 221.442 316.314 222.175 316.314C223.288 316.314 224.176 316.596 224.838 317.158C225.5 317.715 225.84 318.5 225.857 319.514V323.803C225.857 324.658 225.978 325.341 226.218 325.851V326H224.038ZM221.691 324.462C222.113 324.462 222.509 324.359 222.878 324.154C223.253 323.949 223.534 323.674 223.722 323.328V321.535H222.57C221.779 321.535 221.185 321.673 220.786 321.948C220.388 322.224 220.188 322.613 220.188 323.117C220.188 323.527 220.323 323.855 220.593 324.102C220.868 324.342 221.234 324.462 221.691 324.462Z" fill="#88A7FF"/>
<path d="M314.97 280.25L317.299 274.203H320.146L315.673 284.759L315.312 285.453C314.65 286.607 313.637 287.185 312.271 287.185L311.349 287.149L311.322 285.031C311.463 285.055 311.691 285.066 312.008 285.066C312.377 285.066 312.673 285.002 312.896 284.873C313.124 284.744 313.314 284.507 313.467 284.161L313.792 283.326L309.301 274.203H312.14L314.97 280.25ZM320.771 284.952C321.345 284.343 321.734 283.739 321.939 283.142C322.145 282.544 322.259 281.697 322.282 280.602L322.353 277.49H329.349V284.952H330.72V289.856H328.18V287H322.546V289.856H319.953V284.952H320.771ZM323.768 284.952H326.817V279.591H324.84L324.822 280.733C324.77 282.479 324.418 283.886 323.768 284.952ZM336.389 287.176C334.994 287.176 333.857 286.748 332.979 285.893C332.105 285.037 331.669 283.897 331.669 282.474V282.228C331.669 281.272 331.854 280.42 332.223 279.67C332.592 278.914 333.113 278.334 333.787 277.93C334.467 277.52 335.24 277.314 336.107 277.314C337.408 277.314 338.431 277.725 339.175 278.545C339.925 279.365 340.3 280.528 340.3 282.034V283.071H334.244C334.326 283.692 334.572 284.19 334.982 284.565C335.398 284.94 335.923 285.128 336.556 285.128C337.534 285.128 338.299 284.773 338.85 284.064L340.098 285.462C339.717 286.001 339.201 286.423 338.551 286.728C337.9 287.026 337.18 287.176 336.389 287.176ZM336.099 279.371C335.595 279.371 335.185 279.541 334.868 279.881C334.558 280.221 334.358 280.707 334.271 281.34H337.804V281.138C337.792 280.575 337.64 280.142 337.347 279.837C337.054 279.526 336.638 279.371 336.099 279.371ZM350.311 282.333C350.311 283.798 349.977 284.973 349.309 285.857C348.646 286.736 347.75 287.176 346.619 287.176C345.658 287.176 344.882 286.842 344.29 286.174V290.656H341.75V277.49H344.105L344.193 278.422C344.809 277.684 345.611 277.314 346.602 277.314C347.773 277.314 348.685 277.748 349.335 278.615C349.985 279.482 350.311 280.678 350.311 282.201V282.333ZM347.771 282.148C347.771 281.264 347.612 280.581 347.296 280.101C346.985 279.62 346.531 279.38 345.934 279.38C345.137 279.38 344.589 279.685 344.29 280.294V284.188C344.601 284.814 345.154 285.128 345.951 285.128C347.164 285.128 347.771 284.135 347.771 282.148ZM360.901 283.476H359.75V287H357.21V283.476H356.076L354.187 287H351.119L354.116 282.025L351.154 277.49H354.301L356.278 281.041H357.21V277.49H359.75V281.041H360.699L362.686 277.49H365.832L362.888 281.964L365.911 287H362.791L360.901 283.476ZM372.644 287C372.526 286.771 372.441 286.487 372.389 286.147C371.773 286.833 370.974 287.176 369.989 287.176C369.058 287.176 368.284 286.906 367.669 286.367C367.06 285.828 366.755 285.148 366.755 284.328C366.755 283.32 367.127 282.547 367.871 282.008C368.621 281.469 369.702 281.196 371.114 281.19H372.283V280.646C372.283 280.206 372.169 279.854 371.94 279.591C371.718 279.327 371.363 279.195 370.877 279.195C370.449 279.195 370.112 279.298 369.866 279.503C369.626 279.708 369.506 279.989 369.506 280.347H366.966C366.966 279.796 367.136 279.286 367.476 278.817C367.815 278.349 368.296 277.982 368.917 277.719C369.538 277.449 370.235 277.314 371.009 277.314C372.181 277.314 373.109 277.61 373.795 278.202C374.486 278.788 374.832 279.614 374.832 280.681V284.803C374.838 285.705 374.964 286.388 375.21 286.851V287H372.644ZM370.543 285.233C370.918 285.233 371.264 285.151 371.58 284.987C371.896 284.817 372.131 284.592 372.283 284.311V282.676H371.334C370.062 282.676 369.386 283.115 369.304 283.994L369.295 284.144C369.295 284.46 369.406 284.721 369.629 284.926C369.852 285.131 370.156 285.233 370.543 285.233ZM385.027 287H382.479V283.344H379.323V287H376.783V277.49H379.323V281.305H382.479V277.49H385.027V287ZM392.727 277.49H395.267V287H392.727V281.129L389.545 287H386.996V277.49H389.545V283.353L392.727 277.49ZM401.586 287.176C400.191 287.176 399.055 286.748 398.176 285.893C397.303 285.037 396.866 283.897 396.866 282.474V282.228C396.866 281.272 397.051 280.42 397.42 279.67C397.789 278.914 398.311 278.334 398.984 277.93C399.664 277.52 400.438 277.314 401.305 277.314C402.605 277.314 403.628 277.725 404.372 278.545C405.122 279.365 405.497 280.528 405.497 282.034V283.071H399.441C399.523 283.692 399.77 284.19 400.18 284.565C400.596 284.94 401.12 285.128 401.753 285.128C402.731 285.128 403.496 284.773 404.047 284.064L405.295 285.462C404.914 286.001 404.398 286.423 403.748 286.728C403.098 287.026 402.377 287.176 401.586 287.176ZM401.296 279.371C400.792 279.371 400.382 279.541 400.065 279.881C399.755 280.221 399.556 280.707 399.468 281.34H403.001V281.138C402.989 280.575 402.837 280.142 402.544 279.837C402.251 279.526 401.835 279.371 401.296 279.371Z" fill="white"/>
<path fill-rule="evenodd" clip-rule="evenodd" d="M166.118 53.7865C167.118 52.4658 169 52.2063 170.321 53.2068C173.891 55.9116 177.559 58.2996 181.327 60.7525C183.396 62.0995 185.496 63.4659 187.625 64.9152C187.65 64.9287 187.705 64.9589 187.804 65.0115C187.83 65.0255 187.859 65.0405 187.889 65.0564C188.059 65.1467 188.285 65.2665 188.528 65.4005C189.09 65.7094 189.861 66.1548 190.565 66.677C191.126 67.0936 192.223 67.9631 192.72 69.2511C193.024 70.0387 193.142 71.0934 192.659 72.1679C192.213 73.1601 191.435 73.7569 190.806 74.1064C190.086 74.5065 189.212 75.4203 188.11 76.8997C187.803 77.3113 187.452 77.8086 187.081 78.3339C186.359 79.3552 185.563 80.4821 184.877 81.2891C183.629 82.7573 182.528 84.3593 181.326 86.1093C181.253 86.2159 181.179 86.3231 181.105 86.4308C180.582 87.1908 179.814 87.9645 179.299 88.4826C179.191 88.5918 179.093 88.6896 179.012 88.7736C178.715 89.0806 178.502 89.3176 178.348 89.5208C178.204 89.71 178.167 89.7973 178.167 89.7972C178.165 89.8015 178.161 89.8123 178.155 89.8319C178.146 89.8583 178.135 89.8914 178.121 89.9355C178.115 89.9546 178.108 89.977 178.1 90.0019C178.077 90.0773 178.046 90.1746 178.016 90.2658C177.942 90.4915 177.809 90.8879 177.623 91.2681C177.531 91.4563 177.371 91.7549 177.125 92.0586C176.916 92.3169 176.381 92.9116 175.457 93.1703C174.31 93.4917 173.279 93.1143 172.614 92.5816C172.07 92.1452 171.78 91.6267 171.642 91.3501C170.968 90.0023 171.404 88.3896 172.603 87.5514C173.135 86.2402 174.109 85.2129 174.7 84.6015C174.919 84.3756 175.106 84.1852 175.269 84.0203C175.716 83.5663 175.972 83.3059 176.161 83.0316C176.247 82.9066 176.333 82.7806 176.42 82.6539C177.583 80.9598 178.849 79.1161 180.305 77.4032C180.846 76.7668 181.331 76.0757 181.909 75.2514C182.31 74.679 182.756 74.0425 183.298 73.3155C183.931 72.4661 184.692 71.5021 185.585 70.6291C185.404 70.5305 185.239 70.4429 185.084 70.3604C185.051 70.3433 185.02 70.3264 184.988 70.3098C184.979 70.305 184.969 70.2994 184.957 70.2931C184.828 70.2251 184.536 70.0706 184.321 69.9245C182.39 68.6088 180.371 67.2935 178.323 65.9585C174.425 63.419 170.419 60.8085 166.697 57.9893C165.377 56.9888 165.117 55.1072 166.118 53.7865ZM187.33 71.7847C187.329 71.7846 187.325 71.7804 187.318 71.7718C187.326 71.7804 187.33 71.7847 187.33 71.7847ZM176.996 88.6438C177 88.6515 177.004 88.6592 177.008 88.6669L177.007 88.6644C177.004 88.6596 177.001 88.6527 176.996 88.6438Z" fill="#88A7FF"/>
<path fill-rule="evenodd" clip-rule="evenodd" d="M198.609 161.189C199.609 159.868 201.491 159.608 202.812 160.609C206.382 163.314 210.05 165.702 213.818 168.155C215.887 169.502 217.987 170.868 220.116 172.317C220.141 172.331 220.196 172.361 220.295 172.414C220.321 172.428 220.35 172.443 220.38 172.458C220.55 172.549 220.776 172.669 221.019 172.803C221.581 173.111 222.352 173.557 223.056 174.079C223.617 174.496 224.714 175.365 225.211 176.653C225.515 177.441 225.633 178.496 225.15 179.57C224.704 180.562 223.926 181.159 223.297 181.509C222.577 181.909 221.703 182.822 220.601 184.302C220.294 184.713 219.943 185.211 219.572 185.736C218.85 186.757 218.054 187.884 217.368 188.691C216.12 190.159 215.019 191.761 213.817 193.511C213.744 193.618 213.67 193.725 213.596 193.833C213.073 194.593 212.305 195.367 211.79 195.885C211.682 195.994 211.584 196.092 211.503 196.176C211.206 196.483 210.993 196.72 210.839 196.923C210.695 197.112 210.658 197.199 210.658 197.199C210.656 197.204 210.652 197.214 210.646 197.234C210.637 197.26 210.627 197.293 210.612 197.338C210.606 197.357 210.599 197.379 210.591 197.404C210.568 197.479 210.537 197.577 210.507 197.668C210.433 197.894 210.301 198.29 210.114 198.67C210.022 198.858 209.862 199.157 209.616 199.461C209.407 199.719 208.872 200.314 207.948 200.572C206.801 200.894 205.77 200.516 205.105 199.984C204.561 199.547 204.271 199.029 204.133 198.752C203.459 197.404 203.895 195.792 205.094 194.953C205.626 193.642 206.6 192.615 207.191 192.004C207.41 191.778 207.597 191.587 207.76 191.422C208.207 190.968 208.463 190.708 208.652 190.434C208.738 190.309 208.824 190.183 208.911 190.056C210.074 188.362 211.34 186.518 212.796 184.805C213.337 184.169 213.822 183.478 214.4 182.654C214.801 182.081 215.248 181.445 215.789 180.718C216.422 179.868 217.183 178.904 218.076 178.031C217.895 177.933 217.73 177.845 217.575 177.762C217.542 177.745 217.511 177.729 217.479 177.712C217.47 177.707 217.46 177.702 217.448 177.695C217.319 177.627 217.027 177.473 216.812 177.327C214.881 176.011 212.862 174.696 210.814 173.361C206.916 170.821 202.91 168.211 199.188 165.391C197.868 164.391 197.608 162.509 198.609 161.189ZM219.821 179.187C219.82 179.187 219.816 179.182 219.809 179.174C219.817 179.182 219.821 179.187 219.821 179.187ZM209.487 196.046C209.491 196.054 209.495 196.061 209.499 196.069L209.498 196.067C209.496 196.062 209.492 196.055 209.487 196.046Z" fill="#88A7FF"/>
<path fill-rule="evenodd" clip-rule="evenodd" d="M247.609 274.189C248.609 272.868 250.491 272.608 251.812 273.609C255.382 276.314 259.05 278.702 262.818 281.155C264.887 282.502 266.987 283.868 269.116 285.317C269.141 285.331 269.196 285.361 269.295 285.414C269.321 285.428 269.35 285.443 269.38 285.458C269.55 285.549 269.776 285.669 270.019 285.803C270.581 286.111 271.352 286.557 272.056 287.079C272.617 287.496 273.714 288.365 274.211 289.653C274.515 290.441 274.633 291.496 274.15 292.57C273.704 293.562 272.926 294.159 272.297 294.509C271.577 294.909 270.703 295.822 269.601 297.302C269.294 297.713 268.943 298.211 268.572 298.736C267.85 299.757 267.054 300.884 266.368 301.691C265.12 303.159 264.019 304.761 262.817 306.511C262.744 306.618 262.67 306.725 262.596 306.833C262.073 307.593 261.305 308.367 260.79 308.885C260.682 308.994 260.584 309.092 260.503 309.176C260.206 309.483 259.993 309.72 259.839 309.923C259.695 310.112 259.658 310.199 259.658 310.199C259.656 310.204 259.652 310.214 259.646 310.234C259.637 310.26 259.627 310.293 259.612 310.338C259.606 310.357 259.599 310.379 259.591 310.404C259.568 310.479 259.537 310.577 259.507 310.668C259.433 310.894 259.301 311.29 259.114 311.67C259.022 311.858 258.862 312.157 258.616 312.461C258.407 312.719 257.872 313.314 256.948 313.572C255.801 313.894 254.77 313.516 254.105 312.984C253.561 312.547 253.271 312.029 253.133 311.752C252.459 310.404 252.895 308.792 254.094 307.953C254.626 306.642 255.6 305.615 256.191 305.004C256.41 304.778 256.597 304.587 256.76 304.422C257.207 303.968 257.463 303.708 257.652 303.434C257.738 303.309 257.824 303.183 257.911 303.056C259.074 301.362 260.34 299.518 261.796 297.805C262.337 297.169 262.822 296.478 263.4 295.654C263.801 295.081 264.248 294.445 264.789 293.718C265.422 292.868 266.183 291.904 267.076 291.031C266.895 290.933 266.73 290.845 266.575 290.762C266.542 290.745 266.511 290.729 266.479 290.712C266.47 290.707 266.46 290.702 266.448 290.695C266.319 290.627 266.027 290.473 265.812 290.327C263.881 289.011 261.862 287.696 259.814 286.361C255.916 283.821 251.91 281.211 248.188 278.391C246.868 277.391 246.608 275.509 247.609 274.189ZM268.821 292.187C268.82 292.187 268.816 292.182 268.809 292.174C268.817 292.182 268.821 292.187 268.821 292.187ZM258.487 309.046C258.491 309.054 258.495 309.061 258.499 309.069L258.498 309.067C258.496 309.062 258.492 309.055 258.487 309.046Z" fill="#88A7FF"/>
</svg>
